<?xml version="1.0" encoding="utf-8"?>
<!-- Generator: Adobe Illustrator 15.1.0, SVG Export Plug-In . SVG Version: 6.00 Build 0)  -->
<!DOCTYPE svg PUBLIC "-//W3C//DTD SVG 1.1//EN" "http://www.w3.org/Graphics/SVG/1.1/DTD/svg11.dtd">
<svg version="1.1" id="Capa_1" xmlns="http://www.w3.org/2000/svg" xmlns:xlink="http://www.w3.org/1999/xlink" x="0px" y="0px"
	 width="444.82px" height="444.82px" viewBox="0 0 444.82 444.82" enable-background="new 0 0 444.82 444.82" xml:space="preserve">
<g>
	<path fill="#FFFFFF" d="M352.025,196.712L165.884,10.848C159.029,3.615,150.469,0,140.187,0c-10.282,0-18.842,3.619-25.697,10.848
		L92.792,32.264c-7.044,7.043-10.566,15.604-10.566,25.692c0,9.897,3.521,18.56,10.566,25.981L231.544,222.41L92.786,361.167
		c-7.042,7.043-10.564,15.604-10.564,25.693c0,9.896,3.521,18.562,10.564,25.98l21.7,21.412
		c7.043,7.043,15.612,10.564,25.697,10.564c10.089,0,18.656-3.521,25.697-10.564L352.025,248.39
		c7.047-7.424,10.57-16.084,10.57-25.981C362.597,212.321,359.072,203.755,352.025,196.712z"/>
</g>
</svg>
