<?xml version="1.0" encoding="utf-8"?>
<!-- Generator: Adobe Illustrator 15.1.0, SVG Export Plug-In . SVG Version: 6.00 Build 0)  -->
<!DOCTYPE svg PUBLIC "-//W3C//DTD SVG 1.1//EN" "http://www.w3.org/Graphics/SVG/1.1/DTD/svg11.dtd">
<svg version="1.1" id="Capa_1" xmlns="http://www.w3.org/2000/svg" xmlns:xlink="http://www.w3.org/1999/xlink" x="0px" y="0px"
	 width="444.82px" height="444.82px" viewBox="0 0 444.82 444.82" enable-background="new 0 0 444.82 444.82" xml:space="preserve">
<g>
	<path fill="#FFFFFF" d="M82.222,222.409c0,9.897,3.523,18.557,10.57,25.981l186.145,185.863
		c7.041,7.043,15.608,10.564,25.697,10.564c10.085,0,18.654-3.521,25.697-10.564l21.699-21.412
		c7.043-7.418,10.564-16.084,10.564-25.98c0-10.089-3.521-18.65-10.564-25.693L213.273,222.41L352.025,83.937
		c7.045-7.421,10.566-16.084,10.566-25.981c0-10.088-3.521-18.649-10.566-25.692l-21.697-21.416C323.472,3.619,314.913,0,304.63,0
		c-10.281,0-18.842,3.615-25.697,10.848L92.792,196.712C85.746,203.755,82.22,212.321,82.222,222.409z"/>
</g>
</svg>
