<?xml version="1.0" encoding="utf-8"?>
<!-- Generator: Adobe Illustrator 15.1.0, SVG Export Plug-In . SVG Version: 6.00 Build 0)  -->
<!DOCTYPE svg PUBLIC "-//W3C//DTD SVG 1.1//EN" "http://www.w3.org/Graphics/SVG/1.1/DTD/svg11.dtd">
<svg version="1.1" id="Capa_1" xmlns="http://www.w3.org/2000/svg" xmlns:xlink="http://www.w3.org/1999/xlink" x="0px" y="0px"
	 width="444.82px" height="444.82px" viewBox="0 0 444.82 444.82" enable-background="new 0 0 444.82 444.82" xml:space="preserve">
<g>
	<g>
		<path d="M191.447,222.409c0,9.897,3.523,18.557,10.57,25.981l146.145,185.863c7.041,7.043,15.607,10.564,25.697,10.564
			c10.084,0,18.654-3.521,25.697-10.564l21.699-21.412c7.043-7.418,10.564-16.084,10.564-25.98c0-10.089-3.522-18.65-10.564-25.693
			L322.498,222.41L421.25,83.937c7.045-7.421,10.566-16.084,10.566-25.981c0-10.088-3.522-18.649-10.566-25.692l-21.698-21.416
			C392.697,3.619,384.136,0,373.855,0c-10.282,0-18.842,3.615-25.697,10.848L202.017,196.712
			C194.97,203.755,191.445,212.321,191.447,222.409z"/>
	</g>
	<g>
		<path d="M13,222.409c0,9.897,3.523,18.557,10.57,25.981l146.145,185.863c7.041,7.043,15.607,10.564,25.697,10.564
			c10.084,0,18.654-3.521,25.697-10.564l21.699-21.412c7.043-7.418,10.564-16.084,10.564-25.98c0-10.089-3.521-18.65-10.564-25.693
			L144.05,222.41l98.752-138.473c7.045-7.421,10.566-16.084,10.566-25.981c0-10.088-3.521-18.649-10.566-25.692l-21.697-21.416
			C214.25,3.619,205.689,0,195.408,0s-18.842,3.615-25.697,10.848L23.57,196.712C16.523,203.755,12.998,212.321,13,222.409z"/>
	</g>
</g>
</svg>
