<?xml version="1.0" encoding="utf-8"?>
<!-- Generator: Adobe Illustrator 15.1.0, SVG Export Plug-In . SVG Version: 6.00 Build 0)  -->
<!DOCTYPE svg PUBLIC "-//W3C//DTD SVG 1.1//EN" "http://www.w3.org/Graphics/SVG/1.1/DTD/svg11.dtd">
<svg version="1.1" id="Layer_1" xmlns="http://www.w3.org/2000/svg" xmlns:xlink="http://www.w3.org/1999/xlink" x="0px" y="0px"
	 width="235.102px" height="102.092px" viewBox="0 0 235.102 102.092" enable-background="new 0 0 235.102 102.092"
	 xml:space="preserve">
<g>
	
		<polyline fill="none" stroke="#F15732" stroke-width="2" stroke-linecap="round" stroke-linejoin="round" stroke-miterlimit="10" points="
		0.242,34.539 18.256,62.584 36.269,49.811 54.283,14.268 72.296,34.539 90.31,48.032 108.323,5.59 126.338,34.563 145.034,34.539 
		162.806,62.584 181.061,49.811 199.075,14.268 217.088,34.539 235.102,66.408 	"/>
	
		<polyline fill="none" stroke="#A8C4E5" stroke-width="2" stroke-linecap="round" stroke-linejoin="round" stroke-miterlimit="10" points="
		234.86,86.355 216.846,67.117 198.831,98.043 180.82,72.125 162.806,80.523 144.792,63.898 126.779,92.188 108.764,57.154 
		90.068,86.355 72.054,57.928 54.04,88.855 36.027,72.125 18.014,80.523 0,63.898 	"/>
</g>
</svg>
