<?xml version="1.0" encoding="utf-8"?>
<!-- Generator: Adobe Illustrator 15.1.0, SVG Export Plug-In . SVG Version: 6.00 Build 0)  -->
<!DOCTYPE svg PUBLIC "-//W3C//DTD SVG 1.1//EN" "http://www.w3.org/Graphics/SVG/1.1/DTD/svg11.dtd">
<svg version="1.1" id="Layer_1" xmlns="http://www.w3.org/2000/svg" xmlns:xlink="http://www.w3.org/1999/xlink" x="0px" y="0px"
	 width="235.102px" height="102.092px" viewBox="0 0 235.102 102.092" enable-background="new 0 0 235.102 102.092"
	 xml:space="preserve">
<g>
	
		<polyline fill="none" stroke="#2DB674" stroke-width="2" stroke-linecap="round" stroke-linejoin="round" stroke-miterlimit="10" points="
		1.24,70.198 19.101,40.267 36.96,53.899 54.821,91.833 72.681,70.198 90.541,36.185 108.402,101.092 126.264,79.977 144.8,70.198 
		162.421,40.267 180.521,53.899 198.382,91.833 216.241,70.198 234.102,36.185 	"/>
	
		<polyline fill="none" stroke="#EF4062" stroke-width="2" stroke-linecap="round" stroke-linejoin="round" stroke-miterlimit="10" points="
		1,41.971 18.86,11.632 36.722,44.638 54.58,26.784 72.441,35.747 90.302,18.003 108.163,48.194 126.023,1 144.561,41.971 
		162.421,11.632 180.282,44.638 198.142,26.784 216.001,35.747 233.861,18.003 	"/>
</g>
</svg>
