<?xml version="1.0" encoding="utf-8"?>
<!-- Generator: Adobe Illustrator 16.0.0, SVG Export Plug-In . SVG Version: 6.00 Build 0)  -->
<!DOCTYPE svg PUBLIC "-//W3C//DTD SVG 1.1//EN" "http://www.w3.org/Graphics/SVG/1.1/DTD/svg11.dtd">
<svg version="1.1" id="katman_1" xmlns="http://www.w3.org/2000/svg" xmlns:xlink="http://www.w3.org/1999/xlink" x="0px" y="0px"
	 width="405px" height="242.652px" viewBox="0 0 405 242.652" enable-background="new 0 0 405 242.652" xml:space="preserve">
<g>
	<g>
		<g>
			<g>
				<g>
					<g>
						<path fill="#FFFFFF" d="M344.502,20.101c1.125,0,2.047,0.922,2.047,2.047V44.16c0,1.126-0.922,2.047-2.047,2.047h-29.178
							c-1.127,0-2.539-0.78-3.137-1.734l-6.014-9.584c-0.598-0.955-0.598-2.515,0-3.469l6.014-9.583
							c0.598-0.955,2.01-1.735,3.137-1.735H344.502z"/>
					</g>
				</g>
			</g>
			<g>
				<g>
					<g>
						<path fill="#312E2E" d="M344.502,47.129h-29.178c-1.436,0-3.156-0.952-3.918-2.167l-6.014-9.583
							c-0.779-1.248-0.779-3.202,0-4.448l6.014-9.585c0.762-1.215,2.482-2.167,3.918-2.167h29.178c1.635,0,2.969,1.333,2.969,2.969
							V44.16C347.471,45.796,346.137,47.129,344.502,47.129z M315.325,21.023c-0.807,0-1.928,0.62-2.354,1.301l-6.016,9.585
							c-0.408,0.65-0.408,1.838,0,2.491l6.016,9.583c0.426,0.683,1.547,1.303,2.354,1.303h29.178c0.621,0,1.125-0.505,1.125-1.126
							V22.148c0-0.621-0.504-1.125-1.125-1.125H315.325z"/>
					</g>
				</g>
			</g>
		</g>
		<g>
			<g>
				<g>
					<path fill="#312E2E" d="M315.067,37.403c-2.342,0-4.248-1.906-4.248-4.249s1.906-4.249,4.248-4.249
						c2.344,0,4.25,1.906,4.25,4.249S317.411,37.403,315.067,37.403z M315.067,30.749c-1.326,0-2.404,1.079-2.404,2.405
						s1.078,2.405,2.404,2.405c1.328,0,2.406-1.079,2.406-2.405S316.395,30.749,315.067,30.749z"/>
				</g>
			</g>
		</g>
		<g>
			<g>
				<g>
					<path fill="#312E2E" d="M315.067,34.076h-35.83c-0.51,0-0.922-0.413-0.922-0.922s0.412-0.922,0.922-0.922h35.83
						c0.51,0,0.924,0.413,0.924,0.922S315.577,34.076,315.067,34.076z"/>
				</g>
			</g>
		</g>
		<g>
			<g>
				<g>
					<path fill="#312E2E" d="M292.161,47.385H261c-0.51,0-0.922-0.414-0.922-0.922c0-0.509,0.412-0.922,0.922-0.922h31.16
						c1.326,0,2.406-1.079,2.406-2.406c0-1.326-1.08-2.405-2.406-2.405h-12.924c-2.344,0-4.25-1.906-4.25-4.249
						c0-2.342,1.906-4.249,4.25-4.249c0.508,0,0.92,0.413,0.92,0.922s-0.412,0.922-0.92,0.922c-1.328,0-2.406,1.079-2.406,2.405
						s1.078,2.406,2.406,2.406h12.924c2.344,0,4.248,1.906,4.248,4.249C296.409,45.479,294.504,47.385,292.161,47.385z"/>
				</g>
			</g>
		</g>
	</g>
	<g>
		<g>
			<g>
				<path fill="#312E2E" d="M292.237,11.239h-2.305c-0.566,0-1.023-0.458-1.023-1.024s0.457-1.024,1.023-1.024h2.305
					c0.564,0,1.023,0.458,1.023,1.024S292.801,11.239,292.237,11.239z"/>
			</g>
		</g>
	</g>
	<g>
		<g>
			<g>
				<path fill="#312E2E" d="M303.37,11.239h-6.398c-0.566,0-1.023-0.458-1.023-1.024s0.457-1.024,1.023-1.024h6.398
					c0.566,0,1.023,0.458,1.023,1.024S303.936,11.239,303.37,11.239z"/>
			</g>
		</g>
	</g>
	<g opacity="0.5">
		<g>
			<g>
				<g>
					<path fill="#52BDBD" d="M364.702,230.201H152.692c-4.807,0-8.702-3.896-8.702-8.701c0-4.807,3.895-8.703,8.702-8.703h212.009
						c1.977,0,3.584-1.607,3.584-3.582v-81.902c0-4.807,3.896-8.702,8.701-8.702c4.807,0,8.703,3.896,8.703,8.702v81.902
						C385.69,220.787,376.274,230.201,364.702,230.201z"/>
				</g>
			</g>
		</g>
	</g>
	<g>
		<g>
			<g>
				<path fill="#312E2E" d="M53.317,79.421c-0.005,0-0.011,0-0.016,0c-1.401-0.021-2.811-0.117-4.19-0.283
					c-0.561-0.068-0.961-0.578-0.893-1.14c0.068-0.562,0.577-0.961,1.139-0.894c1.308,0.157,2.646,0.249,3.975,0.268
					c0.566,0.009,1.017,0.475,1.008,1.04C54.333,78.974,53.875,79.421,53.317,79.421z M59.437,79.036
					c-0.501,0-0.939-0.369-1.012-0.88c-0.08-0.56,0.31-1.078,0.87-1.158c1.308-0.186,2.622-0.446,3.907-0.771
					c0.543-0.134,1.104,0.194,1.244,0.741c0.138,0.547-0.193,1.105-0.742,1.245c-1.355,0.343-2.742,0.617-4.122,0.814
					C59.535,79.033,59.486,79.036,59.437,79.036z M43.223,77.931c-0.094,0-0.188-0.013-0.283-0.04
					c-1.342-0.385-2.678-0.847-3.972-1.372c-0.523-0.213-0.776-0.81-0.562-1.333c0.212-0.524,0.806-0.776,1.334-0.564
					c1.224,0.498,2.491,0.936,3.765,1.302c0.544,0.156,0.858,0.723,0.702,1.267C44.077,77.639,43.667,77.931,43.223,77.931z
					 M69.261,76.266c-0.396,0-0.773-0.231-0.94-0.617c-0.225-0.519,0.014-1.122,0.533-1.347c1.217-0.526,2.416-1.123,3.566-1.772
					c0.494-0.275,1.118-0.103,1.396,0.388c0.278,0.493,0.104,1.117-0.388,1.396c-1.211,0.685-2.477,1.313-3.761,1.869
					C69.535,76.239,69.396,76.266,69.261,76.266z M33.868,73.84c-0.181,0-0.363-0.048-0.53-0.148
					c-1.189-0.722-2.357-1.518-3.472-2.366c-0.45-0.343-0.537-0.985-0.194-1.435c0.343-0.45,0.984-0.538,1.435-0.195
					c1.057,0.804,2.165,1.56,3.293,2.243c0.484,0.293,0.638,0.923,0.345,1.407C34.553,73.664,34.214,73.84,33.868,73.84z
					 M78.009,71.015c-0.301,0-0.6-0.132-0.802-0.386c-0.352-0.442-0.279-1.087,0.164-1.439c1.035-0.825,2.039-1.713,2.982-2.642
					c0.403-0.396,1.052-0.392,1.448,0.012c0.397,0.403,0.391,1.051-0.012,1.448c-0.995,0.979-2.052,1.916-3.143,2.784
					C78.458,70.942,78.233,71.015,78.009,71.015z M25.914,67.445c-0.271,0-0.539-0.106-0.741-0.317
					c-0.966-1.012-1.886-2.083-2.736-3.186c-0.345-0.447-0.263-1.089,0.185-1.436c0.448-0.343,1.091-0.262,1.437,0.186
					c0.806,1.044,1.679,2.062,2.596,3.022c0.39,0.409,0.375,1.057-0.034,1.448C26.422,67.351,26.167,67.445,25.914,67.445z
					 M85.089,63.667c-0.211,0-0.424-0.064-0.607-0.2c-0.455-0.336-0.552-0.977-0.216-1.432c0.785-1.064,1.522-2.185,2.192-3.327
					c0.285-0.489,0.912-0.653,1.4-0.367c0.488,0.286,0.652,0.913,0.366,1.4c-0.705,1.206-1.483,2.385-2.312,3.509
					C85.713,63.523,85.403,63.667,85.089,63.667z M19.897,59.205c-0.363,0-0.715-0.193-0.9-0.534
					c-0.669-1.229-1.279-2.503-1.811-3.791c-0.216-0.522,0.033-1.121,0.556-1.337c0.524-0.217,1.121,0.033,1.337,0.556
					c0.504,1.218,1.081,2.427,1.716,3.591c0.27,0.497,0.087,1.119-0.41,1.389C20.231,59.165,20.062,59.205,19.897,59.205z
					 M90.012,54.723c-0.124,0-0.248-0.021-0.37-0.068c-0.528-0.206-0.79-0.798-0.584-1.326c0.479-1.234,0.898-2.508,1.242-3.785
					c0.147-0.546,0.708-0.868,1.255-0.722c0.546,0.148,0.868,0.71,0.721,1.255c-0.363,1.346-0.805,2.689-1.311,3.994
					C90.809,54.475,90.422,54.723,90.012,54.723z M16.246,49.676c-0.463,0-0.884-0.316-0.995-0.788
					c-0.321-1.357-0.574-2.747-0.751-4.133c-0.071-0.561,0.325-1.073,0.887-1.145c0.558-0.06,1.073,0.324,1.145,0.887
					c0.167,1.314,0.407,2.632,0.711,3.919c0.13,0.55-0.21,1.102-0.76,1.232C16.402,49.667,16.323,49.676,16.246,49.676z
					 M92.412,44.803c-0.036,0-0.072-0.002-0.108-0.006c-0.562-0.059-0.97-0.562-0.912-1.125c0.138-1.312,0.208-2.65,0.208-3.979
					c0-0.566,0.458-1.024,1.023-1.024s1.024,0.458,1.024,1.024c0,1.399-0.074,2.81-0.218,4.193
					C93.374,44.412,92.93,44.803,92.412,44.803z M15.223,39.523c-0.01,0-0.02,0-0.031,0c-0.565-0.019-1.009-0.49-0.993-1.055
					c0.042-1.397,0.16-2.806,0.347-4.185c0.075-0.561,0.586-0.952,1.152-0.877c0.56,0.077,0.953,0.592,0.876,1.152
					c-0.178,1.31-0.288,2.646-0.328,3.971C16.229,39.085,15.774,39.523,15.223,39.523z M92.444,36.971
					c-0.522,0-0.968-0.396-1.018-0.926c-0.128-1.322-0.326-2.648-0.59-3.94c-0.114-0.554,0.244-1.095,0.798-1.208
					c0.552-0.113,1.094,0.243,1.208,0.798c0.278,1.363,0.487,2.761,0.622,4.154c0.054,0.562-0.358,1.062-0.92,1.116
					C92.51,36.97,92.476,36.971,92.444,36.971z M16.87,29.453c-0.099,0-0.2-0.014-0.298-0.044c-0.542-0.164-0.847-0.736-0.683-1.278
					c0.405-1.333,0.888-2.663,1.434-3.949c0.221-0.521,0.823-0.761,1.343-0.543c0.52,0.221,0.762,0.821,0.542,1.342
					c-0.518,1.22-0.975,2.479-1.358,3.745C17.714,29.167,17.309,29.453,16.87,29.453z M90.135,27.031
					c-0.413,0-0.803-0.251-0.958-0.662c-0.468-1.237-1.008-2.463-1.605-3.645c-0.255-0.505-0.052-1.121,0.452-1.376
					c0.505-0.256,1.121-0.051,1.376,0.452c0.629,1.247,1.199,2.541,1.692,3.846c0.2,0.529-0.066,1.12-0.595,1.32
					C90.378,27.01,90.256,27.031,90.135,27.031z M21.104,20.165c-0.186,0-0.374-0.052-0.543-0.157
					c-0.479-0.3-0.623-0.932-0.323-1.411c0.741-1.18,1.554-2.335,2.418-3.436c0.349-0.445,0.993-0.524,1.438-0.172
					c0.444,0.349,0.521,0.993,0.172,1.438c-0.82,1.044-1.592,2.141-2.293,3.259C21.778,19.995,21.445,20.165,21.104,20.165z
					 M85.297,18.049c-0.318,0-0.631-0.147-0.831-0.424c-0.774-1.07-1.616-2.113-2.502-3.101c-0.378-0.421-0.343-1.068,0.078-1.446
					c0.422-0.378,1.07-0.341,1.446,0.078c0.934,1.042,1.822,2.141,2.638,3.269c0.332,0.458,0.229,1.098-0.229,1.43
					C85.715,17.986,85.505,18.049,85.297,18.049z M27.62,12.307c-0.273,0-0.549-0.11-0.75-0.328
					c-0.384-0.416-0.359-1.063,0.055-1.447c1.022-0.946,2.108-1.849,3.228-2.688c0.454-0.341,1.095-0.245,1.434,0.207
					c0.338,0.453,0.246,1.094-0.208,1.433c-1.062,0.794-2.093,1.653-3.062,2.55C28.119,12.217,27.87,12.307,27.62,12.307z
					 M78.28,10.636c-0.227,0-0.455-0.075-0.645-0.229c-1.027-0.834-2.113-1.623-3.223-2.344c-0.474-0.307-0.608-0.941-0.3-1.417
					c0.308-0.475,0.941-0.609,1.416-0.301c1.169,0.76,2.313,1.592,3.397,2.471c0.44,0.356,0.507,1.001,0.151,1.44
					C78.873,10.508,78.578,10.636,78.28,10.636z M35.953,6.418c-0.369,0-0.725-0.199-0.907-0.548c-0.264-0.501-0.07-1.12,0.43-1.382
					c1.234-0.647,2.519-1.237,3.819-1.752c0.524-0.209,1.12,0.05,1.328,0.575c0.208,0.526-0.048,1.121-0.575,1.329
					c-1.233,0.488-2.451,1.048-3.621,1.662C36.276,6.381,36.114,6.418,35.953,6.418z M69.575,5.306c-0.139,0-0.28-0.028-0.414-0.087
					c-1.214-0.537-2.467-1.014-3.724-1.417c-0.539-0.173-0.835-0.749-0.663-1.288c0.172-0.538,0.746-0.834,1.288-0.662
					c1.327,0.425,2.648,0.928,3.927,1.495c0.518,0.229,0.752,0.833,0.522,1.35C70.341,5.079,69.967,5.306,69.575,5.306z
					 M45.536,2.917c-0.47,0-0.893-0.325-0.998-0.803c-0.122-0.552,0.226-1.099,0.778-1.221c1.363-0.301,2.757-0.532,4.146-0.686
					c0.558-0.056,1.068,0.342,1.129,0.905c0.062,0.562-0.342,1.068-0.904,1.131c-1.316,0.146-2.637,0.365-3.929,0.65
					C45.684,2.909,45.61,2.917,45.536,2.917z M59.779,2.448c-0.051,0-0.102-0.004-0.154-0.012c-1.311-0.198-2.646-0.329-3.967-0.389
					c-0.564-0.026-1.002-0.505-0.976-1.07c0.026-0.565,0.512-1.008,1.07-0.976c1.393,0.064,2.798,0.202,4.179,0.41
					c0.558,0.085,0.944,0.607,0.859,1.167C60.713,2.084,60.277,2.448,59.779,2.448z"/>
			</g>
		</g>
	</g>
	<g>
		<g>
			<g>
				<circle fill="#52BDBD" cx="231.567" cy="155.595" r="28.019"/>
			</g>
		</g>
	</g>
	<g opacity="0.5">
		<g>
			<g>
				<circle fill="#F5F5F5" cx="36.478" cy="77.061" r="28.02"/>
			</g>
		</g>
	</g>
	<g>
		<g>
			<g>
				<g>
					<path fill="#52BDBD" d="M87.456,232.674c-15.797,0-30.626-7.097-40.685-19.474c-2.318-2.852-1.885-7.042,0.967-9.361
						c2.851-2.316,7.042-1.886,9.361,0.967c7.521,9.252,18.585,14.559,30.357,14.559c21.616,0,39.202-17.682,39.202-39.414V83.716
						c0-3.675,2.979-6.655,6.654-6.655c3.676,0,6.656,2.979,6.656,6.655v96.235C139.968,209.023,116.411,232.674,87.456,232.674z"/>
				</g>
			</g>
		</g>
	</g>
	<g>
		<g>
			<g>
				<g>
					<path fill="#312E2E" d="M51.935,210.028c-0.297,0-0.592-0.13-0.794-0.378c-0.44-0.541-0.868-1.091-1.284-1.65
						c-0.338-0.454-0.242-1.096,0.212-1.434c0.454-0.336,1.095-0.242,1.432,0.211c0.398,0.536,0.808,1.064,1.228,1.581
						c0.358,0.438,0.29,1.084-0.148,1.44C52.391,209.953,52.163,210.028,51.935,210.028z"/>
				</g>
			</g>
		</g>
		<g>
			<g>
				<g>
					<path fill="#312E2E" d="M48.413,205.063c-0.344,0-0.68-0.173-0.872-0.487c-0.722-1.172-1.397-2.387-2.011-3.613
						c-0.252-0.506-0.048-1.121,0.458-1.373c0.507-0.252,1.121-0.049,1.374,0.457c0.586,1.174,1.233,2.334,1.923,3.455
						c0.296,0.482,0.146,1.113-0.336,1.409C48.782,205.014,48.597,205.063,48.413,205.063z M44.798,197.835
						c-0.408,0-0.793-0.245-0.952-0.648c-0.504-1.275-0.957-2.59-1.348-3.908c-0.16-0.543,0.15-1.111,0.691-1.272
						c0.543-0.163,1.113,0.149,1.272,0.69c0.374,1.262,0.807,2.52,1.287,3.738c0.209,0.527-0.05,1.121-0.576,1.328
						C45.05,197.812,44.924,197.835,44.798,197.835z M42.505,190.088c-0.477,0-0.904-0.335-1.002-0.821
						c-0.271-1.347-0.486-2.721-0.638-4.085c-0.062-0.562,0.342-1.067,0.903-1.13c0.56-0.061,1.068,0.342,1.131,0.904
						c0.145,1.305,0.351,2.618,0.611,3.904c0.111,0.556-0.248,1.096-0.802,1.207C42.64,190.082,42.572,190.088,42.505,190.088z
						 M41.611,182.059c-0.554,0-1.01-0.443-1.023-1.001c-0.009-0.368-0.013-0.738-0.013-1.107v-2.961
						c0-0.566,0.458-1.023,1.024-1.023s1.023,0.457,1.023,1.023v2.961c0,0.354,0.004,0.707,0.012,1.061
						c0.015,0.564-0.434,1.033-1,1.048C41.627,182.059,41.619,182.059,41.611,182.059z M41.599,173.968
						c-0.566,0-1.024-0.459-1.024-1.024v-4.046c0-0.566,0.458-1.023,1.024-1.023s1.023,0.457,1.023,1.023v4.046
						C42.622,173.509,42.165,173.968,41.599,173.968z M41.599,165.875c-0.566,0-1.024-0.458-1.024-1.024v-4.046
						c0-0.565,0.458-1.023,1.024-1.023s1.023,0.458,1.023,1.023v4.046C42.622,165.417,42.165,165.875,41.599,165.875z
						 M41.599,157.783c-0.566,0-1.024-0.457-1.024-1.023v-4.046c0-0.565,0.458-1.024,1.024-1.024s1.023,0.459,1.023,1.024v4.046
						C42.622,157.326,42.165,157.783,41.599,157.783z M41.599,149.691c-0.566,0-1.024-0.458-1.024-1.023v-4.047
						c0-0.565,0.458-1.023,1.024-1.023s1.023,0.458,1.023,1.023v4.047C42.622,149.233,42.165,149.691,41.599,149.691z
						 M41.599,141.599c-0.566,0-1.024-0.458-1.024-1.023v-4.047c0-0.566,0.458-1.023,1.024-1.023s1.023,0.457,1.023,1.023v4.047
						C42.622,141.141,42.165,141.599,41.599,141.599z M41.599,133.507c-0.566,0-1.024-0.459-1.024-1.024v-4.046
						c0-0.566,0.458-1.024,1.024-1.024s1.023,0.458,1.023,1.024v4.046C42.622,133.048,42.165,133.507,41.599,133.507z
						 M41.599,125.414c-0.566,0-1.024-0.457-1.024-1.023v-4.045c0-0.566,0.458-1.024,1.024-1.024s1.023,0.458,1.023,1.024v4.045
						C42.622,124.957,42.165,125.414,41.599,125.414z M41.599,117.322c-0.566,0-1.024-0.458-1.024-1.024v-4.046
						c0-0.565,0.458-1.023,1.024-1.023s1.023,0.458,1.023,1.023v4.046C42.622,116.864,42.165,117.322,41.599,117.322z
						 M41.599,109.23c-0.566,0-1.024-0.458-1.024-1.024v-4.046c0-0.566,0.458-1.024,1.024-1.024s1.023,0.458,1.023,1.024v4.046
						C42.622,108.772,42.165,109.23,41.599,109.23z"/>
				</g>
			</g>
		</g>
		<g>
			<g>
				<g>
					<path fill="#312E2E" d="M41.599,101.12c-0.566,0-1.024-0.458-1.024-1.023v-2.048c0-0.565,0.458-1.023,1.024-1.023
						s1.023,0.458,1.023,1.023v2.048C42.622,100.662,42.165,101.12,41.599,101.12z"/>
				</g>
			</g>
		</g>
	</g>
	<g id="XMLID_18_">
		<g>
			<g>
				<g>
					<path fill="#F5F5F5" d="M405.606,89.559v42.642h-73.875V89.559H405.606z M352.829,114.736V95.614H338.09v19.122H352.829z"/>
				</g>
			</g>
			<g>
				<g>
					<path fill="#F9B03D" d="M405.606,81.687v7.872h-73.875v-7.872H405.606z M400.883,85.78c0-0.835-0.678-1.501-1.502-1.501
						c-0.836,0-1.514,0.666-1.514,1.501c0,0.836,0.678,1.514,1.514,1.514C400.206,87.293,400.883,86.616,400.883,85.78z
						 M396.764,85.78c0-0.835-0.666-1.501-1.502-1.501c-0.834,0-1.5,0.666-1.5,1.501c0,0.836,0.666,1.514,1.5,1.514
						C396.098,87.293,396.764,86.616,396.764,85.78z M392.502,85.78c0-0.835-0.678-1.501-1.502-1.501
						c-0.836,0-1.514,0.666-1.514,1.501c0,0.836,0.678,1.514,1.514,1.514C391.825,87.293,392.502,86.616,392.502,85.78z"/>
				</g>
			</g>
			<g>
				<g>
					<path fill="#312E2E" d="M399.381,84.279c0.824,0,1.502,0.666,1.502,1.501c0,0.836-0.678,1.514-1.502,1.514
						c-0.836,0-1.514-0.678-1.514-1.514C397.868,84.944,398.545,84.279,399.381,84.279z"/>
				</g>
			</g>
			<g>
				<g>
					<path fill="#312E2E" d="M395.262,84.279c0.836,0,1.502,0.666,1.502,1.501c0,0.836-0.666,1.514-1.502,1.514
						c-0.834,0-1.5-0.678-1.5-1.514C393.762,84.944,394.428,84.279,395.262,84.279z"/>
				</g>
			</g>
			<g>
				<g>
					<path fill="#312E2E" d="M391,84.279c0.824,0,1.502,0.666,1.502,1.501c0,0.836-0.678,1.514-1.502,1.514
						c-0.836,0-1.514-0.678-1.514-1.514C389.487,84.944,390.165,84.279,391,84.279z"/>
				</g>
			</g>
			<g>
				<g>
					<rect x="338.09" y="95.614" fill="#52BDBD" width="14.738" height="19.122"/>
				</g>
			</g>
		</g>
		<g>
			<g>
				<g>
					<path fill="#312E2E" d="M405.606,133.123h-73.875c-0.508,0-0.92-0.414-0.92-0.922V81.687c0-0.509,0.412-0.921,0.92-0.921
						h73.875c0.508,0,0.922,0.413,0.922,0.921v50.514C406.528,132.708,406.114,133.123,405.606,133.123z M332.653,131.279h72.031
						v-48.67h-72.031V131.279z"/>
				</g>
			</g>
			<g>
				<g>
					<path fill="#312E2E" d="M405.606,90.48h-73.875c-0.508,0-0.92-0.413-0.92-0.921c0-0.509,0.412-0.922,0.92-0.922h73.875
						c0.508,0,0.922,0.413,0.922,0.922C406.528,90.067,406.114,90.48,405.606,90.48z"/>
				</g>
			</g>
			<g>
				<g>
					<path fill="#312E2E" d="M352.829,115.759H338.09c-0.566,0-1.023-0.458-1.023-1.023V95.614c0-0.565,0.457-1.024,1.023-1.024
						h14.738c0.566,0,1.023,0.458,1.023,1.024v19.122C353.852,115.302,353.395,115.759,352.829,115.759z M339.114,113.712h12.691
						V96.638h-12.691V113.712z"/>
				</g>
			</g>
			<g>
				<g>
					<path fill="#312E2E" d="M400.459,96.536h-40.775c-0.51,0-0.924-0.413-0.924-0.922c0-0.509,0.414-0.921,0.924-0.921h40.775
						c0.51,0,0.922,0.413,0.922,0.921C401.381,96.123,400.969,96.536,400.459,96.536z"/>
				</g>
			</g>
			<g>
				<g>
					<path fill="#312E2E" d="M400.459,100.968h-40.775c-0.51,0-0.924-0.413-0.924-0.922s0.414-0.922,0.924-0.922h40.775
						c0.51,0,0.922,0.413,0.922,0.922S400.969,100.968,400.459,100.968z"/>
				</g>
			</g>
			<g>
				<g>
					<path fill="#312E2E" d="M400.459,105.812h-40.775c-0.51,0-0.924-0.413-0.924-0.921c0-0.509,0.414-0.922,0.924-0.922h40.775
						c0.51,0,0.922,0.413,0.922,0.922C401.381,105.399,400.969,105.812,400.459,105.812z"/>
				</g>
			</g>
			<g>
				<g>
					<path fill="#312E2E" d="M400.459,110.657h-40.775c-0.51,0-0.924-0.414-0.924-0.923c0-0.508,0.414-0.921,0.924-0.921h40.775
						c0.51,0,0.922,0.413,0.922,0.921C401.381,110.244,400.969,110.657,400.459,110.657z"/>
				</g>
			</g>
			<g>
				<g>
					<path fill="#312E2E" d="M400.459,115.5h-40.775c-0.51,0-0.924-0.413-0.924-0.922c0-0.509,0.414-0.922,0.924-0.922h40.775
						c0.51,0,0.922,0.413,0.922,0.922C401.381,115.088,400.969,115.5,400.459,115.5z"/>
				</g>
			</g>
			<g>
				<g>
					<path fill="#312E2E" d="M400.459,120.345H338.09c-0.508,0-0.92-0.414-0.92-0.922c0-0.509,0.412-0.922,0.92-0.922h62.369
						c0.51,0,0.922,0.413,0.922,0.922C401.381,119.931,400.969,120.345,400.459,120.345z"/>
				</g>
			</g>
			<g>
				<g>
					<path fill="#312E2E" d="M400.459,125.189H338.09c-0.508,0-0.92-0.413-0.92-0.922c0-0.51,0.412-0.922,0.92-0.922h62.369
						c0.51,0,0.922,0.412,0.922,0.922C401.381,124.776,400.969,125.189,400.459,125.189z"/>
				</g>
			</g>
		</g>
	</g>
	<g>
		<g>
			<g>
				<g>
					<circle fill="#F2F2F2" cx="317.048" cy="160.343" r="20.231"/>
				</g>
			</g>
			<g>
				<g>
					<path fill="#312E2E" d="M317.049,181.496c-11.664,0-21.152-9.49-21.152-21.152c0-11.664,9.488-21.154,21.152-21.154
						s21.152,9.49,21.152,21.154C338.202,172.005,328.713,181.496,317.049,181.496z M317.049,141.033
						c-10.648,0-19.311,8.662-19.311,19.311c0,10.646,8.662,19.309,19.311,19.309c10.646,0,19.311-8.662,19.311-19.309
						C336.36,149.695,327.696,141.033,317.049,141.033z"/>
				</g>
			</g>
		</g>
		<g>
			<g>
				<g>
					<g>
						
							<path fill="#F39323" stroke="#312E2E" stroke-width="2" stroke-linecap="round" stroke-linejoin="round" stroke-miterlimit="10" d="
							M311.286,173.158"/>
					</g>
				</g>
			</g>
			<g>
				<g>
					<g>
						<polygon fill="#F39323" points="306.442,163.712 311.286,173.158 316.006,163.712 313.655,163.712 313.655,147.527 
							308.793,147.527 308.793,163.712 						"/>
					</g>
				</g>
				<g>
					<g>
						<path fill="#312E2E" d="M311.286,174.181c-0.383,0-0.736-0.215-0.91-0.557l-4.842-9.444c-0.164-0.317-0.15-0.697,0.035-1.001
							c0.186-0.305,0.518-0.49,0.873-0.49h1.326v-15.162c0-0.564,0.459-1.023,1.025-1.023h4.861c0.566,0,1.023,0.459,1.023,1.023
							v15.162h1.328c0.355,0,0.686,0.184,0.873,0.486c0.186,0.301,0.203,0.678,0.043,0.996l-4.721,9.444
							c-0.172,0.345-0.523,0.563-0.91,0.565C311.29,174.181,311.288,174.181,311.286,174.181z M308.118,164.737l3.158,6.155
							l3.074-6.155h-0.695c-0.564,0-1.021-0.458-1.021-1.024v-15.161h-2.816v15.161c0,0.566-0.459,1.024-1.023,1.024H308.118z"/>
					</g>
				</g>
			</g>
		</g>
		<g>
			<g>
				<g>
					<g>
						
							<path fill="none" stroke="#312E2E" stroke-width="1.8" stroke-linecap="round" stroke-linejoin="round" stroke-miterlimit="10" d="
							M323.295,147.525"/>
					</g>
				</g>
			</g>
			<g>
				<g>
					<g>
						<path fill="#312E2E" d="M325.786,174.079h-4.863c-0.506,0-0.92-0.413-0.92-0.922V157.89h-1.428
							c-0.32,0-0.617-0.166-0.785-0.438s-0.182-0.609-0.039-0.896l4.721-9.443c0.156-0.311,0.473-0.508,0.82-0.51
							c0.363,0.037,0.666,0.193,0.822,0.502l4.844,9.442c0.148,0.286,0.135,0.626-0.033,0.901c-0.166,0.273-0.465,0.441-0.787,0.441
							h-1.43v15.267C326.708,173.666,326.297,174.079,325.786,174.079z M321.846,172.235h3.02v-15.267
							c0-0.509,0.412-0.922,0.92-0.922h0.846l-3.324-6.48l-3.242,6.48h0.857c0.512,0,0.924,0.413,0.924,0.922V172.235z"/>
					</g>
				</g>
			</g>
		</g>
	</g>
	<g>
		<g>
			<g>
				<path fill="#312E2E" d="M348.713,196.644c-1.352,0-2.066-0.83-2.539-1.381c-0.438-0.504-0.609-0.667-0.99-0.667
					c-0.379,0-0.553,0.163-0.988,0.667c-0.473,0.551-1.188,1.381-2.539,1.381c-1.35,0-2.066-0.831-2.537-1.381
					c-0.434-0.504-0.605-0.667-0.986-0.667c-0.379,0-0.551,0.163-0.984,0.667c-0.473,0.55-1.186,1.381-2.537,1.381
					s-2.064-0.831-2.537-1.381c-0.434-0.504-0.605-0.667-0.984-0.667c-0.377,0-0.549,0.163-0.982,0.667
					c-0.473,0.55-1.186,1.381-2.535,1.381s-2.064-0.831-2.537-1.381c-0.436-0.504-0.607-0.667-0.984-0.667
					c-0.379,0-0.551,0.163-0.984,0.667c-0.473,0.55-1.188,1.381-2.537,1.381s-2.064-0.831-2.537-1.381
					c-0.434-0.504-0.604-0.667-0.982-0.667c-0.566,0-1.025-0.458-1.025-1.024c0-0.565,0.459-1.023,1.025-1.023
					c1.35,0,2.064,0.831,2.537,1.38c0.432,0.505,0.604,0.668,0.982,0.668c0.377,0,0.551-0.163,0.984-0.668
					c0.473-0.549,1.188-1.38,2.537-1.38s2.064,0.831,2.537,1.38c0.434,0.505,0.605,0.668,0.984,0.668
					c0.377,0,0.549-0.163,0.982-0.667c0.473-0.55,1.186-1.381,2.535-1.381c1.352,0,2.064,0.831,2.537,1.38
					c0.434,0.505,0.605,0.668,0.984,0.668s0.551-0.163,0.984-0.668c0.473-0.549,1.188-1.38,2.537-1.38
					c1.352,0,2.066,0.831,2.537,1.38c0.436,0.505,0.605,0.668,0.986,0.668s0.555-0.163,0.988-0.668
					c0.475-0.55,1.188-1.38,2.539-1.38s2.066,0.83,2.539,1.379c0.438,0.506,0.609,0.669,0.99,0.669c0.566,0,1.023,0.458,1.023,1.023
					S349.28,196.644,348.713,196.644z"/>
			</g>
		</g>
	</g>
	<g>
		<g>
			<g>
				<path fill="#312E2E" d="M323.168,123.643c-1.352,0-2.066-0.83-2.539-1.379c-0.436-0.506-0.607-0.668-0.988-0.668
					s-0.555,0.163-0.99,0.668c-0.473,0.549-1.188,1.379-2.537,1.379c-1.354,0-2.066-0.831-2.539-1.38
					c-0.434-0.505-0.605-0.667-0.986-0.667c-0.377,0-0.549,0.163-0.984,0.667c-0.473,0.549-1.186,1.38-2.535,1.38
					c-1.354,0-2.066-0.831-2.539-1.381c-0.434-0.504-0.605-0.667-0.982-0.667c-0.379,0-0.551,0.163-0.984,0.667
					c-0.473,0.549-1.186,1.38-2.535,1.38s-2.064-0.83-2.535-1.38c-0.436-0.505-0.607-0.667-0.986-0.667
					c-0.377,0-0.551,0.163-0.984,0.667c-0.471,0.55-1.188,1.381-2.537,1.381s-2.062-0.831-2.537-1.381
					c-0.432-0.504-0.604-0.667-0.98-0.667c-0.568,0-1.025-0.458-1.025-1.023c0-0.566,0.457-1.024,1.025-1.024
					c1.348,0,2.062,0.831,2.535,1.381c0.434,0.504,0.604,0.667,0.982,0.667s0.551-0.163,0.986-0.667
					c0.471-0.55,1.186-1.38,2.535-1.38c1.352,0,2.064,0.831,2.537,1.38c0.434,0.505,0.605,0.667,0.984,0.667s0.549-0.163,0.98-0.667
					c0.475-0.55,1.188-1.381,2.539-1.381c1.35,0,2.062,0.83,2.535,1.38c0.434,0.505,0.605,0.667,0.986,0.667
					c0.379,0,0.549-0.163,0.982-0.667c0.473-0.549,1.188-1.38,2.537-1.38c1.352,0,2.064,0.831,2.537,1.38
					c0.436,0.505,0.607,0.667,0.988,0.667c0.379,0,0.551-0.163,0.986-0.667c0.473-0.55,1.188-1.38,2.541-1.38
					c1.352,0,2.066,0.83,2.541,1.38c0.434,0.505,0.605,0.667,0.986,0.667c0.566,0,1.023,0.458,1.023,1.023
					C324.192,123.185,323.735,123.643,323.168,123.643z"/>
			</g>
		</g>
	</g>
	<g>
		<g>
			<g>
				<path fill="#312E2E" d="M161.631,194.283h-2.304c-0.565,0-1.023-0.457-1.023-1.023s0.458-1.023,1.023-1.023h2.304
					c0.564,0,1.023,0.457,1.023,1.023S162.195,194.283,161.631,194.283z"/>
			</g>
		</g>
	</g>
	<g>
		<g>
			<g>
				<path fill="#312E2E" d="M172.764,194.283h-6.397c-0.566,0-1.024-0.457-1.024-1.023s0.458-1.023,1.024-1.023h6.397
					c0.565,0,1.024,0.457,1.024,1.023S173.329,194.283,172.764,194.283z"/>
			</g>
		</g>
	</g>
	<g>
		<g>
			<g>
				<path fill="#312E2E" d="M122.737,21.265h-2.304c-0.566,0-1.023-0.458-1.023-1.024c0-0.566,0.458-1.024,1.023-1.024h2.304
					c0.566,0,1.023,0.458,1.023,1.024C123.76,20.806,123.303,21.265,122.737,21.265z"/>
			</g>
		</g>
	</g>
	<g>
		<g>
			<g>
				<path fill="#312E2E" d="M115.699,21.265H109.3c-0.566,0-1.024-0.458-1.024-1.024c0-0.566,0.458-1.024,1.024-1.024h6.399
					c0.566,0,1.023,0.458,1.023,1.024C116.722,20.806,116.265,21.265,115.699,21.265z"/>
			</g>
		</g>
	</g>
	<g>
		<g>
			<g>
				<path fill="#312E2E" d="M122.131,14.822h-2.303c-0.566,0-1.024-0.458-1.024-1.023c0-0.566,0.458-1.024,1.024-1.024h2.303
					c0.565,0,1.024,0.458,1.024,1.024C123.155,14.364,122.696,14.822,122.131,14.822z"/>
			</g>
		</g>
	</g>
	<g>
		<g>
			<g>
				<path fill="#312E2E" d="M133.264,14.822h-6.398c-0.566,0-1.024-0.458-1.024-1.023c0-0.566,0.458-1.024,1.024-1.024h6.398
					c0.565,0,1.024,0.458,1.024,1.024C134.289,14.364,133.829,14.822,133.264,14.822z"/>
			</g>
		</g>
	</g>
	<g>
		<g>
			<g>
				<path fill="#312E2E" d="M302.75,84.009h-2.303c-0.564,0-1.025-0.458-1.025-1.023s0.461-1.024,1.025-1.024h2.303
					c0.564,0,1.023,0.458,1.023,1.024S303.315,84.009,302.75,84.009z"/>
			</g>
		</g>
	</g>
	<g>
		<g>
			<g>
				<path fill="#312E2E" d="M295.711,84.009h-6.396c-0.566,0-1.025-0.458-1.025-1.023s0.459-1.024,1.025-1.024h6.396
					c0.566,0,1.023,0.458,1.023,1.024S296.278,84.009,295.711,84.009z"/>
			</g>
		</g>
	</g>
	<g>
		<g>
			<g>
				<path fill="#312E2E" d="M302.145,77.567h-2.305c-0.564,0-1.023-0.458-1.023-1.024c0-0.566,0.459-1.024,1.023-1.024h2.305
					c0.564,0,1.023,0.458,1.023,1.024C303.168,77.109,302.709,77.567,302.145,77.567z"/>
			</g>
		</g>
	</g>
	<g>
		<g>
			<g>
				<path fill="#312E2E" d="M313.278,77.567h-6.398c-0.566,0-1.023-0.458-1.023-1.024c0-0.566,0.457-1.024,1.023-1.024h6.398
					c0.566,0,1.023,0.458,1.023,1.024C314.301,77.109,313.844,77.567,313.278,77.567z"/>
			</g>
		</g>
	</g>
	<g>
		<g>
			<g>
				<g>
					<path fill="#312E2E" d="M71.565,186.153h-2.303c-0.565,0-1.024-0.458-1.024-1.023s0.459-1.024,1.024-1.024h2.303
						c0.565,0,1.024,0.459,1.024,1.024S72.13,186.153,71.565,186.153z"/>
				</g>
			</g>
		</g>
		<g>
			<g>
				<g>
					<path fill="#312E2E" d="M82.699,186.153H76.3c-0.565,0-1.024-0.458-1.024-1.023s0.459-1.024,1.024-1.024h6.398
						c0.565,0,1.024,0.459,1.024,1.024S83.264,186.153,82.699,186.153z"/>
				</g>
			</g>
		</g>
	</g>
	<g>
		<g>
			<g>
				<g>
					<path fill="#312E2E" d="M36.087,238.646h-2.304c-0.564,0-1.024-0.459-1.024-1.024c0-0.566,0.459-1.024,1.024-1.024h2.304
						c0.565,0,1.023,0.458,1.023,1.024C37.111,238.187,36.652,238.646,36.087,238.646z"/>
				</g>
			</g>
		</g>
		<g>
			<g>
				<g>
					<path fill="#312E2E" d="M47.221,238.646h-6.399c-0.564,0-1.023-0.459-1.023-1.024c0-0.566,0.459-1.024,1.023-1.024h6.399
						c0.565,0,1.023,0.458,1.023,1.024C48.244,238.187,47.786,238.646,47.221,238.646z"/>
				</g>
			</g>
		</g>
	</g>
	<g>
		<g>
			<g>
				<path fill="#312E2E" d="M231.559,195.263c-1.244,0-2.502-0.059-3.732-0.172c-0.562-0.051-0.977-0.551-0.924-1.113
					s0.537-0.977,1.113-0.926c1.166,0.108,2.361,0.163,3.551,0.163l0.43-0.002c0.549-0.028,1.027,0.444,1.035,1.009
					c0.01,0.566-0.441,1.031-1.008,1.039L231.559,195.263z M238.12,194.72c-0.492,0-0.926-0.354-1.008-0.854
					c-0.094-0.558,0.281-1.086,0.84-1.179c1.303-0.219,2.611-0.508,3.891-0.863c0.547-0.148,1.109,0.169,1.26,0.713
					c0.15,0.545-0.168,1.109-0.713,1.261c-1.35,0.372-2.727,0.679-4.1,0.909C238.233,194.716,238.176,194.72,238.12,194.72z
					 M221.877,194.062c-0.084,0-0.17-0.01-0.252-0.032c-1.354-0.343-2.705-0.761-4.014-1.242c-0.531-0.196-0.801-0.784-0.607-1.315
					c0.195-0.529,0.783-0.801,1.316-0.606c1.242,0.458,2.521,0.854,3.807,1.179c0.547,0.139,0.881,0.695,0.74,1.244
					C222.75,193.752,222.333,194.062,221.877,194.062z M247.879,191.734c-0.387,0-0.76-0.221-0.932-0.598
					c-0.234-0.516-0.008-1.123,0.508-1.357c1.203-0.549,2.395-1.167,3.533-1.84c0.488-0.283,1.117-0.123,1.402,0.364
					c0.287,0.487,0.125,1.114-0.361,1.402c-1.205,0.706-2.455,1.358-3.727,1.937C248.167,191.706,248.022,191.734,247.879,191.734z
					 M212.389,190.285c-0.17,0-0.34-0.041-0.498-0.129c-1.219-0.682-2.414-1.435-3.555-2.237c-0.461-0.325-0.574-0.964-0.248-1.427
					c0.326-0.461,0.965-0.572,1.428-0.246c1.082,0.762,2.217,1.477,3.373,2.121c0.494,0.276,0.67,0.9,0.395,1.395
					C213.096,190.096,212.747,190.285,212.389,190.285z M256.538,186.333c-0.295,0-0.59-0.127-0.791-0.373
					c-0.361-0.438-0.297-1.084,0.141-1.441c1.02-0.838,2.012-1.742,2.945-2.686c0.398-0.404,1.047-0.406,1.447-0.008
					c0.402,0.397,0.406,1.045,0.01,1.447c-0.984,0.994-2.027,1.945-3.102,2.828C256.997,186.257,256.766,186.333,256.538,186.333z
					 M204.198,184.195c-0.256,0-0.513-0.096-0.712-0.289c-1.005-0.971-1.968-2.005-2.863-3.07c-0.363-0.434-0.307-1.078,0.125-1.442
					c0.434-0.364,1.078-0.309,1.443,0.126c0.849,1.012,1.765,1.993,2.717,2.916c0.408,0.393,0.42,1.041,0.023,1.447
					C204.733,184.09,204.465,184.195,204.198,184.195z M263.524,178.894c-0.209,0-0.416-0.063-0.598-0.193
					c-0.457-0.331-0.561-0.971-0.232-1.43c0.777-1.074,1.504-2.201,2.162-3.351c0.279-0.488,0.908-0.658,1.398-0.378
					c0.488,0.281,0.658,0.906,0.377,1.398c-0.693,1.208-1.459,2.396-2.275,3.527C264.157,178.747,263.842,178.894,263.524,178.894z
					 M197.838,176.213c-0.345,0-0.683-0.177-0.875-0.495c-0.723-1.195-1.389-2.44-1.981-3.702c-0.239-0.512-0.021-1.122,0.492-1.362
					c0.511-0.239,1.122-0.02,1.361,0.492c0.562,1.198,1.195,2.38,1.879,3.514c0.293,0.484,0.139,1.113-0.346,1.406
					C198.203,176.167,198.02,176.213,197.838,176.213z M268.372,169.908c-0.121,0-0.244-0.021-0.365-0.066
					c-0.525-0.201-0.793-0.793-0.59-1.321c0.471-1.239,0.883-2.517,1.221-3.794c0.145-0.546,0.701-0.873,1.252-0.728
					c0.547,0.146,0.871,0.706,0.727,1.252c-0.355,1.347-0.789,2.692-1.287,3.999C269.172,169.658,268.784,169.908,268.372,169.908z
					 M193.744,166.865c-0.444,0-0.853-0.291-0.982-0.74c-0.388-1.335-0.709-2.711-0.955-4.088c-0.101-0.557,0.27-1.088,0.825-1.188
					c0.554-0.104,1.09,0.271,1.19,0.826c0.233,1.307,0.54,2.612,0.906,3.88c0.157,0.543-0.156,1.11-0.698,1.269
					C193.934,166.851,193.838,166.865,193.744,166.865z M270.733,159.978c-0.035,0-0.072-0.002-0.107-0.006
					c-0.562-0.057-0.971-0.561-0.912-1.123c0.135-1.312,0.205-2.652,0.205-3.981c0-0.579-0.016-1.153-0.039-1.726
					c-0.027-0.564,0.412-1.043,0.977-1.068c0.551-0.036,1.043,0.412,1.068,0.979c0.025,0.602,0.039,1.207,0.039,1.815
					c0,1.399-0.072,2.809-0.215,4.191C271.694,159.585,271.25,159.978,270.733,159.978z M192.204,156.777
					c-0.555,0-1.011-0.443-1.022-1.001c-0.007-0.302-0.011-0.606-0.01-0.91c0-1.091,0.045-2.197,0.131-3.285
					c0.045-0.563,0.528-0.981,1.104-0.938c0.563,0.046,0.983,0.539,0.938,1.103c-0.083,1.034-0.125,2.085-0.125,3.123
					c-0.001,0.29,0.003,0.576,0.009,0.862c0.013,0.566-0.436,1.033-1,1.047C192.221,156.777,192.212,156.777,192.204,156.777z
					 M270.155,148.033c-0.477,0-0.904-0.336-1.002-0.82c-0.264-1.299-0.598-2.598-0.996-3.859c-0.168-0.539,0.131-1.113,0.672-1.283
					c0.539-0.169,1.113,0.131,1.281,0.67c0.418,1.328,0.771,2.696,1.049,4.064c0.113,0.555-0.246,1.096-0.799,1.208
					C270.292,148.025,270.221,148.033,270.155,148.033z M193.292,146.628c-0.08,0-0.16-0.009-0.241-0.029
					c-0.549-0.131-0.888-0.684-0.755-1.234c0.327-1.359,0.73-2.713,1.197-4.025c0.19-0.534,0.773-0.811,1.308-0.623
					c0.532,0.19,0.811,0.775,0.622,1.309c-0.443,1.246-0.826,2.531-1.138,3.82C194.174,146.314,193.754,146.628,193.292,146.628z
					 M266.842,138.379c-0.377,0-0.738-0.208-0.918-0.567c-0.588-1.186-1.248-2.354-1.959-3.471c-0.303-0.478-0.16-1.109,0.316-1.412
					c0.479-0.305,1.109-0.162,1.414,0.314c0.748,1.178,1.441,2.408,2.062,3.656c0.25,0.506,0.045,1.121-0.461,1.373
					C267.151,138.345,266.997,138.379,266.842,138.379z M196.959,137.101c-0.166,0-0.334-0.041-0.488-0.125
					c-0.497-0.27-0.682-0.893-0.41-1.389c0.667-1.228,1.406-2.432,2.196-3.578c0.32-0.467,0.958-0.584,1.424-0.264
					c0.465,0.32,0.584,0.958,0.263,1.424c-0.748,1.089-1.451,2.231-2.085,3.396C197.673,136.908,197.321,137.101,196.959,137.101z
					 M261.151,129.91c-0.283,0-0.566-0.119-0.77-0.348c-0.873-0.993-1.809-1.953-2.783-2.855c-0.414-0.383-0.439-1.031-0.055-1.446
					c0.383-0.417,1.029-0.44,1.445-0.058c1.025,0.951,2.012,1.963,2.932,3.008c0.373,0.424,0.33,1.071-0.094,1.444
					C261.633,129.826,261.391,129.91,261.151,129.91z M202.958,128.841c-0.252,0-0.505-0.092-0.703-0.279
					c-0.411-0.389-0.429-1.037-0.041-1.448c0.958-1.013,1.98-1.987,3.039-2.897c0.432-0.369,1.076-0.318,1.443,0.109
					c0.369,0.429,0.32,1.076-0.109,1.444c-1.004,0.864-1.975,1.789-2.885,2.751C203.501,128.735,203.229,128.841,202.958,128.841z
					 M253.479,123.175c-0.197,0-0.395-0.057-0.57-0.174c-1.098-0.739-2.25-1.427-3.42-2.047c-0.5-0.265-0.689-0.885-0.426-1.383
					c0.264-0.5,0.883-0.692,1.383-0.426c1.234,0.653,2.447,1.379,3.605,2.157c0.469,0.315,0.594,0.951,0.279,1.421
					C254.131,123.016,253.807,123.175,253.479,123.175z M210.87,122.392c-0.344,0-0.678-0.172-0.871-0.485
					c-0.297-0.48-0.15-1.111,0.328-1.408c1.186-0.734,2.424-1.414,3.68-2.023c0.512-0.243,1.121-0.033,1.369,0.476
					c0.246,0.509,0.033,1.122-0.477,1.368c-1.193,0.577-2.369,1.223-3.49,1.919C211.241,122.343,211.053,122.392,210.87,122.392z
					 M244.334,118.635c-0.109,0-0.221-0.018-0.332-0.055c-1.25-0.429-2.539-0.796-3.832-1.093c-0.551-0.125-0.895-0.676-0.768-1.227
					c0.125-0.551,0.676-0.896,1.225-0.769c1.363,0.312,2.721,0.7,4.039,1.15c0.535,0.184,0.82,0.766,0.637,1.301
					C245.159,118.368,244.76,118.635,244.334,118.635z M220.168,118.194c-0.439,0-0.846-0.286-0.979-0.728
					c-0.164-0.541,0.143-1.113,0.684-1.276c1.338-0.405,2.711-0.742,4.078-1.002c0.555-0.104,1.092,0.259,1.197,0.815
					c0.105,0.555-0.26,1.091-0.814,1.197c-1.297,0.247-2.6,0.566-3.869,0.95C220.368,118.18,220.266,118.194,220.168,118.194z
					 M234.333,116.614c-0.023,0-0.049-0.001-0.072-0.003c-1.311-0.092-2.66-0.116-3.984-0.072c-0.586,0.026-1.041-0.423-1.059-0.988
					c-0.02-0.565,0.422-1.038,0.988-1.057c1.396-0.052,2.816-0.022,4.197,0.076c0.564,0.039,0.99,0.528,0.949,1.093
					C235.315,116.202,234.866,116.614,234.333,116.614z"/>
			</g>
		</g>
	</g>
	<g>
		<g>
			<g>
				<rect x="264.84" y="148.767" fill="#F2F2F2" width="12.201" height="12.201"/>
			</g>
		</g>
		<g>
			<g>
				<path fill="#312E2E" d="M277.042,161.89H264.84c-0.51,0-0.922-0.412-0.922-0.922v-12.201c0-0.509,0.412-0.922,0.922-0.922
					h12.201c0.508,0,0.922,0.413,0.922,0.922v12.201C277.963,161.478,277.549,161.89,277.042,161.89z M265.76,160.046h10.359
					v-10.357H265.76V160.046z"/>
			</g>
		</g>
	</g>
	<g>
		<g>
			<g>
				<rect x="186.095" y="148.767" fill="#F2F2F2" width="12.201" height="12.201"/>
			</g>
		</g>
		<g>
			<g>
				<path fill="#312E2E" d="M198.296,161.89h-12.201c-0.51,0-0.922-0.412-0.922-0.922v-12.201c0-0.509,0.412-0.922,0.922-0.922
					h12.201c0.509,0,0.921,0.413,0.921,0.922v12.201C199.217,161.478,198.805,161.89,198.296,161.89z M187.015,160.046h10.36
					v-10.357h-10.36V160.046z"/>
			</g>
		</g>
	</g>
	<g>
		<g>
			<g>
				<rect x="225.467" y="187.159" fill="#F2F2F2" width="12.201" height="12.202"/>
			</g>
		</g>
		<g>
			<g>
				<path fill="#312E2E" d="M237.668,200.282h-12.201c-0.51,0-0.924-0.413-0.924-0.921v-12.202c0-0.509,0.414-0.922,0.924-0.922
					h12.201c0.51,0,0.922,0.413,0.922,0.922v12.202C238.59,199.869,238.178,200.282,237.668,200.282z M226.389,198.439h10.357
					v-10.358h-10.357V198.439z"/>
			</g>
		</g>
	</g>
	<g>
		<g>
			<g>
				<rect x="225.467" y="109.394" fill="#F2F2F2" width="12.201" height="12.201"/>
			</g>
		</g>
		<g>
			<g>
				<path fill="#312E2E" d="M237.668,122.517h-12.201c-0.51,0-0.924-0.413-0.924-0.922v-12.201c0-0.509,0.414-0.922,0.924-0.922
					h12.201c0.51,0,0.922,0.414,0.922,0.922v12.201C238.59,122.104,238.178,122.517,237.668,122.517z M226.389,120.673h10.357
					v-10.357h-10.357V120.673z"/>
			</g>
		</g>
	</g>
	<g>
		<g>
			<g>
				<path fill="#312E2E" d="M133.364,94.374c-0.072,0-0.143-0.005-0.213-0.01h-0.116c-0.07,0.005-0.143,0.01-0.214,0.01
					c-12.392,0-24.227-13.564-24.725-14.141c-0.297-0.346-0.297-0.858,0-1.204c0.498-0.577,12.333-14.141,24.725-14.141
					c0.071,0,0.144,0.005,0.214,0.01h0.116c0.07-0.005,0.142-0.01,0.213-0.01c12.392,0,24.228,13.564,24.726,14.141
					c0.298,0.346,0.298,0.858,0,1.204C157.592,80.81,145.756,94.374,133.364,94.374z M133.072,92.518l0.292,0.013
					c10.123,0,20.341-10.278,22.783-12.899c-2.442-2.621-12.661-12.899-22.783-12.899l-0.252,0.013l-0.209-0.009
					c-0.002,0-0.005,0-0.006,0c-10.194,0-20.416,10.274-22.858,12.895c2.44,2.622,12.66,12.899,22.782,12.899L133.072,92.518z"/>
			</g>
		</g>
	</g>
	<g>
		<g>
			<g>
				<path fill="#EB5B28" d="M133.093,69.906c-2.337,0-4.482,0.826-6.161,2.201c1.015,0.746,1.681,1.938,1.681,3.293
					c0,2.262-1.833,4.095-4.095,4.095c-0.396,0-0.771-0.074-1.136-0.18c-0.004,0.105-0.016,0.209-0.016,0.315
					c0,5.373,4.355,9.726,9.726,9.726c5.373,0,9.726-4.353,9.726-9.726C142.818,74.261,138.466,69.906,133.093,69.906z"/>
			</g>
		</g>
		<g>
			<g>
				<path fill="#312E2E" d="M133.093,90.381c-5.928,0-10.75-4.822-10.75-10.75c0-0.084,0.005-0.167,0.011-0.25
					c0.01-0.317,0.167-0.659,0.424-0.846c0.255-0.187,0.583-0.294,0.891-0.203c0.326,0.095,0.596,0.139,0.85,0.139
					c1.694,0,3.072-1.377,3.072-3.071c0-0.979-0.461-1.878-1.264-2.468c-0.255-0.187-0.409-0.481-0.417-0.798
					c-0.008-0.316,0.129-0.618,0.373-0.819c1.914-1.57,4.334-2.434,6.811-2.434c5.927,0,10.75,4.822,10.75,10.75
					S139.02,90.381,133.093,90.381z M124.435,80.518c0.445,4.384,4.159,7.815,8.658,7.815c4.798,0,8.702-3.904,8.702-8.702
					c0-4.798-3.904-8.702-8.702-8.702c-1.618,0-3.203,0.455-4.567,1.296c0.716,0.893,1.111,1.999,1.111,3.175
					c0,2.822-2.297,5.119-5.119,5.119C124.491,80.519,124.462,80.519,124.435,80.518z"/>
			</g>
		</g>
	</g>
	<g>
		<g>
			<g>
				<g>
					<path fill="#312E2E" d="M133.099,61.658c-0.508,0-0.92-0.412-0.921-0.92l-0.012-4.649c-0.001-0.508,0.411-0.921,0.919-0.924
						h0.002c0.507,0,0.92,0.413,0.921,0.92l0.011,4.649c0.001,0.509-0.41,0.922-0.918,0.924H133.099z"/>
				</g>
			</g>
		</g>
		<g>
			<g>
				<g>
					<path fill="#312E2E" d="M133.099,103.568c-0.508,0-0.92-0.412-0.921-0.92L132.166,98c-0.001-0.509,0.411-0.922,0.919-0.924
						h0.002c0.507,0,0.92,0.412,0.921,0.92l0.011,4.649c0.001,0.508-0.41,0.922-0.918,0.924H133.099z"/>
				</g>
			</g>
		</g>
	</g>
	<g>
		<g>
			<g>
				<g>
					<path fill="#312E2E" d="M99.582,80.686c-0.508,0-0.919-0.411-0.92-0.919c-0.001-0.509,0.41-0.922,0.918-0.924l4.648-0.012
						c0.001,0,0.002,0,0.002,0c0.508,0,0.921,0.411,0.922,0.92c0.002,0.509-0.41,0.922-0.918,0.924l-4.649,0.012
						C99.584,80.686,99.584,80.686,99.582,80.686z"/>
				</g>
			</g>
		</g>
		<g>
			<g>
				<g>
					<path fill="#312E2E" d="M160.689,80.686c-0.508,0-0.92-0.411-0.921-0.919c-0.001-0.509,0.41-0.922,0.918-0.924l4.649-0.012
						c0.001,0,0.002,0,0.002,0c0.508,0,0.921,0.411,0.921,0.92c0.003,0.509-0.409,0.922-0.918,0.924l-4.649,0.012
						C160.69,80.686,160.69,80.686,160.689,80.686z"/>
				</g>
			</g>
		</g>
	</g>
	<g>
		<g>
			<g>
				<path fill="#312E2E" d="M148.91,66.222c-0.188,0-0.379-0.058-0.542-0.177c-0.41-0.3-0.501-0.877-0.201-1.288l2.303-3.157
					c0.299-0.41,0.877-0.501,1.288-0.202c0.411,0.3,0.501,0.877,0.202,1.288l-2.304,3.157
					C149.475,66.09,149.195,66.222,148.91,66.222z"/>
			</g>
		</g>
	</g>
	<g>
		<g>
			<g>
				<path fill="#312E2E" d="M156.528,71.957c-0.288,0-0.572-0.135-0.752-0.389c-0.294-0.415-0.197-0.989,0.217-1.285l3.19-2.261
					c0.413-0.294,0.989-0.197,1.283,0.218c0.294,0.415,0.197,0.99-0.218,1.285l-3.189,2.262
					C156.899,71.901,156.712,71.957,156.528,71.957z"/>
			</g>
		</g>
	</g>
	<g>
		<g>
			<g>
				<path fill="#312E2E" d="M109.258,72.084c-0.183,0-0.371-0.055-0.532-0.17l-3.189-2.261c-0.415-0.295-0.512-0.87-0.218-1.285
					s0.87-0.515,1.285-0.22l3.188,2.262c0.415,0.294,0.512,0.87,0.218,1.285C109.83,71.948,109.545,72.084,109.258,72.084z"/>
			</g>
		</g>
	</g>
	<g>
		<g>
			<g>
				<path fill="#312E2E" d="M159.715,91.157c-0.184,0-0.37-0.055-0.531-0.17l-3.19-2.259c-0.413-0.294-0.511-0.87-0.217-1.285
					c0.292-0.414,0.866-0.516,1.283-0.219l3.189,2.259c0.414,0.294,0.512,0.87,0.218,1.286
					C160.288,91.021,160.003,91.157,159.715,91.157z"/>
			</g>
		</g>
	</g>
	<g>
		<g>
			<g>
				<path fill="#312E2E" d="M142.806,101.213c-0.378,0-0.731-0.234-0.867-0.609l-1.328-3.677c-0.172-0.479,0.076-1.006,0.555-1.179
					c0.479-0.172,1.006,0.076,1.18,0.554l1.327,3.677c0.173,0.479-0.074,1.006-0.553,1.179
					C143.015,101.195,142.91,101.213,142.806,101.213z"/>
			</g>
		</g>
	</g>
	<g>
		<g>
			<g>
				<path fill="#312E2E" d="M123.535,101.213c-0.104,0-0.21-0.018-0.314-0.056c-0.478-0.173-0.726-0.7-0.554-1.179l1.328-3.677
					c0.173-0.479,0.7-0.726,1.18-0.554c0.479,0.173,0.727,0.701,0.554,1.179l-1.328,3.677
					C124.266,100.979,123.912,101.213,123.535,101.213z"/>
			</g>
		</g>
	</g>
	<g>
		<g>
			<g>
				<path fill="#312E2E" d="M141.479,63.317c-0.104,0-0.209-0.018-0.313-0.055c-0.479-0.173-0.727-0.701-0.555-1.18l1.328-3.675
					c0.174-0.479,0.702-0.726,1.18-0.554c0.48,0.173,0.727,0.701,0.553,1.18l-1.327,3.675
					C142.208,63.083,141.854,63.317,141.479,63.317z"/>
			</g>
		</g>
	</g>
	<g>
		<g>
			<g>
				<path fill="#312E2E" d="M124.863,63.317c-0.378,0-0.732-0.234-0.869-0.608l-1.328-3.675c-0.171-0.479,0.076-1.007,0.554-1.18
					c0.478-0.172,1.007,0.075,1.18,0.554l1.328,3.675c0.172,0.479-0.075,1.007-0.554,1.18
					C125.071,63.299,124.967,63.317,124.863,63.317z"/>
			</g>
		</g>
	</g>
	<g>
		<g>
			<g>
				<path fill="#312E2E" d="M106.07,91.284c-0.288,0-0.573-0.136-0.752-0.389c-0.294-0.415-0.196-0.99,0.218-1.284l3.189-2.259
					c0.415-0.297,0.991-0.195,1.284,0.219c0.293,0.415,0.196,0.99-0.218,1.285l-3.188,2.259
					C106.44,91.229,106.254,91.284,106.07,91.284z"/>
			</g>
		</g>
	</g>
	<g>
		<g>
			<g>
				<path fill="#312E2E" d="M117.347,66.222c-0.286,0-0.566-0.131-0.746-0.378l-2.304-3.157c-0.299-0.411-0.209-0.988,0.203-1.288
					c0.41-0.299,0.987-0.209,1.287,0.202l2.303,3.157c0.3,0.411,0.21,0.988-0.201,1.288
					C117.724,66.165,117.534,66.222,117.347,66.222z"/>
			</g>
		</g>
	</g>
	<g>
		<g>
			<g>
				<path fill="#312E2E" d="M151.215,97.874c-0.284,0-0.564-0.131-0.746-0.379l-2.303-3.157c-0.301-0.411-0.209-0.988,0.201-1.288
					c0.411-0.299,0.988-0.209,1.288,0.202l2.304,3.157c0.299,0.411,0.209,0.988-0.202,1.288
					C151.594,97.815,151.403,97.874,151.215,97.874z"/>
			</g>
		</g>
	</g>
	<g>
		<g>
			<g>
				<path fill="#312E2E" d="M115.041,97.874c-0.188,0-0.379-0.058-0.542-0.177c-0.412-0.299-0.502-0.876-0.203-1.288l2.304-3.157
					c0.298-0.41,0.876-0.501,1.288-0.202c0.411,0.3,0.5,0.877,0.201,1.288l-2.303,3.157
					C115.604,97.742,115.325,97.874,115.041,97.874z"/>
			</g>
		</g>
	</g>
	<g>
		<g>
			<g>
				<g>
					<path fill="#312E2E" d="M233.315,103.856H209c-2.766,0-5.016-2.25-5.016-5.017V45.817c0-2.766,2.25-5.017,5.016-5.017h24.314
						c2.766,0,5.018,2.25,5.018,5.017v53.022C238.333,101.605,236.081,103.856,233.315,103.856z M209,42.644
						c-1.75,0-3.172,1.424-3.172,3.173v53.022c0,1.75,1.422,3.173,3.172,3.173h24.314c1.75,0,3.174-1.424,3.174-3.173V45.817
						c0-1.75-1.424-3.173-3.174-3.173H209z"/>
				</g>
			</g>
		</g>
		<g>
			<g>
				<g>
					<rect x="204.905" y="47.864" fill="#F39323" width="32.504" height="47.266"/>
				</g>
			</g>
			<g>
				<g>
					<path fill="#312E2E" d="M237.409,96.154h-32.504c-0.564,0-1.023-0.458-1.023-1.024V47.864c0-0.566,0.459-1.023,1.023-1.023
						h32.504c0.566,0,1.025,0.458,1.025,1.023V95.13C238.434,95.696,237.975,96.154,237.409,96.154z M205.928,94.106h30.459V48.888
						h-30.459V94.106z"/>
				</g>
			</g>
		</g>
		<g>
			<g>
				<g>
					<path fill="#312E2E" d="M224.284,45.629h-6.252c-0.508,0-0.922-0.413-0.922-0.922c0-0.509,0.414-0.922,0.922-0.922h6.252
						c0.508,0,0.92,0.413,0.92,0.922C225.204,45.216,224.792,45.629,224.284,45.629z"/>
				</g>
			</g>
		</g>
		<g>
			<g>
				<g>
					<circle fill="#C0292F" cx="221.03" cy="98.861" r="1.791"/>
				</g>
			</g>
			<g>
				<g>
					<path fill="#312E2E" d="M221.03,101.165c-1.27,0-2.305-1.034-2.305-2.304s1.035-2.304,2.305-2.304s2.303,1.034,2.303,2.304
						S222.299,101.165,221.03,101.165z M221.03,97.582c-0.705,0-1.279,0.574-1.279,1.28s0.574,1.28,1.279,1.28
						s1.279-0.574,1.279-1.28S221.735,97.582,221.03,97.582z"/>
				</g>
			</g>
		</g>
		<g>
			<g>
				<g>
					<path fill="#F5F5F5" d="M246.018,94.982c0.029-0.542,0.057-2.634-1.18-3.963c-0.666-0.716-1.562-1.078-2.67-1.078
						c-1.008,0-1.889,0.306-2.562,0.862l-0.041-0.502c-0.336-1.46-1.625-3.165-4.158-3.165c-1.367,0-2.342,0.487-3.004,1.127
						l-0.004-0.01c-0.336-1.459-1.625-3.166-4.158-3.166c-1.307,0-2.283,0.457-2.971,1.098l-0.004-16.014l0.006-0.068l-0.002-0.07
						c-0.033-2.28-1.916-4.133-4.195-4.133c-2.281,0-4.164,1.854-4.197,4.133v24.902c-0.787-1.346-1.848-2.615-2.875-3.515
						c-0.887-0.775-1.709-1.244-2.377-1.354l-1.361-0.226l-0.369,1.33c-0.066,0.242-0.098,0.511-0.098,0.827v14.161
						c-0.256,1.147-2.557,13.021,9.496,17.744c1.164,0.397,1.533,0.658,1.533,3.465v1.535h16.102l1.789,0.031l-0.27-1.768
						c0.01-0.188,0.357-0.95,1.822-2.214l0.207-0.216c0.928-1.18,5.549-7.333,5.549-12.468L246.018,94.982z"/>
				</g>
			</g>
		</g>
		<g>
			<g>
				<g>
					<g>
						<path fill="#312E2E" d="M231.825,91.375c-0.508,0-0.92-0.413-0.92-0.922v-1.956c-0.088-0.375-0.576-1.976-2.662-1.976
							c-2.107,0-2.584,1.625-2.662,1.973v1.373c0,0.508-0.412,0.921-0.922,0.921c-0.508,0-0.922-0.413-0.922-0.921v-1.462
							c0-0.051,0.004-0.101,0.014-0.151c0.205-1.237,1.408-3.576,4.492-3.576c3.08,0,4.285,2.339,4.492,3.575
							c0.01,0.05,0.012,0.101,0.012,0.152v2.047C232.747,90.962,232.334,91.375,231.825,91.375z"/>
					</g>
				</g>
			</g>
			<g>
				<g>
					<g>
						<path fill="#312E2E" d="M238.993,94.37c-0.51,0-0.924-0.413-0.924-0.922v-2.903c-0.086-0.375-0.574-1.976-2.66-1.976
							c-2.309,0-2.66,1.952-2.674,2.035c-0.084,0.502-0.555,0.85-1.061,0.758c-0.502-0.083-0.842-0.558-0.758-1.06
							c0.205-1.237,1.41-3.577,4.492-3.577s4.287,2.34,4.492,3.576c0.008,0.05,0.014,0.101,0.014,0.152v2.995
							C239.915,93.957,239.5,94.37,238.993,94.37z"/>
					</g>
				</g>
			</g>
			<g>
				<g>
					<g>
						<path fill="#312E2E" d="M221.44,128.189c-0.51,0-0.922-0.413-0.922-0.922c0-2.605-0.305-2.826-1.365-3.189
							c-12.004-4.705-9.934-16.721-9.664-18.048V91.897c0-0.662,0.137-1.174,0.418-1.564c0.322-0.453,0.82-0.702,1.4-0.702
							c2.449,0,7.107,5.343,7.107,8.938c0,0.509-0.414,0.921-0.922,0.921c-0.51,0-0.922-0.413-0.922-0.921
							c0-1.833-1.857-4.591-3.58-6.095c-0.852-0.746-1.398-0.959-1.615-0.995c-0.02,0.071-0.043,0.201-0.043,0.417v14.229
							c0,0.072-0.01,0.143-0.027,0.214c-0.111,0.473-2.621,11.656,8.484,16.008c2.209,0.758,2.572,2.073,2.572,4.919
							C222.362,127.776,221.948,128.189,221.44,128.189z"/>
					</g>
				</g>
			</g>
			<g>
				<g>
					<g>
						<path fill="#312E2E" d="M217.493,104.908c-0.51,0-0.922-0.413-0.922-0.922V70.02c0-0.034,0.002-0.068,0.006-0.101
							c0.062-2.474,2.059-4.428,4.5-4.428c2.482,0,4.504,2.022,4.504,4.505c0,0.003,0,0.007,0,0.011c0,0.004,0,0.009,0,0.013v19.848
							c0,0.508-0.412,0.921-0.922,0.921c-0.508,0-0.922-0.413-0.922-0.921V70.15c-0.004-0.034-0.006-0.069-0.006-0.104
							c0-0.029,0.002-0.064,0.006-0.1c-0.025-1.444-1.209-2.612-2.66-2.612c-1.469,0-2.662,1.194-2.662,2.662
							c0,0.004,0,0.008,0,0.012c0,0.004,0,0.008,0,0.012v33.966C218.415,104.495,218,104.908,217.493,104.908z"/>
					</g>
				</g>
			</g>
			<g>
				<g>
					<g>
						<path fill="#312E2E" d="M237.831,128.073c-0.422,0-0.803-0.293-0.898-0.722c-0.252-1.14,1.113-2.609,2.338-3.664
							c0.539-0.688,5.221-6.799,5.221-11.519v-10.271c-0.006-0.04-0.008-0.08-0.008-0.121v-6.942
							c0.039-0.579-0.027-2.074-0.77-2.872c-0.369-0.396-0.873-0.587-1.545-0.587c-1.791,0-2.23,1.354-2.312,1.705v0.607
							c0,0.509-0.414,0.922-0.922,0.922c-0.51,0-0.922-0.413-0.922-0.922v-0.702c0-0.052,0.004-0.101,0.014-0.152
							c0.189-1.142,1.301-3.301,4.143-3.301c1.182,0,2.186,0.41,2.902,1.184c1.441,1.559,1.26,4.083,1.252,4.19l0.002,6.749
							c0.006,0.039,0.01,0.081,0.01,0.121v10.392c0,5.636-5.447,12.452-5.68,12.74c-0.035,0.044-0.076,0.085-0.119,0.122
							c-0.842,0.719-1.672,1.658-1.787,2.02c0.051,0.461-0.254,0.897-0.717,1C237.965,128.066,237.897,128.073,237.831,128.073z"/>
					</g>
				</g>
			</g>
		</g>
		<g>
			<g>
				<g>
					<g>
						<path fill="#312E2E" d="M220.86,60.545c-0.508,0-0.922-0.413-0.922-0.921v-2.892c0-0.509,0.414-0.921,0.922-0.921
							c0.51,0,0.922,0.413,0.922,0.921v2.892C221.782,60.133,221.37,60.545,220.86,60.545z"/>
					</g>
				</g>
			</g>
			<g>
				<g>
					<g>
						<path fill="#312E2E" d="M216.118,61.817c-0.318,0-0.629-0.165-0.799-0.461l-1.447-2.505c-0.254-0.441-0.104-1.004,0.336-1.258
							c0.439-0.255,1.004-0.105,1.26,0.337l1.447,2.505c0.254,0.441,0.104,1.004-0.338,1.259
							C216.432,61.778,216.276,61.817,216.118,61.817z"/>
					</g>
				</g>
			</g>
			<g>
				<g>
					<g>
						<path fill="#312E2E" d="M212.643,65.291c-0.158,0-0.314-0.04-0.461-0.124l-2.506-1.448c-0.439-0.254-0.59-0.817-0.336-1.258
							c0.254-0.442,0.818-0.591,1.258-0.337l2.506,1.448c0.441,0.255,0.592,0.818,0.338,1.259
							C213.27,65.125,212.961,65.291,212.643,65.291z"/>
					</g>
				</g>
			</g>
			<g>
				<g>
					<g>
						<path fill="#312E2E" d="M211.372,70.034h-2.891c-0.51,0-0.922-0.413-0.922-0.922s0.412-0.922,0.922-0.922h2.891
							c0.51,0,0.922,0.413,0.922,0.922S211.881,70.034,211.372,70.034z"/>
					</g>
				</g>
			</g>
			<g>
				<g>
					<g>
						<path fill="#312E2E" d="M210.139,76.225c-0.318,0-0.629-0.166-0.799-0.461c-0.254-0.441-0.104-1.004,0.338-1.259l2.504-1.446
							c0.441-0.256,1.006-0.102,1.26,0.337c0.254,0.441,0.104,1.005-0.338,1.258l-2.506,1.446
							C210.456,76.184,210.295,76.225,210.139,76.225z"/>
					</g>
				</g>
			</g>
			<g>
				<g>
					<g>
						<path fill="#312E2E" d="M231.581,76.225c-0.156,0-0.314-0.041-0.459-0.125l-2.506-1.446c-0.441-0.253-0.592-0.817-0.338-1.258
							c0.254-0.44,0.818-0.593,1.258-0.337l2.506,1.446c0.441,0.254,0.592,0.818,0.338,1.259
							C232.209,76.059,231.899,76.225,231.581,76.225z"/>
					</g>
				</g>
			</g>
			<g>
				<g>
					<g>
						<path fill="#312E2E" d="M233.241,70.034h-2.893c-0.51,0-0.922-0.413-0.922-0.922s0.412-0.922,0.922-0.922h2.893
							c0.508,0,0.924,0.413,0.924,0.922S233.749,70.034,233.241,70.034z"/>
					</g>
				</g>
			</g>
			<g>
				<g>
					<g>
						<path fill="#312E2E" d="M229.079,65.291c-0.32,0-0.631-0.166-0.801-0.461c-0.254-0.44-0.104-1.005,0.338-1.259l2.506-1.446
							c0.439-0.255,1.004-0.102,1.258,0.337c0.254,0.441,0.104,1.005-0.338,1.259l-2.506,1.446
							C229.393,65.251,229.233,65.291,229.079,65.291z"/>
					</g>
				</g>
			</g>
			<g>
				<g>
					<g>
						<path fill="#312E2E" d="M225.602,61.817c-0.156,0-0.314-0.04-0.461-0.124c-0.439-0.255-0.59-0.818-0.336-1.259l1.447-2.505
							c0.256-0.442,0.818-0.592,1.258-0.337c0.441,0.254,0.592,0.817,0.338,1.258l-1.447,2.505
							C226.231,61.652,225.92,61.817,225.602,61.817z"/>
					</g>
				</g>
			</g>
		</g>
		<g>
			<g>
				<g>
					<rect x="214.668" y="127.151" fill="#52BDBD" width="30.744" height="14.233"/>
				</g>
			</g>
			<g>
				<g>
					<path fill="#312E2E" d="M245.413,142.408h-30.744c-0.564,0-1.023-0.458-1.023-1.023v-14.233c0-0.565,0.459-1.024,1.023-1.024
						h30.744c0.566,0,1.025,0.459,1.025,1.024v14.233C246.438,141.95,245.979,142.408,245.413,142.408z M215.694,140.36h28.695
						v-12.185h-28.695V140.36z"/>
				</g>
			</g>
		</g>
	</g>
	<g>
		<g>
			<g>
				<g>
					<path fill="#312E2E" d="M81.125,124.31h-2.304c-0.566,0-1.024-0.457-1.024-1.023c0-0.565,0.458-1.024,1.024-1.024h2.304
						c0.564,0,1.023,0.458,1.023,1.024C82.148,123.853,81.689,124.31,81.125,124.31z"/>
				</g>
			</g>
		</g>
		<g>
			<g>
				<g>
					<path fill="#312E2E" d="M75.237,124.31h-6.398c-0.566,0-1.024-0.457-1.024-1.023c0-0.565,0.458-1.024,1.024-1.024h6.398
						c0.565,0,1.024,0.458,1.024,1.024C76.261,123.853,75.802,124.31,75.237,124.31z"/>
				</g>
			</g>
		</g>
		<g>
			<g>
				<g>
					<path fill="#312E2E" d="M93.409,124.31h-6.398c-0.566,0-1.024-0.457-1.024-1.023c0-0.565,0.458-1.024,1.024-1.024h6.398
						c0.565,0,1.023,0.458,1.023,1.024C94.433,123.853,93.975,124.31,93.409,124.31z"/>
				</g>
			</g>
		</g>
		<g>
			<g>
				<g>
					<path fill="#312E2E" d="M88.163,136.155h-2.304c-0.566,0-1.023-0.458-1.023-1.023s0.458-1.024,1.023-1.024h2.304
						c0.564,0,1.024,0.459,1.024,1.024S88.727,136.155,88.163,136.155z"/>
				</g>
			</g>
		</g>
		<g>
			<g>
				<g>
					<path fill="#312E2E" d="M70.289,136.155H59.241c-0.566,0-1.023-0.458-1.023-1.023s0.458-1.024,1.023-1.024h11.048
						c0.564,0,1.024,0.459,1.024,1.024S70.853,136.155,70.289,136.155z"/>
				</g>
			</g>
		</g>
		<g>
			<g>
				<g>
					<path fill="#312E2E" d="M81.125,136.155h-6.399c-0.566,0-1.024-0.458-1.024-1.023s0.458-1.024,1.024-1.024h6.399
						c0.564,0,1.023,0.459,1.023,1.024S81.689,136.155,81.125,136.155z"/>
				</g>
			</g>
		</g>
		<g>
			<g>
				<g>
					<path fill="#312E2E" d="M76.005,150.533h-2.304c-0.565,0-1.024-0.457-1.024-1.023s0.458-1.023,1.024-1.023h2.304
						c0.565,0,1.024,0.457,1.024,1.023S76.571,150.533,76.005,150.533z"/>
				</g>
			</g>
		</g>
		<g>
			<g>
				<g>
					<path fill="#312E2E" d="M87.139,150.533H80.74c-0.565,0-1.023-0.457-1.023-1.023s0.458-1.023,1.023-1.023h6.399
						c0.565,0,1.024,0.457,1.024,1.023S87.704,150.533,87.139,150.533z"/>
				</g>
			</g>
		</g>
		<g>
			<g>
				<g>
					<path fill="#312E2E" d="M67.963,143.386h-6.399c-0.565,0-1.023-0.458-1.023-1.023c0-0.566,0.458-1.023,1.023-1.023h6.399
						c0.565,0,1.023,0.457,1.023,1.023C68.987,142.928,68.529,143.386,67.963,143.386z"/>
				</g>
			</g>
		</g>
		<g id="XMLID_17_">
			<g>
				<g>
					<g>
						<polygon fill="#F9B03D" points="159.359,115.676 159.359,153.094 137.635,133.694 						"/>
					</g>
				</g>
				<g>
					<g>
						<polygon fill="#F5F5F5" points="159.359,115.676 137.635,133.694 126.978,142.539 116.32,133.694 94.595,115.676 						"/>
					</g>
				</g>
				<g>
					<g>
						<polygon fill="#F9B03D" points="159.359,153.094 94.595,153.094 116.32,133.694 126.978,142.539 137.635,133.694 						"/>
					</g>
				</g>
				<g>
					<g>
						<polygon fill="#F9B03D" points="116.32,133.694 94.595,153.094 94.595,115.676 						"/>
					</g>
				</g>
			</g>
			<g>
				<g>
					<g>
						<path fill="#312E2E" d="M159.359,154.119H94.595c-0.565,0-1.024-0.459-1.024-1.024v-37.418c0-0.566,0.459-1.024,1.024-1.024
							h64.764c0.565,0,1.023,0.458,1.023,1.024v37.418C160.383,153.66,159.925,154.119,159.359,154.119z M95.619,152.07h62.717
							v-35.371H95.619V152.07z"/>
					</g>
				</g>
				<g>
					<g>
						<path fill="#312E2E" d="M126.978,143.562c-0.232,0-0.465-0.079-0.654-0.235l-32.381-26.863
							c-0.435-0.361-0.495-1.006-0.135-1.442c0.362-0.435,1.008-0.496,1.442-0.134l31.729,26.32l31.729-26.32
							c0.435-0.362,1.08-0.301,1.44,0.134c0.362,0.436,0.301,1.081-0.135,1.442l-32.381,26.863
							C127.442,143.483,127.21,143.562,126.978,143.562z"/>
					</g>
				</g>
				<g>
					<g>
						<path fill="#312E2E" d="M94.596,154.119c-0.281,0-0.562-0.115-0.765-0.342c-0.375-0.422-0.34-1.07,0.083-1.446l21.726-19.401
							c0.421-0.375,1.068-0.34,1.445,0.082c0.376,0.422,0.339,1.069-0.083,1.446l-21.725,19.4
							C95.083,154.032,94.839,154.119,94.596,154.119z"/>
					</g>
				</g>
				<g>
					<g>
						<path fill="#312E2E" d="M159.359,154.119c-0.242,0-0.486-0.087-0.682-0.261l-21.724-19.4
							c-0.422-0.377-0.459-1.024-0.082-1.446c0.376-0.422,1.024-0.457,1.446-0.082l21.723,19.401
							c0.421,0.376,0.459,1.024,0.081,1.446C159.921,154.003,159.641,154.119,159.359,154.119z"/>
					</g>
				</g>
			</g>
		</g>
	</g>
	<g>
		<g>
			<g>
				<g>
					<circle fill="#F2F2F2" cx="152.692" cy="221.499" r="20.231"/>
				</g>
			</g>
			<g>
				<g>
					<path fill="#312E2E" d="M152.692,242.652c-11.664,0-21.153-9.49-21.153-21.154c0-11.663,9.489-21.152,21.153-21.152
						c11.663,0,21.152,9.489,21.152,21.152C173.845,233.162,164.355,242.652,152.692,242.652z M152.692,202.189
						c-10.648,0-19.311,8.662-19.311,19.309c0,10.648,8.663,19.311,19.311,19.311c10.647,0,19.31-8.662,19.31-19.311
						C172.002,210.851,163.34,202.189,152.692,202.189z"/>
				</g>
			</g>
		</g>
		<g>
			<g>
				<g>
					<g>
						
							<path fill="#F39323" stroke="#312E2E" stroke-width="1.8" stroke-linecap="round" stroke-linejoin="round" stroke-miterlimit="10" d="
							M165.508,227.261"/>
					</g>
				</g>
			</g>
			<g>
				<g>
					<g>
						<polygon fill="#F39323" points="156.062,232.103 165.508,227.261 156.062,222.541 156.062,224.892 139.876,224.892 
							139.876,229.754 156.062,229.754 						"/>
					</g>
				</g>
				<g>
					<g>
						<path fill="#312E2E" d="M156.062,233.025c-0.165,0-0.333-0.045-0.479-0.136c-0.274-0.167-0.44-0.464-0.44-0.786v-1.428
							h-15.265c-0.509,0-0.921-0.412-0.921-0.921v-4.862c0-0.51,0.413-0.922,0.921-0.922h15.265v-1.43
							c0-0.32,0.164-0.617,0.437-0.785c0.272-0.166,0.611-0.183,0.895-0.039l9.446,4.721c0.311,0.155,0.509,0.473,0.51,0.819
							c0.002,0.347-0.192,0.666-0.501,0.824l-9.444,4.843C156.35,232.992,156.206,233.025,156.062,233.025z M140.798,228.833h15.263
							c0.511,0,0.922,0.413,0.922,0.922v0.842l6.484-3.325l-6.484-3.24v0.861c0,0.508-0.411,0.922-0.922,0.922h-15.263V228.833z"/>
					</g>
				</g>
			</g>
		</g>
		<g>
			<g>
				<g>
					<g>
						
							<path fill="none" stroke="#312E2E" stroke-width="1.8" stroke-linecap="round" stroke-linejoin="round" stroke-miterlimit="10" d="
							M139.875,215.251"/>
					</g>
				</g>
			</g>
			<g>
				<g>
					<g>
						<path fill="#312E2E" d="M149.317,220.894c-0.14,0-0.282-0.033-0.412-0.098l-9.441-4.721c-0.312-0.156-0.508-0.473-0.51-0.819
							c-0.002-0.348,0.192-0.667,0.501-0.825l9.442-4.842c0.286-0.146,0.627-0.133,0.901,0.033c0.274,0.167,0.441,0.465,0.441,0.786
							v1.429h15.267c0.51,0,0.922,0.414,0.922,0.923v4.862c0,0.51-0.412,0.922-0.922,0.922h-15.267v1.428
							c0,0.318-0.167,0.616-0.438,0.784C149.654,220.847,149.486,220.894,149.317,220.894z M141.915,215.242l6.482,3.24v-0.859
							c0-0.508,0.412-0.921,0.92-0.921h15.268v-3.021h-15.268c-0.508,0-0.92-0.412-0.92-0.921v-0.845L141.915,215.242z"/>
					</g>
				</g>
			</g>
		</g>
	</g>
	<g>
		<g>
			<g>
				<g>
					<polygon fill="#F5F5F5" points="61.69,25.289 16.132,25.289 16.132,99 70.008,99 70.008,33.606 61.69,33.606 					"/>
				</g>
			</g>
			<g>
				<g>
					<path fill="#312E2E" d="M70.008,100.024H16.132c-0.566,0-1.023-0.458-1.023-1.023V25.289c0-0.566,0.458-1.024,1.023-1.024
						H61.69c0.566,0,1.024,0.458,1.024,1.024v7.294h7.294c0.566,0,1.024,0.458,1.024,1.023V99
						C71.032,99.566,70.575,100.024,70.008,100.024z M17.157,97.977h51.828V34.63H61.69c-0.566,0-1.024-0.458-1.024-1.024v-7.294
						h-43.51V97.977z"/>
				</g>
			</g>
		</g>
		<g>
			<g>
				<g>
					<polygon fill="#F9B03D" points="61.69,25.289 70.008,33.606 61.69,33.606 					"/>
				</g>
			</g>
			<g>
				<g>
					<path fill="#312E2E" d="M70.029,34.63c-0.006-0.001-0.014,0-0.021,0H61.69c-0.566,0-1.024-0.458-1.024-1.024v-8.318
						c0-0.414,0.25-0.788,0.632-0.946c0.384-0.158,0.822-0.071,1.115,0.223l8.207,8.206c0.262,0.186,0.432,0.49,0.432,0.835
						C71.052,34.172,70.595,34.63,70.029,34.63z M62.714,32.583h4.823l-4.823-4.823V32.583z"/>
				</g>
			</g>
		</g>
		<g>
			<g>
				<g>
					<rect x="22.594" y="41.668" fill="#F39323" width="5.46" height="24.059"/>
				</g>
			</g>
			<g>
				<g>
					<path fill="#312E2E" d="M28.054,66.751h-5.46c-0.565,0-1.024-0.458-1.024-1.024V41.668c0-0.565,0.458-1.023,1.024-1.023h5.46
						c0.566,0,1.023,0.458,1.023,1.023v24.059C29.078,66.293,28.62,66.751,28.054,66.751z M23.618,64.704h3.412V42.693h-3.412
						V64.704z"/>
				</g>
			</g>
		</g>
		<g>
			<g>
				<g>
					<rect x="31.467" y="36.208" fill="#EB5B28" width="5.46" height="29.52"/>
				</g>
			</g>
			<g>
				<g>
					<path fill="#312E2E" d="M36.927,66.751h-5.46c-0.565,0-1.023-0.458-1.023-1.024v-29.52c0-0.565,0.458-1.023,1.023-1.023h5.46
						c0.565,0,1.024,0.458,1.024,1.023v29.52C37.951,66.293,37.492,66.751,36.927,66.751z M32.491,64.704h3.413V37.232h-3.413
						V64.704z"/>
				</g>
			</g>
		</g>
		<g>
			<g>
				<g>
					<rect x="40.34" y="58.903" fill="#34BACE" width="5.46" height="6.824"/>
				</g>
			</g>
			<g>
				<g>
					<path fill="#312E2E" d="M45.8,66.751h-5.46c-0.565,0-1.024-0.458-1.024-1.024v-6.824c0-0.566,0.459-1.024,1.024-1.024h5.46
						c0.565,0,1.023,0.458,1.023,1.024v6.824C46.824,66.293,46.366,66.751,45.8,66.751z M41.364,64.704h3.412v-4.777h-3.412V64.704z
						"/>
				</g>
			</g>
		</g>
		<g>
			<g>
				<g>
					<rect x="49.213" y="49.517" fill="#F39323" width="5.46" height="16.211"/>
				</g>
			</g>
			<g>
				<g>
					<path fill="#312E2E" d="M54.673,66.751h-5.46c-0.565,0-1.024-0.458-1.024-1.024V49.517c0-0.565,0.458-1.023,1.024-1.023h5.46
						c0.564,0,1.023,0.458,1.023,1.023v16.211C55.697,66.293,55.238,66.751,54.673,66.751z M50.237,64.704h3.413V50.541h-3.413
						V64.704z"/>
				</g>
			</g>
		</g>
		<g>
			<g>
				<g>
					<rect x="58.086" y="45.082" fill="#F39323" width="5.459" height="20.646"/>
				</g>
			</g>
			<g>
				<g>
					<path fill="#312E2E" d="M63.546,66.751h-5.459c-0.565,0-1.024-0.458-1.024-1.024V45.082c0-0.566,0.459-1.023,1.024-1.023h5.459
						c0.566,0,1.024,0.458,1.024,1.023v20.646C64.57,66.293,64.112,66.751,63.546,66.751z M59.11,64.704h3.412V46.106H59.11V64.704z
						"/>
				</g>
			</g>
		</g>
		<g>
			<g>
				<g>
					<g>
						<path fill="#312E2E" d="M63.546,73.278H22.594c-0.565,0-1.024-0.458-1.024-1.024c0-0.566,0.458-1.024,1.024-1.024h40.952
							c0.566,0,1.024,0.458,1.024,1.024C64.57,72.82,64.112,73.278,63.546,73.278z"/>
					</g>
				</g>
			</g>
			<g>
				<g>
					<g>
						<path fill="#312E2E" d="M63.546,77.629H22.594c-0.565,0-1.024-0.458-1.024-1.024c0-0.565,0.458-1.024,1.024-1.024h40.952
							c0.566,0,1.024,0.458,1.024,1.024C64.57,77.171,64.112,77.629,63.546,77.629z"/>
					</g>
				</g>
			</g>
			<g>
				<g>
					<g>
						<path fill="#312E2E" d="M63.546,81.979H22.594c-0.565,0-1.024-0.458-1.024-1.023c0-0.566,0.458-1.024,1.024-1.024h40.952
							c0.566,0,1.024,0.458,1.024,1.024C64.57,81.522,64.112,81.979,63.546,81.979z"/>
					</g>
				</g>
			</g>
			<g>
				<g>
					<g>
						<path fill="#312E2E" d="M63.546,86.331H22.594c-0.565,0-1.024-0.458-1.024-1.023c0-0.566,0.458-1.024,1.024-1.024h40.952
							c0.566,0,1.024,0.458,1.024,1.024C64.57,85.873,64.112,86.331,63.546,86.331z"/>
					</g>
				</g>
			</g>
			<g>
				<g>
					<g>
						<path fill="#312E2E" d="M63.546,90.682H22.594c-0.565,0-1.024-0.458-1.024-1.024c0-0.565,0.458-1.023,1.024-1.023h40.952
							c0.566,0,1.024,0.458,1.024,1.023C64.57,90.225,64.112,90.682,63.546,90.682z"/>
					</g>
				</g>
			</g>
		</g>
	</g>
	<g>
		<g opacity="0.5">
			<g>
				<g>
					<circle fill="#F5F5F5" cx="43.07" cy="149.509" r="29.426"/>
				</g>
			</g>
		</g>
		<g id="XMLID_16_">
			<g>
				<g>
					<g>
						<path fill="#F5F5F5" d="M34.075,136.037c1.744-1.151,3.717-1.99,5.855-2.406h-0.027l0.968-4.178h4.399l0.968,4.178H46.21
							c2.13,0.416,4.123,1.244,5.855,2.406l3.625-2.258l3.107,3.107l-2.259,3.624c1.162,1.733,2.001,3.716,2.436,5.837l4.149,0.959
							v4.406l-4.149,0.961c-0.425,2.129-1.264,4.104-2.426,5.846l2.268,3.615l-3.116,3.116l-3.624-2.259
							c-1.733,1.162-3.715,2.001-5.837,2.426l-0.968,4.148h-4.399l-0.959-4.148c-2.13-0.425-4.112-1.264-5.846-2.426l-3.633,2.259
							l-3.108-3.106l2.269-3.634c-1.161-1.733-1.991-3.717-2.416-5.837l-4.168-0.961v-4.406l4.168-0.959
							c0.425-2.121,1.263-4.094,2.425-5.828l-2.268-3.633l3.107-3.117L34.075,136.037z M49.078,149.519
							c0-3.319-2.692-6.002-6.012-6.002c-3.32,0-6.004,2.683-6.004,6.002c0,3.32,2.684,6.012,6.004,6.012
							C46.386,155.531,49.078,152.839,49.078,149.519z"/>
					</g>
				</g>
			</g>
			<g>
				<g>
					<g>
						<path fill="#312E2E" d="M34.066,136.969c-0.509,0-0.921-0.413-0.921-0.923c0-0.238,0.09-0.457,0.24-0.62
							c0.169-0.19,0.416-0.311,0.69-0.311c0.508,0,0.922,0.413,0.922,0.921C34.997,136.546,34.574,136.969,34.066,136.969z"/>
					</g>
				</g>
				<g>
					<g>
						<path fill="#312E2E" d="M45.27,170.488h-4.399c-0.429,0-0.802-0.295-0.897-0.713l-0.829-3.582
							c-1.808-0.424-3.515-1.133-5.089-2.11l-3.137,1.951c-0.364,0.226-0.835,0.172-1.138-0.132l-3.108-3.107
							c-0.303-0.303-0.357-0.775-0.13-1.139l1.958-3.138c-0.969-1.563-1.673-3.267-2.101-5.077l-3.599-0.83
							c-0.418-0.096-0.715-0.469-0.715-0.898v-4.406c0-0.429,0.297-0.801,0.715-0.897l3.6-0.829c0.424-1.797,1.132-3.496,2.11-5.068
							l-1.96-3.138c-0.226-0.362-0.172-0.835,0.13-1.139l3.107-3.116c0.302-0.304,0.776-0.359,1.14-0.131l3.141,1.961
							c1.586-0.975,3.285-1.676,5.065-2.091l0.838-3.612c0.097-0.418,0.468-0.713,0.897-0.713h4.399c0.428,0,0.8,0.295,0.898,0.713
							l0.836,3.612c1.809,0.421,3.509,1.12,5.069,2.089l3.128-1.95c0.366-0.228,0.838-0.173,1.14,0.13l3.107,3.107
							c0.304,0.303,0.358,0.775,0.13,1.14l-1.949,3.128c0.974,1.568,1.684,3.271,2.116,5.078l3.584,0.829
							c0.418,0.097,0.714,0.469,0.714,0.897v4.406c0,0.43-0.296,0.803-0.714,0.898l-3.582,0.828
							c-0.424,1.799-1.131,3.504-2.109,5.086l1.957,3.119c0.229,0.364,0.175,0.838-0.129,1.143l-3.117,3.115
							c-0.301,0.304-0.773,0.358-1.138,0.131l-3.128-1.95c-1.572,0.978-3.276,1.685-5.081,2.11l-0.835,3.582
							C46.07,170.194,45.698,170.488,45.27,170.488z M41.604,168.644h2.934l0.802-3.438c0.082-0.351,0.362-0.623,0.717-0.693
							c1.979-0.395,3.831-1.165,5.505-2.287c0.3-0.199,0.692-0.207,1-0.016l3.002,1.871l2.081-2.079l-1.877-2.993
							c-0.194-0.309-0.188-0.699,0.013-1.001c1.126-1.688,1.895-3.544,2.289-5.515c0.07-0.355,0.343-0.637,0.696-0.719l3.435-0.795
							v-2.941l-3.435-0.794c-0.352-0.081-0.623-0.36-0.696-0.713c-0.406-1.987-1.178-3.841-2.296-5.509
							c-0.203-0.301-0.209-0.693-0.017-1.001l1.873-3.003l-2.073-2.071l-3.003,1.871c-0.308,0.19-0.698,0.185-1-0.017
							c-1.665-1.115-3.521-1.879-5.519-2.268c-0.439-0.085-0.752-0.475-0.745-0.917l-0.752-3.242h-2.934l-0.766,3.306
							c-0.021,0.416-0.312,0.771-0.732,0.854c-1.96,0.381-3.817,1.145-5.523,2.271c-0.3,0.199-0.69,0.203-0.996,0.013l-3.011-1.88
							l-2.071,2.08l1.879,3.012c0.193,0.309,0.186,0.699-0.016,1.002c-1.123,1.675-1.891,3.523-2.288,5.494
							c-0.07,0.355-0.342,0.637-0.695,0.718l-3.454,0.796v2.939l3.454,0.795c0.353,0.082,0.625,0.363,0.695,0.718
							c0.4,1.992,1.166,3.844,2.279,5.505c0.202,0.301,0.209,0.692,0.016,1l-1.88,3.012l2.074,2.072l3.011-1.873
							c0.308-0.189,0.698-0.184,1,0.018c1.674,1.123,3.53,1.893,5.513,2.287c0.355,0.07,0.637,0.343,0.718,0.695L41.604,168.644z"/>
					</g>
				</g>
				<g>
					<g>
						<path fill="#312E2E" d="M43.066,156.453c-3.818,0-6.925-3.111-6.925-6.934c0-3.818,3.106-6.924,6.925-6.924
							c3.824,0,6.933,3.105,6.933,6.924C49.999,153.341,46.89,156.453,43.066,156.453z M43.066,144.438
							c-2.803,0-5.082,2.28-5.082,5.081c0,2.808,2.279,5.091,5.082,5.091c2.807,0,5.092-2.283,5.092-5.091
							C48.158,146.718,45.873,144.438,43.066,144.438z"/>
					</g>
				</g>
				<g>
					<g>
						<path fill="#312E2E" d="M31.585,150.441c-0.509,0-0.922-0.413-0.922-0.922c0-3.319,1.292-6.433,3.638-8.768
							c2.332-2.342,5.445-3.635,8.765-3.635c0.509,0,0.92,0.413,0.92,0.922s-0.412,0.922-0.92,0.922c-2.826,0-5.476,1.1-7.461,3.095
							c-1.999,1.989-3.098,4.638-3.098,7.464C32.507,150.028,32.094,150.441,31.585,150.441z"/>
					</g>
				</g>
			</g>
		</g>
	</g>
	<g>
		<g>
			<g>
				<rect x="2.447" y="194.669" fill="#FFFFFF" width="17.235" height="17.233"/>
			</g>
		</g>
		<g>
			<g>
				<path fill="#312E2E" d="M19.682,212.826H2.447c-0.508,0-0.92-0.414-0.92-0.923v-17.233c0-0.508,0.413-0.922,0.92-0.922h17.235
					c0.508,0,0.921,0.414,0.921,0.922v17.233C20.603,212.412,20.19,212.826,19.682,212.826z M3.369,210.982H18.76v-15.391H3.369
					V210.982z"/>
			</g>
		</g>
	</g>
	<g>
		<g>
			<g>
				<line fill="#FFFFFF" x1="2.447" y1="194.669" x2="19.682" y2="211.903"/>
			</g>
		</g>
		<g>
			<g>
				<path fill="#312E2E" d="M19.682,212.826c-0.237,0-0.473-0.091-0.652-0.271L1.797,195.322c-0.36-0.359-0.36-0.943,0-1.304
					s0.942-0.36,1.303,0l17.233,17.233c0.36,0.359,0.36,0.943,0,1.304C20.152,212.735,19.918,212.826,19.682,212.826z"/>
			</g>
		</g>
	</g>
	<g>
		<g>
			<g>
				<line fill="#FFFFFF" x1="2.447" y1="211.903" x2="19.682" y2="194.669"/>
			</g>
		</g>
		<g>
			<g>
				<path fill="#312E2E" d="M2.447,212.826c-0.236,0-0.47-0.091-0.65-0.271c-0.36-0.36-0.36-0.944,0-1.304l17.233-17.233
					c0.36-0.36,0.943-0.36,1.303,0s0.36,0.944,0,1.304L3.1,212.555C2.919,212.735,2.683,212.826,2.447,212.826z"/>
			</g>
		</g>
	</g>
	<g>
		<g>
			<g>
				<rect x="146.784" y="31.238" fill="#FFFFFF" width="11.815" height="11.815"/>
			</g>
		</g>
		<g>
			<g>
				<path fill="#312E2E" d="M158.599,43.976h-11.815c-0.509,0-0.922-0.413-0.922-0.922V31.238c0-0.509,0.414-0.921,0.922-0.921
					h11.815c0.511,0,0.923,0.413,0.923,0.921v11.815C159.521,43.562,159.109,43.976,158.599,43.976z M147.705,42.132h9.974V32.16
					h-9.974V42.132z"/>
			</g>
		</g>
	</g>
	<g>
		<g>
			<g>
				<line fill="#FFFFFF" x1="146.784" y1="31.238" x2="158.599" y2="43.053"/>
			</g>
		</g>
		<g>
			<g>
				<path fill="#312E2E" d="M158.599,43.976c-0.235,0-0.471-0.09-0.649-0.27L146.132,31.89c-0.359-0.36-0.359-0.944,0-1.304
					s0.944-0.36,1.303,0l11.816,11.815c0.36,0.36,0.36,0.944,0,1.304C159.071,43.886,158.835,43.976,158.599,43.976z"/>
			</g>
		</g>
	</g>
	<g>
		<g>
			<g>
				<line fill="#FFFFFF" x1="146.784" y1="43.053" x2="158.599" y2="31.238"/>
			</g>
		</g>
		<g>
			<g>
				<path fill="#312E2E" d="M146.784,43.976c-0.236,0-0.472-0.09-0.652-0.27c-0.359-0.36-0.359-0.944,0-1.304l11.817-11.815
					c0.359-0.36,0.942-0.36,1.302,0c0.36,0.36,0.36,0.944,0,1.304l-11.816,11.815C147.256,43.886,147.02,43.976,146.784,43.976z"/>
			</g>
		</g>
	</g>
</g>
<g>
</g>
<g>
</g>
<g>
</g>
<g>
</g>
<g>
</g>
<g>
</g>
</svg>
