<?xml version="1.0" encoding="utf-8"?>
<!-- Generator: Adobe Illustrator 16.0.0, SVG Export Plug-In . SVG Version: 6.00 Build 0)  -->
<!DOCTYPE svg PUBLIC "-//W3C//DTD SVG 1.1//EN" "http://www.w3.org/Graphics/SVG/1.1/DTD/svg11.dtd">
<svg version="1.1" id="katman_1" xmlns="http://www.w3.org/2000/svg" xmlns:xlink="http://www.w3.org/1999/xlink" x="0px" y="0px"
	 width="405px" height="242.652px" viewBox="0 0 405 242.652" enable-background="new 0 0 405 242.652" xml:space="preserve">
<g>
	<g>
		<g>
			<g>
				<g>
					<circle fill="#52BDBD" cx="25.769" cy="101.428" r="25.769"/>
				</g>
			</g>
		</g>
		<g id="XMLID_11_">
			<g>
				<g>
					<g>
						<path fill="#F5F5F5" d="M17.894,89.631c1.523-1.01,3.253-1.744,5.126-2.107h-0.023l0.848-3.658h3.852l0.849,3.658h-0.025
							c1.865,0.363,3.609,1.09,5.128,2.107l3.174-1.979l2.721,2.723l-1.979,3.172c1.018,1.52,1.752,3.255,2.132,5.111l3.634,0.841
							v3.859l-3.634,0.839c-0.37,1.866-1.105,3.594-2.123,5.119l1.985,3.166l-2.729,2.729l-3.173-1.979
							c-1.518,1.019-3.253,1.754-5.11,2.125l-0.849,3.633h-3.852l-0.841-3.633c-1.863-0.371-3.601-1.106-5.118-2.125l-3.182,1.979
							l-2.722-2.721l1.987-3.182c-1.018-1.519-1.745-3.255-2.117-5.112l-3.649-0.839V99.5l3.649-0.841
							c0.372-1.856,1.107-3.584,2.124-5.103l-1.986-3.181l2.722-2.73L17.894,89.631z M31.031,101.436
							c0-2.906-2.359-5.256-5.266-5.256c-2.907,0-5.257,2.35-5.257,5.256c0,2.908,2.35,5.266,5.257,5.266
							C28.672,106.702,31.031,104.344,31.031,101.436z"/>
					</g>
				</g>
			</g>
			<g>
				<g>
					<g>
						<path fill="#312E2E" d="M17.885,90.731c-0.604,0-1.09-0.488-1.09-1.092c0-0.303,0.122-0.577,0.322-0.775
							c0.198-0.199,0.473-0.324,0.776-0.324c0.602,0,1.091,0.489,1.091,1.092C18.984,90.235,18.487,90.731,17.885,90.731z"/>
					</g>
				</g>
				<g>
					<g>
						<path fill="#312E2E" d="M27.695,120.083h-3.852c-0.508,0-0.949-0.352-1.063-0.846l-0.685-2.964
							c-1.492-0.369-2.907-0.956-4.218-1.75l-2.6,1.615c-0.43,0.269-0.988,0.205-1.348-0.154l-2.72-2.721
							c-0.36-0.358-0.425-0.919-0.154-1.35l1.622-2.599c-0.786-1.303-1.372-2.713-1.741-4.207l-2.979-0.687
							c-0.496-0.113-0.848-0.555-0.848-1.062V99.5c0-0.509,0.352-0.95,0.848-1.063l2.979-0.687c0.369-1.481,0.955-2.89,1.748-4.199
							l-1.622-2.599c-0.269-0.43-0.203-0.988,0.154-1.348l2.72-2.729c0.36-0.359,0.919-0.425,1.351-0.156l2.603,1.625
							c1.318-0.791,2.726-1.371,4.196-1.732l0.693-2.992c0.116-0.495,0.556-0.845,1.063-0.845h3.852c0.508,0,0.949,0.35,1.062,0.845
							l0.693,2.992c1.492,0.365,2.898,0.944,4.2,1.73l2.591-1.615c0.434-0.27,0.992-0.203,1.349,0.154l2.721,2.722
							c0.358,0.358,0.423,0.917,0.155,1.349l-1.614,2.59c0.79,1.307,1.378,2.717,1.753,4.208l2.969,0.687
							c0.494,0.114,0.846,0.555,0.846,1.063v3.859c0,0.507-0.352,0.948-0.846,1.062l-2.965,0.686
							c-0.366,1.483-0.954,2.896-1.749,4.214l1.621,2.582c0.27,0.431,0.206,0.992-0.154,1.352l-2.728,2.729
							c-0.358,0.359-0.917,0.425-1.35,0.153l-2.59-1.613c-1.311,0.793-2.721,1.379-4.211,1.748l-0.692,2.967
							C28.643,119.733,28.203,120.083,27.695,120.083z M24.712,117.9h2.117l0.651-2.79c0.098-0.417,0.429-0.738,0.849-0.822
							c1.697-0.34,3.284-0.999,4.718-1.961c0.356-0.239,0.82-0.246,1.186-0.019l2.436,1.52l1.502-1.501l-1.523-2.43
							c-0.229-0.363-0.222-0.828,0.015-1.186c0.967-1.447,1.628-3.037,1.963-4.727c0.083-0.42,0.406-0.754,0.825-0.85l2.787-0.645
							v-2.124l-2.787-0.645c-0.417-0.097-0.74-0.426-0.824-0.845c-0.349-1.703-1.011-3.291-1.968-4.723
							c-0.239-0.356-0.247-0.82-0.021-1.185l1.52-2.437l-1.495-1.496l-2.439,1.52c-0.364,0.227-0.826,0.22-1.183-0.02
							c-1.427-0.955-3.018-1.609-4.729-1.942c-0.51-0.1-0.874-0.542-0.883-1.05l-0.602-2.589h-2.115l-0.614,2.651
							c-0.035,0.482-0.38,0.893-0.869,0.987c-1.682,0.326-3.275,0.981-4.733,1.946c-0.355,0.235-0.816,0.241-1.179,0.016
							l-2.444-1.525l-1.496,1.5l1.526,2.446c0.228,0.364,0.22,0.829-0.019,1.186c-0.963,1.437-1.622,3.021-1.961,4.71
							c-0.084,0.42-0.407,0.752-0.824,0.849l-2.804,0.646v2.123l2.804,0.645c0.417,0.096,0.74,0.429,0.824,0.85
							c0.343,1.707,1,3.295,1.953,4.718c0.238,0.356,0.246,0.821,0.019,1.185l-1.525,2.445l1.493,1.496l2.447-1.521
							c0.363-0.229,0.825-0.22,1.183,0.02c1.436,0.963,3.024,1.622,4.725,1.961c0.422,0.084,0.755,0.406,0.85,0.824L24.712,117.9z"
							/>
					</g>
				</g>
				<g>
					<g>
						<path fill="#312E2E" d="M25.766,107.792c-3.5,0-6.349-2.851-6.349-6.356c0-3.5,2.849-6.347,6.349-6.347
							c3.505,0,6.355,2.847,6.355,6.347C32.121,104.942,29.271,107.792,25.766,107.792z M25.766,97.272
							c-2.298,0-4.166,1.868-4.166,4.164c0,2.302,1.868,4.174,4.166,4.174c2.3,0,4.174-1.872,4.174-4.174
							C29.939,99.14,28.065,97.272,25.766,97.272z"/>
					</g>
				</g>
				<g>
					<g>
						<path fill="#312E2E" d="M15.713,102.528c-0.603,0-1.092-0.488-1.092-1.092c0-2.98,1.16-5.779,3.268-7.878
							c2.096-2.105,4.894-3.265,7.877-3.265c0.603,0,1.09,0.488,1.09,1.091s-0.487,1.091-1.09,1.091
							c-2.398,0-4.646,0.932-6.334,2.626c-1.695,1.688-2.628,3.938-2.628,6.335C16.804,102.04,16.315,102.528,15.713,102.528z"/>
					</g>
				</g>
			</g>
		</g>
	</g>
	<g>
		<g>
			<g>
				<g>
					<g>
						<path fill="#FFFFFF" d="M126.073,25.463c1.332,0,2.425,1.091,2.425,2.425v26.067c0,1.334-1.093,2.425-2.425,2.425H91.519
							c-1.334,0-3.005-0.924-3.713-2.054l-7.124-11.35c-0.707-1.13-0.707-2.979,0-4.108l7.124-11.35
							c0.708-1.13,2.379-2.055,3.713-2.055H126.073z"/>
					</g>
				</g>
			</g>
			<g>
				<g>
					<g>
						<path fill="#312E2E" d="M126.073,57.471H91.519c-1.699,0-3.736-1.127-4.638-2.565l-7.124-11.35
							c-0.924-1.478-0.924-3.791,0-5.268l7.124-11.351c0.901-1.438,2.938-2.565,4.638-2.565h34.555c1.938,0,3.517,1.578,3.517,3.516
							v26.067C129.59,55.894,128.011,57.471,126.073,57.471z M91.519,26.554c-0.953,0-2.283,0.736-2.788,1.543l-7.124,11.351
							c-0.482,0.771-0.482,2.178,0,2.949l7.124,11.349c0.505,0.808,1.835,1.543,2.788,1.543h34.555c0.735,0,1.332-0.598,1.332-1.334
							V27.888c0-0.735-0.597-1.334-1.332-1.334H91.519z"/>
					</g>
				</g>
			</g>
		</g>
		<g>
			<g>
				<g>
					<path fill="#312E2E" d="M91.216,45.954c-2.774,0-5.033-2.257-5.033-5.032s2.259-5.032,5.033-5.032
						c2.773,0,5.032,2.257,5.032,5.032S93.989,45.954,91.216,45.954z M91.216,38.072c-1.571,0-2.85,1.278-2.85,2.85
						c0,1.571,1.278,2.849,2.85,2.849c1.57,0,2.849-1.278,2.849-2.849C94.064,39.351,92.786,38.072,91.216,38.072z"/>
				</g>
			</g>
		</g>
		<g>
			<g>
				<g>
					<path fill="#312E2E" d="M91.216,42.013H48.78c-0.603,0-1.092-0.488-1.092-1.091s0.489-1.091,1.092-1.091h42.436
						c0.603,0,1.092,0.488,1.092,1.091S91.818,42.013,91.216,42.013z"/>
				</g>
			</g>
		</g>
		<g>
			<g>
				<g>
					<path fill="#312E2E" d="M64.087,57.774H27.184c-0.603,0-1.092-0.489-1.092-1.091c0-0.603,0.489-1.091,1.092-1.091h36.903
						c1.571,0,2.849-1.279,2.849-2.85c0-1.571-1.277-2.85-2.849-2.85H48.78c-2.774,0-5.033-2.257-5.033-5.032
						c0-2.773,2.259-5.031,5.033-5.031c0.603,0,1.092,0.488,1.092,1.091s-0.489,1.091-1.092,1.091c-1.571,0-2.85,1.278-2.85,2.849
						c0,1.572,1.278,2.85,2.85,2.85h15.307c2.774,0,5.032,2.257,5.032,5.032C69.119,55.517,66.861,57.774,64.087,57.774z"/>
				</g>
			</g>
		</g>
	</g>
	<g opacity="0.5">
		<g>
			<g>
				<circle fill="#F9B03D" cx="101.007" cy="158.887" r="45.842"/>
			</g>
		</g>
	</g>
	<g opacity="0.5">
		<g>
			<g>
				<circle fill="#FFFFFF" cx="300.205" cy="110.93" r="45.843"/>
			</g>
		</g>
	</g>
	<g>
		<g>
			<g>
				<path fill="#312E2E" d="M235.104,4.85c-1.599,0-2.446-0.982-3.007-1.634c-0.516-0.597-0.721-0.791-1.172-0.791
					s-0.656,0.194-1.172,0.791c-0.561,0.651-1.406,1.634-3.006,1.634s-2.445-0.983-3.006-1.634
					c-0.514-0.598-0.719-0.791-1.168-0.791c-0.447,0-0.65,0.193-1.164,0.79c-0.561,0.651-1.406,1.635-3.006,1.635
					s-2.445-0.984-3.006-1.635c-0.512-0.597-0.717-0.79-1.164-0.79s-0.652,0.193-1.162,0.79c-0.561,0.651-1.406,1.635-3.004,1.635
					s-2.445-0.983-3.004-1.634c-0.514-0.598-0.719-0.791-1.166-0.791c-0.449,0-0.652,0.193-1.166,0.79
					c-0.561,0.651-1.404,1.635-3.006,1.635c-1.598,0-2.443-0.984-3.003-1.635c-0.513-0.597-0.717-0.79-1.164-0.79
					c-0.67,0-1.213-0.543-1.213-1.212S196.889,0,197.559,0c1.599,0,2.443,0.984,3.003,1.635c0.512,0.597,0.717,0.79,1.164,0.79
					c0.449,0,0.654-0.193,1.168-0.791C203.453,0.983,204.298,0,205.898,0c1.598,0,2.445,0.984,3.004,1.635
					c0.514,0.597,0.717,0.79,1.166,0.79c0.445,0,0.65-0.193,1.162-0.79C211.791,0.984,212.636,0,214.234,0
					c1.6,0,2.445,0.983,3.004,1.634c0.514,0.598,0.719,0.791,1.166,0.791c0.449,0,0.652-0.193,1.168-0.79
					C220.13,0.983,220.974,0,222.574,0s2.445,0.983,3.006,1.634c0.514,0.598,0.719,0.791,1.168,0.791s0.654-0.193,1.17-0.791
					C228.478,0.983,229.326,0,230.925,0c1.602,0,2.447,0.983,3.008,1.634c0.515,0.598,0.722,0.791,1.171,0.791
					c0.67,0,1.213,0.543,1.213,1.212C236.317,4.306,235.774,4.85,235.104,4.85z"/>
			</g>
		</g>
	</g>
	<g>
		<g>
			<g>
				<path fill="#312E2E" d="M396.973,58.805c-1.6,0-2.445-0.983-3.008-1.634c-0.514-0.598-0.721-0.792-1.17-0.792
					c-0.453,0-0.656,0.194-1.172,0.792c-0.562,0.651-1.408,1.634-3.008,1.634s-2.445-0.984-3.004-1.634
					c-0.516-0.599-0.719-0.792-1.168-0.792s-0.652,0.193-1.166,0.791c-0.559,0.651-1.404,1.635-3.006,1.635
					c-1.598,0-2.445-0.984-3.004-1.635c-0.514-0.597-0.717-0.79-1.166-0.79c-0.445,0-0.648,0.193-1.162,0.791
					c-0.561,0.651-1.404,1.635-3.004,1.635c-1.598,0-2.443-0.984-3.002-1.634c-0.514-0.599-0.719-0.792-1.168-0.792
					c-0.447,0-0.652,0.193-1.164,0.79c-0.561,0.651-1.406,1.635-3.006,1.635s-2.445-0.984-3.006-1.635
					c-0.512-0.598-0.715-0.791-1.162-0.791c-0.67,0-1.213-0.542-1.213-1.212c0-0.67,0.543-1.213,1.213-1.213
					c1.598,0,2.443,0.984,3.004,1.635c0.512,0.597,0.715,0.79,1.164,0.79c0.447,0,0.652-0.192,1.166-0.791
					c0.559-0.651,1.404-1.634,3.004-1.634s2.445,0.984,3.004,1.635c0.514,0.597,0.719,0.79,1.166,0.79s0.65-0.192,1.164-0.789
					c0.561-0.652,1.404-1.636,3.002-1.636c1.6,0,2.445,0.983,3.004,1.634c0.514,0.598,0.719,0.791,1.166,0.791
					c0.449,0,0.654-0.192,1.168-0.79c0.559-0.652,1.404-1.635,3.004-1.635s2.445,0.983,3.004,1.634
					c0.514,0.598,0.719,0.791,1.168,0.791s0.654-0.192,1.17-0.791c0.561-0.651,1.408-1.634,3.01-1.634
					c1.6,0,2.445,0.983,3.008,1.634c0.514,0.598,0.721,0.791,1.17,0.791c0.67,0,1.213,0.543,1.213,1.213
					C398.186,58.262,397.643,58.805,396.973,58.805z"/>
			</g>
		</g>
	</g>
	<g>
		<g>
			<g>
				<g>
					<path fill="#312E2E" d="M181.228,26.205c-0.602,0-1.092-0.488-1.092-1.091v-6.147c0-0.603,0.49-1.091,1.092-1.091
						c0.603,0,1.092,0.488,1.092,1.091v6.147C182.319,25.716,181.83,26.205,181.228,26.205z"/>
				</g>
			</g>
		</g>
		<g>
			<g>
				<g>
					<path fill="#312E2E" d="M171.603,28.784c-0.378,0-0.743-0.196-0.946-0.545l-3.074-5.324c-0.302-0.522-0.123-1.189,0.398-1.491
						c0.523-0.302,1.188-0.122,1.491,0.399l3.075,5.323c0.303,0.522,0.123,1.189-0.399,1.49
						C171.976,28.737,171.787,28.784,171.603,28.784z"/>
				</g>
			</g>
		</g>
		<g>
			<g>
				<g>
					<path fill="#312E2E" d="M164.551,35.832c-0.184,0-0.374-0.047-0.545-0.146l-5.323-3.073c-0.522-0.302-0.701-0.969-0.398-1.491
						c0.302-0.521,0.967-0.703,1.49-0.399l5.323,3.073c0.521,0.301,0.7,0.968,0.399,1.49
						C165.294,35.636,164.929,35.832,164.551,35.832z"/>
				</g>
			</g>
		</g>
		<g>
			<g>
				<g>
					<path fill="#312E2E" d="M161.973,45.459h-6.147c-0.603,0-1.092-0.488-1.092-1.091c0-0.603,0.489-1.091,1.092-1.091h6.147
						c0.604,0,1.092,0.488,1.092,1.091C163.064,44.971,162.576,45.459,161.973,45.459z"/>
				</g>
			</g>
		</g>
		<g>
			<g>
				<g>
					<path fill="#312E2E" d="M159.229,58.161c-0.377,0-0.743-0.196-0.945-0.545c-0.303-0.522-0.124-1.189,0.398-1.491l5.323-3.073
						c0.523-0.303,1.19-0.121,1.491,0.399c0.301,0.522,0.122,1.189-0.399,1.491l-5.323,3.073
						C159.603,58.114,159.415,58.161,159.229,58.161z"/>
				</g>
			</g>
		</g>
		<g>
			<g>
				<g>
					<path fill="#312E2E" d="M168.525,67.459c-0.186,0-0.373-0.047-0.545-0.146c-0.521-0.302-0.7-0.969-0.398-1.491l3.074-5.323
						c0.302-0.522,0.968-0.703,1.491-0.399c0.522,0.301,0.702,0.968,0.399,1.49l-3.075,5.323
						C169.27,67.263,168.903,67.459,168.525,67.459z"/>
				</g>
			</g>
		</g>
		<g>
			<g>
				<g>
					<path fill="#312E2E" d="M181.228,70.862c-0.602,0-1.092-0.488-1.092-1.091v-6.147c0-0.603,0.49-1.091,1.092-1.091
						c0.603,0,1.092,0.488,1.092,1.091v6.147C182.319,70.374,181.83,70.862,181.228,70.862z"/>
				</g>
			</g>
		</g>
		<g>
			<g>
				<g>
					<path fill="#312E2E" d="M193.93,67.459c-0.377,0-0.743-0.196-0.945-0.546l-3.073-5.323c-0.302-0.522-0.124-1.189,0.398-1.49
						c0.522-0.304,1.189-0.123,1.491,0.399l3.074,5.323c0.301,0.522,0.123,1.189-0.398,1.491
						C194.304,67.412,194.115,67.459,193.93,67.459z"/>
				</g>
			</g>
		</g>
		<g>
			<g>
				<g>
					<path fill="#312E2E" d="M203.226,58.161c-0.186,0-0.375-0.047-0.545-0.147l-5.324-3.073c-0.522-0.301-0.7-0.968-0.399-1.491
						c0.303-0.52,0.968-0.702,1.491-0.399l5.324,3.073c0.521,0.302,0.701,0.968,0.398,1.491
						C203.968,57.965,203.603,58.161,203.226,58.161z"/>
				</g>
			</g>
		</g>
		<g>
			<g>
				<g>
					<path fill="#312E2E" d="M206.63,45.459h-6.146c-0.604,0-1.092-0.488-1.092-1.091c0-0.603,0.488-1.091,1.092-1.091h6.146
						c0.604,0,1.092,0.488,1.092,1.091C207.722,44.971,207.234,45.459,206.63,45.459z"/>
				</g>
			</g>
		</g>
		<g>
			<g>
				<g>
					<path fill="#312E2E" d="M197.905,35.832c-0.378,0-0.745-0.196-0.947-0.546c-0.301-0.522-0.123-1.189,0.399-1.49l5.324-3.073
						c0.523-0.303,1.189-0.122,1.49,0.399c0.303,0.522,0.123,1.189-0.398,1.491l-5.324,3.073
						C198.277,35.785,198.09,35.832,197.905,35.832z"/>
				</g>
			</g>
		</g>
		<g>
			<g>
				<g>
					<path fill="#312E2E" d="M190.855,28.784c-0.186,0-0.374-0.047-0.546-0.147c-0.522-0.301-0.7-0.968-0.398-1.49l3.073-5.323
						c0.302-0.522,0.97-0.702,1.492-0.399c0.521,0.301,0.699,0.968,0.398,1.491l-3.074,5.323
						C191.6,28.588,191.232,28.784,190.855,28.784z"/>
				</g>
			</g>
		</g>
		<g>
			<g>
				<g>
					<path fill="#312E2E" d="M172.769,51.408c-0.344,0-0.681-0.162-0.894-0.464c-0.347-0.493-0.228-1.173,0.266-1.52l7.995-5.623
						V30.043c0-0.603,0.49-1.091,1.092-1.091c0.603,0,1.092,0.488,1.092,1.091v14.326c0,0.355-0.173,0.688-0.464,0.893l-8.46,5.949
						C173.205,51.343,172.985,51.408,172.769,51.408z"/>
				</g>
			</g>
		</g>
		<g>
			<g>
				<g>
					<circle fill="#312E2E" cx="181.229" cy="44.369" r="1.762"/>
				</g>
			</g>
		</g>
	</g>
	<g>
		<g>
			<g>
				<g>
					<path fill="#312E2E" d="M354.54,194.557h-2.729c-0.67,0-1.213-0.542-1.213-1.212c0-0.669,0.543-1.212,1.213-1.212h2.729
						c0.67,0,1.211,0.543,1.211,1.212C355.75,194.015,355.209,194.557,354.54,194.557z"/>
				</g>
			</g>
		</g>
		<g>
			<g>
				<g>
					<path fill="#312E2E" d="M346.202,194.557h-7.576c-0.67,0-1.213-0.542-1.213-1.212c0-0.669,0.543-1.212,1.213-1.212h7.576
						c0.672,0,1.215,0.543,1.215,1.212C347.417,194.015,346.874,194.557,346.202,194.557z"/>
				</g>
			</g>
		</g>
		<g>
			<g>
				<g>
					<path fill="#312E2E" d="M353.821,186.928h-2.729c-0.67,0-1.211-0.543-1.211-1.213c0-0.669,0.541-1.213,1.211-1.213h2.729
						c0.67,0,1.211,0.544,1.211,1.213C355.032,186.385,354.491,186.928,353.821,186.928z"/>
				</g>
			</g>
		</g>
		<g>
			<g>
				<g>
					<path fill="#312E2E" d="M367.006,186.928h-7.578c-0.67,0-1.213-0.543-1.213-1.213c0-0.669,0.543-1.213,1.213-1.213h7.578
						c0.67,0,1.213,0.544,1.213,1.213C368.219,186.385,367.676,186.928,367.006,186.928z"/>
				</g>
			</g>
		</g>
	</g>
	<g>
		<g>
			<g>
				<path fill="#312E2E" d="M194.248,97.223h-2.729c-0.67,0-1.212-0.544-1.212-1.213c0-0.67,0.542-1.213,1.212-1.213h2.729
					c0.67,0,1.213,0.543,1.213,1.213C195.461,96.679,194.918,97.223,194.248,97.223z"/>
			</g>
		</g>
	</g>
	<g>
		<g>
			<g>
				<path fill="#312E2E" d="M185.913,97.223h-7.578c-0.67,0-1.212-0.544-1.212-1.213c0-0.67,0.542-1.213,1.212-1.213h7.578
					c0.67,0,1.213,0.543,1.213,1.213C187.126,96.679,186.583,97.223,185.913,97.223z"/>
			</g>
		</g>
	</g>
	<g>
		<g>
			<g>
				<path fill="#312E2E" d="M193.53,89.592h-2.728c-0.67,0-1.213-0.543-1.213-1.213c0-0.669,0.543-1.212,1.213-1.212h2.728
					c0.67,0,1.213,0.543,1.213,1.212C194.743,89.049,194.2,89.592,193.53,89.592z"/>
			</g>
		</g>
	</g>
	<g>
		<g>
			<g>
				<path fill="#312E2E" d="M206.714,89.592h-7.576c-0.67,0-1.212-0.543-1.212-1.213c0-0.669,0.542-1.212,1.212-1.212h7.576
					c0.672,0,1.213,0.543,1.213,1.212C207.927,89.049,207.386,89.592,206.714,89.592z"/>
			</g>
		</g>
	</g>
	<g>
		<g>
			<g>
				<path fill="#312E2E" d="M64.177,14.968h-2.729c-0.669,0-1.212-0.543-1.212-1.213c0-0.669,0.543-1.212,1.212-1.212h2.729
					c0.669,0,1.212,0.543,1.212,1.212C65.389,14.425,64.846,14.968,64.177,14.968z"/>
			</g>
		</g>
	</g>
	<g>
		<g>
			<g>
				<path fill="#312E2E" d="M77.361,14.968h-7.578c-0.67,0-1.212-0.543-1.212-1.213c0-0.669,0.542-1.212,1.212-1.212h7.578
					c0.67,0,1.213,0.543,1.213,1.212C78.574,14.425,78.031,14.968,77.361,14.968z"/>
			</g>
		</g>
	</g>
	<g opacity="0.5">
		<g>
			<g>
				<path fill="#FFFFFF" d="M380.147,228.038H129.068c-5.691,0-10.307-4.613-10.307-10.305s4.615-10.307,10.307-10.307h251.079
					c2.338,0,4.242-1.903,4.242-4.243V106.19c0-5.691,4.613-10.307,10.307-10.307c5.691,0,10.305,4.615,10.305,10.307v96.993
					C405,216.888,393.85,228.038,380.147,228.038z"/>
			</g>
		</g>
	</g>
	<g>
		<g>
			<g>
				<path fill="#312E2E" d="M376.752,218.944h-4.85c-0.672,0-1.213-0.543-1.213-1.212s0.541-1.213,1.213-1.213h4.85
					c0.67,0,1.213,0.544,1.213,1.213S377.422,218.944,376.752,218.944z M367.053,218.944h-4.85c-0.672,0-1.213-0.543-1.213-1.212
					s0.541-1.213,1.213-1.213h4.85c0.67,0,1.211,0.544,1.211,1.213S367.723,218.944,367.053,218.944z M357.352,218.944h-4.85
					c-0.668,0-1.211-0.543-1.211-1.212s0.543-1.213,1.211-1.213h4.85c0.672,0,1.213,0.544,1.213,1.213
					S358.024,218.944,357.352,218.944z M347.653,218.944h-4.848c-0.672,0-1.213-0.543-1.213-1.212s0.541-1.213,1.213-1.213h4.848
					c0.672,0,1.213,0.544,1.213,1.213S348.325,218.944,347.653,218.944z M337.956,218.944h-4.85c-0.672,0-1.213-0.543-1.213-1.212
					s0.541-1.213,1.213-1.213h4.85c0.668,0,1.211,0.544,1.211,1.213S338.624,218.944,337.956,218.944z M328.254,218.944h-4.85
					c-0.67,0-1.211-0.543-1.211-1.212s0.541-1.213,1.211-1.213h4.85c0.672,0,1.213,0.544,1.213,1.213
					S328.926,218.944,328.254,218.944z M318.555,218.944h-4.85c-0.67,0-1.213-0.543-1.213-1.212s0.543-1.213,1.213-1.213h4.85
					c0.672,0,1.213,0.544,1.213,1.213S319.227,218.944,318.555,218.944z M308.856,218.944h-4.85c-0.67,0-1.213-0.543-1.213-1.212
					s0.543-1.213,1.213-1.213h4.85c0.67,0,1.213,0.544,1.213,1.213S309.526,218.944,308.856,218.944z M299.157,218.944h-4.85
					c-0.67,0-1.213-0.543-1.213-1.212s0.543-1.213,1.213-1.213h4.85c0.67,0,1.211,0.544,1.211,1.213
					S299.827,218.944,299.157,218.944z M289.458,218.944h-4.85c-0.67,0-1.213-0.543-1.213-1.212s0.543-1.213,1.213-1.213h4.85
					c0.67,0,1.211,0.544,1.211,1.213S290.127,218.944,289.458,218.944z M279.758,218.944h-4.85c-0.672,0-1.213-0.543-1.213-1.212
					s0.541-1.213,1.213-1.213h4.85c0.67,0,1.211,0.544,1.211,1.213S280.428,218.944,279.758,218.944z M270.059,218.944h-4.85
					c-0.672,0-1.213-0.543-1.213-1.212s0.541-1.213,1.213-1.213h4.85c0.67,0,1.211,0.544,1.211,1.213
					S270.729,218.944,270.059,218.944z M260.358,218.944h-4.85c-0.668,0-1.213-0.543-1.213-1.212s0.545-1.213,1.213-1.213h4.85
					c0.672,0,1.213,0.544,1.213,1.213S261.03,218.944,260.358,218.944z M250.659,218.944h-4.85c-0.67,0-1.211-0.543-1.211-1.212
					s0.541-1.213,1.211-1.213h4.85c0.67,0,1.213,0.544,1.213,1.213S251.329,218.944,250.659,218.944z M240.961,218.944h-4.852
					c-0.67,0-1.211-0.543-1.211-1.212s0.541-1.213,1.211-1.213h4.852c0.668,0,1.211,0.544,1.211,1.213
					S241.629,218.944,240.961,218.944z M231.261,218.944h-4.85c-0.67,0-1.213-0.543-1.213-1.212s0.543-1.213,1.213-1.213h4.85
					c0.67,0,1.211,0.544,1.211,1.213S231.931,218.944,231.261,218.944z M221.562,218.944h-4.852c-0.67,0-1.213-0.543-1.213-1.212
					s0.543-1.213,1.213-1.213h4.852c0.668,0,1.211,0.544,1.211,1.213S222.23,218.944,221.562,218.944z M211.861,218.944h-4.85
					c-0.67,0-1.213-0.543-1.213-1.212s0.543-1.213,1.213-1.213h4.85c0.672,0,1.213,0.544,1.213,1.213
					S212.533,218.944,211.861,218.944z M202.162,218.944h-4.85c-0.669,0-1.212-0.543-1.212-1.212s0.543-1.213,1.212-1.213h4.85
					c0.67,0,1.213,0.544,1.213,1.213S202.832,218.944,202.162,218.944z M192.463,218.944h-4.85c-0.67,0-1.212-0.543-1.212-1.212
					s0.542-1.213,1.212-1.213h4.85c0.67,0,1.212,0.544,1.212,1.213S193.133,218.944,192.463,218.944z M182.764,218.944h-4.85
					c-0.671,0-1.213-0.543-1.213-1.212s0.542-1.213,1.213-1.213h4.85c0.67,0,1.212,0.544,1.212,1.213
					S183.434,218.944,182.764,218.944z M173.064,218.944h-4.85c-0.671,0-1.213-0.543-1.213-1.212s0.542-1.213,1.213-1.213h4.85
					c0.67,0,1.211,0.544,1.211,1.213S173.734,218.944,173.064,218.944z M163.364,218.944h-4.85c-0.67,0-1.213-0.543-1.213-1.212
					s0.543-1.213,1.213-1.213h4.85c0.671,0,1.213,0.544,1.213,1.213S164.035,218.944,163.364,218.944z M153.665,218.944h-4.851
					c-0.67,0-1.211-0.543-1.211-1.212s0.541-1.213,1.211-1.213h4.851c0.67,0,1.213,0.544,1.213,1.213
					S154.335,218.944,153.665,218.944z M143.965,218.944h-4.85c-0.669,0-1.211-0.543-1.211-1.212s0.542-1.213,1.211-1.213h4.85
					c0.671,0,1.213,0.544,1.213,1.213S144.636,218.944,143.965,218.944z M134.266,218.944h-4.849c-0.67,0-1.213-0.543-1.213-1.212
					s0.543-1.213,1.213-1.213h4.849c0.671,0,1.213,0.544,1.213,1.213S134.937,218.944,134.266,218.944z M381.6,218.903
					c-0.629,0-1.16-0.485-1.209-1.122c-0.051-0.667,0.451-1.249,1.119-1.299c1.486-0.112,2.93-0.47,4.293-1.062
					c0.611-0.266,1.328,0.015,1.596,0.629c0.268,0.615-0.014,1.33-0.629,1.596c-1.613,0.7-3.322,1.123-5.078,1.254
					C381.661,218.902,381.631,218.903,381.6,218.903z M390.333,215.114c-0.328,0-0.654-0.133-0.895-0.393
					c-0.453-0.493-0.42-1.262,0.074-1.713c1.1-1.01,2.014-2.184,2.721-3.49c0.318-0.588,1.051-0.809,1.643-0.49
					c0.588,0.319,0.809,1.055,0.49,1.644c-0.834,1.544-1.916,2.931-3.213,4.122C390.918,215.008,390.625,215.114,390.333,215.114z
					 M394.856,206.74c-0.064,0-0.129-0.005-0.195-0.016c-0.66-0.106-1.109-0.729-1.002-1.391c0.113-0.704,0.172-1.429,0.172-2.152
					v-2.493c0-0.67,0.543-1.213,1.211-1.213c0.672,0,1.213,0.543,1.213,1.213v2.494c0,0.854-0.068,1.708-0.203,2.538
					C395.956,206.315,395.442,206.74,394.856,206.74z M395.042,197.05c-0.668,0-1.211-0.542-1.211-1.212v-4.85
					c0-0.67,0.543-1.212,1.211-1.212c0.672,0,1.213,0.542,1.213,1.212v4.85C396.254,196.508,395.713,197.05,395.042,197.05z
					 M395.042,187.352c-0.668,0-1.211-0.544-1.211-1.213v-4.851c0-0.669,0.543-1.212,1.211-1.212c0.672,0,1.213,0.543,1.213,1.212
					v4.851C396.254,186.808,395.713,187.352,395.042,187.352z M395.042,177.652c-0.668,0-1.211-0.543-1.211-1.212v-4.85
					c0-0.67,0.543-1.213,1.211-1.213c0.672,0,1.213,0.543,1.213,1.213v4.85C396.254,177.109,395.713,177.652,395.042,177.652z
					 M395.042,167.952c-0.668,0-1.211-0.543-1.211-1.212v-4.849c0-0.671,0.543-1.213,1.211-1.213c0.672,0,1.213,0.542,1.213,1.213
					v4.849C396.254,167.409,395.713,167.952,395.042,167.952z M395.042,158.252c-0.668,0-1.211-0.543-1.211-1.212v-4.851
					c0-0.669,0.543-1.211,1.211-1.211c0.672,0,1.213,0.542,1.213,1.211v4.851C396.254,157.709,395.713,158.252,395.042,158.252z
					 M395.042,148.553c-0.668,0-1.211-0.543-1.211-1.211v-4.852c0-0.669,0.543-1.213,1.211-1.213c0.672,0,1.213,0.544,1.213,1.213
					v4.852C396.254,148.01,395.713,148.553,395.042,148.553z M395.042,138.854c-0.668,0-1.211-0.543-1.211-1.213v-4.85
					c0-0.669,0.543-1.212,1.211-1.212c0.672,0,1.213,0.543,1.213,1.212v4.85C396.254,138.311,395.713,138.854,395.042,138.854z
					 M395.042,129.155c-0.668,0-1.211-0.543-1.211-1.213v-4.85c0-0.67,0.543-1.213,1.211-1.213c0.672,0,1.213,0.543,1.213,1.213
					v4.85C396.254,128.612,395.713,129.155,395.042,129.155z M395.042,119.456c-0.668,0-1.211-0.543-1.211-1.213v-4.85
					c0-0.67,0.543-1.213,1.211-1.213c0.672,0,1.213,0.543,1.213,1.213v4.85C396.254,118.913,395.713,119.456,395.042,119.456z
					 M395.042,109.756c-0.668,0-1.211-0.543-1.211-1.213v-2.355c0-0.668,0.543-1.211,1.211-1.211c0.672,0,1.213,0.543,1.213,1.211
					v2.355C396.254,109.213,395.713,109.756,395.042,109.756z"/>
			</g>
		</g>
	</g>
	<g>
		<g>
			<g>
				<g>
					<g>
						<polygon fill="#EB5B28" points="149.63,97.192 142.149,112.542 149.63,127.903 121.646,127.903 121.646,120.581 
							132.656,120.581 132.656,97.192 						"/>
					</g>
				</g>
			</g>
			<g>
				<g>
					<g>
						<polygon fill="#EB5B28" points="84.462,89.857 84.462,120.581 121.646,120.581 132.656,120.581 132.656,97.192 
							132.656,89.857 						"/>
					</g>
				</g>
			</g>
			<g>
				<g>
					<g>
						<polygon fill="#52BDBD" points="95.676,182.305 95.676,192.307 66.882,192.307 66.882,182.305 71.73,182.305 90.826,182.305 
													"/>
					</g>
				</g>
			</g>
			<g>
				<g>
					<g>
						<polygon fill="#E6E6E6" points="90.826,172.303 90.826,182.305 71.73,182.305 71.73,172.303 78.097,172.303 84.462,172.303 
													"/>
					</g>
				</g>
			</g>
			<g>
				<g>
					<g>
						<path fill="#52BDBD" d="M81.285,68.543c4.122,0,7.468,3.346,7.468,7.48c0,4.122-3.346,7.468-7.468,7.468
							c-4.135,0-7.48-3.346-7.48-7.468C73.805,71.889,77.15,68.543,81.285,68.543z"/>
					</g>
				</g>
			</g>
			<g>
				<g>
					<g>
						<polygon fill="#F5F5F5" points="84.462,120.581 84.462,172.303 78.097,172.303 78.097,83.492 81.285,83.492 84.462,83.492 
							84.462,89.857 						"/>
					</g>
				</g>
			</g>
		</g>
		<g>
			<g>
				<g>
					<g>
						<path fill="#312E2E" d="M95.676,193.399H66.882c-0.604,0-1.092-0.488-1.092-1.092v-10.002c0-0.604,0.488-1.091,1.092-1.091
							h4.849c0.604,0,1.093,0.487,1.093,1.091c0,0.603-0.489,1.092-1.093,1.092h-3.757v7.819h26.61v-7.819h-3.758
							c-0.603,0-1.092-0.489-1.092-1.092c0-0.604,0.489-1.091,1.092-1.091h4.85c0.604,0,1.092,0.487,1.092,1.091v10.002
							C96.768,192.911,96.279,193.399,95.676,193.399z"/>
					</g>
				</g>
			</g>
			<g>
				<g>
					<g>
						<path fill="#312E2E" d="M90.826,183.397H71.73c-0.603,0-1.09-0.489-1.09-1.092v-10.002c0-0.604,0.487-1.092,1.09-1.092h6.366
							c0.602,0,1.092,0.488,1.092,1.092c0,0.602-0.49,1.091-1.092,1.091h-5.273v7.82h16.911v-7.82h-5.272
							c-0.603,0-1.093-0.489-1.093-1.091c0-0.604,0.49-1.092,1.093-1.092h6.364c0.604,0,1.092,0.488,1.092,1.092v10.002
							C91.918,182.908,91.43,183.397,90.826,183.397z"/>
					</g>
				</g>
			</g>
			<g>
				<g>
					<g>
						<path fill="#312E2E" d="M84.462,173.394h-6.365c-0.603,0-1.092-0.489-1.092-1.091V83.492c0-0.603,0.489-1.091,1.092-1.091
							h6.365c0.603,0,1.091,0.488,1.091,1.091v6.365c0,0.603-0.488,1.091-1.091,1.091s-1.093-0.488-1.093-1.091v-5.274h-4.181
							v86.629h4.181v-50.631c0-0.604,0.49-1.091,1.093-1.091s1.091,0.487,1.091,1.091v51.723
							C85.553,172.905,85.064,173.394,84.462,173.394z"/>
					</g>
				</g>
			</g>
			<g>
				<g>
					<g>
						<path fill="#312E2E" d="M81.285,84.583c-4.727,0-8.572-3.84-8.572-8.559c0-4.727,3.846-8.572,8.572-8.572
							c4.72,0,8.56,3.846,8.56,8.572C89.845,80.743,86.005,84.583,81.285,84.583z M81.285,69.633c-3.523,0-6.39,2.867-6.39,6.391
							c0,3.516,2.866,6.377,6.39,6.377c3.517,0,6.377-2.861,6.377-6.377C87.662,72.5,84.802,69.633,81.285,69.633z"/>
					</g>
				</g>
			</g>
			<g>
				<g>
					<g>
						<path fill="#312E2E" d="M149.63,128.995h-27.983c-0.603,0-1.092-0.488-1.092-1.092v-7.322c0-0.604,0.489-1.091,1.092-1.091
							c0.604,0,1.092,0.487,1.092,1.091v6.232h25.146l-6.717-13.793c-0.147-0.302-0.147-0.654,0.001-0.957l6.716-13.779h-15.229
							c-0.604,0-1.092-0.488-1.092-1.092c0-0.602,0.488-1.09,1.092-1.09h16.974c0.377,0,0.727,0.193,0.925,0.512
							c0.2,0.319,0.221,0.719,0.056,1.057l-7.247,14.872l7.248,14.884c0.164,0.338,0.144,0.736-0.057,1.056
							C150.356,128.801,150.007,128.995,149.63,128.995z"/>
					</g>
				</g>
			</g>
			<g>
				<g>
					<g>
						<path fill="#312E2E" d="M132.656,121.672H84.462c-0.603,0-1.093-0.489-1.093-1.092V89.857c0-0.603,0.49-1.091,1.093-1.091
							h48.194c0.603,0,1.092,0.488,1.092,1.091v30.724C133.748,121.183,133.259,121.672,132.656,121.672z M85.553,119.49h46.012
							V90.948H85.553V119.49z"/>
					</g>
				</g>
			</g>
		</g>
	</g>
	<g>
		<g>
			<g>
				<g>
					<path fill="#312E2E" d="M277.5,129.367c-0.311,0-0.619-0.118-0.857-0.354c-0.473-0.474-0.473-1.241,0-1.715l21.635-21.636
						c0.475-0.474,1.24-0.474,1.715,0s0.475,1.241,0,1.715l-21.635,21.636C278.122,129.249,277.811,129.367,277.5,129.367z"/>
				</g>
			</g>
		</g>
		<g>
			<g>
				<g>
					<path fill="#312E2E" d="M321.137,129.367c-0.309,0-0.619-0.118-0.855-0.354c-0.475-0.474-0.475-1.241,0-1.715l21.635-21.636
						c0.473-0.474,1.24-0.474,1.715,0c0.473,0.474,0.473,1.241,0,1.715l-21.637,21.636
						C321.758,129.249,321.448,129.367,321.137,129.367z"/>
				</g>
			</g>
		</g>
		<g>
			<g>
				<g>
					<path fill="#312E2E" d="M321.137,129.367c-0.309,0-0.619-0.118-0.855-0.354l-21.637-21.636c-0.473-0.474-0.473-1.241,0-1.715
						c0.475-0.474,1.24-0.474,1.715,0l21.635,21.636c0.475,0.474,0.475,1.241,0,1.715
						C321.758,129.249,321.448,129.367,321.137,129.367z"/>
				</g>
			</g>
		</g>
		<g>
			<g>
				<g>
					<circle fill="#34BACE" cx="277.502" cy="128.155" r="4.41"/>
				</g>
			</g>
			<g>
				<g>
					<path fill="#312E2E" d="M277.5,133.777c-3.1,0-5.621-2.522-5.621-5.622c0-3.102,2.521-5.623,5.621-5.623
						c3.102,0,5.623,2.521,5.623,5.623C283.124,131.254,280.602,133.777,277.5,133.777z M277.5,124.956
						c-1.764,0-3.197,1.436-3.197,3.199c0,1.763,1.434,3.197,3.197,3.197s3.199-1.435,3.199-3.197
						C280.7,126.391,279.264,124.956,277.5,124.956z"/>
				</g>
			</g>
		</g>
		<g>
			<g>
				<g>
					<circle fill="#EB5B28" cx="299.503" cy="106.519" r="4.411"/>
				</g>
			</g>
			<g>
				<g>
					<path fill="#312E2E" d="M299.502,112.142c-3.1,0-5.621-2.522-5.621-5.623s2.521-5.622,5.621-5.622
						c3.102,0,5.625,2.521,5.625,5.622S302.604,112.142,299.502,112.142z M299.502,103.322c-1.764,0-3.197,1.435-3.197,3.197
						c0,1.764,1.434,3.198,3.197,3.198s3.199-1.435,3.199-3.198C302.702,104.756,301.266,103.322,299.502,103.322z"/>
				</g>
			</g>
		</g>
		<g>
			<g>
				<g>
					<circle fill="#F9B03D" cx="321.138" cy="128.155" r="4.411"/>
				</g>
			</g>
			<g>
				<g>
					<path fill="#312E2E" d="M321.137,133.777c-3.1,0-5.623-2.522-5.623-5.622c0-3.102,2.523-5.623,5.623-5.623
						c3.102,0,5.625,2.521,5.625,5.623C326.762,131.254,324.239,133.777,321.137,133.777z M321.137,124.956
						c-1.762,0-3.197,1.436-3.197,3.199c0,1.763,1.436,3.197,3.197,3.197c1.764,0,3.199-1.435,3.199-3.197
						C324.336,126.391,322.901,124.956,321.137,124.956z"/>
				</g>
			</g>
		</g>
		<g>
			<g>
				<g>
					<circle fill="#F5F5F5" cx="342.773" cy="106.519" r="4.409"/>
				</g>
			</g>
			<g>
				<g>
					<path fill="#312E2E" d="M342.774,112.142c-3.102,0-5.623-2.522-5.623-5.623s2.521-5.622,5.623-5.622
						c3.1,0,5.621,2.521,5.621,5.622S345.874,112.142,342.774,112.142z M342.774,103.322c-1.764,0-3.197,1.435-3.197,3.197
						c0,1.764,1.434,3.198,3.197,3.198c1.762,0,3.195-1.435,3.195-3.198C345.969,104.756,344.536,103.322,342.774,103.322z"/>
				</g>
			</g>
		</g>
	</g>
	<g>
		<g>
			<g>
				<g>
					<polygon fill="#F5F5F5" points="235.18,109.641 181.229,109.641 181.229,196.936 245.034,196.936 245.034,119.493 
						235.18,119.493 					"/>
				</g>
			</g>
			<g>
				<g>
					<path fill="#312E2E" d="M245.034,198.149h-63.805c-0.67,0-1.212-0.544-1.212-1.213v-87.295c0-0.67,0.542-1.213,1.212-1.213
						h53.952c0.672,0,1.215,0.543,1.215,1.213v8.639h8.639c0.67,0,1.213,0.543,1.213,1.213v77.443
						C246.247,197.605,245.704,198.149,245.034,198.149z M182.441,195.723h61.379v-75.02h-8.641c-0.668,0-1.211-0.543-1.211-1.211
						v-8.639h-51.528V195.723z"/>
				</g>
			</g>
		</g>
		<g>
			<g>
				<g>
					<polygon fill="#F9B03D" points="235.18,109.641 245.034,119.493 235.18,119.493 					"/>
				</g>
			</g>
			<g>
				<g>
					<path fill="#312E2E" d="M245.057,120.704c-0.006,0-0.016,0-0.023,0h-9.854c-0.668,0-1.211-0.543-1.211-1.211v-9.852
						c0-0.49,0.295-0.933,0.748-1.121c0.453-0.187,0.975-0.084,1.322,0.264l9.719,9.719c0.311,0.22,0.51,0.58,0.51,0.99
						C246.268,120.161,245.727,120.704,245.057,120.704z M236.395,118.28h5.711l-5.711-5.712V118.28z"/>
				</g>
			</g>
		</g>
		<g>
			<g>
				<g>
					<rect x="188.881" y="129.04" fill="#F39323" width="6.465" height="28.492"/>
				</g>
			</g>
			<g>
				<g>
					<path fill="#312E2E" d="M195.346,158.745h-6.465c-0.67,0-1.212-0.543-1.212-1.213V129.04c0-0.67,0.542-1.213,1.212-1.213h6.465
						c0.671,0,1.214,0.543,1.214,1.213v28.492C196.56,158.202,196.017,158.745,195.346,158.745z M190.093,156.319h4.042v-26.066
						h-4.042V156.319z"/>
				</g>
			</g>
		</g>
		<g>
			<g>
				<g>
					<rect x="199.39" y="122.573" fill="#EB5B28" width="6.465" height="34.959"/>
				</g>
			</g>
			<g>
				<g>
					<path fill="#312E2E" d="M205.855,158.745h-6.465c-0.671,0-1.213-0.543-1.213-1.213v-34.959c0-0.67,0.542-1.213,1.213-1.213
						h6.465c0.67,0,1.213,0.543,1.213,1.213v34.959C207.068,158.202,206.525,158.745,205.855,158.745z M200.601,156.319h4.041
						v-32.534h-4.041V156.319z"/>
				</g>
			</g>
		</g>
		<g>
			<g>
				<g>
					<rect x="209.898" y="149.45" fill="#34BACE" width="6.465" height="8.082"/>
				</g>
			</g>
			<g>
				<g>
					<path fill="#312E2E" d="M216.363,158.745h-6.465c-0.672,0-1.213-0.543-1.213-1.213v-8.082c0-0.67,0.541-1.212,1.213-1.212
						h6.465c0.672,0,1.213,0.542,1.213,1.212v8.082C217.576,158.202,217.035,158.745,216.363,158.745z M211.109,156.319h4.041
						v-5.656h-4.041V156.319z"/>
				</g>
			</g>
		</g>
		<g>
			<g>
				<g>
					<rect x="220.406" y="138.334" fill="#F39323" width="6.465" height="19.197"/>
				</g>
			</g>
			<g>
				<g>
					<path fill="#312E2E" d="M226.871,158.745h-6.465c-0.67,0-1.213-0.543-1.213-1.213v-19.197c0-0.67,0.543-1.213,1.213-1.213
						h6.465c0.67,0,1.213,0.543,1.213,1.213v19.197C228.083,158.202,227.541,158.745,226.871,158.745z M221.617,156.319h4.041
						v-16.772h-4.041V156.319z"/>
				</g>
			</g>
		</g>
		<g>
			<g>
				<g>
					<rect x="230.914" y="133.082" fill="#F39323" width="6.466" height="24.45"/>
				</g>
			</g>
			<g>
				<g>
					<path fill="#312E2E" d="M237.379,158.745h-6.466c-0.67,0-1.213-0.543-1.213-1.213v-24.45c0-0.669,0.543-1.212,1.213-1.212
						h6.466c0.67,0,1.213,0.543,1.213,1.212v24.45C238.592,158.202,238.049,158.745,237.379,158.745z M232.126,156.319h4.04v-22.024
						h-4.04V156.319z"/>
				</g>
			</g>
		</g>
		<g>
			<g>
				<g>
					<g>
						<path fill="#312E2E" d="M237.379,166.473h-48.499c-0.67,0-1.212-0.543-1.212-1.212c0-0.671,0.542-1.212,1.212-1.212h48.499
							c0.67,0,1.213,0.541,1.213,1.212C238.592,165.93,238.049,166.473,237.379,166.473z"/>
					</g>
				</g>
			</g>
			<g>
				<g>
					<g>
						<path fill="#312E2E" d="M237.379,171.626h-48.499c-0.67,0-1.212-0.543-1.212-1.212c0-0.67,0.542-1.213,1.212-1.213h48.499
							c0.67,0,1.213,0.543,1.213,1.213C238.592,171.083,238.049,171.626,237.379,171.626z"/>
					</g>
				</g>
			</g>
			<g>
				<g>
					<g>
						<path fill="#312E2E" d="M237.379,176.778h-48.499c-0.67,0-1.212-0.541-1.212-1.211s0.542-1.213,1.212-1.213h48.499
							c0.67,0,1.213,0.543,1.213,1.213S238.049,176.778,237.379,176.778z"/>
					</g>
				</g>
			</g>
			<g>
				<g>
					<g>
						<path fill="#312E2E" d="M237.379,181.932h-48.499c-0.67,0-1.212-0.543-1.212-1.213c0-0.669,0.542-1.212,1.212-1.212h48.499
							c0.67,0,1.213,0.543,1.213,1.212C238.592,181.389,238.049,181.932,237.379,181.932z"/>
					</g>
				</g>
			</g>
			<g>
				<g>
					<g>
						<path fill="#312E2E" d="M237.379,187.084h-48.499c-0.67,0-1.212-0.543-1.212-1.213c0-0.668,0.542-1.212,1.212-1.212h48.499
							c0.67,0,1.213,0.544,1.213,1.212C238.592,186.542,238.049,187.084,237.379,187.084z"/>
					</g>
				</g>
			</g>
		</g>
	</g>
	<g id="XMLID_9_">
		<g>
			<g>
				<g>
					<g>
						<path fill="#52BDBD" d="M300.204,147.078c1.926-1.272,4.105-2.2,6.469-2.659h-0.031l1.072-4.614h4.859l1.066,4.614h-0.029
							c2.354,0.459,4.543,1.376,6.459,2.659l4.014-2.496l3.434,3.434l-2.496,4.003c1.283,1.916,2.209,4.106,2.68,6.448l4.592,1.06
							v4.869l-4.592,1.061c-0.461,2.353-1.387,4.533-2.67,6.458l2.496,3.993l-3.434,3.442l-4.004-2.495
							c-1.914,1.283-4.104,2.211-6.459,2.679l-1.057,4.585h-4.859l-1.061-4.585c-2.354-0.468-4.543-1.396-6.459-2.679l-4.014,2.495
							l-3.434-3.433l2.506-4.014c-1.283-1.914-2.201-4.104-2.668-6.447l-4.605-1.061v-4.869l4.605-1.06
							c0.467-2.342,1.396-4.522,2.68-6.438l-2.506-4.014l3.432-3.443L300.204,147.078z M316.778,161.971
							c0-3.668-2.975-6.632-6.643-6.632c-3.666,0-6.631,2.964-6.631,6.632s2.965,6.642,6.631,6.642
							C313.803,168.613,316.778,165.639,316.778,161.971z"/>
					</g>
				</g>
			</g>
		</g>
		<g>
			<g>
				<g>
					<g>
						<path fill="#312E2E" d="M300.194,148.179c-0.604,0-1.092-0.488-1.092-1.091c0-0.281,0.107-0.537,0.281-0.73
							c0.199-0.228,0.492-0.371,0.82-0.371c0.604,0,1.092,0.488,1.092,1.091S300.795,148.179,300.194,148.179z"/>
					</g>
				</g>
			</g>
			<g>
				<g>
					<g>
						<path fill="#312E2E" d="M312.573,185.208h-4.859c-0.51,0-0.949-0.35-1.064-0.845l-0.904-3.911
							c-1.973-0.469-3.836-1.242-5.561-2.307l-3.428,2.131c-0.432,0.268-0.988,0.205-1.348-0.154l-3.434-3.434
							c-0.359-0.359-0.424-0.918-0.154-1.35l2.141-3.428c-1.057-1.71-1.826-3.57-2.297-5.547l-3.93-0.904
							c-0.496-0.115-0.848-0.555-0.848-1.064v-4.869c0-0.508,0.352-0.949,0.848-1.062l3.932-0.906
							c0.467-1.958,1.24-3.815,2.305-5.537l-2.139-3.426c-0.27-0.432-0.205-0.99,0.152-1.349l3.432-3.444
							c0.359-0.361,0.918-0.426,1.352-0.155l3.43,2.142c1.732-1.059,3.59-1.824,5.537-2.283l0.914-3.947
							c0.115-0.494,0.555-0.844,1.064-0.844h4.859c0.508,0,0.947,0.351,1.062,0.844l0.914,3.947c1.967,0.463,3.82,1.229,5.529,2.283
							l3.428-2.132c0.432-0.269,0.99-0.205,1.348,0.155l3.434,3.434c0.357,0.358,0.422,0.918,0.154,1.348l-2.131,3.417
							c1.061,1.72,1.834,3.581,2.305,5.55l3.922,0.904c0.494,0.114,0.846,0.555,0.846,1.062v4.869c0,0.508-0.352,0.949-0.846,1.064
							l-3.918,0.903c-0.461,1.959-1.232,3.823-2.299,5.558l2.129,3.408c0.27,0.43,0.207,0.988-0.15,1.348l-3.434,3.444
							c-0.359,0.358-0.92,0.423-1.352,0.154l-3.416-2.128c-1.723,1.062-3.586,1.836-5.559,2.305l-0.904,3.911
							C313.52,184.858,313.081,185.208,312.573,185.208z M308.581,183.026h3.123l0.863-3.738c0.096-0.418,0.43-0.74,0.85-0.824
							c2.184-0.434,4.223-1.28,6.064-2.516c0.355-0.239,0.82-0.246,1.186-0.019l3.266,2.035l2.207-2.215l-2.035-3.258
							c-0.227-0.363-0.221-0.827,0.018-1.183c1.24-1.862,2.084-3.901,2.506-6.062c0.082-0.422,0.406-0.758,0.826-0.854l3.746-0.864
							v-3.134l-3.746-0.864c-0.418-0.097-0.742-0.429-0.824-0.849c-0.438-2.177-1.283-4.214-2.518-6.056
							c-0.236-0.356-0.246-0.82-0.018-1.184l2.037-3.268l-2.209-2.208l-3.275,2.038c-0.367,0.226-0.83,0.219-1.186-0.021
							c-1.834-1.229-3.873-2.067-6.061-2.495c-0.518-0.1-0.883-0.555-0.883-1.074l-0.814-3.52h-3.125l-0.832,3.588
							c-0.025,0.49-0.371,0.91-0.865,1.006c-2.158,0.42-4.203,1.262-6.076,2.499c-0.355,0.235-0.818,0.241-1.18,0.016l-3.275-2.046
							l-2.209,2.215l2.049,3.278c0.227,0.364,0.219,0.828-0.02,1.186c-1.236,1.847-2.084,3.88-2.516,6.045
							c-0.084,0.42-0.406,0.753-0.826,0.849l-3.758,0.864v3.132l3.758,0.866c0.42,0.097,0.742,0.429,0.826,0.85
							c0.436,2.189,1.279,4.226,2.506,6.055c0.238,0.356,0.246,0.821,0.02,1.185l-2.049,3.277l2.207,2.208l3.279-2.038
							c0.365-0.227,0.828-0.22,1.184,0.02c1.844,1.235,3.883,2.082,6.062,2.516c0.42,0.084,0.754,0.406,0.852,0.824L308.581,183.026
							z"/>
					</g>
				</g>
			</g>
			<g>
				<g>
					<g>
						<path fill="#312E2E" d="M310.135,169.704c-4.258,0-7.723-3.469-7.723-7.732c0-4.258,3.465-7.723,7.723-7.723
							c4.266,0,7.734,3.465,7.734,7.723C317.87,166.235,314.401,169.704,310.135,169.704z M310.135,156.431
							c-3.055,0-5.539,2.485-5.539,5.54c0,3.061,2.484,5.551,5.539,5.551c3.061,0,5.551-2.49,5.551-5.551
							C315.686,158.917,313.196,156.431,310.135,156.431z"/>
					</g>
				</g>
			</g>
			<g>
				<g>
					<g>
						<path fill="#312E2E" d="M297.454,163.062c-0.602,0-1.092-0.487-1.092-1.091c0-3.686,1.436-7.145,4.041-9.738
							c2.59-2.602,6.047-4.036,9.732-4.036c0.604,0,1.092,0.489,1.092,1.091c0,0.604-0.488,1.092-1.092,1.092
							c-3.1,0-6.008,1.207-8.189,3.396c-2.193,2.186-3.4,5.094-3.4,8.195C298.545,162.575,298.057,163.062,297.454,163.062z"/>
					</g>
				</g>
			</g>
		</g>
	</g>
	<g id="XMLID_7_">
		<g>
			<g>
				<g>
					<g>
						<path fill="#52BDBD" d="M104.954,203.438c1.925-1.273,4.106-2.199,6.471-2.658h-0.031l1.069-4.616h4.859l1.068,4.616h-0.029
							c2.353,0.459,4.543,1.375,6.459,2.658l4.014-2.496l3.432,3.434l-2.496,4.003c1.284,1.915,2.211,4.106,2.68,6.448l4.595,1.061
							v4.869l-4.595,1.059c-0.459,2.354-1.385,4.533-2.668,6.459l2.496,3.992l-3.435,3.443l-4.003-2.494
							c-1.914,1.283-4.105,2.21-6.459,2.678l-1.059,4.584h-4.859l-1.061-4.584c-2.352-0.468-4.542-1.395-6.457-2.678l-4.014,2.494
							l-3.434-3.433l2.506-4.013c-1.283-1.916-2.201-4.106-2.668-6.449l-4.604-1.059v-4.869l4.604-1.061
							c0.467-2.342,1.396-4.523,2.68-6.438l-2.508-4.013l3.434-3.443L104.954,203.438z M121.528,218.332
							c0-3.667-2.975-6.632-6.641-6.632c-3.667,0-6.632,2.965-6.632,6.632s2.965,6.642,6.632,6.642
							C118.554,224.973,121.528,221.999,121.528,218.332z"/>
					</g>
				</g>
			</g>
		</g>
		<g>
			<g>
				<g>
					<g>
						<path fill="#312E2E" d="M104.945,204.54c-0.604,0-1.092-0.488-1.092-1.092c0-0.281,0.106-0.537,0.28-0.73
							c0.2-0.227,0.494-0.371,0.82-0.371c0.603,0,1.092,0.488,1.092,1.092S105.548,204.54,104.945,204.54z"/>
					</g>
				</g>
			</g>
			<g>
				<g>
					<g>
						<path fill="#312E2E" d="M117.322,241.569h-4.859c-0.507,0-0.948-0.352-1.062-0.846l-0.904-3.911
							c-1.973-0.469-3.839-1.241-5.56-2.306l-3.429,2.13c-0.434,0.267-0.989,0.204-1.35-0.154l-3.433-3.434
							c-0.359-0.358-0.423-0.918-0.153-1.349l2.14-3.428c-1.056-1.711-1.825-3.571-2.296-5.549l-3.93-0.904
							c-0.495-0.113-0.847-0.555-0.847-1.062v-4.869c0-0.51,0.352-0.95,0.847-1.063l3.932-0.905c0.468-1.959,1.24-3.816,2.305-5.539
							l-2.141-3.426c-0.269-0.43-0.205-0.989,0.153-1.348l3.432-3.444c0.358-0.361,0.919-0.426,1.352-0.155l3.432,2.143
							c1.731-1.061,3.588-1.824,5.534-2.283l0.916-3.947c0.114-0.496,0.556-0.846,1.062-0.846h4.859
							c0.508,0,0.949,0.351,1.063,0.846l0.913,3.947c1.968,0.463,3.822,1.228,5.53,2.282l3.428-2.132
							c0.431-0.268,0.989-0.205,1.35,0.155l3.433,3.433c0.358,0.359,0.422,0.918,0.152,1.349l-2.129,3.417
							c1.062,1.72,1.835,3.58,2.305,5.549l3.921,0.905c0.495,0.114,0.847,0.556,0.847,1.063v4.869c0,0.508-0.352,0.949-0.847,1.062
							l-3.917,0.904c-0.461,1.959-1.23,3.824-2.298,5.558l2.129,3.407c0.27,0.43,0.205,0.99-0.151,1.35l-3.435,3.443
							c-0.36,0.359-0.92,0.423-1.352,0.154l-3.415-2.129c-1.721,1.064-3.587,1.837-5.561,2.306l-0.903,3.911
							C118.271,241.217,117.83,241.569,117.322,241.569z M113.331,239.386h3.124l0.863-3.738c0.097-0.418,0.43-0.741,0.85-0.825
							c2.182-0.434,4.223-1.279,6.065-2.515c0.357-0.239,0.818-0.247,1.185-0.02l3.266,2.036l2.208-2.215l-2.034-3.258
							c-0.229-0.363-0.223-0.827,0.016-1.184c1.24-1.861,2.084-3.9,2.506-6.062c0.082-0.422,0.405-0.758,0.826-0.854l3.747-0.864
							v-3.134l-3.747-0.864c-0.418-0.097-0.741-0.429-0.826-0.849c-0.436-2.177-1.282-4.214-2.516-6.055
							c-0.238-0.357-0.246-0.821-0.02-1.186l2.039-3.267l-2.209-2.208l-3.277,2.037c-0.365,0.228-0.826,0.22-1.184-0.02
							c-1.834-1.229-3.873-2.067-6.061-2.494c-0.519-0.102-0.885-0.557-0.883-1.074l-0.814-3.521h-3.125l-0.832,3.588
							c-0.024,0.491-0.37,0.911-0.865,1.007c-2.158,0.419-4.203,1.26-6.077,2.498c-0.354,0.236-0.816,0.242-1.179,0.016
							l-3.275-2.046l-2.209,2.215l2.049,3.278c0.227,0.364,0.22,0.828-0.02,1.186c-1.236,1.846-2.084,3.879-2.516,6.044
							c-0.084,0.421-0.408,0.753-0.825,0.85l-3.759,0.864v3.133l3.759,0.865c0.417,0.096,0.741,0.429,0.825,0.85
							c0.437,2.189,1.28,4.227,2.505,6.055c0.239,0.357,0.246,0.82,0.019,1.186l-2.047,3.275l2.207,2.209l3.279-2.039
							c0.365-0.227,0.827-0.219,1.184,0.021c1.843,1.235,3.884,2.081,6.062,2.515c0.421,0.084,0.754,0.407,0.85,0.825
							L113.331,239.386z"/>
					</g>
				</g>
			</g>
			<g>
				<g>
					<g>
						<path fill="#312E2E" d="M114.888,226.064c-4.259,0-7.724-3.468-7.724-7.732c0-4.259,3.465-7.723,7.724-7.723
							c4.263,0,7.732,3.464,7.732,7.723C122.62,222.596,119.15,226.064,114.888,226.064z M114.888,212.792
							c-3.055,0-5.541,2.485-5.541,5.54c0,3.06,2.486,5.55,5.541,5.55c3.061,0,5.549-2.49,5.549-5.55
							C120.437,215.277,117.948,212.792,114.888,212.792z"/>
					</g>
				</g>
			</g>
			<g>
				<g>
					<g>
						<path fill="#312E2E" d="M102.205,219.422c-0.603,0-1.092-0.488-1.092-1.091c0-3.686,1.436-7.144,4.04-9.737
							c2.589-2.604,6.048-4.037,9.734-4.037c0.603,0,1.091,0.488,1.091,1.092c0,0.602-0.488,1.091-1.091,1.091
							c-3.102,0-6.011,1.206-8.192,3.396c-2.193,2.186-3.398,5.096-3.398,8.196C103.297,218.934,102.808,219.422,102.205,219.422z"
							/>
					</g>
				</g>
			</g>
		</g>
	</g>
	<g id="XMLID_5_">
		<g>
			<g>
				<g>
					<path fill="#F5F5F5" d="M268.163,170.99c1.525-1.01,3.252-1.745,5.125-2.107h-0.023l0.848-3.659h3.852l0.85,3.659h-0.025
						c1.865,0.362,3.602,1.09,5.119,2.107l3.18-1.979l2.725,2.722l-1.979,3.174c1.016,1.517,1.752,3.253,2.121,5.11l3.645,0.841
						v3.858l-3.645,0.841c-0.363,1.864-1.096,3.593-2.113,5.12l1.977,3.164l-2.721,2.729l-3.174-1.978
						c-1.518,1.018-3.252,1.752-5.119,2.124l-0.84,3.632h-3.852l-0.838-3.632c-1.867-0.372-3.604-1.106-5.121-2.124l-3.182,1.978
						l-2.721-2.721l1.986-3.183c-1.018-1.518-1.744-3.253-2.115-5.11l-3.65-0.841v-3.858l3.65-0.841
						c0.371-1.857,1.105-3.585,2.123-5.102l-1.984-3.183l2.721-2.729L268.163,170.99z M281.299,182.795
						c0-2.908-2.359-5.258-5.266-5.258s-5.256,2.35-5.256,5.258c0,2.906,2.35,5.264,5.256,5.264S281.299,185.702,281.299,182.795z"
						/>
				</g>
			</g>
		</g>
		<g>
			<g>
				<g>
					<path fill="#312E2E" d="M268.153,172.088c-0.602,0-1.092-0.488-1.092-1.091c0-0.304,0.125-0.578,0.324-0.775
						c0.199-0.2,0.473-0.323,0.777-0.323c0.602,0,1.09,0.488,1.09,1.091S268.756,172.088,268.153,172.088z"/>
				</g>
			</g>
			<g>
				<g>
					<path fill="#312E2E" d="M277.963,201.44h-3.852c-0.508,0-0.947-0.352-1.062-0.846l-0.684-2.963
						c-1.494-0.369-2.908-0.957-4.219-1.75l-2.598,1.615c-0.434,0.267-0.992,0.203-1.35-0.155l-2.721-2.722
						c-0.359-0.357-0.424-0.918-0.154-1.348l1.623-2.599c-0.787-1.305-1.371-2.715-1.74-4.208l-2.98-0.687
						c-0.494-0.112-0.846-0.554-0.846-1.063v-3.858c0-0.509,0.352-0.949,0.846-1.063l2.98-0.686
						c0.367-1.481,0.953-2.889,1.748-4.199l-1.621-2.6c-0.27-0.43-0.207-0.988,0.15-1.347l2.721-2.729
						c0.359-0.36,0.92-0.425,1.352-0.155l2.602,1.624c1.32-0.791,2.727-1.371,4.197-1.732l0.693-2.992
						c0.115-0.494,0.555-0.845,1.062-0.845h3.852c0.51,0,0.949,0.351,1.064,0.845l0.693,2.994c1.486,0.363,2.891,0.943,4.193,1.729
						l2.596-1.615c0.434-0.268,0.99-0.205,1.35,0.154l2.723,2.723c0.357,0.359,0.422,0.917,0.154,1.348l-1.615,2.591
						c0.793,1.31,1.379,2.722,1.746,4.208l2.975,0.686c0.494,0.115,0.848,0.555,0.848,1.063v3.858c0,0.509-0.354,0.95-0.848,1.063
						l-2.971,0.686c-0.361,1.481-0.947,2.895-1.742,4.216l1.613,2.583c0.268,0.429,0.205,0.988-0.152,1.349l-2.721,2.729
						c-0.361,0.359-0.92,0.424-1.352,0.155l-2.588-1.614c-1.312,0.793-2.725,1.381-4.219,1.75l-0.684,2.963
						C278.913,201.088,278.473,201.44,277.963,201.44z M274.979,199.258h2.117l0.645-2.788c0.096-0.419,0.43-0.741,0.85-0.825
						c1.701-0.338,3.291-0.998,4.725-1.959c0.357-0.24,0.82-0.247,1.186-0.021l2.436,1.519l1.498-1.5l-1.521-2.43
						c-0.225-0.365-0.219-0.828,0.02-1.184c0.967-1.451,1.623-3.041,1.949-4.725c0.084-0.421,0.408-0.756,0.828-0.854l2.795-0.645
						v-2.123l-2.795-0.646c-0.418-0.096-0.74-0.429-0.826-0.849c-0.336-1.695-0.996-3.283-1.959-4.719
						c-0.238-0.356-0.246-0.82-0.02-1.184l1.52-2.438l-1.494-1.496l-2.447,1.521c-0.363,0.228-0.826,0.22-1.184-0.02
						c-1.428-0.958-3.016-1.611-4.721-1.943c-0.508-0.1-0.871-0.54-0.881-1.048l-0.6-2.59h-2.119l-0.615,2.652
						c-0.035,0.48-0.379,0.891-0.867,0.985c-1.682,0.326-3.273,0.981-4.732,1.946c-0.357,0.236-0.818,0.242-1.18,0.016l-2.445-1.525
						l-1.496,1.5l1.527,2.447c0.227,0.364,0.221,0.827-0.018,1.185c-0.965,1.438-1.625,3.022-1.961,4.71
						c-0.084,0.42-0.406,0.753-0.824,0.849l-2.805,0.646v2.123l2.805,0.645c0.418,0.096,0.74,0.429,0.824,0.85
						c0.34,1.705,0.996,3.293,1.951,4.719c0.24,0.356,0.246,0.819,0.02,1.185l-1.527,2.445l1.496,1.495l2.445-1.521
						c0.363-0.226,0.828-0.219,1.184,0.021c1.436,0.961,3.025,1.621,4.727,1.959c0.42,0.084,0.752,0.406,0.85,0.825L274.979,199.258
						z"/>
				</g>
			</g>
			<g>
				<g>
					<path fill="#312E2E" d="M276.034,189.15c-3.5,0-6.348-2.851-6.348-6.354c0-3.502,2.848-6.348,6.348-6.348
						c3.506,0,6.357,2.846,6.357,6.348C282.391,186.299,279.54,189.15,276.034,189.15z M276.034,178.629
						c-2.297,0-4.164,1.868-4.164,4.166c0,2.301,1.867,4.173,4.164,4.173c2.301,0,4.174-1.872,4.174-4.173
						C280.208,180.498,278.334,178.629,276.034,178.629z"/>
				</g>
			</g>
			<g>
				<g>
					<path fill="#312E2E" d="M265.981,183.885c-0.604,0-1.092-0.487-1.092-1.09c0-2.984,1.162-5.781,3.27-7.88
						c2.096-2.104,4.895-3.265,7.875-3.265c0.604,0,1.092,0.488,1.092,1.091s-0.488,1.091-1.092,1.091
						c-2.396,0-4.646,0.933-6.332,2.626c-1.697,1.689-2.629,3.938-2.629,6.337C267.073,183.398,266.584,183.885,265.981,183.885z"/>
				</g>
			</g>
		</g>
	</g>
	<g>
		<g>
			<g>
				<rect x="239.901" y="43.994" fill="#F9B03D" width="66.381" height="36.07"/>
			</g>
		</g>
		<g>
			<g>
				<path fill="#312E2E" d="M306.282,81.155h-66.381c-0.602,0-1.092-0.488-1.092-1.091v-36.07c0-0.603,0.49-1.091,1.092-1.091
					h66.381c0.604,0,1.092,0.488,1.092,1.091v36.07C307.374,80.667,306.885,81.155,306.282,81.155z M240.993,78.973h64.199V45.085
					h-64.199V78.973z"/>
			</g>
		</g>
	</g>
	<g>
		<g>
			<g>
				<path fill="#312E2E" d="M285.403,59.21h-24.277c-0.215,0-0.424-0.064-0.604-0.183l-21.227-14.125
					c-0.5-0.333-0.635-1.011-0.303-1.513c0.334-0.501,1.012-0.638,1.514-0.303l20.951,13.94h23.611L305.67,43.09
					c0.498-0.336,1.18-0.205,1.516,0.292c0.338,0.499,0.207,1.177-0.293,1.516l-20.879,14.124
					C285.833,59.145,285.622,59.21,285.403,59.21z"/>
			</g>
		</g>
	</g>
	<g>
		<g>
			<g>
				<polygon fill="#EA9B33" points="306.282,43.994 273.092,21.909 239.901,43.994 				"/>
			</g>
		</g>
		<g>
			<g>
				<path fill="#312E2E" d="M306.282,45.085h-66.381c-0.48,0-0.904-0.315-1.043-0.776c-0.141-0.46,0.039-0.957,0.438-1.224
					L272.487,21c0.367-0.243,0.844-0.243,1.209,0l33.191,22.086c0.398,0.267,0.578,0.764,0.439,1.224
					C307.188,44.77,306.764,45.085,306.282,45.085z M243.512,42.903h59.16l-29.58-19.685L243.512,42.903z"/>
			</g>
		</g>
	</g>
	<g>
		<g>
			<g>
				<path fill="#312E2E" d="M239.901,81.155c-0.273,0-0.547-0.102-0.76-0.307c-0.432-0.419-0.443-1.109-0.023-1.543l21.236-21.95
					c0.416-0.434,1.109-0.445,1.543-0.025c0.434,0.419,0.443,1.109,0.025,1.543l-21.236,21.95
					C240.473,81.043,240.186,81.155,239.901,81.155z"/>
			</g>
		</g>
	</g>
	<g>
		<g>
			<g>
				<path fill="#312E2E" d="M306.282,81.155c-0.285,0-0.57-0.111-0.783-0.332l-21.121-21.831c-0.418-0.433-0.408-1.124,0.025-1.543
					c0.432-0.419,1.125-0.408,1.543,0.025l21.119,21.831c0.42,0.434,0.41,1.124-0.023,1.543
					C306.829,81.053,306.555,81.155,306.282,81.155z"/>
			</g>
		</g>
	</g>
	<g>
		<g>
			<g>
				<polygon fill="#F2F2F2" points="299.522,16.47 247,16.47 247,48.718 261.125,58.119 285.403,58.119 299.522,48.718 				"/>
			</g>
		</g>
		<g>
			<g>
				<path fill="#312E2E" d="M285.403,59.21h-24.277c-0.215,0-0.424-0.064-0.604-0.183l-14.125-9.4
					c-0.305-0.202-0.488-0.543-0.488-0.908V16.47c0-0.603,0.49-1.091,1.092-1.091h52.521c0.604,0,1.094,0.489,1.094,1.091v32.248
					c0,0.365-0.184,0.707-0.486,0.908l-14.121,9.4C285.829,59.146,285.62,59.21,285.403,59.21z M261.458,57.027h23.615l13.359-8.893
					V17.562h-50.34v30.573L261.458,57.027z"/>
			</g>
		</g>
	</g>
	<g>
		<g>
			<g>
				
					<path fill="none" stroke="#312E2E" stroke-width="1.8" stroke-linecap="round" stroke-linejoin="round" stroke-miterlimit="10" d="
					M261.137,58.114"/>
			</g>
		</g>
	</g>
	<g>
		<g>
			<g>
				<line fill="#F2F2F2" x1="252.44" y1="37.863" x2="293.663" y2="37.863"/>
			</g>
		</g>
		<g>
			<g>
				<path fill="#312E2E" d="M293.663,38.954H252.44c-0.602,0-1.092-0.488-1.092-1.091c0-0.603,0.49-1.091,1.092-1.091h41.223
					c0.602,0,1.092,0.488,1.092,1.091C294.754,38.466,294.264,38.954,293.663,38.954z"/>
			</g>
		</g>
	</g>
	<g>
		<g>
			<g>
				<line fill="#F2F2F2" x1="252.44" y1="42.905" x2="293.663" y2="42.905"/>
			</g>
		</g>
		<g>
			<g>
				<path fill="#312E2E" d="M293.663,43.996H252.44c-0.602,0-1.092-0.488-1.092-1.091s0.49-1.091,1.092-1.091h41.223
					c0.602,0,1.092,0.488,1.092,1.091S294.264,43.996,293.663,43.996z"/>
			</g>
		</g>
	</g>
	<g>
		<g>
			<g>
				<line fill="#F2F2F2" x1="285.163" y1="24.909" x2="293.663" y2="24.909"/>
			</g>
		</g>
		<g>
			<g>
				<path fill="#312E2E" d="M293.663,26h-8.5c-0.604,0-1.092-0.488-1.092-1.091c0-0.603,0.488-1.091,1.092-1.091h8.5
					c0.602,0,1.092,0.488,1.092,1.091C294.754,25.512,294.264,26,293.663,26z"/>
			</g>
		</g>
	</g>
	<g>
		<g>
			<g>
				<line fill="#F2F2F2" x1="285.163" y1="29.951" x2="293.663" y2="29.951"/>
			</g>
		</g>
		<g>
			<g>
				<path fill="#312E2E" d="M293.663,31.042h-8.5c-0.604,0-1.092-0.488-1.092-1.091s0.488-1.091,1.092-1.091h8.5
					c0.602,0,1.092,0.488,1.092,1.091S294.264,31.042,293.663,31.042z"/>
			</g>
		</g>
	</g>
	<g>
		<g>
			<g>
				<line fill="#F2F2F2" x1="252.44" y1="47.947" x2="293.663" y2="47.947"/>
			</g>
		</g>
		<g>
			<g>
				<path fill="#312E2E" d="M293.663,49.038H252.44c-0.602,0-1.092-0.489-1.092-1.091c0-0.603,0.49-1.091,1.092-1.091h41.223
					c0.602,0,1.092,0.488,1.092,1.091C294.754,48.549,294.264,49.038,293.663,49.038z"/>
			</g>
		</g>
	</g>
	<g>
		<g>
			<g>
				<rect x="252.44" y="21.909" fill="#F2F2F2" width="28.291" height="11.043"/>
			</g>
		</g>
		<g>
			<g>
				<path fill="#312E2E" d="M280.731,34.042H252.44c-0.602,0-1.092-0.488-1.092-1.091V21.909c0-0.603,0.49-1.091,1.092-1.091h28.291
					c0.602,0,1.092,0.488,1.092,1.091v11.043C281.823,33.554,281.333,34.042,280.731,34.042z M253.532,31.86h26.107v-8.861h-26.107
					V31.86z"/>
			</g>
		</g>
	</g>
	<g>
		<g>
			<g>
				<rect x="328.157" y="5.823" fill="#FFFFFF" width="20.41" height="20.409"/>
			</g>
		</g>
		<g>
			<g>
				<path fill="#312E2E" d="M348.567,27.323h-20.41c-0.602,0-1.092-0.489-1.092-1.091V5.823c0-0.603,0.49-1.091,1.092-1.091h20.41
					c0.604,0,1.092,0.489,1.092,1.091v20.409C349.659,26.834,349.17,27.323,348.567,27.323z M329.249,25.142h18.227V6.915h-18.227
					V25.142z"/>
			</g>
		</g>
	</g>
	<g>
		<g>
			<g>
				<line fill="#FFFFFF" x1="328.157" y1="5.823" x2="348.567" y2="26.232"/>
			</g>
		</g>
		<g>
			<g>
				<path fill="#312E2E" d="M348.567,27.323c-0.279,0-0.561-0.106-0.771-0.32l-20.41-20.409c-0.426-0.426-0.426-1.118,0-1.542
					c0.426-0.427,1.119-0.427,1.545,0l20.408,20.409c0.426,0.426,0.426,1.117,0,1.542C349.125,27.217,348.846,27.323,348.567,27.323
					z"/>
			</g>
		</g>
	</g>
	<g>
		<g>
			<g>
				<line fill="#FFFFFF" x1="328.157" y1="26.232" x2="348.567" y2="5.823"/>
			</g>
		</g>
		<g>
			<g>
				<path fill="#312E2E" d="M328.157,27.323c-0.277,0-0.559-0.106-0.771-0.32c-0.426-0.425-0.426-1.117,0-1.542l20.41-20.409
					c0.426-0.427,1.117-0.427,1.543,0c0.426,0.425,0.426,1.117,0,1.542L328.93,27.003C328.715,27.217,328.438,27.323,328.157,27.323
					z"/>
			</g>
		</g>
	</g>
	<g>
		<g>
			<g>
				<rect x="51.243" y="215.924" fill="#FFFFFF" width="20.409" height="20.409"/>
			</g>
		</g>
		<g>
			<g>
				<path fill="#312E2E" d="M71.652,237.424H51.243c-0.603,0-1.092-0.488-1.092-1.091v-20.409c0-0.602,0.489-1.09,1.092-1.09h20.409
					c0.602,0,1.091,0.488,1.091,1.09v20.409C72.743,236.936,72.254,237.424,71.652,237.424z M52.335,235.243h18.226v-18.227H52.335
					V235.243z"/>
			</g>
		</g>
	</g>
	<g>
		<g>
			<g>
				<line fill="#FFFFFF" x1="51.243" y1="215.924" x2="71.652" y2="236.333"/>
			</g>
		</g>
		<g>
			<g>
				<path fill="#312E2E" d="M71.652,237.424c-0.279,0-0.56-0.105-0.772-0.318l-20.408-20.41c-0.427-0.425-0.427-1.117,0-1.541
					c0.426-0.428,1.117-0.428,1.543,0l20.409,20.408c0.427,0.425,0.427,1.116,0,1.543C72.211,237.319,71.932,237.424,71.652,237.424
					z"/>
			</g>
		</g>
	</g>
	<g>
		<g>
			<g>
				<line fill="#FFFFFF" x1="51.243" y1="236.333" x2="71.652" y2="215.924"/>
			</g>
		</g>
		<g>
			<g>
				<path fill="#312E2E" d="M51.243,237.424c-0.279,0-0.559-0.105-0.771-0.318c-0.427-0.427-0.427-1.118,0-1.543l20.408-20.408
					c0.426-0.428,1.118-0.428,1.544,0c0.427,0.424,0.427,1.116,0,1.541l-20.409,20.41C51.803,237.319,51.522,237.424,51.243,237.424
					z"/>
			</g>
		</g>
	</g>
</g>
<g>
</g>
<g>
</g>
<g>
</g>
<g>
</g>
<g>
</g>
<g>
</g>
</svg>
