<?xml version="1.0" encoding="utf-8"?>
<!-- Generator: Adobe Illustrator 16.0.0, SVG Export Plug-In . SVG Version: 6.00 Build 0)  -->
<!DOCTYPE svg PUBLIC "-//W3C//DTD SVG 1.1//EN" "http://www.w3.org/Graphics/SVG/1.1/DTD/svg11.dtd">
<svg version="1.1" id="katman_1" xmlns="http://www.w3.org/2000/svg" xmlns:xlink="http://www.w3.org/1999/xlink" x="0px" y="0px"
	 width="701.454px" height="193.652px" viewBox="0 0 701.454 193.652" enable-background="new 0 0 701.454 193.652"
	 xml:space="preserve">
<g>
	<path fill="#92C250" d="M81.857,24.225c1.091-1.892,1.706-4.079,1.679-6.402C83.457,10.768,77.543,5.115,70.326,5.2l-0.555,0.019
		c-1.416-3.084-5.247-5.27-9.728-5.218c-5.04,0.054-9.193,2.922-9.992,6.637c-0.869-0.103-1.761-0.155-2.671-0.146
		c-2.962,0.033-5.728,0.697-8.091,1.819c-1.829-2.961-5.12-4.917-8.85-4.872c-4.08,0.044-7.575,2.467-9.192,5.931
		c-2.18-1.324-4.772-2.081-7.55-2.053C6.049,7.406-0.085,13.434,0.001,20.783c0.043,4.161,2.078,7.854,5.224,10.259
		c-1.244,1.731-1.965,3.824-1.94,6.071C3.352,42.985,8.462,47.688,14.7,47.617c1.172-0.013,3.356-0.519,3.356-0.519
		c4.885,7.839,18.609,4.152,17.43,2.764c15.504,18.234,32.28,15.954,32.685,15.794c-6.612-1.576-10.17-6.966-12.944-13.547
		c1.784,0.595,3.72,0.913,5.751,0.888c5.495-0.062,10.296-2.602,13.027-6.384c1.63,0.576,3.418,0.882,5.292,0.86
		c7.502-0.085,13.522-5.41,13.448-11.892C92.682,29.94,88.017,25.279,81.857,24.225"/>
	<path fill="#055D7C" d="M526.691,2.349c9.7,0.247,17.4,6.84,17.198,14.722c-0.202,7.881-8.23,14.069-17.929,13.82
		c-0.933-0.024-1.845-0.107-2.735-0.243c-3.87,3.675-8.39,4.236-12.747,4.226l0.023-0.924c2.38-1.092,4.474-3.139,4.536-5.536
		c0.009-0.334-0.01-0.663-0.049-0.985c-3.906-2.719-6.344-6.779-6.229-11.258C508.964,8.288,516.99,2.1,526.691,2.349"/>
	<path fill="#FFFFFF" d="M589.557,52.944h-44.584c-14.497,0-15.154,11.001-15.174,11.469l0.002,45.267
		c0,5.751-1.867,10.473-5.547,14.037c-7.565,7.324-20.059,6.99-20.588,6.99H449.2v-3.793h54.527c0.173,0,11.507,0.272,17.904-5.936
		c2.904-2.819,4.382-6.62,4.382-11.298v-45.35c0-0.234,0.877-15.18,18.959-15.18h44.571L589.557,52.944z"/>
	<path fill="#92C250" d="M544.836,130.055c0,6.011-4.839,10.885-10.804,10.885h-33.425c-5.965,0-10.801-4.874-10.801-10.885
		c0-5.429,3.944-9.926,9.103-10.748c-0.063-0.381-0.1-0.771-0.1-1.177c0-3.81,3.063-6.896,6.846-6.896
		c1.686,0,3.231,0.615,4.422,1.638c2.128-4.826,4.852-9.229,12.494-9.229c9.27,0,13.664,7.203,13.664,14.805
		c0,0.318-0.014,0.633-0.035,0.943C541.127,120.402,544.836,124.793,544.836,130.055"/>
	<path fill="#FFFFFF" d="M192.979,129.788c-3.23,0-11.94-0.571-18.102-6.319c-4.232-3.947-6.38-9.489-6.38-16.471V96.567h3.793
		v10.431c0,5.889,1.741,10.496,5.174,13.696c6.34,5.914,16.404,5.284,16.505,5.275l0.133-0.004h56.899v3.792h-56.838
		C193.99,129.769,193.579,129.788,192.979,129.788"/>
	<path fill-rule="evenodd" clip-rule="evenodd" fill="#055D7C" d="M250.159,140.292V22.315c0-2.519,2.042-4.559,4.559-4.559h193.208
		c2.521,0,4.562,2.04,4.562,4.559v117.977H250.159z"/>
	<path fill-rule="evenodd" clip-rule="evenodd" fill="#FFFFFF" d="M447.927,158.528H254.72c-2.52,0-4.561-2.04-4.561-4.558v-13.679
		h202.328v13.679C452.487,156.488,450.444,158.528,447.927,158.528"/>
	<polygon fill-rule="evenodd" clip-rule="evenodd" fill="#FFFFFF" points="319.122,182.371 319.122,179.859 327.107,178.885 
		332.617,157.863 373.452,157.863 378.959,178.885 386.947,179.859 386.947,182.371 	"/>
	<rect x="256.43" y="25.736" fill-rule="evenodd" clip-rule="evenodd" fill="#6FBDC3" width="189.788" height="106.575"/>
	<g opacity="0.08">
		<g>
			<defs>
				<rect id="SVGID_1_" x="331.871" y="157.863" width="42.326" height="3.979"/>
			</defs>
			<clipPath id="SVGID_2_">
				<use xlink:href="#SVGID_1_"  overflow="visible"/>
			</clipPath>
			<polygon clip-path="url(#SVGID_2_)" fill-rule="evenodd" clip-rule="evenodd" fill="#3D3D3D" points="331.871,161.843 
				332.617,157.863 373.453,157.863 374.195,161.843 			"/>
		</g>
	</g>
	<path fill="#055D7C" d="M188.014,13.285H152.87c-3.363,0-6.078,2.726-6.078,6.087V90.73c0,3.351,2.715,6.08,6.078,6.08h35.144
		c3.356,0,6.081-2.727,6.081-6.08V19.372C194.093,16.011,191.37,13.285,188.014,13.285"/>
	<rect x="151.351" y="23.554" fill="#6FBDC3" width="38.186" height="57.405"/>
	<polygon fill="#FFFFFF" points="178.591,19.462 162.294,19.462 162.294,17.685 178.592,17.685 178.592,19.462 	"/>
	<path fill="#FFFFFF" d="M185.561,18.649c0,0.859-0.7,1.556-1.557,1.556c-0.859,0-1.559-0.7-1.559-1.556
		c0-0.856,0.699-1.555,1.559-1.555C184.86,17.092,185.561,17.791,185.561,18.649"/>
	<rect x="163.021" y="85.76" fill="#FFFFFF" width="14.838" height="4.564"/>
	<path fill="#055D7C" d="M170.514,36.801c-5.737-0.041-10.42,4.574-10.461,10.311c-0.012,1.551,0.319,3.026,0.916,4.35l7.788,17.223
		c0.373,0.83,0.912,1.348,1.518,1.353c0.604,0.004,1.152-0.506,1.537-1.326l8.035-17.114c0.617-1.314,0.967-2.785,0.979-4.335
		C180.866,41.524,176.249,36.842,170.514,36.801 M170.394,53.419c-3.439-0.024-6.212-2.837-6.187-6.277
		c0.024-3.44,2.835-6.211,6.276-6.186c3.439,0.023,6.212,2.835,6.188,6.275C176.646,50.672,173.834,53.443,170.394,53.419"/>
	<rect x="368.593" y="32.081" fill="#FFFFFF" width="121.386" height="76.815"/>
	
		<rect x="368.119" y="31.607" fill="none" stroke="#9A9999" stroke-width="3" stroke-miterlimit="10" width="121.386" height="76.814"/>
	<rect x="368.593" y="32.081" fill="#9A9999" width="121.386" height="11.381"/>
	<path fill="#E52C29" d="M378.148,37.755c0,1.153-0.937,2.09-2.09,2.09c-1.155,0-2.091-0.937-2.091-2.09
		c0-1.154,0.936-2.091,2.091-2.091C377.212,35.664,378.148,36.601,378.148,37.755"/>
	<path fill="#FFD405" d="M384.519,37.755c0,1.153-0.938,2.09-2.09,2.09c-1.154,0-2.091-0.937-2.091-2.09
		c0-1.154,0.937-2.091,2.091-2.091C383.581,35.664,384.519,36.601,384.519,37.755"/>
	<path fill="#6FB12D" d="M390.888,37.755c0,1.153-0.936,2.09-2.09,2.09s-2.09-0.937-2.09-2.09c0-1.154,0.936-2.091,2.09-2.091
		S390.888,36.601,390.888,37.755"/>
	<rect x="394.196" y="35.875" fill="#FFFFFF" width="63.539" height="3.794"/>
	<rect x="460.58" y="35.875" fill="#FFFFFF" width="26.553" height="3.794"/>
	<line fill="none" stroke="#C3C4BF" stroke-miterlimit="10" x1="457.735" y1="54.367" x2="478.598" y2="54.367"/>
	<line fill="none" stroke="#C3C4BF" stroke-miterlimit="10" x1="457.735" y1="56.263" x2="478.598" y2="56.263"/>
	<line fill="none" stroke="#C3C4BF" stroke-miterlimit="10" x1="457.735" y1="60.057" x2="478.598" y2="60.057"/>
	<line fill="none" stroke="#C3C4BF" stroke-miterlimit="10" x1="457.735" y1="61.953" x2="478.598" y2="61.953"/>
	<line fill="none" stroke="#C3C4BF" stroke-miterlimit="10" x1="457.735" y1="63.851" x2="478.598" y2="63.851"/>
	<path fill="#AFCC4F" d="M405.812,75.947l9.932,17.205c-2.67,1.329-5.669,2.096-8.854,2.096c-11.004,0-19.923-8.922-19.923-19.922
		c0-10.583,8.256-19.214,18.677-19.861v19.861C405.644,75.539,405.699,75.753,405.812,75.947"/>
	<path fill="#1C3054" d="M407.948,55.465v18.817h18.8C426.128,63.851,418.38,56.086,407.948,55.465 M410.793,58.32
		c6.639,1.447,11.653,6.479,13.101,13.116h-13.101V58.32z"/>
	<path fill="#1C3054" d="M417.905,91.918c5.041-3.352,8.447-8.942,8.844-15.348h-17.702L417.905,91.918z"/>
	<rect x="226.345" y="3.632" fill="#FFFFFF" width="81.556" height="52.157"/>
	
		<rect x="225.87" y="3.157" fill="none" stroke="#9A9999" stroke-width="3" stroke-miterlimit="10" width="82.504" height="52.157"/>
	<rect x="226.345" y="3.632" fill="#9A9999" width="81.556" height="7.587"/>
	<path fill="#E52C29" d="M232.66,7.319c0,0.781-0.632,1.415-1.415,1.415c-0.781,0-1.414-0.634-1.414-1.415
		c0-0.782,0.633-1.415,1.414-1.415C232.028,5.904,232.66,6.537,232.66,7.319"/>
	<path fill="#FFD405" d="M236.974,7.319c0,0.781-0.635,1.415-1.416,1.415c-0.78,0-1.413-0.634-1.413-1.415
		c0-0.782,0.633-1.415,1.413-1.415C236.339,5.904,236.974,6.537,236.974,7.319"/>
	<path fill="#6FB12D" d="M241.286,7.319c0,0.781-0.634,1.415-1.415,1.415s-1.415-0.634-1.415-1.415c0-0.782,0.634-1.415,1.415-1.415
		S241.286,6.537,241.286,7.319"/>
	<rect x="243.414" y="6.477" fill="#FFFFFF" width="42.674" height="1.896"/>
	<rect x="288.934" y="6.477" fill="#FFFFFF" width="17.07" height="1.896"/>
	<line fill="none" stroke="#C3C4BF" stroke-miterlimit="10" x1="286.088" y1="18.33" x2="300.314" y2="18.33"/>
	<line fill="none" stroke="#C3C4BF" stroke-miterlimit="10" x1="286.088" y1="20.227" x2="300.314" y2="20.227"/>
	<line fill="none" stroke="#C3C4BF" stroke-miterlimit="10" x1="286.088" y1="22.123" x2="300.314" y2="22.123"/>
	<line fill="none" stroke="#C3C4BF" stroke-miterlimit="10" x1="286.088" y1="24.021" x2="300.314" y2="24.021"/>
	<line fill="none" stroke="#C3C4BF" stroke-miterlimit="10" x1="286.088" y1="24.969" x2="300.314" y2="24.969"/>
	<path fill="#055D7C" d="M225.319,127.861c0,8.861-7.184,16.044-16.045,16.044c-8.86,0-16.043-7.183-16.043-16.044
		c0-8.86,7.183-16.043,16.043-16.043C218.136,111.818,225.319,119.001,225.319,127.861"/>
	<path fill="#FFFFFF" d="M214.267,125.906l-0.707-0.002l0.003-2.106c0.004-2.3-1.743-4.177-4.043-4.18
		c-2.303-0.003-4.055,1.866-4.059,4.167l-0.004,2.107l-0.77-0.002c-0.334,0-0.851,0.399-0.851,0.733l-0.013,8.044
		c-0.002,0.332,0.517,0.404,0.85,0.404l9.578,0.016c0.334,0,0.371-0.068,0.373-0.404l0.014-8.041
		C214.64,126.307,214.601,125.906,214.267,125.906 M211.938,125.902l-4.86-0.008l0.004-2.106c0.003-1.435,1-2.599,2.434-2.597
		c1.435,0.002,2.429,1.17,2.427,2.605L211.938,125.902z"/>
	<path fill="#055D7C" d="M689.339,20.021h-114.57c-1.568,0-2.861,1.057-2.861,2.626v79.063c0,1.568,1.293,3.028,2.861,3.028h114.576
		c1.567,0,2.579-1.462,2.579-3.028V22.646C691.924,21.077,690.908,20.021,689.339,20.021"/>
	<path fill="#FFFFFF" d="M684.384,94.978c0,1.725,0.385,2.538-1.236,2.538H581.393c-1.623,0-3.221-0.813-3.221-2.538V29.309
		c0-1.722,1.598-2.918,3.221-2.918h101.755c1.621,0,1.236,1.196,1.236,2.918V94.978z"/>
	<path fill="#055D7C" d="M701.454,112.442c0,0.659-0.535,1.194-1.194,1.194H562.296c-0.658,0-1.193-0.535-1.193-1.194v-4.249
		c0-0.661,0.535-1.195,1.193-1.195H700.26c0.659,0,1.194,0.534,1.194,1.195V112.442z"/>
	<rect x="583.862" y="38.72" fill="#92C250" width="94.832" height="11.38"/>
	<rect x="583.862" y="52.944" fill="#A1A0A0" width="95.78" height="5.689"/>
	<line fill="none" stroke="#A1A0A0" stroke-miterlimit="10" x1="583.862" y1="62.901" x2="613.26" y2="62.901"/>
	<line fill="none" stroke="#A1A0A0" stroke-miterlimit="10" x1="583.862" y1="65.747" x2="613.26" y2="65.747"/>
	<line fill="none" stroke="#A1A0A0" stroke-miterlimit="10" x1="583.862" y1="67.644" x2="613.26" y2="67.644"/>
	<line fill="none" stroke="#A1A0A0" stroke-miterlimit="10" x1="583.862" y1="69.54" x2="613.26" y2="69.54"/>
	<line fill="none" stroke="#A1A0A0" stroke-miterlimit="10" x1="583.862" y1="71.437" x2="613.26" y2="71.437"/>
	<line fill="none" stroke="#A1A0A0" stroke-miterlimit="10" x1="583.862" y1="74.282" x2="613.26" y2="74.282"/>
	<line fill="none" stroke="#A1A0A0" stroke-miterlimit="10" x1="583.862" y1="77.126" x2="613.26" y2="77.126"/>
	<line fill="none" stroke="#A1A0A0" stroke-miterlimit="10" x1="583.862" y1="79.023" x2="613.26" y2="79.023"/>
	<line fill="none" stroke="#A1A0A0" stroke-miterlimit="10" x1="583.862" y1="80.92" x2="613.26" y2="80.92"/>
	<line fill="none" stroke="#A1A0A0" stroke-miterlimit="10" x1="616.104" y1="62.901" x2="645.502" y2="62.901"/>
	<line fill="none" stroke="#A1A0A0" stroke-miterlimit="10" x1="616.104" y1="65.747" x2="645.502" y2="65.747"/>
	<line fill="none" stroke="#A1A0A0" stroke-miterlimit="10" x1="616.104" y1="67.644" x2="645.502" y2="67.644"/>
	<line fill="none" stroke="#A1A0A0" stroke-miterlimit="10" x1="616.104" y1="69.54" x2="645.502" y2="69.54"/>
	<line fill="none" stroke="#A1A0A0" stroke-miterlimit="10" x1="616.104" y1="71.437" x2="645.502" y2="71.437"/>
	<line fill="none" stroke="#A1A0A0" stroke-miterlimit="10" x1="616.104" y1="74.282" x2="645.502" y2="74.282"/>
	<line fill="none" stroke="#A1A0A0" stroke-miterlimit="10" x1="616.104" y1="77.126" x2="645.502" y2="77.126"/>
	<line fill="none" stroke="#A1A0A0" stroke-miterlimit="10" x1="616.104" y1="79.023" x2="645.502" y2="79.023"/>
	<line fill="none" stroke="#A1A0A0" stroke-miterlimit="10" x1="616.104" y1="80.92" x2="645.502" y2="80.92"/>
	<line fill="none" stroke="#A1A0A0" stroke-miterlimit="10" x1="649.296" y1="62.901" x2="679.643" y2="62.901"/>
	<line fill="none" stroke="#A1A0A0" stroke-miterlimit="10" x1="649.296" y1="65.747" x2="679.643" y2="65.747"/>
	<line fill="none" stroke="#A1A0A0" stroke-miterlimit="10" x1="649.296" y1="67.644" x2="679.643" y2="67.644"/>
	<line fill="none" stroke="#A1A0A0" stroke-miterlimit="10" x1="649.296" y1="69.54" x2="679.643" y2="69.54"/>
	<line fill="none" stroke="#A1A0A0" stroke-miterlimit="10" x1="649.296" y1="71.437" x2="679.643" y2="71.437"/>
	<line fill="none" stroke="#A1A0A0" stroke-miterlimit="10" x1="649.296" y1="74.282" x2="679.643" y2="74.282"/>
	<line fill="none" stroke="#A1A0A0" stroke-miterlimit="10" x1="649.296" y1="77.126" x2="679.643" y2="77.126"/>
	<line fill="none" stroke="#A1A0A0" stroke-miterlimit="10" x1="649.296" y1="79.023" x2="679.643" y2="79.023"/>
	<line fill="none" stroke="#A1A0A0" stroke-miterlimit="10" x1="649.296" y1="80.92" x2="679.643" y2="80.92"/>
	<path fill="#FFFFFF" d="M509.864,136.01l5.529-5.186c-1.216-0.839-2.238-1.928-2.996-3.195l-5.53,5.186
		c-0.883,0.826-0.927,2.213-0.1,3.095C507.595,136.793,508.981,136.838,509.864,136.01"/>
	<path fill="#FFFFFF" d="M520.889,131.163c4.837,0.156,8.885-3.639,9.04-8.476c0.156-4.835-3.638-8.884-8.475-9.039
		c-4.836-0.156-8.884,3.639-9.04,8.477C512.259,126.959,516.053,131.007,520.889,131.163 M514.604,122.193
		c0.116-3.622,3.158-6.473,6.778-6.355c3.623,0.117,6.474,3.158,6.356,6.779c-0.117,3.622-3.158,6.474-6.778,6.355
		C517.338,128.856,514.487,125.815,514.604,122.193"/>
	<path fill="#FFFFFF" d="M521.337,117.297l-0.048,1.46c2.013,0.064,3.596,1.755,3.532,3.767l1.459,0.047
		C526.371,119.754,524.153,117.389,521.337,117.297"/>
	<path fill="#FFFFFF" d="M526.505,19.959c1.418,0.068,2.513,1.273,2.444,2.691c-0.069,1.419-1.275,2.512-2.692,2.443
		c-1.419-0.068-2.512-1.275-2.443-2.692C523.883,20.984,525.087,19.891,526.505,19.959"/>
	<path fill="#FFFFFF" d="M532.816,16.639c-0.036-0.042-0.074-0.078-0.112-0.117l-0.109-0.113c-0.019-0.023-0.039-0.038-0.062-0.058
		c-3.173-3.177-8.26-3.304-11.582-0.289l-0.39,0.354l-0.54,0.49c-0.655,0.597-0.702,1.618-0.104,2.275
		c0.598,0.659,1.619,0.712,2.274,0.114l0.931-0.843c2.111-1.917,5.39-1.758,7.306,0.353l0.61,0.651
		c0.591,0.649,1.603,0.698,2.255,0.104c0.316-0.287,0.502-0.679,0.525-1.104c0.02-0.425-0.123-0.833-0.412-1.148L532.816,16.639z"/>
	<path fill="#FFFFFF" d="M537.344,13.676l-0.507-0.559c-0.002-0.002-0.002-0.006-0.008-0.009l-0.399-0.442
		c-0.071-0.075-0.149-0.145-0.23-0.202c-5.181-5.013-13.417-5.267-18.901-0.48c-0.026,0.022-0.056,0.036-0.083,0.061l-1.009,0.917
		c-0.6,0.543-0.641,1.471-0.095,2.073c0.546,0.602,1.474,0.652,2.073,0.106l1.01-0.916c0.007-0.007,0.013-0.015,0.02-0.02
		c4.434-3.887,11.156-3.587,15.231,0.655l0.72,0.795c0.543,0.597,1.474,0.642,2.075,0.095
		C537.841,15.202,537.887,14.274,537.344,13.676"/>
	<path fill="#FFFFFF" d="M40.175,18.407l-3.732,1.282c-6.41,2.201-9.82,9.182-7.62,15.592c2.204,6.409,9.184,9.821,15.59,7.619
		l3.734-1.282L40.175,18.407z"/>
	<path fill="#FFFFFF" d="M50.962,23.72l2.771-0.952c1.331-0.457,2.744,0.025,3.555,1.084l2.923-1.003
		c-2.693-5.452-9.034-8.217-14.937-6.192l-2.681,0.922l3.479,10.123l2.752-0.944C48.813,25.429,49.633,24.176,50.962,23.72"/>
	<path fill="#FFFFFF" d="M61.22,25.78l-3.021,1.037c-0.105,1.215-0.905,2.315-2.136,2.74l-2.771,0.952
		c-1.231,0.421-2.538,0.043-3.368-0.852l-2.846,0.979l3.484,10.15l2.68-0.919C59.153,37.838,62.461,31.743,61.22,25.78"/>
	<path fill="#FFFFFF" d="M55.452,27.783l-2.766,0.951c-0.332,0.113-0.691,0.092-1.006-0.062c-0.316-0.154-0.551-0.421-0.665-0.755
		l-0.261-0.758c-0.235-0.684,0.132-1.434,0.815-1.67l2.769-0.951c0.334-0.113,0.691-0.088,1.004,0.064
		c0.317,0.154,0.553,0.42,0.665,0.751l0.262,0.763c0.113,0.332,0.091,0.688-0.062,1.002C56.055,27.433,55.787,27.669,55.452,27.783"
		/>
	<path fill="#FFFFFF" d="M263.503,176.256c3.232,0,11.941-0.572,18.104-6.318c4.232-3.947,6.379-9.488,6.379-16.472v-10.43h-3.793
		v10.43c0,5.889-1.742,10.495-5.174,13.696c-6.34,5.913-16.404,5.285-16.506,5.275l-0.131-0.005l-149.204,0.633l0.633,3.479
		l148.51-0.317C262.492,176.236,262.903,176.256,263.503,176.256"/>
	<path fill="#055D7C" d="M7.297,121.224L7.26,186.199c-0.003,4.096,3.309,7.395,7.401,7.397l94.223,0.056
		c4.08,0.002,7.404-3.293,7.406-7.389l0.04-64.976c0.001-4.082-3.316-7.397-7.4-7.4l-94.222-0.056
		C10.614,113.826,7.3,117.142,7.297,121.224"/>
	<path fill="#FFFFFF" d="M113.535,153.771c0,2.432-1.969,4.396-4.396,4.394c-2.43,0-4.399-1.968-4.397-4.398
		c0.002-2.425,1.971-4.396,4.402-4.396C111.572,149.373,113.537,151.347,113.535,153.771"/>
	
		<rect x="26.135" y="111.382" transform="matrix(5.877772e-04 -1 1 5.877772e-04 -95.2414 212.1811)" fill="#FFFFFF" width="64.794" height="84.714"/>
	<rect x="20.559" y="170.537" fill="#A1A0A0" width="74.917" height="6.637"/>
	<rect x="20.559" y="127.861" fill="#92C250" width="75.865" height="11.38"/>
	<line fill="none" stroke="#A1A0A0" stroke-miterlimit="10" x1="20.559" y1="143.509" x2="44.268" y2="143.509"/>
	<line fill="none" stroke="#A1A0A0" stroke-miterlimit="10" x1="20.559" y1="146.354" x2="44.268" y2="146.354"/>
	<line fill="none" stroke="#A1A0A0" stroke-miterlimit="10" x1="20.559" y1="150.147" x2="44.268" y2="150.147"/>
	<line fill="none" stroke="#A1A0A0" stroke-miterlimit="10" x1="20.559" y1="152.043" x2="44.268" y2="152.043"/>
	<line fill="none" stroke="#A1A0A0" stroke-miterlimit="10" x1="20.559" y1="154.889" x2="44.268" y2="154.889"/>
	<line fill="none" stroke="#A1A0A0" stroke-miterlimit="10" x1="20.559" y1="157.734" x2="44.268" y2="157.734"/>
	<line fill="none" stroke="#A1A0A0" stroke-miterlimit="10" x1="20.559" y1="159.63" x2="44.268" y2="159.63"/>
	<line fill="none" stroke="#A1A0A0" stroke-miterlimit="10" x1="20.559" y1="162.475" x2="44.268" y2="162.475"/>
	<line fill="none" stroke="#A1A0A0" stroke-miterlimit="10" x1="20.559" y1="166.269" x2="44.268" y2="166.269"/>
	<line fill="none" stroke="#A1A0A0" stroke-miterlimit="10" x1="48.061" y1="143.509" x2="68.924" y2="143.509"/>
	<line fill="none" stroke="#A1A0A0" stroke-miterlimit="10" x1="48.061" y1="146.354" x2="68.924" y2="146.354"/>
	<line fill="none" stroke="#A1A0A0" stroke-miterlimit="10" x1="48.061" y1="150.147" x2="68.924" y2="150.147"/>
	<line fill="none" stroke="#A1A0A0" stroke-miterlimit="10" x1="48.061" y1="152.043" x2="68.924" y2="152.043"/>
	<line fill="none" stroke="#A1A0A0" stroke-miterlimit="10" x1="48.061" y1="154.889" x2="68.924" y2="154.889"/>
	<line fill="none" stroke="#A1A0A0" stroke-miterlimit="10" x1="48.061" y1="157.734" x2="68.924" y2="157.734"/>
	<line fill="none" stroke="#A1A0A0" stroke-miterlimit="10" x1="48.061" y1="159.63" x2="68.924" y2="159.63"/>
	<line fill="none" stroke="#A1A0A0" stroke-miterlimit="10" x1="48.061" y1="162.475" x2="68.924" y2="162.475"/>
	<line fill="none" stroke="#A1A0A0" stroke-miterlimit="10" x1="48.061" y1="166.269" x2="68.924" y2="166.269"/>
	<line fill="none" stroke="#A1A0A0" stroke-miterlimit="10" x1="72.717" y1="143.509" x2="95.476" y2="143.509"/>
	<line fill="none" stroke="#A1A0A0" stroke-miterlimit="10" x1="72.717" y1="146.354" x2="95.476" y2="146.354"/>
	<line fill="none" stroke="#A1A0A0" stroke-miterlimit="10" x1="72.717" y1="150.147" x2="95.476" y2="150.147"/>
	<line fill="none" stroke="#A1A0A0" stroke-miterlimit="10" x1="72.717" y1="152.043" x2="95.476" y2="152.043"/>
	<line fill="none" stroke="#A1A0A0" stroke-miterlimit="10" x1="72.717" y1="154.889" x2="95.476" y2="154.889"/>
	<line fill="none" stroke="#A1A0A0" stroke-miterlimit="10" x1="72.717" y1="157.734" x2="95.476" y2="157.734"/>
	<line fill="none" stroke="#A1A0A0" stroke-miterlimit="10" x1="72.717" y1="159.63" x2="95.476" y2="159.63"/>
	<line fill="none" stroke="#A1A0A0" stroke-miterlimit="10" x1="72.717" y1="162.475" x2="95.476" y2="162.475"/>
	<line fill="none" stroke="#A1A0A0" stroke-miterlimit="10" x1="72.717" y1="166.269" x2="95.476" y2="166.269"/>
	<path fill="#92C250" d="M138.297,177.471c0,6.012,4.836,10.885,10.802,10.885h33.425c5.965,0,10.8-4.873,10.8-10.885
		c0-5.43-3.943-9.926-9.104-10.749c0.066-0.379,0.103-0.771,0.103-1.176c0-3.808-3.065-6.895-6.846-6.895
		c-1.687,0-3.231,0.615-4.424,1.636c-2.126-4.825-4.85-9.229-12.493-9.229c-9.27,0-13.663,7.203-13.663,14.805
		c0,0.317,0.014,0.633,0.035,0.945C142.004,167.82,138.297,172.208,138.297,177.471"/>
	<path fill="#FFFFFF" d="M163.833,184.808l1.46,0.499c0.632,0.214,1.319-0.125,1.534-0.755l0.303-0.894
		c0.083-0.242,0.397-0.449,0.688-0.453c0.27-0.004,0.543-0.021,0.812-0.056c0.286-0.034,0.622,0.128,0.735,0.358l0.421,0.854
		c0.294,0.596,1.019,0.843,1.616,0.549l1.386-0.683c0.289-0.141,0.507-0.388,0.61-0.693s0.083-0.632-0.06-0.922l-0.421-0.854
		c-0.066-0.136-0.07-0.327-0.007-0.511c0.039-0.111,0.1-0.215,0.174-0.291c0.189-0.193,0.372-0.396,0.539-0.609
		c0.18-0.229,0.536-0.351,0.777-0.269l0.896,0.304c0.629,0.216,1.315-0.123,1.531-0.754l0.498-1.461
		c0.213-0.63-0.125-1.316-0.755-1.532l-0.894-0.304c-0.242-0.082-0.449-0.396-0.453-0.688c-0.004-0.27-0.022-0.543-0.057-0.812
		c-0.012-0.106,0.002-0.223,0.04-0.337c0.062-0.183,0.183-0.332,0.32-0.399l0.852-0.421c0.289-0.141,0.506-0.389,0.608-0.693
		c0.105-0.306,0.084-0.634-0.058-0.924l-0.682-1.386c-0.295-0.597-1.02-0.845-1.617-0.55l-0.852,0.419
		c-0.23,0.114-0.6,0.038-0.805-0.165c-0.193-0.19-0.397-0.372-0.609-0.539c-0.227-0.18-0.351-0.537-0.269-0.777l0.305-0.895
		c0.215-0.63-0.123-1.316-0.755-1.532l-1.459-0.497c-0.632-0.214-1.318,0.124-1.534,0.754l-0.304,0.893
		c-0.081,0.242-0.396,0.451-0.688,0.455c-0.268,0.003-0.541,0.021-0.811,0.054c-0.287,0.036-0.625-0.128-0.738-0.358l-0.42-0.852
		c-0.141-0.291-0.389-0.506-0.693-0.611c-0.305-0.104-0.634-0.081-0.922,0.062l-1.385,0.681c-0.289,0.143-0.507,0.389-0.61,0.694
		c-0.105,0.305-0.082,0.633,0.061,0.924l0.419,0.851c0.066,0.137,0.068,0.329,0.007,0.511c-0.037,0.113-0.1,0.217-0.175,0.293
		c-0.188,0.193-0.37,0.396-0.539,0.608c-0.18,0.228-0.535,0.351-0.777,0.269l-0.894-0.305c-0.632-0.215-1.318,0.123-1.533,0.755
		l-0.496,1.46c-0.215,0.631,0.124,1.318,0.753,1.533l0.895,0.304c0.241,0.083,0.449,0.397,0.453,0.688
		c0.004,0.271,0.021,0.542,0.055,0.813c0.015,0.105,0,0.223-0.038,0.336c-0.062,0.184-0.182,0.333-0.318,0.4l-0.853,0.42
		c-0.289,0.143-0.506,0.389-0.609,0.693c-0.104,0.306-0.083,0.635,0.06,0.922l0.681,1.385c0.293,0.598,1.02,0.845,1.616,0.551
		l0.854-0.42c0.229-0.113,0.597-0.038,0.802,0.166c0.194,0.19,0.399,0.373,0.609,0.539c0.229,0.181,0.35,0.537,0.269,0.779
		l-0.304,0.893C162.864,183.906,163.201,184.594,163.833,184.808 M164.391,174.58c0.628-1.848,2.644-2.838,4.489-2.21
		c1.848,0.63,2.839,2.644,2.21,4.491c-0.627,1.849-2.643,2.839-4.49,2.21C164.753,178.442,163.761,176.428,164.391,174.58"/>
	<path fill="#FFFFFF" d="M161.319,165.631c0.066-0.008,0.146,0.037,0.162,0.068l0.211,0.427c0.195,0.399,0.678,0.562,1.076,0.366
		l0.692-0.34c0.193-0.096,0.337-0.259,0.407-0.463c0.069-0.204,0.054-0.422-0.04-0.615l-0.21-0.427
		c-0.007-0.014-0.012-0.052,0.006-0.101c0.009-0.028,0.023-0.054,0.04-0.07c0.101-0.102,0.196-0.209,0.284-0.32
		c0.043-0.055,0.132-0.081,0.167-0.068l0.446,0.151c0.42,0.144,0.879-0.083,1.021-0.502l0.249-0.731
		c0.144-0.42-0.083-0.878-0.501-1.021l-0.449-0.153c-0.035-0.012-0.09-0.088-0.091-0.156c-0.002-0.143-0.012-0.284-0.028-0.427
		c-0.003-0.022,0.001-0.051,0.01-0.079c0.017-0.049,0.045-0.078,0.057-0.085l0.429-0.209c0.192-0.095,0.336-0.261,0.405-0.463
		c0.068-0.203,0.056-0.423-0.039-0.615l-0.342-0.692c-0.094-0.192-0.258-0.336-0.462-0.406c-0.204-0.068-0.422-0.057-0.615,0.041
		l-0.426,0.21c-0.033,0.014-0.124,0-0.172-0.047c-0.101-0.102-0.209-0.196-0.32-0.283c-0.054-0.043-0.079-0.134-0.069-0.168
		l0.152-0.446c0.145-0.422-0.081-0.88-0.502-1.021l-0.731-0.249c-0.42-0.144-0.879,0.081-1.021,0.503l-0.152,0.447
		c-0.013,0.033-0.089,0.089-0.156,0.089c-0.142,0.002-0.286,0.013-0.428,0.03c-0.066,0.008-0.147-0.037-0.162-0.068l-0.211-0.427
		c-0.196-0.397-0.681-0.563-1.078-0.366l-0.691,0.34c-0.193,0.095-0.336,0.26-0.407,0.464c-0.068,0.204-0.056,0.421,0.041,0.614
		l0.209,0.427c0.007,0.012,0.011,0.054-0.005,0.1c-0.01,0.029-0.025,0.055-0.041,0.07c-0.101,0.103-0.195,0.21-0.283,0.321
		c-0.043,0.056-0.133,0.081-0.167,0.069l-0.448-0.152c-0.418-0.143-0.879,0.083-1.021,0.503l-0.248,0.729
		c-0.143,0.422,0.082,0.881,0.502,1.022l0.449,0.153c0.033,0.011,0.087,0.088,0.088,0.156c0.002,0.141,0.013,0.285,0.03,0.428
		c0.003,0.021-0.001,0.051-0.011,0.079c-0.018,0.048-0.045,0.077-0.058,0.084l-0.427,0.21c-0.191,0.095-0.337,0.259-0.406,0.463
		c-0.069,0.203-0.055,0.422,0.039,0.615l0.342,0.69c0.197,0.399,0.679,0.563,1.077,0.367l0.427-0.21
		c0.032-0.015,0.123-0.001,0.171,0.046c0.101,0.101,0.209,0.196,0.321,0.284c0.053,0.043,0.08,0.132,0.068,0.167l-0.152,0.447
		c-0.143,0.42,0.083,0.877,0.504,1.022l0.729,0.247c0.421,0.144,0.878-0.083,1.022-0.502l0.152-0.448
		c0.011-0.035,0.087-0.089,0.156-0.091C161.03,165.659,161.176,165.649,161.319,165.631 M159.364,161.213
		c0.279-0.818,1.172-1.26,1.989-0.98c0.819,0.279,1.259,1.172,0.979,1.992c-0.277,0.818-1.17,1.257-1.989,0.978
		C159.524,162.924,159.087,162.031,159.364,161.213"/>
	<path fill="#FFFFFF" d="M439.227,176.256c-3.23,0-11.783-0.572-17.944-6.318c-4.234-3.947-6.221-9.488-6.221-16.472v-10.43h3.793
		v10.43c0,5.889,1.581,10.495,5.013,13.696c6.343,5.913,16.326,5.285,16.428,5.275l0.094-0.005l149.184,0.633l-0.643,3.479
		l-148.515-0.317C440.243,176.236,439.826,176.256,439.227,176.256"/>
	<path fill="#055D7C" d="M605.782,181.177l-6.29-5.505l-17.982,15.414c0.653,0.606,1.536,0.983,2.51,0.983h43.524
		c0.969,0,1.848-0.377,2.498-0.983l-17.971-15.414L605.782,181.177z"/>
	<path fill="#055D7C" d="M630.053,156.742c-0.653-0.61-1.532-0.985-2.51-0.985h-43.522c-0.971,0-1.849,0.379-2.504,0.992
		l24.265,20.796L630.053,156.742z"/>
	<polygon fill="#055D7C" points="580.362,158.946 580.362,189.113 597.913,174.199 	"/>
	<polygon fill="#055D7C" points="613.649,174.199 631.2,189.113 631.2,158.934 	"/>
	<path fill="#E8E7E7" d="M693.774,149.11c2.381-6.601-1.039-13.885-7.64-16.265c-6.599-2.383-13.883,1.036-16.265,7.639
		c-2.382,6.6,1.037,13.883,7.639,16.263l1.494,0.54c0.823,0.297,1.735-0.133,2.033-0.955c0.296-0.823-0.133-1.736-0.954-2.033
		l-1.494-0.539c-4.948-1.787-7.516-7.247-5.729-12.197c1.787-4.952,7.251-7.516,12.198-5.73c4.951,1.787,7.516,7.249,5.729,12.2
		l-1.617,4.48c-0.297,0.823-1.21,1.254-2.033,0.955c-0.823-0.296-1.251-1.209-0.955-2.032l1.618-4.482
		c1.19-3.298-0.521-6.942-3.819-8.133c-3.298-1.191-6.942,0.521-8.132,3.819c-1.191,3.298,0.521,6.942,3.819,8.133
		c1.119,0.403,2.277,0.451,3.362,0.238c-0.473,2.281,0.771,4.63,3.029,5.445c2.473,0.893,5.207-0.392,6.099-2.865L693.774,149.11z
		 M680.743,147.785c-1.65-0.598-2.505-2.417-1.909-4.068c0.597-1.65,2.414-2.503,4.067-1.908c1.65,0.596,2.505,2.413,1.908,4.066
		C684.214,147.526,682.394,148.379,680.743,147.785"/>
	<path fill="#FFFFFF" d="M106.633,77.819c-0.735-1.63-5.213-3.041-5.213-3.041c-2.388-0.841-2.403-1.685-2.403-1.685
		c-4.699,9.26-8.266,0.028-8.266,0.028c-0.325,1.249-5.158,2.715-5.158,2.715c-1.411,0.543-2.008,1.357-2.008,1.357
		c-2.092,3.097-2.333,9.991-2.333,9.991c0.027,1.572,0.702,1.737,0.702,1.737c4.807,2.145,12.341,2.524,12.341,2.524
		c7.738,0.164,13.37-2.198,13.37-2.198c0.818-0.516,0.841-0.924,0.841-0.924C109.077,83.385,106.633,77.819,106.633,77.819"/>
	<path fill="#FFFFFF" d="M89.568,68.205c0.358,2.977,2.92,6.062,5.246,6.062c2.669,0,5.209-3.244,5.604-6.062
		c0.15-0.108,0.398-0.367,0.488-0.954c0,0,0.571-2.041-0.184-1.822c0.263-0.788,1.135-3.853-0.557-5.759c0,0-0.792-1.08-2.717-1.652
		c-0.067-0.057-0.136-0.113-0.215-0.169c0,0,0.041,0.051,0.104,0.136c-0.108-0.031-0.226-0.059-0.341-0.085
		c-0.102-0.109-0.22-0.222-0.354-0.343c0,0,0.116,0.121,0.258,0.318c-0.055-0.011-0.102-0.025-0.153-0.033
		c-0.088-0.133-0.194-0.271-0.331-0.41c0,0,0.058,0.107,0.133,0.277c-0.356-0.262-1.07-0.866-1.07-1.54c0,0-0.443,0.209-0.705,0.589
		c0.101-0.313,0.274-0.602,0.556-0.844c0,0-0.294,0.151-0.565,0.477c-0.211,0.119-0.691,0.447-0.853,1.029l-0.152-0.077
		c0.075-0.164,0.18-0.338,0.323-0.515c0,0-0.208,0.186-0.391,0.482l-0.31-0.156c0.094-0.172,0.214-0.348,0.378-0.522
		c0,0-0.166,0.128-0.342,0.343c0.05-0.2,0.04-0.431-0.583,0.254c0,0-2.814,1.219-3.628,3.746c0,0-0.478,1.141,0.157,4.496
		c-0.901-0.426-0.289,1.778-0.289,1.778C89.17,67.838,89.417,68.096,89.568,68.205 M94.68,56.503
		c-0.136,0.19-0.255,0.427-0.312,0.718l-0.098-0.038C94.346,56.938,94.477,56.704,94.68,56.503"/>
	<rect x="233.932" y="17.856" fill="#08B3C5" width="17.069" height="3.793"/>
	<rect x="233.932" y="23.547" fill="#08B3C5" width="27.501" height="3.793"/>
	<rect x="233.932" y="29.236" fill="#08B3C5" width="33.191" height="3.794"/>
	<rect x="233.932" y="34.926" fill="#92C250" width="23.708" height="3.794"/>
	<rect x="233.932" y="40.615" fill="#92C250" width="35.087" height="3.794"/>
</g>
<g>
</g>
<g>
</g>
<g>
</g>
<g>
</g>
<g>
</g>
<g>
</g>
</svg>
