<?xml version="1.0" encoding="utf-8"?>
<!-- Generator: Adobe Illustrator 16.0.0, SVG Export Plug-In . SVG Version: 6.00 Build 0)  -->
<!DOCTYPE svg PUBLIC "-//W3C//DTD SVG 1.1//EN" "http://www.w3.org/Graphics/SVG/1.1/DTD/svg11.dtd">
<svg version="1.1" id="katman_1" xmlns="http://www.w3.org/2000/svg" xmlns:xlink="http://www.w3.org/1999/xlink" x="0px" y="0px"
	 width="708.722px" height="191.809px" viewBox="0 0 708.722 191.809" enable-background="new 0 0 708.722 191.809"
	 xml:space="preserve">
<g>
	<path fill="#FFFFFF" d="M304.571,107.998v2.855h-44.087c-3.275,0-5.958-1.069-7.976-3.18c-4.184-4.379-3.904-11.66-3.89-11.965
		l-0.001-58.932c0-3.107-0.98-5.698-2.911-7.567c-4.26-4.124-11.744-3.996-11.82-3.996h-35.891v-1.903h35.85
		c0.31,0,8.668-0.46,13.685,4.397c2.439,2.361,3.752,5.255,3.752,9.069v58.989c0,0.122-0.316,6.415,3.126,10.006
		c1.523,1.592,3.517,2.226,6.075,2.226H304.571z"/>
	<path fill="#FFFFFF" d="M459.849,144.188c3.242,0,11.982-0.573,18.166-6.341c4.246-3.961,6.4-9.521,6.4-16.525V87.064h-3.807
		v34.257c0,5.907-1.746,10.531-5.189,13.744c-6.363,5.931-16.462,5.3-16.563,5.291l-0.133-0.004H401.63v3.807h57.033
		C458.833,144.159,459.248,144.188,459.849,144.188"/>
	<path fill="#055D7C" d="M188.385,10.24l-72.697-0.042c-4.583-0.003-8.274,3.702-8.278,8.281l-0.061,105.423
		c-0.003,4.564,3.684,8.285,8.266,8.288l72.699,0.041c4.569,0.004,8.278-3.708,8.28-8.276l0.062-105.425
		C196.662,13.953,192.954,10.243,188.385,10.24"/>
	<path fill="#FFFFFF" d="M151.97,129.105c-2.72-0.001-4.918-2.202-4.917-4.919c0.001-2.719,2.202-4.922,4.922-4.92
		c2.713,0.003,4.919,2.206,4.918,4.927C156.892,126.91,154.683,129.107,151.97,129.105"/>
	<rect x="115.758" y="20.173" fill="#FFFFFF" width="72.497" height="94.783"/>
	<rect x="447.304" y="10.939" fill="#FFFFFF" width="121.801" height="77.077"/>
	
		<rect x="446.83" y="10.465" fill="none" stroke="#9A9999" stroke-width="3" stroke-miterlimit="10" width="121.798" height="77.076"/>
	<rect x="447.304" y="10.939" fill="#9A9999" width="121.801" height="11.419"/>
	<path fill="#E52C29" d="M456.892,16.633c0,1.158-0.938,2.098-2.096,2.098c-1.16,0-2.098-0.939-2.098-2.098s0.938-2.099,2.098-2.099
		C455.954,14.534,456.892,15.475,456.892,16.633"/>
	<path fill="#FFD405" d="M463.285,16.633c0,1.158-0.939,2.098-2.098,2.098s-2.098-0.939-2.098-2.098s0.939-2.099,2.098-2.099
		S463.285,15.475,463.285,16.633"/>
	<path fill="#6FB12D" d="M469.675,16.633c0,1.158-0.938,2.098-2.098,2.098c-1.157,0-2.097-0.939-2.097-2.098
		s0.939-2.099,2.097-2.099C468.737,14.534,469.675,15.475,469.675,16.633"/>
	<rect x="472.998" y="14.746" fill="#FFFFFF" width="63.754" height="3.807"/>
	<rect x="539.606" y="14.746" fill="#FFFFFF" width="26.644" height="3.807"/>
	<rect x="460.626" y="34.729" fill="#B4CF5E" width="5.71" height="35.207"/>
	<rect x="467.289" y="41.39" fill="#B4CF5E" width="3.805" height="28.547"/>
	<rect x="472.998" y="38.534" fill="#B4CF5E" width="4.756" height="31.402"/>
	<rect x="495.834" y="43.293" fill="#B4CF5E" width="3.806" height="26.644"/>
	<rect x="500.592" y="33.777" fill="#B4CF5E" width="4.759" height="36.159"/>
	<rect x="506.301" y="51.857" fill="#B4CF5E" width="4.758" height="18.079"/>
	<rect x="478.706" y="52.809" fill="#08B3C5" width="4.759" height="17.128"/>
	<rect x="484.416" y="47.1" fill="#08B3C5" width="4.759" height="22.837"/>
	<rect x="490.125" y="59.469" fill="#08B3C5" width="4.758" height="10.468"/>
	<rect x="512.011" y="56.615" fill="#08B3C5" width="4.758" height="13.321"/>
	<rect x="517.719" y="61.374" fill="#08B3C5" width="4.759" height="8.562"/>
	<rect x="523.429" y="63.276" fill="#08B3C5" width="4.758" height="6.66"/>
	<line fill="none" stroke="#C3C4BF" stroke-miterlimit="10" x1="536.751" y1="33.301" x2="557.685" y2="33.301"/>
	<line fill="none" stroke="#C3C4BF" stroke-miterlimit="10" x1="536.751" y1="35.204" x2="557.685" y2="35.204"/>
	<line fill="none" stroke="#C3C4BF" stroke-miterlimit="10" x1="536.751" y1="39.011" x2="557.685" y2="39.011"/>
	<line fill="none" stroke="#C3C4BF" stroke-miterlimit="10" x1="536.751" y1="40.913" x2="557.685" y2="40.913"/>
	<line fill="none" stroke="#C3C4BF" stroke-miterlimit="10" x1="536.751" y1="42.816" x2="557.685" y2="42.816"/>
	<rect x="188.481" y="120.369" fill="#FFFFFF" width="87.543" height="55.19"/>
	
		<rect x="188.005" y="120.845" fill="none" stroke="#9A9999" stroke-width="3" stroke-miterlimit="10" width="87.543" height="56.143"/>
	<rect x="188.481" y="120.369" fill="#9A9999" width="87.543" height="8.564"/>
	<path fill="#E52C29" d="M195.572,124.45c0,0.832-0.674,1.504-1.502,1.504c-0.832,0-1.504-0.672-1.504-1.504
		c0-0.831,0.672-1.504,1.504-1.504C194.898,122.946,195.572,123.619,195.572,124.45"/>
	<path fill="#FFD405" d="M200.155,124.45c0,0.832-0.672,1.504-1.503,1.504c-0.831,0-1.503-0.672-1.503-1.504
		c0-0.831,0.672-1.504,1.503-1.504C199.482,122.946,200.155,123.619,200.155,124.45"/>
	<path fill="#6FB12D" d="M204.738,124.45c0,0.832-0.673,1.504-1.503,1.504c-0.831,0-1.504-0.672-1.504-1.504
		c0-0.831,0.673-1.504,1.504-1.504C204.065,122.946,204.738,123.619,204.738,124.45"/>
	<rect x="206.561" y="123.224" fill="#FFFFFF" width="46.626" height="2.854"/>
	<rect x="254.138" y="123.224" fill="#FFFFFF" width="19.032" height="2.854"/>
	<line fill="none" stroke="#C3C4BF" stroke-miterlimit="10" x1="253.187" y1="136.069" x2="267.46" y2="136.069"/>
	<line fill="none" stroke="#C3C4BF" stroke-miterlimit="10" x1="253.187" y1="137.973" x2="267.46" y2="137.973"/>
	<line fill="none" stroke="#C3C4BF" stroke-miterlimit="10" x1="253.187" y1="139.876" x2="267.46" y2="139.876"/>
	<line fill="none" stroke="#C3C4BF" stroke-miterlimit="10" x1="253.187" y1="141.779" x2="267.46" y2="141.779"/>
	<line fill="none" stroke="#C3C4BF" stroke-miterlimit="10" x1="253.187" y1="143.683" x2="267.46" y2="143.683"/>
	<path fill="#055D7C" d="M216.298,150.922v-14.854h-0.003c-8.203,0-14.848,6.648-14.848,14.85c0,4.108,1.667,7.827,4.365,10.517
		l10.51-10.512H216.298z"/>
	<path fill="#055D7C" d="M207.063,163.204c2.688,2.678,6.392,4.335,10.484,4.335c8.2,0,14.847-6.646,14.849-14.845h-14.822
		L207.063,163.204z"/>
	<path fill="#2BB8CB" d="M218.28,136.067v14.854h14.848v-0.005C233.128,142.718,226.479,136.071,218.28,136.067"/>
	<rect x="412.097" y="157.479" fill="#FFFFFF" width="220.762" height="2.855"/>
	<path fill="#055D7C" d="M414,169.017c0,2.037-1.651,3.688-3.688,3.688H305.404c-2.037,0-3.688-1.651-3.688-3.688V26.045
		c0-2.036,1.651-3.687,3.688-3.687h104.908c2.037,0,3.688,1.65,3.688,3.687V169.017z"/>
	<rect x="310.281" y="31.874" fill="#FFFFFF" width="95.155" height="133.218"/>
	<path fill="#2BB8CB" d="M365.92,27.643c0,0,0.308-10.946-8.296-10.946c-8.605,0-7.99,10.946-7.99,10.946h-14.442v14.136h44.863
		V27.643H365.92z M357.625,19.859c5.031-0.016,4.848,6.869,4.818,7.783l-9.506-0.039C352.669,19.384,357.625,19.859,357.625,19.859"
		/>
	<rect x="340.73" y="60.422" fill="#055D7C" width="52.335" height="1.902"/>
	<rect x="340.73" y="83.258" fill="#055D7C" width="52.335" height="1.903"/>
	<rect x="340.73" y="105.145" fill="#055D7C" width="52.335" height="1.903"/>
	<rect x="340.73" y="127.98" fill="#055D7C" width="52.335" height="1.905"/>
	<path fill="#AFCC4F" d="M331.944,56.698l-5.477,4.597l-1.84-2.191c-0.507-0.604-1.409-0.685-2.015-0.175
		c-0.605,0.508-0.685,1.41-0.175,2.015l2.759,3.286c0.507,0.605,1.409,0.687,2.015,0.176l6.572-5.517
		c0.605-0.509,0.684-1.41,0.175-2.016C333.451,56.268,332.551,56.189,331.944,56.698"/>
	<path fill="#AFCC4F" d="M331.944,80.051l-5.477,4.599l-1.84-2.191c-0.507-0.604-1.409-0.684-2.015-0.175
		c-0.605,0.51-0.685,1.41-0.175,2.015l2.759,3.285c0.507,0.606,1.409,0.686,2.015,0.177l6.572-5.518
		c0.605-0.508,0.684-1.41,0.175-2.014C333.451,79.621,332.551,79.543,331.944,80.051"/>
	<path fill="#AFCC4F" d="M331.944,101.563l-5.477,4.598l-1.84-2.192c-0.507-0.605-1.409-0.685-2.015-0.176s-0.685,1.411-0.175,2.014
		l2.759,3.287c0.507,0.605,1.409,0.687,2.015,0.178l6.572-5.519c0.605-0.508,0.684-1.409,0.175-2.015
		C333.451,101.133,332.551,101.054,331.944,101.563"/>
	<path fill="#AFCC4F" d="M331.821,123.351l-5.477,4.599l-1.84-2.191c-0.507-0.605-1.41-0.685-2.015-0.176s-0.685,1.41-0.175,2.016
		l2.759,3.284c0.507,0.607,1.409,0.685,2.015,0.178l6.572-5.518c0.605-0.507,0.685-1.409,0.175-2.015
		C333.327,122.921,332.427,122.843,331.821,123.351"/>
	<path fill="#9A9999" d="M590.277,159.383c0,11.694-9.479,21.172-21.172,21.172c-11.694,0-21.173-9.478-21.173-21.172
		s9.479-21.174,21.173-21.174C580.798,138.209,590.277,147.688,590.277,159.383"/>
	<path fill="#FFFFFF" d="M571.365,173.014l1.608,0.021c0.694,0.01,1.267-0.547,1.276-1.24l0.014-0.986
		c0.003-0.266,0.249-0.574,0.535-0.671c0.266-0.088,0.531-0.194,0.787-0.316c0.271-0.126,0.66-0.072,0.847,0.118l0.69,0.71
		c0.482,0.497,1.281,0.507,1.778,0.023l1.155-1.122c0.241-0.233,0.376-0.549,0.381-0.885c0.004-0.336-0.122-0.652-0.357-0.893
		l-0.691-0.712c-0.109-0.114-0.174-0.302-0.172-0.506c0.001-0.122,0.03-0.245,0.078-0.343c0.127-0.254,0.241-0.514,0.337-0.779
		c0.105-0.283,0.419-0.52,0.687-0.516l0.984,0.013c0.693,0.009,1.264-0.547,1.275-1.241l0.021-1.608
		c0.009-0.693-0.549-1.267-1.242-1.276l-0.984-0.014c-0.266-0.003-0.571-0.248-0.671-0.534c-0.09-0.266-0.196-0.529-0.314-0.786
		c-0.048-0.102-0.072-0.222-0.071-0.348c0.004-0.201,0.072-0.388,0.188-0.499l0.709-0.691c0.241-0.234,0.378-0.55,0.382-0.884
		c0.004-0.338-0.123-0.655-0.357-0.896l-1.123-1.155c-0.483-0.497-1.281-0.508-1.78-0.024l-0.709,0.692
		c-0.192,0.186-0.58,0.229-0.851,0.094c-0.252-0.126-0.514-0.239-0.777-0.338c-0.284-0.105-0.52-0.418-0.517-0.686l0.013-0.982
		c0.01-0.694-0.547-1.269-1.241-1.277l-1.608-0.021c-0.693-0.01-1.265,0.546-1.275,1.241l-0.014,0.983
		c-0.003,0.267-0.248,0.573-0.534,0.671c-0.266,0.09-0.53,0.197-0.787,0.316c-0.272,0.128-0.66,0.074-0.847-0.117l-0.69-0.71
		c-0.234-0.242-0.549-0.376-0.884-0.381c-0.337-0.005-0.656,0.122-0.896,0.357l-1.152,1.123c-0.24,0.232-0.375,0.547-0.38,0.885
		c-0.005,0.335,0.122,0.652,0.357,0.895l0.688,0.708c0.111,0.115,0.177,0.304,0.173,0.506c-0.002,0.123-0.028,0.246-0.077,0.344
		c-0.128,0.254-0.241,0.515-0.339,0.777c-0.104,0.285-0.418,0.522-0.685,0.519l-0.984-0.014c-0.694-0.009-1.267,0.548-1.276,1.242
		l-0.02,1.607c-0.012,0.694,0.545,1.265,1.238,1.274l0.984,0.015c0.268,0.004,0.575,0.249,0.672,0.535
		c0.092,0.266,0.197,0.53,0.317,0.789c0.046,0.102,0.073,0.22,0.069,0.348c-0.002,0.199-0.072,0.385-0.186,0.497l-0.712,0.691
		c-0.239,0.233-0.375,0.549-0.378,0.886c-0.006,0.335,0.121,0.653,0.355,0.896l1.121,1.152c0.484,0.495,1.283,0.507,1.779,0.022
		l0.711-0.691c0.19-0.185,0.578-0.228,0.848-0.095c0.254,0.128,0.516,0.242,0.779,0.341c0.283,0.104,0.521,0.419,0.516,0.684
		l-0.012,0.984C570.113,172.432,570.671,173.003,571.365,173.014 M568.621,162.695c0.027-2.034,1.705-3.667,3.738-3.639
		c2.035,0.028,3.666,1.704,3.639,3.738c-0.027,2.032-1.705,3.665-3.739,3.639C570.225,166.407,568.593,164.728,568.621,162.695"/>
	<path fill="#FFFFFF" d="M562.691,154.814c0.062-0.03,0.156-0.013,0.184,0.014l0.346,0.355c0.322,0.332,0.854,0.34,1.188,0.017
		l0.575-0.561c0.16-0.157,0.25-0.367,0.255-0.591c0.002-0.224-0.082-0.437-0.238-0.597l-0.346-0.354
		c-0.01-0.011-0.028-0.048-0.027-0.103c0-0.031,0.006-0.061,0.018-0.082c0.066-0.133,0.126-0.271,0.178-0.41
		c0.024-0.065,0.105-0.121,0.143-0.121l0.494,0.006c0.461,0.008,0.842-0.364,0.85-0.826l0.01-0.806
		c0.008-0.462-0.364-0.844-0.828-0.85l-0.494-0.007c-0.035-0.001-0.114-0.058-0.137-0.125c-0.048-0.141-0.105-0.281-0.166-0.416
		c-0.012-0.021-0.017-0.05-0.017-0.081c0.001-0.055,0.021-0.091,0.03-0.102l0.355-0.346c0.16-0.157,0.25-0.366,0.253-0.589
		c0.004-0.226-0.081-0.437-0.237-0.598l-0.561-0.577c-0.156-0.159-0.365-0.25-0.59-0.253c-0.223-0.003-0.436,0.08-0.598,0.237
		l-0.354,0.347c-0.025,0.025-0.121,0.04-0.184,0.009c-0.132-0.066-0.271-0.127-0.41-0.178c-0.065-0.025-0.122-0.104-0.122-0.143
		l0.008-0.493c0.006-0.463-0.366-0.845-0.828-0.851l-0.805-0.012c-0.462-0.005-0.845,0.365-0.852,0.828l-0.006,0.493
		c0,0.037-0.058,0.115-0.125,0.14c-0.141,0.047-0.28,0.103-0.415,0.167c-0.062,0.028-0.157,0.012-0.184-0.016l-0.346-0.354
		c-0.323-0.333-0.854-0.34-1.187-0.018l-0.576,0.561c-0.16,0.156-0.25,0.367-0.254,0.59c-0.003,0.226,0.083,0.437,0.238,0.597
		l0.346,0.354c0.011,0.012,0.027,0.051,0.025,0.103c0,0.031-0.006,0.062-0.016,0.082c-0.067,0.133-0.127,0.271-0.179,0.411
		c-0.024,0.066-0.104,0.12-0.142,0.12l-0.494-0.006c-0.462-0.006-0.844,0.364-0.85,0.827l-0.012,0.805
		c-0.005,0.463,0.365,0.845,0.828,0.851l0.492,0.008c0.038,0,0.117,0.056,0.14,0.125c0.048,0.14,0.104,0.279,0.168,0.415
		c0.01,0.021,0.014,0.05,0.014,0.081c-0.001,0.055-0.018,0.092-0.028,0.101l-0.355,0.346c-0.161,0.156-0.251,0.366-0.255,0.591
		c-0.003,0.224,0.081,0.435,0.237,0.597l0.562,0.576c0.321,0.331,0.856,0.339,1.187,0.017l0.355-0.346
		c0.027-0.027,0.121-0.04,0.184-0.01c0.133,0.067,0.271,0.127,0.41,0.179c0.066,0.024,0.121,0.104,0.121,0.142l-0.007,0.492
		c-0.006,0.465,0.365,0.847,0.829,0.852l0.804,0.011c0.463,0.006,0.843-0.365,0.848-0.827l0.009-0.493
		c0-0.038,0.059-0.116,0.125-0.139C562.414,154.934,562.554,154.878,562.691,154.814 M559.33,151.063
		c0.013-0.901,0.756-1.623,1.656-1.613c0.9,0.014,1.623,0.758,1.612,1.658c-0.011,0.901-0.756,1.625-1.657,1.611
		C560.04,152.707,559.316,151.965,559.33,151.063"/>
	<polygon fill="#2BB8CB" points="174.534,87.916 174.534,90.725 129.566,90.725 129.566,45.759 132.377,45.759 132.377,87.916 	"/>
	<polygon fill="#AFCC4F" points="149.671,61.367 161.151,64.235 165.126,57.614 168.727,59.777 168.913,48.568 159.112,54.009 
		162.713,56.171 159.813,61.006 148.809,58.254 137.004,70.061 138.992,72.046 	"/>
	<polygon fill="#2BB8CB" points="146.43,85.105 152.05,85.105 152.05,64.856 150.532,64.479 146.43,68.581 	"/>
	<polygon fill="#2BB8CB" points="137.999,75.026 137.999,85.104 143.619,85.104 143.619,71.393 138.992,76.021 	"/>
	<polygon fill="#2BB8CB" points="163.292,66.134 163.292,85.104 168.913,85.104 168.913,63.168 166.088,61.474 	"/>
	<polygon fill="#2BB8CB" points="160.481,85.105 160.481,66.967 154.861,65.562 154.861,85.105 	"/>
	<path fill="#055D7C" d="M637.327,21.129c-0.952-1.649-1.489-3.559-1.466-5.584c0.07-6.152,5.229-11.082,11.521-11.009l0.486,0.016
		c1.234-2.689,4.576-4.596,8.484-4.551c4.395,0.048,8.018,2.55,8.714,5.789c0.759-0.089,1.534-0.136,2.329-0.126
		c2.584,0.028,4.994,0.607,7.058,1.585c1.595-2.581,4.464-4.288,7.718-4.248c3.557,0.039,6.606,2.15,8.018,5.174
		c1.901-1.156,4.162-1.817,6.584-1.791c6.672,0.075,12.023,5.333,11.948,11.744c-0.038,3.63-1.815,6.852-4.556,8.946
		c1.085,1.512,1.714,3.335,1.69,5.296c-0.058,5.124-4.517,9.223-9.956,9.161c-1.021-0.012-2.928-0.452-2.928-0.452
		c-4.261,6.837-16.23,3.622-15.203,2.413c-13.521,15.901-28.152,13.912-28.504,13.772c5.766-1.374,8.867-6.075,11.287-11.816
		c-1.555,0.519-3.244,0.798-5.015,0.775c-4.792-0.054-8.981-2.27-11.36-5.567c-1.423,0.504-2.983,0.769-4.617,0.751
		c-6.543-0.075-11.793-4.719-11.729-10.372C627.886,26.115,631.953,22.05,637.327,21.129"/>
	<path fill="#055D7C" d="M146.102,179.904c0,6.072,4.887,10.996,10.912,10.996h33.766c6.026,0,10.911-4.924,10.911-10.996
		c0-5.482-3.984-10.026-9.196-10.857c0.066-0.385,0.103-0.781,0.103-1.188c0-3.847-3.096-6.968-6.916-6.968
		c-1.703,0-3.264,0.624-4.469,1.655c-2.147-4.875-4.899-9.323-12.621-9.323c-9.364,0-13.803,7.276-13.803,14.957
		c0,0.32,0.015,0.639,0.035,0.953C149.847,170.155,146.102,174.588,146.102,179.904"/>
	<path fill="#08B3C5" d="M522.632,133.731c0,6.932-5.579,12.553-12.459,12.553h-38.547c-6.88,0-12.457-5.621-12.457-12.553
		c0-6.261,4.549-11.446,10.498-12.396c-0.074-0.439-0.115-0.893-0.115-1.357c0-4.393,3.535-7.953,7.895-7.953
		c1.945,0,3.727,0.709,5.102,1.887c2.451-5.562,5.592-10.641,14.408-10.641c10.689,0,15.758,8.306,15.758,17.073
		c0,0.366-0.016,0.729-0.041,1.09C518.355,122.6,522.632,127.662,522.632,133.731"/>
	<path fill="#2BB8CB" d="M42.832,11.518c-17.048,0-30.868,11.229-30.868,25.08c0,13.853,13.819,25.08,30.868,25.08
		c1.637,0,3.244-0.104,4.813-0.304c6.63,6.63,14.544,7.818,22.196,7.994v-1.622c-4.131-2.024-7.716-5.712-7.716-9.927
		c0-0.588,0.045-1.166,0.131-1.729c6.98-4.598,11.444-11.622,11.444-19.493C73.699,22.746,59.88,11.518,42.832,11.518"/>
	<path fill="#FFFFFF" d="M56.104,24.53H29.681c-2.433,0-4.404,1.973-4.404,4.405v17.615c0,2.431,1.971,4.402,4.404,4.402h26.423
		c2.432,0,4.404-1.972,4.404-4.402V28.936C60.508,26.503,58.536,24.53,56.104,24.53 M48.855,36.282l9.322-7.989
		c0.064,0.207,0.129,0.413,0.129,0.643v17.615c0,0.151-0.059,0.288-0.088,0.432L48.855,36.282z M56.104,26.732
		c0.146,0,0.275,0.057,0.413,0.085L42.893,38.495L29.268,26.817c0.138-0.028,0.267-0.085,0.413-0.085H56.104z M27.567,46.98
		c-0.03-0.146-0.088-0.278-0.088-0.43V28.936c0-0.229,0.065-0.436,0.131-0.643l9.318,7.987L27.567,46.98z M29.681,48.752
		c-0.223,0-0.424-0.064-0.628-0.126l9.548-10.912l3.575,3.064c0.206,0.179,0.461,0.266,0.716,0.266s0.511-0.087,0.716-0.266
		l3.576-3.064l9.547,10.912c-0.202,0.062-0.405,0.126-0.628,0.126H29.681z"/>
	<polygon fill="#FFFFFF" points="63.351,190.309 1.5,190.309 1.5,108.475 49.672,108.475 63.351,120.685 	"/>
	<polygon fill="none" stroke="#C3C4BF" stroke-width="3" stroke-miterlimit="10" points="63.351,190.309 1.5,190.309 1.5,108.475 
		49.672,108.475 63.351,120.685 	"/>
	<polygon fill="#C3C4BF" points="49.446,119.542 49.426,108.13 63.184,119.557 	"/>
	<path fill="#FFFFFF" d="M481.828,122.663c0-2.292,1.858-4.151,4.151-4.151c2.292,0,4.148,1.859,4.148,4.151
		c0,2.29-1.856,4.149-4.148,4.149C483.686,126.812,481.828,124.953,481.828,122.663 M487.973,132.037
		c-0.366-0.59-0.584-1.283-0.584-2.026c0-1.12,0.485-2.128,1.253-2.832c-0.294-0.051-0.594-0.085-0.904-0.085h-3.521
		c-2.93,0-5.312,2.387-5.312,5.314v4.309l0.012,0.066l0.296,0.093c2.407,0.752,4.541,1.07,6.366,1.146v-1.966
		C485.578,134.322,486.548,132.812,487.973,132.037 M497.44,126.812c2.292,0,4.149-1.859,4.149-4.149
		c0-2.292-1.857-4.151-4.149-4.151s-4.149,1.859-4.149,4.151C493.291,124.953,495.148,126.812,497.44,126.812 M499.201,127.094
		h-3.521c-0.577,0-1.134,0.099-1.656,0.27c0.657,0.69,1.062,1.622,1.062,2.648c0,0.742-0.215,1.436-0.582,2.025
		c1.426,0.775,2.396,2.285,2.396,4.02v1.958c0.343,0.017,0.679,0.027,1,0.027c3.905,0,6.168-1.114,6.308-1.185l0.276-0.141h0.03
		v-4.309C504.513,129.48,502.13,127.094,499.201,127.094 M488.664,130.153c0,1.421,1.153,2.573,2.574,2.573
		c1.422,0,2.574-1.152,2.574-2.573c0-1.423-1.152-2.575-2.574-2.575C489.817,127.578,488.664,128.73,488.664,130.153
		 M492.331,132.901h-2.185c-1.818,0-3.296,1.479-3.296,3.296v2.674l0.006,0.04l0.185,0.059c1.734,0.54,3.242,0.722,4.482,0.722
		c2.422,0,3.825-0.69,3.912-0.735l0.172-0.085h0.018v-2.674C495.626,134.381,494.148,132.901,492.331,132.901"/>
	<path fill="#FFFFFF" d="M183.292,176.781c0.177-4.944-3.688-9.099-8.634-9.274c-4.946-0.177-9.099,3.688-9.276,8.635
		c-0.176,4.945,3.69,9.097,8.636,9.274l1.119,0.039c0.617,0.023,1.137-0.462,1.159-1.079c0.022-0.615-0.463-1.136-1.079-1.159
		l-1.119-0.039c-3.707-0.134-6.609-3.247-6.477-6.956c0.132-3.71,3.249-6.609,6.956-6.478c3.709,0.134,6.608,3.246,6.477,6.959
		l-0.12,3.356c-0.021,0.617-0.542,1.102-1.159,1.079c-0.618-0.022-1.102-0.543-1.08-1.159l0.121-3.358
		c0.088-2.473-1.847-4.55-4.318-4.637c-2.471-0.089-4.549,1.845-4.637,4.316c-0.087,2.47,1.846,4.55,4.317,4.638
		c0.839,0.028,1.626-0.187,2.31-0.564c0.174,1.635,1.516,2.942,3.207,3.005c1.853,0.064,3.412-1.386,3.479-3.24L183.292,176.781z
		 M174.258,178.7c-1.239-0.045-2.203-1.082-2.16-2.319c0.045-1.238,1.082-2.203,2.319-2.158c1.237,0.044,2.203,1.08,2.159,2.317
		C176.532,177.778,175.495,178.743,174.258,178.7"/>
	<path fill="#FFFFFF" d="M656.462,63.651c-0.238-0.324-0.62-0.513-1.021-0.509l-28.391,0.252c-0.057,0-0.11,0.004-0.163,0.012
		l-1.198-3.357c-0.124-0.347-0.394-0.621-0.736-0.754l-5.91-2.262c-0.652-0.249-1.38,0.078-1.629,0.728
		c-0.251,0.651,0.074,1.379,0.727,1.629l5.367,2.054l6.713,18.811c-0.288,0.104-0.53,0.328-0.641,0.639l-1.844,5.274
		c-0.115,0.323-0.062,0.682,0.137,0.959c0.199,0.278,0.521,0.442,0.863,0.441l0.973-0.01c-0.596,0.677-0.959,1.561-0.949,2.532
		c0.018,2.086,1.73,3.77,3.818,3.75c2.088-0.018,3.77-1.73,3.754-3.818c-0.012-0.97-0.387-1.85-0.996-2.514l8.254-0.073
		c-0.598,0.675-0.959,1.562-0.951,2.531c0.019,2.088,1.73,3.77,3.819,3.752c2.087-0.019,3.771-1.732,3.751-3.82
		c-0.008-0.969-0.385-1.848-0.994-2.514l1.182-0.011c0.582-0.005,1.048-0.479,1.042-1.061c-0.004-0.58-0.479-1.047-1.059-1.044
		l-20.165,0.181l1.143-3.266c0.152,0.062,0.316,0.1,0.488,0.097l18.504-0.164c0.55-0.006,1.032-0.364,1.194-0.888l5.112-16.448
		C656.775,64.394,656.705,63.975,656.462,63.651 M632.559,91.737c-0.928,0.01-1.688-0.739-1.696-1.667s0.739-1.688,1.666-1.697
		c0.928-0.007,1.688,0.738,1.698,1.667C634.236,90.971,633.486,91.73,632.559,91.737 M646.438,91.615
		c-0.927,0.008-1.688-0.739-1.696-1.668c-0.009-0.929,0.738-1.689,1.668-1.696c0.928-0.01,1.688,0.739,1.696,1.666
		C648.115,90.846,647.367,91.607,646.438,91.615 M652.848,68.528l-6.438,0.057l-0.024-2.839l7.348-0.066L652.848,68.528z
		 M651.046,74.327l-4.585,0.042l-0.028-3.259l5.629-0.052L651.046,74.327z M638.119,74.443l-0.028-3.26l5.817-0.052l0.03,3.261
		L638.119,74.443z M643.958,76.914l0.025,2.734l-5.818,0.053l-0.023-2.734L643.958,76.914z M629.69,71.258l5.876-0.052l0.029,3.259
		l-4.746,0.042L629.69,71.258z M638.067,68.66l-0.024-2.839l5.818-0.053l0.025,2.838L638.067,68.66z M635.519,65.842l0.025,2.841
		l-6.752,0.06l-1.011-2.832L635.519,65.842z M631.748,77.022l3.871-0.033l0.023,2.733l-2.922,0.026L631.748,77.022z M646.507,79.627
		l-0.024-2.734l3.776-0.033l-0.852,2.741L646.507,79.627z"/>
	<path fill="#FFFFFF" d="M221.961,55.586c-4.837-0.002-8.759,3.918-8.761,8.756c0,1.306,0.286,2.549,0.797,3.66l6.664,14.478
		c0.32,0.696,0.779,1.132,1.288,1.132c0.51,0,0.969-0.434,1.289-1.13l6.675-14.474c0.514-1.111,0.801-2.354,0.801-3.659
		C230.715,59.51,226.798,55.588,221.961,55.586 M221.956,69.598c-2.901,0-5.254-2.354-5.252-5.255
		c0.001-2.901,2.356-5.255,5.256-5.251c2.902,0,5.254,2.354,5.253,5.255S224.857,69.6,221.956,69.598"/>
	<rect x="7.685" y="178.414" fill="#2BB8CB" width="49.48" height="6.661"/>
	<rect x="7.685" y="123.224" fill="#2BB8CB" width="49.48" height="6.662"/>
	<line fill="#FFFFFF" x1="7.685" y1="134.166" x2="29.571" y2="134.166"/>
	<line fill="none" stroke="#C3C4BF" stroke-miterlimit="10" x1="7.685" y1="134.166" x2="29.571" y2="134.166"/>
	<line fill="#FFFFFF" x1="7.685" y1="137.021" x2="29.571" y2="137.021"/>
	<line fill="none" stroke="#C3C4BF" stroke-miterlimit="10" x1="7.685" y1="137.021" x2="29.571" y2="137.021"/>
	<line fill="#FFFFFF" x1="7.685" y1="139.876" x2="29.571" y2="139.876"/>
	<line fill="none" stroke="#C3C4BF" stroke-miterlimit="10" x1="7.685" y1="139.876" x2="29.571" y2="139.876"/>
	<line fill="#FFFFFF" x1="7.685" y1="142.731" x2="29.571" y2="142.731"/>
	<line fill="none" stroke="#C3C4BF" stroke-miterlimit="10" x1="7.685" y1="142.731" x2="29.571" y2="142.731"/>
	<line fill="#FFFFFF" x1="7.685" y1="145.586" x2="29.571" y2="145.586"/>
	<line fill="none" stroke="#C3C4BF" stroke-miterlimit="10" x1="7.685" y1="145.586" x2="29.571" y2="145.586"/>
	<line fill="#FFFFFF" x1="7.685" y1="148.44" x2="29.571" y2="148.44"/>
	<line fill="none" stroke="#C3C4BF" stroke-miterlimit="10" x1="7.685" y1="148.44" x2="29.571" y2="148.44"/>
	<line fill="#FFFFFF" x1="7.685" y1="151.295" x2="29.571" y2="151.295"/>
	<line fill="none" stroke="#C3C4BF" stroke-miterlimit="10" x1="7.685" y1="151.295" x2="29.571" y2="151.295"/>
	<line fill="#FFFFFF" x1="7.685" y1="154.149" x2="29.571" y2="154.149"/>
	<line fill="none" stroke="#C3C4BF" stroke-miterlimit="10" x1="7.685" y1="154.149" x2="29.571" y2="154.149"/>
	<line fill="#FFFFFF" x1="7.685" y1="157.004" x2="29.571" y2="157.004"/>
	<line fill="none" stroke="#C3C4BF" stroke-miterlimit="10" x1="7.685" y1="157.004" x2="29.571" y2="157.004"/>
	<line fill="#FFFFFF" x1="7.685" y1="159.859" x2="29.571" y2="159.859"/>
	<line fill="none" stroke="#C3C4BF" stroke-miterlimit="10" x1="7.685" y1="159.859" x2="29.571" y2="159.859"/>
	<line fill="#FFFFFF" x1="7.685" y1="162.713" x2="29.571" y2="162.713"/>
	<line fill="none" stroke="#C3C4BF" stroke-miterlimit="10" x1="7.685" y1="162.713" x2="29.571" y2="162.713"/>
	<line fill="#FFFFFF" x1="7.685" y1="165.568" x2="29.571" y2="165.568"/>
	<line fill="none" stroke="#C3C4BF" stroke-miterlimit="10" x1="7.685" y1="165.568" x2="29.571" y2="165.568"/>
	<line fill="#FFFFFF" x1="7.685" y1="168.424" x2="29.571" y2="168.424"/>
	<line fill="none" stroke="#C3C4BF" stroke-miterlimit="10" x1="7.685" y1="168.424" x2="29.571" y2="168.424"/>
	<line fill="#FFFFFF" x1="7.685" y1="171.278" x2="29.571" y2="171.278"/>
	<line fill="none" stroke="#C3C4BF" stroke-miterlimit="10" x1="7.685" y1="171.278" x2="29.571" y2="171.278"/>
	<line fill="#FFFFFF" x1="7.685" y1="174.133" x2="29.571" y2="174.133"/>
	<line fill="none" stroke="#C3C4BF" stroke-miterlimit="10" x1="7.685" y1="174.133" x2="29.571" y2="174.133"/>
	<line fill="#FFFFFF" x1="35.28" y1="134.166" x2="57.166" y2="134.166"/>
	<line fill="none" stroke="#C3C4BF" stroke-miterlimit="10" x1="35.28" y1="134.166" x2="57.166" y2="134.166"/>
	<line fill="#FFFFFF" x1="35.28" y1="137.021" x2="57.166" y2="137.021"/>
	<line fill="none" stroke="#C3C4BF" stroke-miterlimit="10" x1="35.28" y1="137.021" x2="57.166" y2="137.021"/>
	<line fill="#FFFFFF" x1="35.28" y1="139.876" x2="57.166" y2="139.876"/>
	<line fill="none" stroke="#C3C4BF" stroke-miterlimit="10" x1="35.28" y1="139.876" x2="57.166" y2="139.876"/>
	<line fill="#FFFFFF" x1="35.28" y1="142.731" x2="57.166" y2="142.731"/>
	<line fill="none" stroke="#C3C4BF" stroke-miterlimit="10" x1="35.28" y1="142.731" x2="57.166" y2="142.731"/>
	<line fill="#FFFFFF" x1="35.28" y1="145.586" x2="57.166" y2="145.586"/>
	<line fill="none" stroke="#C3C4BF" stroke-miterlimit="10" x1="35.28" y1="145.586" x2="57.166" y2="145.586"/>
	<line fill="#FFFFFF" x1="35.28" y1="148.44" x2="57.166" y2="148.44"/>
	<line fill="none" stroke="#C3C4BF" stroke-miterlimit="10" x1="35.28" y1="148.44" x2="57.166" y2="148.44"/>
	<line fill="#FFFFFF" x1="35.28" y1="151.295" x2="57.166" y2="151.295"/>
	<line fill="none" stroke="#C3C4BF" stroke-miterlimit="10" x1="35.28" y1="151.295" x2="57.166" y2="151.295"/>
	<line fill="#FFFFFF" x1="35.28" y1="154.149" x2="57.166" y2="154.149"/>
	<line fill="none" stroke="#C3C4BF" stroke-miterlimit="10" x1="35.28" y1="154.149" x2="57.166" y2="154.149"/>
	<line fill="#FFFFFF" x1="35.28" y1="157.004" x2="57.166" y2="157.004"/>
	<line fill="none" stroke="#C3C4BF" stroke-miterlimit="10" x1="35.28" y1="157.004" x2="57.166" y2="157.004"/>
	<line fill="#FFFFFF" x1="35.28" y1="159.859" x2="57.166" y2="159.859"/>
	<line fill="none" stroke="#C3C4BF" stroke-miterlimit="10" x1="35.28" y1="159.859" x2="57.166" y2="159.859"/>
	<line fill="#FFFFFF" x1="35.28" y1="162.713" x2="57.166" y2="162.713"/>
	<line fill="none" stroke="#C3C4BF" stroke-miterlimit="10" x1="35.28" y1="162.713" x2="57.166" y2="162.713"/>
	<line fill="#FFFFFF" x1="35.28" y1="165.568" x2="57.166" y2="165.568"/>
	<line fill="none" stroke="#C3C4BF" stroke-miterlimit="10" x1="35.28" y1="165.568" x2="57.166" y2="165.568"/>
	<line fill="#FFFFFF" x1="35.28" y1="168.424" x2="57.166" y2="168.424"/>
	<line fill="none" stroke="#C3C4BF" stroke-miterlimit="10" x1="35.28" y1="168.424" x2="57.166" y2="168.424"/>
	<line fill="#FFFFFF" x1="35.28" y1="171.278" x2="57.166" y2="171.278"/>
	<line fill="none" stroke="#C3C4BF" stroke-miterlimit="10" x1="35.28" y1="171.278" x2="57.166" y2="171.278"/>
	<line fill="#FFFFFF" x1="35.28" y1="174.133" x2="57.166" y2="174.133"/>
	<line fill="none" stroke="#C3C4BF" stroke-miterlimit="10" x1="35.28" y1="174.133" x2="57.166" y2="174.133"/>
	<path fill="#FFFFFF" d="M675.803,23.507l-0.962-0.001l0.003-2.864c0.007-3.128-2.368-5.676-5.495-5.681
		c-3.128-0.005-5.511,2.535-5.515,5.663l-0.005,2.863l-1.047-0.001c-0.453-0.001-1.157,0.543-1.157,0.997l-0.018,10.933
		c0,0.454,0.702,0.549,1.156,0.55l13.019,0.021c0.454,0,0.506-0.095,0.508-0.548l0.017-10.934
		C676.308,24.052,676.257,23.508,675.803,23.507 M672.638,23.502l-6.605-0.012l0.002-2.863c0.004-1.949,1.362-3.533,3.311-3.529
		c1.949,0.004,3.301,1.592,3.299,3.54L672.638,23.502z"/>
	<path fill="#08B3C5" d="M707.207,131.66l0.031,53.36c0.003,3.364-2.718,6.075-6.076,6.076l-77.385,0.045
		c-3.35,0.003-6.08-2.704-6.083-6.067l-0.03-53.362c-0.002-3.354,2.723-6.076,6.075-6.078l77.383-0.046
		C704.482,125.584,707.206,128.306,707.207,131.66"/>
	<path fill="#FFFFFF" d="M619.957,158.389c0.002,1.996,1.617,3.61,3.611,3.609c1.997-0.001,3.613-1.617,3.611-3.612
		c-0.001-1.992-1.619-3.612-3.616-3.61C621.57,154.776,619.956,156.396,619.957,158.389"/>
	
		<rect x="638.522" y="123.576" transform="matrix(-5.872686e-04 -1 1 -5.872686e-04 507.1577 823.5846)" fill="#FFFFFF" width="53.215" height="69.572"/>
	<rect x="615.73" y="154.625" fill="#08B3C5" width="2.855" height="8.563"/>
	<rect x="634.762" y="171.753" fill="#A1A0A0" width="60.899" height="5.709"/>
	<rect x="633.81" y="137.497" fill="#055D7C" width="62.802" height="8.564"/>
	<line fill="none" stroke="#A1A0A0" stroke-miterlimit="10" x1="695.662" y1="150.343" x2="676.629" y2="150.343"/>
	<line fill="none" stroke="#A1A0A0" stroke-miterlimit="10" x1="695.662" y1="152.246" x2="676.629" y2="152.246"/>
	<line fill="none" stroke="#A1A0A0" stroke-miterlimit="10" x1="695.662" y1="155.102" x2="676.629" y2="155.102"/>
	<line fill="none" stroke="#A1A0A0" stroke-miterlimit="10" x1="695.662" y1="157.004" x2="676.629" y2="157.004"/>
	<line fill="none" stroke="#A1A0A0" stroke-miterlimit="10" x1="695.662" y1="158.908" x2="676.629" y2="158.908"/>
	<line fill="none" stroke="#A1A0A0" stroke-miterlimit="10" x1="695.662" y1="161.762" x2="676.629" y2="161.762"/>
	<line fill="none" stroke="#A1A0A0" stroke-miterlimit="10" x1="695.662" y1="163.665" x2="676.629" y2="163.665"/>
	<line fill="none" stroke="#A1A0A0" stroke-miterlimit="10" x1="695.662" y1="165.568" x2="676.629" y2="165.568"/>
	<line fill="none" stroke="#A1A0A0" stroke-miterlimit="10" x1="695.662" y1="168.424" x2="676.629" y2="168.424"/>
	<line fill="none" stroke="#A1A0A0" stroke-miterlimit="10" x1="673.775" y1="150.343" x2="655.695" y2="150.343"/>
	<line fill="none" stroke="#A1A0A0" stroke-miterlimit="10" x1="673.775" y1="152.246" x2="655.695" y2="152.246"/>
	<line fill="none" stroke="#A1A0A0" stroke-miterlimit="10" x1="673.775" y1="155.102" x2="655.695" y2="155.102"/>
	<line fill="none" stroke="#A1A0A0" stroke-miterlimit="10" x1="673.775" y1="157.004" x2="655.695" y2="157.004"/>
	<line fill="none" stroke="#A1A0A0" stroke-miterlimit="10" x1="673.775" y1="158.908" x2="655.695" y2="158.908"/>
	<line fill="none" stroke="#A1A0A0" stroke-miterlimit="10" x1="673.775" y1="161.762" x2="655.695" y2="161.762"/>
	<line fill="none" stroke="#A1A0A0" stroke-miterlimit="10" x1="673.775" y1="163.665" x2="655.695" y2="163.665"/>
	<line fill="none" stroke="#A1A0A0" stroke-miterlimit="10" x1="673.775" y1="165.568" x2="655.695" y2="165.568"/>
	<line fill="none" stroke="#A1A0A0" stroke-miterlimit="10" x1="673.775" y1="168.424" x2="655.695" y2="168.424"/>
	<line fill="none" stroke="#A1A0A0" stroke-miterlimit="10" x1="653.792" y1="150.343" x2="634.762" y2="150.343"/>
	<line fill="none" stroke="#A1A0A0" stroke-miterlimit="10" x1="653.792" y1="152.246" x2="634.762" y2="152.246"/>
	<line fill="none" stroke="#A1A0A0" stroke-miterlimit="10" x1="653.792" y1="155.102" x2="634.762" y2="155.102"/>
	<line fill="none" stroke="#A1A0A0" stroke-miterlimit="10" x1="653.792" y1="157.004" x2="634.762" y2="157.004"/>
	<line fill="none" stroke="#A1A0A0" stroke-miterlimit="10" x1="653.792" y1="158.908" x2="634.762" y2="158.908"/>
	<line fill="none" stroke="#A1A0A0" stroke-miterlimit="10" x1="653.792" y1="161.762" x2="634.762" y2="161.762"/>
	<line fill="none" stroke="#A1A0A0" stroke-miterlimit="10" x1="653.792" y1="163.665" x2="634.762" y2="163.665"/>
	<line fill="none" stroke="#A1A0A0" stroke-miterlimit="10" x1="653.792" y1="165.568" x2="634.762" y2="165.568"/>
	<line fill="none" stroke="#A1A0A0" stroke-miterlimit="10" x1="653.792" y1="168.424" x2="634.762" y2="168.424"/>
	<path fill="#FFFFFF" d="M116.169,171.303l-6.912-6.877c-1.023,1.599-2.379,2.961-3.974,3.992l6.91,6.878
		c1.104,1.097,2.889,1.095,3.985-0.01C117.277,174.184,117.272,172.4,116.169,171.303"/>
	<path fill="#FFFFFF" d="M109.448,157.346c-0.014-6.223-5.071-11.257-11.295-11.242c-6.223,0.015-11.257,5.073-11.242,11.297
		c0.015,6.222,5.073,11.257,11.296,11.241C104.43,168.627,109.464,163.569,109.448,157.346 M98.2,165.825
		c-4.661,0.011-8.46-3.771-8.471-8.433c-0.011-4.662,3.77-8.46,8.431-8.472s8.46,3.771,8.472,8.431
		C106.642,162.014,102.861,165.813,98.2,165.825"/>
	<path fill="#FFFFFF" d="M91.606,157.389l1.879-0.006c-0.007-2.588,2.095-4.699,4.683-4.705l-0.004-1.878
		C94.54,150.809,91.598,153.764,91.606,157.389"/>
	<path fill="#FFFFFF" d="M277.188,21.352c-1.738,0.015-3.134,1.434-3.12,3.172c0.015,1.737,1.435,3.134,3.173,3.119
		c1.737-0.016,3.133-1.435,3.119-3.172C280.345,22.732,278.925,21.337,277.188,21.352"/>
	<path fill="#FFFFFF" d="M269.633,16.981c0.046-0.049,0.094-0.091,0.142-0.136l0.14-0.135c0.023-0.025,0.05-0.043,0.079-0.068
		c4.037-3.729,10.263-3.635,14.177,0.214l0.46,0.452l0.635,0.627c0.773,0.76,0.78,2.012,0.018,2.786
		c-0.764,0.779-2.015,0.789-2.788,0.029l-1.096-1.077c-2.49-2.446-6.505-2.413-8.952,0.074l-0.778,0.768
		c-0.753,0.764-1.993,0.774-2.764,0.017c-0.373-0.367-0.58-0.854-0.586-1.378c-0.005-0.521,0.191-1.014,0.558-1.384L269.633,16.981z
		"/>
	<path fill="#FFFFFF" d="M264.24,13.139l0.648-0.659c0.003-0.002,0.004-0.007,0.009-0.008l0.512-0.523
		c0.09-0.09,0.188-0.17,0.291-0.236c6.581-5.878,16.666-5.784,23.137,0.336c0.031,0.028,0.065,0.048,0.097,0.079l1.19,1.172
		c0.706,0.691,0.712,1.828,0.014,2.538c-0.697,0.71-1.834,0.726-2.54,0.028l-1.189-1.168c-0.009-0.011-0.016-0.021-0.023-0.026
		c-5.233-4.971-13.466-4.932-18.657,0.057l-0.92,0.937c-0.692,0.705-1.832,0.711-2.541,0.016
		C263.56,14.98,263.548,13.844,264.24,13.139"/>
	<path fill="#055D7C" d="M577.951,54.098h-28c-2.677,0-4.841,2.171-4.841,4.85v56.852c0,2.672,2.164,4.844,4.841,4.844h28
		c2.674,0,4.846-2.17,4.846-4.844V58.947C582.794,56.269,580.625,54.098,577.951,54.098"/>
	<rect x="548.742" y="62.278" fill="#FFFFFF" width="30.424" height="45.735"/>
	<polygon fill="#FFFFFF" points="570.443,59.019 557.46,59.019 557.46,57.603 570.445,57.603 570.445,59.019 	"/>
	<path fill="#FFFFFF" d="M575.998,58.373c0,0.684-0.558,1.237-1.24,1.237c-0.686,0-1.242-0.556-1.242-1.237
		c0-0.683,0.557-1.239,1.242-1.239C575.44,57.132,575.998,57.688,575.998,58.373"/>
	<rect x="558.039" y="111.839" fill="#FFFFFF" width="11.822" height="3.638"/>
	<path fill="#08B3C5" d="M563.964,88.568l-3.031-2.652l-8.666,7.428c0.314,0.293,0.741,0.475,1.209,0.475h20.975
		c0.467,0,0.891-0.182,1.203-0.475l-8.658-7.428L563.964,88.568z"/>
	<path fill="#08B3C5" d="M575.66,76.794c-0.314-0.294-0.738-0.474-1.209-0.474h-20.975c-0.467,0-0.889,0.182-1.204,0.479
		l11.692,10.021L575.66,76.794z"/>
	<polygon fill="#08B3C5" points="551.716,77.855 551.716,92.394 560.172,85.207 	"/>
	<polygon fill="#08B3C5" points="567.757,85.208 576.212,92.395 576.212,77.851 	"/>
</g>
<g>
</g>
<g>
</g>
<g>
</g>
<g>
</g>
<g>
</g>
<g>
</g>
</svg>
