<?xml version="1.0" encoding="utf-8"?>
<!-- Generator: Adobe Illustrator 16.0.0, SVG Export Plug-In . SVG Version: 6.00 Build 0)  -->
<!DOCTYPE svg PUBLIC "-//W3C//DTD SVG 1.1//EN" "http://www.w3.org/Graphics/SVG/1.1/DTD/svg11.dtd">
<svg version="1.1" id="katman_1" xmlns="http://www.w3.org/2000/svg" xmlns:xlink="http://www.w3.org/1999/xlink" x="0px" y="0px"
	 width="595.28px" height="340.666px" viewBox="0 0 595.28 340.666" enable-background="new 0 0 595.28 340.666"
	 xml:space="preserve">
<g opacity="0.15">
	<g>
		<path fill="#3F5F67" d="M219.875,76.569c-23.089,0-41.872-18.784-41.872-41.872c0-23.087,18.783-41.873,41.872-41.873
			c23.088,0,41.873,18.785,41.873,41.873C261.748,57.785,242.963,76.569,219.875,76.569 M219.875-2.249
			c-20.373,0-36.946,16.574-36.946,36.946c0,20.373,16.573,36.945,36.946,36.945c20.372,0,36.946-16.573,36.946-36.945
			C256.821,14.325,240.247-2.249,219.875-2.249"/>
		<path fill="#3F5F67" d="M395.992,195.331c-23.088,0-41.872-18.785-41.872-41.872c0-23.088,18.784-41.872,41.872-41.872
			s41.872,18.784,41.872,41.872C437.864,176.546,419.08,195.331,395.992,195.331 M395.992,116.512
			c-20.371,0-36.946,16.574-36.946,36.947c0,20.37,16.575,36.944,36.946,36.944s36.946-16.574,36.946-36.944
			C432.938,133.086,416.363,116.512,395.992,116.512"/>
		<path fill="#3F5F67" d="M227.34,242.34c-17.529,0-31.792-14.261-31.792-31.792c0-17.53,14.262-31.791,31.792-31.791
			c17.531,0,31.792,14.261,31.792,31.791C259.132,228.079,244.871,242.34,227.34,242.34 M227.34,182.497
			c-15.468,0-28.052,12.583-28.052,28.051S211.873,238.6,227.34,238.6c15.468,0,28.051-12.584,28.051-28.052
			S242.809,182.497,227.34,182.497"/>
		<path fill="#3F5F67" d="M103.274-36.808c-17.529,0-31.792-14.261-31.792-31.792s14.262-31.792,31.792-31.792
			c17.531,0,31.792,14.262,31.792,31.792S120.805-36.808,103.274-36.808 M103.274-96.651c-15.467,0-28.051,12.585-28.051,28.052
			c0,15.468,12.583,28.052,28.051,28.052c15.469,0,28.052-12.584,28.052-28.052C131.326-84.066,118.743-96.651,103.274-96.651"/>
		<path fill="#3F5F67" d="M377.771-113.574c-17.53,0-31.792-14.261-31.792-31.792c0-17.53,14.262-31.792,31.792-31.792
			c17.529,0,31.792,14.262,31.792,31.792C409.562-127.835,395.3-113.574,377.771-113.574 M377.771-173.417
			c-15.468,0-28.052,12.584-28.052,28.051c0,15.468,12.584,28.052,28.052,28.052c15.467,0,28.051-12.584,28.051-28.052
			C405.821-160.833,393.237-173.417,377.771-173.417"/>
		<path fill="#3F5F67" d="M443.681,3.514c-17.531,0-31.794-14.262-31.794-31.792s14.263-31.792,31.794-31.792
			c17.528,0,31.79,14.262,31.79,31.792S461.209,3.514,443.681,3.514 M443.681-56.33c-15.469,0-28.053,12.583-28.053,28.051
			s12.584,28.052,28.053,28.052c15.468,0,28.052-12.583,28.052-28.052S459.148-56.33,443.681-56.33"/>
		<path fill="#3F5F67" d="M336.287,59.343c-12.614,0-22.876-10.261-22.876-22.875c0-12.612,10.262-22.875,22.876-22.875
			c12.611,0,22.873,10.262,22.873,22.875C359.16,49.082,348.898,59.343,336.287,59.343 M336.287,16.285
			c-11.132,0-20.185,9.055-20.185,20.184c0,11.129,9.053,20.183,20.185,20.183c11.129,0,20.182-9.054,20.182-20.183
			C356.469,25.339,347.416,16.285,336.287,16.285"/>
		<path fill="#3F5F67" d="M496.797-152.344c-12.614,0-22.876-10.261-22.876-22.874c0-12.613,10.262-22.875,22.876-22.875
			c12.611,0,22.873,10.261,22.873,22.875C519.67-162.605,509.408-152.344,496.797-152.344 M496.797-195.402
			c-11.131,0-20.186,9.054-20.186,20.184s9.055,20.184,20.186,20.184c11.129,0,20.182-9.054,20.182-20.184
			S507.926-195.402,496.797-195.402"/>
		<path fill="#3F5F67" d="M168.797-146.14c-12.613,0-22.874-10.262-22.874-22.875c0-12.613,10.261-22.875,22.874-22.875
			c12.614,0,22.875,10.262,22.875,22.875C191.672-156.402,181.411-146.14,168.797-146.14 M168.797-189.199
			c-11.129,0-20.183,9.055-20.183,20.184c0,11.129,9.053,20.184,20.183,20.184c11.13,0,20.184-9.055,20.184-20.184
			C188.98-180.144,179.927-189.199,168.797-189.199"/>
		<path fill="#3F5F67" d="M128.476,184.959c-12.613,0-22.874-10.26-22.874-22.874c0-12.613,10.261-22.875,22.874-22.875
			c12.614,0,22.875,10.262,22.875,22.875C151.35,174.699,141.089,184.959,128.476,184.959 M128.476,141.902
			c-11.129,0-20.183,9.054-20.183,20.183c0,11.129,9.054,20.184,20.183,20.184c11.13,0,20.183-9.055,20.183-20.184
			C148.659,150.956,139.605,141.902,128.476,141.902"/>
		<path fill="#3F5F67" d="M437.089,298.169c-12.613,0-22.875-10.262-22.875-22.875c0-12.613,10.262-22.874,22.875-22.874
			c12.614,0,22.876,10.261,22.876,22.874C459.965,287.907,449.703,298.169,437.089,298.169 M437.089,255.111
			c-11.129,0-20.184,9.054-20.184,20.183c0,11.13,9.055,20.185,20.184,20.185c11.13,0,20.185-9.055,20.185-20.185
			C457.273,264.165,448.219,255.111,437.089,255.111"/>
		<path fill="#3F5F67" d="M504.55,336.939c-7.911,0-14.345-6.433-14.345-14.344c0-7.91,6.434-14.345,14.345-14.345
			c7.909,0,14.346,6.435,14.346,14.345C518.896,330.506,512.459,336.939,504.55,336.939 M504.55,309.938
			c-6.98,0-12.657,5.677-12.657,12.657c0,6.979,5.677,12.657,12.657,12.657c6.979,0,12.657-5.678,12.657-12.657
			C517.207,315.614,511.528,309.938,504.55,309.938"/>
		<path fill="#3F5F67" d="M530.139,278.008c-7.911,0-14.346-6.435-14.346-14.344c0-7.91,6.435-14.345,14.346-14.345
			c7.909,0,14.345,6.435,14.345,14.345C544.483,271.573,538.048,278.008,530.139,278.008 M530.139,251.006
			c-6.98,0-12.657,5.678-12.657,12.658c0,6.979,5.677,12.656,12.657,12.656c6.979,0,12.657-5.678,12.657-12.656
			C542.796,256.684,537.117,251.006,530.139,251.006"/>
		<path fill="#3F5F67" d="M78.85,287.313c-7.91,0-14.345-6.435-14.345-14.345c0-7.911,6.435-14.345,14.345-14.345
			c7.91,0,14.345,6.435,14.345,14.345C93.195,280.878,86.759,287.313,78.85,287.313 M78.85,260.311
			c-6.979,0-12.658,5.678-12.658,12.657c0,6.98,5.678,12.657,12.658,12.657c6.979,0,12.658-5.677,12.658-12.657
			C91.508,265.989,85.829,260.311,78.85,260.311"/>
		<path fill="#3F5F67" d="M40.495,2.366c-7.91,0-14.345-6.436-14.345-14.346c0-7.909,6.435-14.345,14.345-14.345
			S54.84-19.889,54.84-11.98C54.84-4.07,48.405,2.366,40.495,2.366 M40.495-24.637c-6.979,0-12.657,5.677-12.657,12.657
			S33.516,0.677,40.495,0.677c6.979,0,12.657-5.677,12.657-12.657S47.475-24.637,40.495-24.637"/>
		<path fill="#3F5F67" d="M50.575,124.88c-7.91,0-14.345-6.436-14.345-14.345c0-7.91,6.435-14.344,14.345-14.344
			c7.911,0,14.345,6.434,14.345,14.344C64.92,118.445,58.486,124.88,50.575,124.88 M50.575,97.878
			c-6.979,0-12.657,5.678-12.657,12.657c0,6.979,5.678,12.657,12.657,12.657c6.98,0,12.658-5.678,12.658-12.657
			C63.233,103.556,57.555,97.878,50.575,97.878"/>
		<path fill="#3F5F67" d="M64.117-173.28c-7.91,0-14.345-6.436-14.345-14.345s6.435-14.345,14.345-14.345
			s14.345,6.435,14.345,14.345S72.027-173.28,64.117-173.28 M64.117-200.283c-6.979,0-12.658,5.679-12.658,12.658
			c0,6.98,5.679,12.657,12.658,12.657c6.979,0,12.658-5.677,12.658-12.657C76.774-194.604,71.096-200.283,64.117-200.283"/>
		<path fill="#3F5F67" d="M284.333-101.167c-7.91,0-14.345-6.436-14.345-14.345c0-7.91,6.435-14.345,14.345-14.345
			s14.345,6.435,14.345,14.345C298.678-107.602,292.243-101.167,284.333-101.167 M284.333-128.17
			c-6.979,0-12.658,5.679-12.658,12.658c0,6.979,5.678,12.657,12.658,12.657c6.98,0,12.657-5.678,12.657-12.657
			C296.99-122.491,291.313-128.17,284.333-128.17"/>
		<path fill="#3F5F67" d="M486.717,127.579c-7.911,0-14.348-6.434-14.348-14.344s6.437-14.345,14.348-14.345
			c7.909,0,14.343,6.435,14.343,14.345S494.626,127.579,486.717,127.579 M486.717,100.577c-6.98,0-12.659,5.677-12.659,12.657
			c0,6.979,5.679,12.657,12.659,12.657c6.979,0,12.655-5.678,12.655-12.657C499.372,106.254,493.695,100.577,486.717,100.577"/>
		<path fill="#3F5F67" d="M567-98.438c-7.911,0-14.347-6.435-14.347-14.345c0-7.909,6.436-14.345,14.347-14.345
			c7.909,0,14.344,6.436,14.344,14.345C581.344-104.874,574.909-98.438,567-98.438 M567-125.44c-6.98,0-12.659,5.678-12.659,12.657
			c0,6.98,5.679,12.658,12.659,12.658c6.977,0,12.655-5.678,12.655-12.658C579.655-119.763,573.977-125.44,567-125.44"/>
		<path fill="#3F5F67" d="M325.071,228.785c-7.911,0-14.346-6.435-14.346-14.345c0-7.91,6.435-14.345,14.346-14.345
			c7.908,0,14.345,6.435,14.345,14.345C339.416,222.35,332.979,228.785,325.071,228.785 M325.071,201.783
			c-6.98,0-12.657,5.678-12.657,12.657c0,6.979,5.677,12.657,12.657,12.657c6.978,0,12.657-5.678,12.657-12.657
			C337.729,207.461,332.049,201.783,325.071,201.783"/>
		<path fill="#3F5F67" d="M559.245,160.549c-7.911,0-14.346-6.434-14.346-14.345c0-7.909,6.435-14.344,14.346-14.344
			c7.909,0,14.345,6.435,14.345,14.344C573.59,154.115,567.154,160.549,559.245,160.549 M559.245,133.546
			c-6.98,0-12.659,5.678-12.659,12.657s5.679,12.658,12.659,12.658c6.979,0,12.657-5.679,12.657-12.658
			S566.224,133.546,559.245,133.546"/>
		<path fill="#3F5F67" d="M538.667-25.176c-7.909,0-14.344-6.436-14.344-14.345c0-7.911,6.435-14.345,14.344-14.345
			c7.911,0,14.347,6.435,14.347,14.345C553.014-31.612,546.578-25.176,538.667-25.176 M538.667-52.18
			c-6.979,0-12.655,5.679-12.655,12.659s5.677,12.657,12.655,12.657c6.98,0,12.657-5.677,12.657-12.657S545.647-52.18,538.667-52.18
			"/>
		<path fill="#3F5F67" d="M432.248-198.735c-7.911,0-14.347-6.436-14.347-14.345c0-7.91,6.436-14.345,14.347-14.345
			c7.909,0,14.344,6.435,14.344,14.345C446.592-205.171,440.157-198.735,432.248-198.735 M432.248-225.738
			c-6.98,0-12.657,5.678-12.657,12.658c0,6.979,5.677,12.657,12.657,12.657c6.979,0,12.657-5.679,12.657-12.657
			C444.905-220.06,439.227-225.738,432.248-225.738"/>
		<path fill="#3F5F67" d="M361.099,132.231c-0.215,0-0.432-0.058-0.627-0.183L250.363,61.485c-0.541-0.346-0.698-1.067-0.352-1.607
			c0.346-0.54,1.065-0.7,1.607-0.351l110.109,70.562c0.54,0.345,0.698,1.065,0.351,1.606
			C361.855,132.042,361.48,132.231,361.099,132.231"/>
		<path fill="#3F5F67" d="M189.733,8.167c-0.28,0-0.562-0.101-0.784-0.306l-62.808-57.38c-0.475-0.433-0.508-1.168-0.074-1.643
			c0.433-0.474,1.168-0.508,1.642-0.074l62.809,57.38c0.475,0.433,0.508,1.169,0.074,1.644
			C190.362,8.038,190.048,8.167,189.733,8.167"/>
		<path fill="#3F5F67" d="M119.945-92.638c-0.21,0-0.422-0.057-0.613-0.175c-0.545-0.339-0.713-1.056-0.373-1.602l35.669-57.38
			c0.338-0.546,1.056-0.714,1.601-0.374c0.545,0.34,0.713,1.056,0.374,1.602l-35.669,57.38
			C120.713-92.832,120.333-92.638,119.945-92.638"/>
		<path fill="#3F5F67" d="M90.434-96.514c-0.534,0-1.023-0.348-1.167-0.874L68.31-174.101c-0.172-0.626,0.212-1.269,0.858-1.436
			c0.645-0.165,1.307,0.208,1.479,0.834L91.603-97.99c0.171,0.627-0.214,1.27-0.858,1.437
			C90.641-96.527,90.537-96.514,90.434-96.514"/>
		<path fill="#3F5F67" d="M301.393-38.358c-4.917,0-8.918-4.001-8.918-8.917c0-4.917,4-8.918,8.918-8.918
			c4.916,0,8.917,4,8.917,8.918C310.31-42.359,306.309-38.358,301.393-38.358 M301.393-53.867c-3.636,0-6.591,2.957-6.591,6.591
			c0,3.634,2.956,6.591,6.591,6.591c3.635,0,6.59-2.957,6.59-6.591C307.982-50.91,305.027-53.867,301.393-53.867"/>
		<path fill="#3F5F67" d="M496.02,195.815c-4.916,0-8.916-4-8.916-8.917c0-4.917,4-8.917,8.916-8.917
			c4.918,0,8.917,4.001,8.917,8.917C504.937,191.815,500.938,195.815,496.02,195.815 M496.02,180.307
			c-3.634,0-6.59,2.958-6.59,6.592c0,3.634,2.956,6.591,6.59,6.591c3.635,0,6.592-2.957,6.592-6.591
			C502.611,183.265,499.654,180.307,496.02,180.307"/>
		<path fill="#3F5F67" d="M118.395,54.69c-4.916,0-8.917-4-8.917-8.917s4-8.917,8.917-8.917c4.917,0,8.917,4,8.917,8.917
			S123.312,54.69,118.395,54.69 M118.395,39.183c-3.634,0-6.591,2.957-6.591,6.591s2.957,6.591,6.591,6.591
			c3.635,0,6.591-2.957,6.591-6.591S122.03,39.183,118.395,39.183"/>
		<path fill="#3F5F67" d="M228.504-174.831c-4.917,0-8.917-4-8.917-8.917s4-8.917,8.917-8.917c4.916,0,8.917,4.001,8.917,8.917
			S233.42-174.831,228.504-174.831 M228.504-190.339c-3.635,0-6.591,2.956-6.591,6.591c0,3.634,2.957,6.591,6.591,6.591
			c3.634,0,6.591-2.957,6.591-6.591C235.095-187.383,232.138-190.339,228.504-190.339"/>
		<path fill="#3F5F67" d="M17.592-44.562c-4.917,0-8.917-4-8.917-8.918c0-4.917,4-8.917,8.917-8.917c4.917,0,8.917,4,8.917,8.917
			C26.509-48.562,22.509-44.562,17.592-44.562 M17.592-60.07c-3.635,0-6.591,2.958-6.591,6.591c0,3.635,2.956,6.591,6.591,6.591
			c3.634,0,6.591-2.957,6.591-6.591C24.183-57.113,21.226-60.07,17.592-60.07"/>
		<path fill="#3F5F67" d="M25.347,163.248c-4.917,0-8.918-4-8.918-8.917s4.001-8.917,8.918-8.917c4.916,0,8.917,4,8.917,8.917
			S30.263,163.248,25.347,163.248 M25.347,147.74c-3.635,0-6.592,2.958-6.592,6.591c0,3.635,2.957,6.591,6.592,6.591
			c3.634,0,6.591-2.956,6.591-6.591C31.938,150.697,28.98,147.74,25.347,147.74"/>
		<path fill="#3F5F67" d="M273.478,136.884c-4.917,0-8.917-4-8.917-8.917c0-4.917,4-8.918,8.917-8.918
			c4.917,0,8.917,4.001,8.917,8.918C282.395,132.884,278.394,136.884,273.478,136.884 M273.478,121.376
			c-3.634,0-6.591,2.957-6.591,6.591c0,3.635,2.958,6.591,6.591,6.591c3.634,0,6.591-2.956,6.591-6.591
			C280.068,124.333,277.112,121.376,273.478,121.376"/>
		<path fill="#3F5F67" d="M243.236-48.439c-4.917,0-8.917-4.001-8.917-8.917s4-8.917,8.917-8.917c4.917,0,8.917,4,8.917,8.917
			S248.153-48.439,243.236-48.439 M243.236-63.947c-3.634,0-6.591,2.956-6.591,6.59c0,3.635,2.957,6.591,6.591,6.591
			c3.635,0,6.591-2.957,6.591-6.591C249.827-60.991,246.871-63.947,243.236-63.947"/>
		<path fill="#3F5F67" d="M79.625-213.602c-4.917,0-8.917-4-8.917-8.917s4-8.917,8.917-8.917c4.917,0,8.917,4,8.917,8.917
			S84.542-213.602,79.625-213.602 M79.625-229.109c-3.635,0-6.591,2.956-6.591,6.591s2.956,6.591,6.591,6.591
			c3.634,0,6.591-2.956,6.591-6.591S83.259-229.109,79.625-229.109"/>
		<path fill="#3F5F67" d="M579.764,110.52c-4.916,0-8.916-4-8.916-8.917s4-8.917,8.916-8.917c4.918,0,8.919,4,8.919,8.917
			S584.682,110.52,579.764,110.52 M579.764,95.012c-3.634,0-6.59,2.958-6.59,6.591c0,3.635,2.956,6.592,6.59,6.592
			c3.635,0,6.592-2.957,6.592-6.592C586.355,97.969,583.398,95.012,579.764,95.012"/>
		<path fill="#3F5F67" d="M575.887-47.664c-4.915,0-8.916-4-8.916-8.917c0-4.917,4.001-8.917,8.916-8.917
			c4.916,0,8.917,4,8.917,8.917C584.804-51.664,580.803-47.664,575.887-47.664 M575.887-63.171c-3.634,0-6.59,2.956-6.59,6.591
			c0,3.634,2.956,6.59,6.59,6.59c3.635,0,6.593-2.956,6.593-6.59C582.479-60.215,579.521-63.171,575.887-63.171"/>
		<path fill="#3F5F67" d="M31.549-115.124c-4.917,0-8.917-4-8.917-8.917c0-4.917,4-8.917,8.917-8.917c4.917,0,8.917,4,8.917,8.917
			C40.466-119.125,36.466-115.124,31.549-115.124 M31.549-130.633c-3.634,0-6.591,2.957-6.591,6.592
			c0,3.633,2.957,6.591,6.591,6.591c3.635,0,6.591-2.958,6.591-6.591C38.14-127.676,35.184-130.633,31.549-130.633"/>
		<path fill="#3F5F67" d="M357.997-211.275c-4.916,0-8.917-4-8.917-8.918c0-4.916,4.001-8.917,8.917-8.917
			c4.917,0,8.918,4,8.918,8.917C366.915-215.275,362.914-211.275,357.997-211.275 M357.997-226.783c-3.635,0-6.59,2.957-6.59,6.59
			c0,3.635,2.955,6.591,6.59,6.591c3.634,0,6.592-2.957,6.592-6.591C364.589-223.826,361.631-226.783,357.997-226.783"/>
		<path fill="#3F5F67" d="M394.44,330.736c-4.916,0-8.917-4-8.917-8.917c0-4.917,4.001-8.917,8.917-8.917
			c4.918,0,8.919,4,8.919,8.917C403.359,326.736,399.358,330.736,394.44,330.736 M394.44,315.228c-3.634,0-6.59,2.958-6.59,6.592
			c0,3.633,2.956,6.59,6.59,6.59c3.636,0,6.592-2.957,6.592-6.59C401.032,318.186,398.076,315.228,394.44,315.228"/>
		<path fill="#3F5F67" d="M237.809,291.19c-4.917,0-8.917-4-8.917-8.917c0-4.917,4-8.917,8.917-8.917c4.917,0,8.917,4,8.917,8.917
			C246.726,287.19,242.725,291.19,237.809,291.19 M237.809,275.682c-3.635,0-6.591,2.958-6.591,6.592
			c0,3.634,2.956,6.591,6.591,6.591c3.634,0,6.591-2.957,6.591-6.591C244.4,278.64,241.443,275.682,237.809,275.682"/>
		<path fill="#3F5F67" d="M41.63,238.463c-4.917,0-8.917-4.001-8.917-8.917c0-4.917,4-8.917,8.917-8.917s8.917,4,8.917,8.917
			C50.547,234.462,46.546,238.463,41.63,238.463 M41.63,222.955c-3.635,0-6.591,2.957-6.591,6.592c0,3.634,2.956,6.59,6.591,6.59
			c3.634,0,6.591-2.956,6.591-6.59C48.221,225.912,45.264,222.955,41.63,222.955"/>
		<path fill="#3F5F67" d="M174.225-221.355c-4.917,0-8.917-4.001-8.917-8.918c0-4.917,4-8.917,8.917-8.917
			c4.917,0,8.917,4,8.917,8.917C183.142-225.356,179.142-221.355,174.225-221.355 M174.225-236.864
			c-3.635,0-6.591,2.957-6.591,6.591c0,3.635,2.956,6.591,6.591,6.591c3.634,0,6.591-2.957,6.591-6.591
			C180.816-233.907,177.859-236.864,174.225-236.864"/>
		<path fill="#3F5F67" d="M531.688-214.377c-4.916,0-8.917-4-8.917-8.917s4.001-8.917,8.917-8.917c4.918,0,8.917,4,8.917,8.917
			S536.606-214.377,531.688-214.377 M531.688-229.885c-3.634,0-6.59,2.956-6.59,6.591c0,3.634,2.956,6.591,6.59,6.591
			s6.592-2.957,6.592-6.591C538.28-226.929,535.322-229.885,531.688-229.885"/>
		<path fill="#3F5F67" d="M453.373-96.514c-4.918,0-8.917-4-8.917-8.917c0-4.917,3.999-8.917,8.917-8.917
			c4.915,0,8.916,4.001,8.916,8.917C462.289-100.515,458.288-96.514,453.373-96.514 M453.373-112.023
			c-3.637,0-6.592,2.957-6.592,6.591s2.955,6.591,6.592,6.591c3.634,0,6.592-2.957,6.592-6.591S457.007-112.023,453.373-112.023"/>
		<path fill="#3F5F67" d="M557.277,36.856c-4.916,0-8.917-4-8.917-8.917c0-4.917,4.001-8.917,8.917-8.917
			c4.917,0,8.916,4,8.916,8.917C566.193,32.856,562.194,36.856,557.277,36.856 M557.277,21.348c-3.635,0-6.59,2.956-6.59,6.591
			c0,3.634,2.955,6.591,6.59,6.591c3.634,0,6.592-2.957,6.592-6.591C563.869,24.304,560.911,21.348,557.277,21.348"/>
		<path fill="#3F5F67" d="M244.013,3.514c-0.336,0-0.668-0.145-0.899-0.423c-0.408-0.497-0.337-1.229,0.158-1.638L296-41.97
			c0.496-0.41,1.229-0.338,1.638,0.158c0.408,0.497,0.336,1.229-0.159,1.638L244.752,3.249
			C244.535,3.427,244.272,3.514,244.013,3.514"/>
		<path fill="#3F5F67" d="M307.595-51.541c-0.259,0-0.517-0.085-0.733-0.261c-0.499-0.406-0.574-1.138-0.168-1.637l54.279-66.685
			c0.403-0.499,1.138-0.573,1.636-0.169c0.499,0.406,0.574,1.139,0.168,1.638l-54.279,66.685
			C308.269-51.687,307.934-51.541,307.595-51.541"/>
		
			<rect x="260.157" y="32.979" transform="matrix(0.9948 0.1017 -0.1017 0.9948 4.9175 -28.9859)" fill="#3F5F67" width="53.392" height="1.551"/>
		<polygon fill="#3F5F67" points="325.356,17.522 304.536,-39.259 306.109,-39.776 326.931,17.005 		"/>
		
			<rect x="384.749" y="-30.743" transform="matrix(0.5512 0.8344 -0.8344 0.5512 177.2472 -319.3971)" fill="#3F5F67" width="1.548" height="71.615"/>
		
			<rect x="322.329" y="-154.673" transform="matrix(0.3384 0.941 -0.941 0.3384 93.0426 -388.9407)" fill="#3F5F67" width="1.55" height="52.733"/>
		
			<rect x="407.623" y="-208.489" transform="matrix(0.7433 0.669 -0.669 0.7433 -20.6697 -321.3889)" fill="#3F5F67" width="1.552" height="41.729"/>
		<polygon fill="#3F5F67" points="407.786,-148.872 407.462,-150.389 477.362,-165.122 477.688,-163.605 		"/>
		
			<rect x="170.752" y="127.94" transform="matrix(0.0508 0.9987 -0.9987 0.0508 339.2868 -99.5603)" fill="#3F5F67" width="102.539" height="1.551"/>
		
			<rect x="144.881" y="183.409" transform="matrix(0.8971 0.4419 -0.4419 0.8971 99.2723 -57.8558)" fill="#3F5F67" width="57.913" height="1.551"/>
		
			<rect x="57.283" y="131.845" transform="matrix(0.8442 0.536 -0.536 0.8442 84.5162 -25.5519)" fill="#3F5F67" width="57.865" height="1.55"/>
		
			<rect x="184.306" y="224.544" transform="matrix(0.7306 0.6828 -0.6828 0.7306 225.6391 -57.0169)" fill="#3F5F67" width="1.55" height="65.832"/>
		<polygon fill="#3F5F67" points="87.369,261.873 85.931,261.222 122.315,183.473 123.752,184.121 		"/>
		
			<rect x="90.828" y="282.662" transform="matrix(0.9355 0.3534 -0.3534 0.9355 107.2372 -20.4001)" fill="#3F5F67" width="37.3" height="1.55"/>
		
			<rect x="385.827" y="223.343" transform="matrix(0.3162 0.9487 -0.9487 0.3162 498.2348 -243.0227)" fill="#3F5F67" width="63.753" height="1.551"/>
		
			<rect x="485.969" y="237.746" transform="matrix(0.13 0.9915 -0.9915 0.13 688.732 -249.8821)" fill="#3F5F67" width="1.563" height="59.517"/>
		
			<rect x="451.177" y="299.282" transform="matrix(0.808 0.5892 -0.5892 0.808 267.9545 -222.1202)" fill="#3F5F67" width="47.222" height="1.589"/>
		
			<rect x="387.077" y="255.242" transform="matrix(0.1437 0.9896 -0.9896 0.1437 611.4737 -142.1088)" fill="#3F5F67" width="1.55" height="54.063"/>
		
			<rect x="451.663" y="101.771" transform="matrix(0.2861 0.9582 -0.9582 0.2861 442.6075 -344.4081)" fill="#3F5F67" width="1.55" height="46.122"/>
		
			<rect x="498.152" y="-63.051" transform="matrix(0.0762 0.9971 -0.9971 0.0762 423.4279 -532.1947)" fill="#3F5F67" width="1.55" height="50.937"/>
		
			<rect x="420.03" y="0.561" transform="matrix(0.9558 0.2941 -0.2941 0.9558 35.8365 -121.1717)" fill="#3F5F67" width="1.549" height="116.014"/>
		
			<rect x="64.892" y="-53.833" transform="matrix(0.7073 0.7069 -0.7069 0.7073 -4.8795 -56.4041)" fill="#3F5F67" width="1.551" height="39.478"/>
		<polygon fill="#3F5F67" points="495.255,179.273 486.727,126.816 488.257,126.55 496.785,179.007 		"/>
		
			<rect x="468.881" y="187.472" transform="matrix(0.8287 0.5597 -0.5597 0.8287 206.3269 -224.3419)" fill="#3F5F67" width="1.552" height="74.842"/>
		<path fill="#3F5F67" d="M458.024-111.248c-0.221,0-0.443-0.062-0.641-0.193c-0.537-0.354-0.683-1.075-0.33-1.611l28.69-43.423
			c0.355-0.537,1.077-0.684,1.611-0.329c0.536,0.354,0.685,1.076,0.331,1.611l-28.69,43.423
			C458.771-111.43,458.401-111.248,458.024-111.248"/>
		<path fill="#3F5F67" d="M444.843-108.145c-0.162,0-0.323-0.033-0.479-0.104l-41.097-18.609c-0.586-0.266-0.845-0.955-0.58-1.54
			c0.267-0.586,0.952-0.847,1.54-0.579l41.097,18.609c0.584,0.264,0.845,0.954,0.578,1.539
			C445.708-108.399,445.286-108.145,444.843-108.145"/>
		<path fill="#3F5F67" d="M446.395-56.968c-0.067,0-0.134-0.006-0.203-0.018c-0.631-0.112-1.055-0.715-0.942-1.348l6.979-39.546
			c0.112-0.633,0.72-1.053,1.349-0.943c0.631,0.112,1.053,0.714,0.942,1.348l-6.979,39.546
			C447.439-57.365,446.948-56.968,446.395-56.968"/>
		<path fill="#3F5F67" d="M556.502-121.328c-0.298,0-0.596-0.113-0.822-0.34l-41.097-41.097c-0.454-0.455-0.454-1.191,0-1.646
			c0.455-0.454,1.19-0.454,1.645,0l41.097,41.097c0.453,0.454,0.453,1.191,0,1.646C557.098-121.44,556.8-121.328,556.502-121.328"/>
		<path fill="#3F5F67" d="M509.201-193.441c-0.252,0-0.505-0.08-0.718-0.248c-0.505-0.398-0.593-1.128-0.197-1.634l17.061-21.711
			c0.396-0.505,1.13-0.593,1.633-0.197c0.505,0.398,0.594,1.128,0.195,1.634l-17.059,21.712
			C509.888-193.594,509.547-193.441,509.201-193.441"/>
		<path fill="#3F5F67" d="M168.798-190.727c-0.067,0-0.135-0.006-0.205-0.017c-0.633-0.113-1.054-0.716-0.942-1.349l5.428-30.629
			c0.112-0.632,0.716-1.056,1.349-0.942c0.633,0.112,1.055,0.716,0.942,1.348l-5.428,30.629
			C169.843-191.124,169.352-190.727,168.798-190.727"/>
		<path fill="#3F5F67" d="M189.732-175.606c-0.532,0-1.012-0.368-1.133-0.908c-0.142-0.626,0.252-1.25,0.879-1.39l31.017-6.979
			c0.627-0.141,1.249,0.253,1.39,0.88c0.141,0.626-0.253,1.249-0.879,1.39l-31.017,6.979
			C189.902-175.615,189.816-175.606,189.732-175.606"/>
		<path fill="#3F5F67" d="M118.394,39.183c-0.542,0-1.028-0.382-1.139-0.934l-15.121-74.827c-0.126-0.629,0.281-1.243,0.911-1.371
			c0.63-0.128,1.243,0.281,1.371,0.911l15.121,74.827c0.126,0.63-0.281,1.243-0.911,1.371
			C118.547,39.175,118.471,39.183,118.394,39.183"/>
		<path fill="#3F5F67" d="M126.148,46.937c-0.612,0-1.125-0.478-1.16-1.096c-0.037-0.642,0.452-1.192,1.094-1.229l53.503-3.102
			c0.646-0.03,1.191,0.453,1.229,1.094c0.037,0.642-0.453,1.192-1.095,1.229l-53.503,3.102
			C126.194,46.936,126.171,46.937,126.148,46.937"/>
		<path fill="#3F5F67" d="M125.373,140.761c-0.6,0-1.109-0.461-1.159-1.07l-6.979-86.07c-0.052-0.641,0.426-1.202,1.066-1.253
			c0.639-0.053,1.202,0.425,1.253,1.065l6.979,86.071c0.051,0.639-0.427,1.201-1.066,1.253
			C125.437,140.759,125.405,140.761,125.373,140.761"/>
		<path fill="#3F5F67" d="M58.587,99.818c-0.315,0-0.628-0.128-0.855-0.38c-0.423-0.471-0.384-1.198,0.087-1.622l52.844-47.483
			c0.473-0.424,1.198-0.384,1.623,0.087c0.424,0.472,0.385,1.198-0.086,1.623L59.354,99.525
			C59.135,99.721,58.861,99.818,58.587,99.818"/>
		<path fill="#3F5F67" d="M333.043,203.736c-0.308,0-0.615-0.124-0.838-0.369c-0.426-0.461-0.396-1.183,0.067-1.608l28.081-25.805
			c0.463-0.426,1.183-0.396,1.608,0.069c0.426,0.46,0.395,1.183-0.069,1.607l-28.08,25.806
			C333.593,203.638,333.317,203.736,333.043,203.736"/>
		<path fill="#3F5F67" d="M310.728,215.603c-0.029,0-0.059,0-0.091-0.003l-51.592-3.892c-0.641-0.048-1.121-0.607-1.072-1.248
			c0.048-0.64,0.602-1.124,1.248-1.073l51.594,3.894c0.639,0.048,1.12,0.606,1.07,1.247
			C311.84,215.138,311.329,215.603,310.728,215.603"/>
		<path fill="#3F5F67" d="M142.432,145.414c-0.23,0-0.464-0.068-0.666-0.211c-0.527-0.369-0.654-1.094-0.286-1.621l52.728-75.214
			c0.369-0.526,1.095-0.654,1.62-0.285c0.526,0.369,0.653,1.095,0.284,1.621l-52.728,75.214
			C143.16,145.241,142.799,145.414,142.432,145.414"/>
		<path fill="#3F5F67" d="M215.321-4.24c-0.506,0-0.972-0.334-1.118-0.845l-40.322-141.9c-0.175-0.618,0.183-1.261,0.801-1.436
			c0.618-0.177,1.26,0.182,1.437,0.8l40.32,141.9c0.176,0.618-0.183,1.261-0.8,1.437C215.534-4.255,215.426-4.24,215.321-4.24"/>
		<path fill="#3F5F67" d="M496.795,104.317c-0.257,0-0.515-0.085-0.729-0.259c-0.501-0.402-0.578-1.136-0.174-1.636l55.829-69.011
			c0.402-0.499,1.138-0.578,1.635-0.172c0.5,0.403,0.577,1.136,0.173,1.635l-55.829,69.011
			C497.471,104.17,497.134,104.317,496.795,104.317"/>
		<path fill="#3F5F67" d="M547.18,140.761c-0.162,0-0.326-0.032-0.483-0.104l-47.181-21.077c-0.596-0.266-0.859-0.959-0.592-1.548
			c0.267-0.59,0.969-0.854,1.561-0.588l47.18,21.078c0.594,0.265,0.86,0.959,0.594,1.549
			C548.061,140.505,547.631,140.761,547.18,140.761"/>
		<path fill="#3F5F67" d="M502.975,183.408c-0.371,0-0.733-0.18-0.952-0.515c-0.346-0.527-0.197-1.234,0.327-1.579l43.999-28.896
			c0.527-0.344,1.23-0.199,1.576,0.329c0.345,0.526,0.197,1.233-0.329,1.579l-43.998,28.896
			C503.404,183.349,503.188,183.408,502.975,183.408"/>
		<path fill="#3F5F67" d="M335.51,286.538c-0.219,0-0.439-0.06-0.633-0.188l-84.521-55.054c-0.539-0.351-0.69-1.071-0.34-1.61
			c0.351-0.538,1.071-0.69,1.61-0.339l84.519,55.054c0.538,0.35,0.69,1.071,0.34,1.609
			C336.263,286.353,335.891,286.538,335.51,286.538"/>
		<path fill="#3F5F67" d="M147.087-175.606c-0.061,0-0.122-0.004-0.183-0.014l-68.624-10.856c-0.636-0.1-1.068-0.696-0.967-1.33
			c0.1-0.634,0.694-1.069,1.33-0.967l68.624,10.855c0.635,0.1,1.067,0.696,0.967,1.33
			C148.145-176.015,147.649-175.606,147.087-175.606"/>
		<path fill="#3F5F67" d="M315.35-187.625c0-3.426-2.778-6.203-6.203-6.203c-3.426,0-6.203,2.777-6.203,6.203
			c0,3.426,2.777,6.203,6.203,6.203C312.571-181.422,315.35-184.199,315.35-187.625"/>
		<path fill="#3F5F67" d="M482.063,38.795c0-3.426-2.778-6.204-6.204-6.204c-3.425,0-6.203,2.777-6.203,6.204
			c0,3.425,2.778,6.204,6.203,6.204C479.285,44.999,482.063,42.22,482.063,38.795"/>
		<path fill="#3F5F67" d="M40.854,322.595c0-3.426-2.778-6.203-6.204-6.203c-3.425,0-6.203,2.777-6.203,6.203
			c0,3.426,2.777,6.204,6.203,6.204C38.077,328.798,40.854,326.021,40.854,322.595"/>
		<path fill="#3F5F67" d="M309.146,94.624c0-3.425-2.778-6.203-6.203-6.203c-3.426,0-6.204,2.778-6.204,6.203
			c0,3.426,2.778,6.204,6.204,6.204C306.368,100.828,309.146,98.05,309.146,94.624"/>
		<path fill="#3F5F67" d="M29.999-217.09c0-3.426-2.777-6.204-6.203-6.204s-6.203,2.777-6.203,6.204
			c0,3.425,2.777,6.203,6.203,6.203S29.999-213.665,29.999-217.09"/>
		<path fill="#3F5F67" d="M194.386-105.432c0-3.425-2.777-6.203-6.204-6.203c-3.426,0-6.203,2.777-6.203,6.203
			c0,3.426,2.777,6.203,6.203,6.203C191.608-99.229,194.386-102.006,194.386-105.432"/>
		<path fill="#3F5F67" d="M73.422,34.143c0-3.426-2.778-6.204-6.204-6.204s-6.203,2.777-6.203,6.204
			c0,3.425,2.777,6.203,6.203,6.203S73.422,37.567,73.422,34.143"/>
		<path fill="#3F5F67" d="M577.439,193.877c0-3.426-2.778-6.204-6.206-6.204c-3.425,0-6.203,2.777-6.203,6.204
			c0,3.425,2.778,6.203,6.203,6.203C574.661,200.08,577.439,197.302,577.439,193.877"/>
		<path fill="#3F5F67" d="M558.054,303.984c0-3.425-2.778-6.203-6.203-6.203c-3.427,0-6.203,2.778-6.203,6.203
			c0,3.426,2.776,6.204,6.203,6.204C555.275,310.188,558.054,307.411,558.054,303.984"/>
		<path fill="#3F5F67" d="M516.957-103.105c0-3.426-2.778-6.203-6.204-6.203c-3.425,0-6.203,2.777-6.203,6.203
			s2.778,6.204,6.203,6.204C514.179-96.902,516.957-99.68,516.957-103.105"/>
		<path fill="#3F5F67" d="M585.967-210.112c0-3.425-2.775-6.203-6.203-6.203c-3.425,0-6.203,2.777-6.203,6.203
			c0,3.426,2.778,6.204,6.203,6.204C583.191-203.908,585.967-206.686,585.967-210.112"/>
		
			<rect x="547.972" y="-230.166" transform="matrix(0.4094 0.9124 -0.9124 0.4094 145.124 -616.4975)" fill="#3F5F67" width="1.55" height="68.024"/>
		
			<rect x="344.951" y="-194.992" transform="matrix(0.3223 0.9466 -0.9466 0.3223 62.9709 -476.3917)" fill="#3F5F67" width="38.498" height="1.551"/>
		
			<rect x="308.006" y="-174.444" transform="matrix(0.8842 0.4671 -0.4671 0.8842 -42.7635 -174.8363)" fill="#3F5F67" width="46.48" height="1.551"/>
		
			<rect x="233.931" y="-51.203" transform="matrix(0.9652 0.2615 -0.2615 0.9652 0.9757 -62.3375)" fill="#3F5F67" width="1.552" height="47.402"/>
		
			<rect x="25.865" y="-206.235" transform="matrix(0.8321 0.5547 -0.5547 0.8321 -107.0394 -57.3812)" fill="#3F5F67" width="30.754" height="1.551"/>
		
			<rect x="29.187" y="-101.942" transform="matrix(0.7419 0.6705 -0.6705 0.7419 -53.2871 -63.9066)" fill="#3F5F67" width="54.351" height="1.551"/>
		
			<rect x="76.911" y="-41.741" transform="matrix(0.9627 0.2707 -0.2707 0.9627 2.0679 -21.1467)" fill="#3F5F67" width="1.551" height="77.328"/>
		<polygon fill="#3F5F67" points="70.531,261.869 45.596,235.577 46.725,234.515 71.66,260.806 		"/>
		<polygon fill="#3F5F67" points="35.275,323.077 34.043,322.108 67.059,280.795 68.291,281.764 		"/>
		<polygon fill="#3F5F67" points="236.258,273.818 233.156,240.242 234.699,240.083 237.801,273.662 		"/>
		
			<rect x="412.276" y="288.46" transform="matrix(0.6349 0.7726 -0.7726 0.6349 386.8814 -207.5704)" fill="#3F5F67" width="1.549" height="34.152"/>
		
			<rect x="549.762" y="176.43" transform="matrix(0.2478 0.9688 -0.9688 0.2478 598.1237 -415.9952)" fill="#3F5F67" width="34.417" height="1.551"/>
		
			<rect x="529.266" y="289.251" transform="matrix(0.4473 0.8944 -0.8944 0.4473 560.5755 -327.0251)" fill="#3F5F67" width="31.21" height="1.552"/>
		
			<rect x="446.629" y="16.308" transform="matrix(0.4008 0.9162 -0.9162 0.4008 295.4402 -417.5586)" fill="#3F5F67" width="40.626" height="1.551"/>
		
			<rect x="486.715" y="-111.999" transform="matrix(0.7449 0.6672 -0.6672 0.7449 72.8919 -344.9054)" fill="#3F5F67" width="1.551" height="69.74"/>
		
			<rect x="373.254" y="-86.434" transform="matrix(0.5019 0.8649 -0.8649 0.5019 129.9198 -396.9115)" fill="#3F5F67" width="72.617" height="1.552"/>
		
			<rect x="327.198" y="87.645" transform="matrix(0.4472 0.8944 -0.8944 0.4472 279.122 -274.7923)" fill="#3F5F67" width="69.354" height="1.552"/>
		
			<rect x="184.622" y="-140.325" transform="matrix(0.8875 0.4608 -0.4608 0.8875 -38.4245 -121.7117)" fill="#3F5F67" width="90.866" height="1.55"/>
		<path fill="#3F5F67" d="M499.896,109.357c-0.395,0-0.731-0.3-0.771-0.7c-0.041-0.427,0.271-0.806,0.698-0.847l72.112-6.979
			c0.436-0.04,0.805,0.27,0.846,0.696c0.042,0.427-0.27,0.805-0.695,0.847l-72.112,6.979
			C499.945,109.356,499.922,109.357,499.896,109.357"/>
		<path fill="#3F5F67" d="M566.582,135.721c-0.091,0-0.182-0.017-0.272-0.049c-0.399-0.151-0.603-0.597-0.455-0.999l9.305-24.813
			c0.152-0.401,0.6-0.602,1-0.453c0.4,0.15,0.604,0.596,0.454,0.998l-9.306,24.812C567.191,135.53,566.896,135.721,566.582,135.721"
			/>
		<path fill="#3F5F67" d="M551.851-42.624c-0.267,0-0.524-0.135-0.669-0.381c-0.217-0.369-0.094-0.844,0.272-1.062l17.061-10.081
			c0.37-0.217,0.844-0.095,1.061,0.274c0.219,0.368,0.097,0.844-0.272,1.062l-17.06,10.081
			C552.119-42.658,551.984-42.624,551.851-42.624"/>
		<path fill="#3F5F67" d="M70.32-199.256c-0.1,0-0.203-0.019-0.301-0.062c-0.394-0.166-0.579-0.62-0.413-1.016l6.204-14.732
			c0.166-0.395,0.62-0.578,1.016-0.413c0.394,0.166,0.579,0.62,0.413,1.016l-6.203,14.732
			C70.909-199.434,70.623-199.256,70.32-199.256"/>
		<path fill="#3F5F67" d="M30.775-21.688c-0.271,0-0.533-0.14-0.676-0.393L16.917-45.343c-0.211-0.372-0.081-0.845,0.292-1.056
			c0.373-0.211,0.847-0.081,1.057,0.292l13.182,23.262c0.21,0.373,0.081,0.846-0.292,1.057
			C31.035-21.719,30.904-21.688,30.775-21.688"/>
		<path fill="#3F5F67" d="M29.223,147.352c-0.142,0-0.286-0.038-0.415-0.12c-0.361-0.229-0.469-0.708-0.24-1.071l14.733-23.262
			c0.229-0.362,0.708-0.469,1.07-0.24c0.361,0.229,0.47,0.708,0.241,1.07l-14.733,23.262
			C29.73,147.225,29.479,147.352,29.223,147.352"/>
		<path fill="#3F5F67" d="M243.236,185.348c-0.127,0-0.257-0.032-0.376-0.098c-0.374-0.209-0.51-0.68-0.301-1.054l27.14-48.852
			c0.208-0.375,0.679-0.511,1.054-0.302c0.374,0.209,0.509,0.68,0.301,1.054l-27.14,48.851
			C243.772,185.204,243.509,185.348,243.236,185.348"/>
		<path fill="#3F5F67" d="M353.731,154.719c-0.077,0-0.155-0.012-0.234-0.037l-71.727-22.875c-0.407-0.13-0.633-0.566-0.502-0.974
			c0.13-0.407,0.565-0.634,0.975-0.504l71.725,22.875c0.408,0.129,0.634,0.566,0.503,0.974
			C354.366,154.508,354.061,154.719,353.731,154.719"/>
		<path fill="#3F5F67" d="M268.826,120.989c-0.253,0-0.5-0.125-0.649-0.35l-32.567-49.627c-0.235-0.358-0.135-0.838,0.223-1.073
			c0.36-0.236,0.84-0.134,1.074,0.222l32.566,49.627c0.236,0.357,0.135,0.838-0.222,1.072
			C269.118,120.947,268.972,120.989,268.826,120.989"/>
		<path fill="#3F5F67" d="M416.152,265.99c-0.124,0-0.251-0.031-0.367-0.094l-79.092-42.647c-0.377-0.203-0.52-0.673-0.314-1.051
			c0.203-0.376,0.673-0.519,1.05-0.314l79.092,42.648c0.377,0.203,0.519,0.672,0.313,1.05
			C416.694,265.842,416.427,265.99,416.152,265.99"/>
		<path fill="#3F5F67" d="M246.338-64.335c-0.15,0-0.302-0.044-0.436-0.134c-0.354-0.241-0.447-0.723-0.206-1.077l27.915-41.097
			c0.241-0.354,0.723-0.447,1.078-0.206c0.354,0.24,0.446,0.723,0.205,1.077l-27.915,41.097
			C246.83-64.453,246.585-64.335,246.338-64.335"/>
		<path fill="#3F5F67" d="M90.481,266.765c-0.295,0-0.577-0.169-0.707-0.455c-0.176-0.391-0.003-0.851,0.387-1.027l106.231-48.076
			c0.391-0.176,0.849-0.003,1.027,0.388c0.176,0.389,0.003,0.85-0.387,1.026L90.801,266.696
			C90.696,266.743,90.588,266.765,90.481,266.765"/>
		<path fill="#3F5F67" d="M416.152-42.624c-0.126,0-0.257-0.031-0.375-0.097l-119.413-65.91c-0.375-0.207-0.512-0.678-0.304-1.053
			c0.208-0.375,0.679-0.512,1.054-0.304l119.415,65.91c0.372,0.207,0.51,0.678,0.303,1.053
			C416.69-42.769,416.425-42.624,416.152-42.624"/>
		<path fill="#3F5F67" d="M475.857,104.705c-0.116,0-0.234-0.027-0.347-0.083L356.873,44.915c-0.383-0.192-0.537-0.659-0.344-1.042
			c0.191-0.382,0.659-0.537,1.041-0.344l118.639,59.707c0.38,0.193,0.536,0.66,0.343,1.041
			C476.416,104.548,476.144,104.705,475.857,104.705"/>
		<path fill="#3F5F67" d="M488.046,185.082c-0.089,0-0.18-0.015-0.269-0.046l-53.264-19.081c-0.414-0.149-0.627-0.604-0.479-1.017
			c0.146-0.414,0.604-0.629,1.016-0.48l53.263,19.08c0.414,0.149,0.629,0.604,0.481,1.017
			C488.679,184.879,488.373,185.082,488.046,185.082"/>
		<path fill="#3F5F67" d="M78.382,259.721c-0.354,0-0.67-0.249-0.746-0.611L49.816,125.029c-0.085-0.415,0.179-0.82,0.591-0.908
			c0.415-0.086,0.817,0.179,0.903,0.595l27.82,134.08c0.087,0.415-0.178,0.821-0.59,0.909
			C78.486,259.716,78.435,259.721,78.382,259.721"/>
		<path fill="#3F5F67" d="M509.977,310.964c-0.099,0-0.201-0.019-0.298-0.06c-0.396-0.166-0.582-0.619-0.416-1.015l13.957-33.343
			c0.165-0.396,0.621-0.582,1.015-0.417c0.395,0.166,0.582,0.621,0.416,1.015l-13.956,33.343
			C510.568,310.785,510.28,310.964,509.977,310.964"/>
		<path fill="#3F5F67" d="M523.16,251.257c-0.31,0-0.602-0.185-0.722-0.489l-22.487-56.606c-0.157-0.398,0.038-0.849,0.437-1.006
			c0.396-0.158,0.848,0.035,1.005,0.435l22.487,56.605c0.158,0.398-0.035,0.849-0.434,1.007
			C523.352,251.24,523.255,251.257,523.16,251.257"/>
		<path fill="#3F5F67" d="M484.388,100.053c-0.379,0-0.712-0.28-0.767-0.667l-8.528-60.482c-0.062-0.424,0.234-0.816,0.658-0.876
			c0.426-0.061,0.816,0.236,0.876,0.659l8.53,60.482c0.059,0.424-0.237,0.816-0.659,0.876
			C484.461,100.05,484.423,100.053,484.388,100.053"/>
		<path fill="#3F5F67" d="M478.961,38.019c-0.165,0-0.331-0.052-0.471-0.159c-0.34-0.26-0.404-0.747-0.145-1.086l50.4-65.911
			c0.261-0.339,0.748-0.405,1.087-0.144c0.341,0.259,0.406,0.746,0.146,1.086l-50.402,65.91
			C479.425,37.915,479.194,38.019,478.961,38.019"/>
		<path fill="#3F5F67" d="M553.4,20.96c-0.351,0-0.669-0.238-0.753-0.592l-10.855-44.975c-0.101-0.417,0.154-0.835,0.57-0.936
			c0.412-0.1,0.836,0.156,0.937,0.572l10.854,44.974c0.101,0.417-0.153,0.835-0.571,0.936C553.521,20.954,553.459,20.96,553.4,20.96
			"/>
		<path fill="#3F5F67" d="M516.955-102.329c-0.342,0-0.655-0.228-0.748-0.574c-0.11-0.413,0.133-0.839,0.547-0.951l35.698-9.678
			c0.414-0.111,0.838,0.132,0.95,0.544c0.11,0.414-0.132,0.839-0.546,0.953l-35.696,9.677
			C517.091-102.339,517.023-102.329,516.955-102.329"/>
		<path fill="#3F5F67" d="M510.753-105.432c-0.333,0-0.641-0.216-0.741-0.551l-13.959-46.137c-0.124-0.41,0.109-0.843,0.518-0.967
			c0.412-0.126,0.844,0.107,0.968,0.518l13.957,46.137c0.124,0.41-0.106,0.842-0.517,0.967
			C510.903-105.442,510.826-105.432,510.753-105.432"/>
		<path fill="#3F5F67" d="M478.185-187.625c-0.148,0-0.296-0.042-0.428-0.13l-32.567-21.711c-0.356-0.237-0.453-0.718-0.217-1.076
			c0.236-0.356,0.718-0.454,1.076-0.214l32.567,21.711c0.356,0.237,0.451,0.719,0.215,1.076
			C478.682-187.746,478.437-187.625,478.185-187.625"/>
		<path fill="#3F5F67" d="M407.133,141.93c0-6.153-4.982-11.141-11.141-11.141c-6.152,0-11.141,4.988-11.141,11.141
			c0,6.152,4.988,11.14,11.141,11.14C402.15,153.069,407.133,148.082,407.133,141.93 M387.636,142.171c0,0-0.319-3.161,1.956-5.572
			c1.603,1.606,6.4,5.572,14.757,5.572c0,4.607-3.748,8.354-8.356,8.354S387.636,146.776,387.636,142.171"/>
		<path fill="#3F5F67" d="M376.871,161.639v4.928v6.373c0,1.762,1.428,3.188,3.187,3.188h31.869c1.761,0,3.187-1.426,3.187-3.188
			v-6.373v-4.928c0-3.52-2.852-6.373-6.373-6.373h-5.651c-0.4,0-0.903,0.268-1.124,0.6l-5.57,7.875
			c-0.223,0.334-0.582,0.334-0.803,0l-5.572-7.875c-0.221-0.332-0.724-0.601-1.124-0.601h-5.649
			C379.729,155.265,376.871,158.12,376.871,161.639"/>
		<path fill="#3F5F67" d="M111.79-77.412c0-4.702-3.808-8.515-8.515-8.515c-4.702,0-8.515,3.813-8.515,8.515
			c0,4.703,3.812,8.515,8.515,8.515C107.981-68.896,111.79-72.709,111.79-77.412 M96.888-77.226c0,0-0.245-2.416,1.495-4.259
			c1.224,1.229,4.892,4.259,11.279,4.259c0,3.521-2.865,6.384-6.387,6.384C99.753-70.842,96.888-73.706,96.888-77.226"/>
		<path fill="#3F5F67" d="M88.661-62.346v3.765v4.872c0,1.346,1.092,2.436,2.436,2.436h24.357c1.346,0,2.436-1.089,2.436-2.436
			v-4.872v-3.765c0-2.69-2.18-4.872-4.872-4.872h-4.318c-0.306,0-0.689,0.205-0.859,0.459l-4.258,6.019
			c-0.169,0.254-0.444,0.254-0.613,0l-4.259-6.019c-0.169-0.254-0.554-0.46-0.859-0.46h-4.32
			C90.844-67.219,88.661-65.037,88.661-62.346"/>
		<path fill="#3F5F67" d="M235.532,201.762c0-4.666-3.778-8.447-8.447-8.447c-4.664,0-8.447,3.782-8.447,8.447
			s3.783,8.446,8.447,8.446C231.754,210.208,235.532,206.428,235.532,201.762 M220.75,201.946c0,0-0.244-2.396,1.483-4.225
			c1.215,1.218,4.853,4.225,11.188,4.225c0,3.494-2.842,6.333-6.335,6.333C223.591,208.279,220.75,205.438,220.75,201.946"/>
		<path fill="#3F5F67" d="M212.587,216.707v3.735v4.833c0,1.336,1.083,2.416,2.417,2.416h24.163c1.336,0,2.417-1.08,2.417-2.416
			v-4.833v-3.735c0-2.668-2.163-4.832-4.833-4.832h-4.285c-0.302,0-0.683,0.203-0.852,0.455l-4.225,5.972
			c-0.167,0.251-0.44,0.251-0.607,0l-4.225-5.972c-0.168-0.251-0.55-0.457-0.852-0.457h-4.285
			C214.754,211.873,212.587,214.039,212.587,216.707"/>
		<path fill="#3F5F67" d="M342.33,28.951c0-3.339-2.703-6.045-6.043-6.045c-3.339,0-6.044,2.706-6.044,6.045
			c0,3.337,2.705,6.042,6.044,6.042C339.627,34.993,342.33,32.288,342.33,28.951 M331.754,29.082c0,0-0.174-1.715,1.061-3.023
			c0.869,0.872,3.473,3.023,8.006,3.023c0,2.499-2.033,4.531-4.533,4.531C333.786,33.613,331.754,31.58,331.754,29.082"/>
		<path fill="#3F5F67" d="M325.913,39.642v2.673v3.458c0,0.955,0.774,1.728,1.729,1.728h17.289c0.954,0,1.727-0.773,1.727-1.728
			v-3.458v-2.673c0-1.909-1.546-3.457-3.456-3.457h-3.066c-0.217,0-0.489,0.146-0.611,0.326l-3.021,4.271
			c-0.12,0.181-0.313,0.181-0.437,0l-3.021-4.271c-0.122-0.18-0.395-0.327-0.611-0.327h-3.064
			C327.465,36.184,325.913,37.733,325.913,39.642"/>
		<path fill="#3F5F67" d="M348.225,305.997c-8.081,0-14.653-6.575-14.653-14.651c0-8.08,6.572-14.653,14.653-14.653
			c8.078,0,14.652,6.573,14.652,14.653C362.877,299.422,356.303,305.997,348.225,305.997 M348.225,278.417
			c-7.129,0-12.928,5.799-12.928,12.929c0,7.128,5.799,12.927,12.928,12.927c7.128,0,12.927-5.799,12.927-12.927
			C361.151,284.216,355.353,278.417,348.225,278.417"/>
		<path fill="#3F5F67" d="M352.123,287.31c0-2.152-1.743-3.898-3.898-3.898c-2.153,0-3.898,1.746-3.898,3.898
			c0,2.153,1.745,3.897,3.898,3.897C350.38,291.207,352.123,289.463,352.123,287.31 M345.302,287.396c0,0-0.112-1.106,0.685-1.951
			c0.56,0.564,2.238,1.951,5.162,1.951c0,1.611-1.312,2.923-2.924,2.923C346.611,290.319,345.302,289.006,345.302,287.396"/>
		<path fill="#3F5F67" d="M341.532,294.208v1.723v2.231c0,0.617,0.5,1.115,1.115,1.115h11.153c0.615,0,1.114-0.498,1.114-1.115
			v-2.231v-1.723c0-1.232-0.998-2.231-2.232-2.231h-1.976c-0.141,0-0.313,0.095-0.393,0.208l-1.95,2.758
			c-0.077,0.116-0.203,0.116-0.28,0l-1.948-2.758c-0.078-0.113-0.256-0.208-0.396-0.208h-1.976
			C342.533,291.977,341.532,292.976,341.532,294.208"/>
		<path fill="#3F5F67" d="M534.037,259.629c0-2.152-1.743-3.898-3.898-3.898c-2.153,0-3.898,1.746-3.898,3.898
			s1.745,3.898,3.898,3.898C532.294,263.527,534.037,261.781,534.037,259.629 M527.216,259.715c0,0-0.114-1.107,0.683-1.951
			c0.561,0.563,2.24,1.951,5.164,1.951c0,1.611-1.311,2.923-2.924,2.923S527.216,261.326,527.216,259.715"/>
		<path fill="#3F5F67" d="M523.446,266.526v1.725v2.23c0,0.617,0.501,1.116,1.116,1.116h11.15c0.617,0,1.116-0.499,1.116-1.116
			v-2.23v-1.725c0-1.232-0.998-2.228-2.232-2.228h-1.976c-0.14,0-0.315,0.093-0.395,0.208l-1.948,2.756
			c-0.077,0.116-0.205,0.116-0.28,0l-1.949-2.756c-0.079-0.115-0.255-0.21-0.395-0.21h-1.977
			C524.448,264.296,523.446,265.294,523.446,266.526"/>
		<path fill="#3F5F67" d="M396.472,319.41c0-1.12-0.909-2.029-2.031-2.029c-1.118,0-2.027,0.909-2.027,2.029
			s0.909,2.028,2.027,2.028C395.562,321.438,396.472,320.53,396.472,319.41 M392.92,319.455c0,0-0.057-0.576,0.357-1.015
			c0.291,0.293,1.163,1.015,2.686,1.015c0,0.838-0.683,1.521-1.522,1.521C393.603,320.975,392.92,320.292,392.92,319.455"/>
		<path fill="#3F5F67" d="M390.96,322.999v0.897v1.162c0,0.319,0.261,0.58,0.58,0.58h5.803c0.321,0,0.58-0.26,0.58-0.58v-1.162
			v-0.897c0-0.641-0.519-1.16-1.16-1.16h-1.029c-0.072,0-0.163,0.048-0.205,0.109l-1.013,1.434c-0.042,0.06-0.106,0.06-0.146,0
			l-1.014-1.434c-0.041-0.061-0.134-0.109-0.207-0.109h-1.027C391.48,321.839,390.96,322.358,390.96,322.999"/>
		<path fill="#3F5F67" d="M498.049,184.799c0-1.121-0.907-2.029-2.029-2.029c-1.12,0-2.029,0.908-2.029,2.029
			c0,1.12,0.909,2.027,2.029,2.027C497.142,186.827,498.049,185.919,498.049,184.799 M494.499,184.844c0,0-0.059-0.577,0.355-1.016
			c0.292,0.293,1.165,1.016,2.688,1.016c0,0.838-0.683,1.521-1.522,1.521C495.182,186.364,494.499,185.682,494.499,184.844"/>
		<path fill="#3F5F67" d="M492.539,188.387v0.897v1.161c0,0.32,0.259,0.58,0.58,0.58h5.801c0.324,0,0.582-0.259,0.582-0.58v-1.161
			v-0.897c0-0.641-0.519-1.159-1.161-1.159h-1.027c-0.075,0-0.166,0.049-0.205,0.108l-1.014,1.435c-0.042,0.061-0.106,0.061-0.148,0
			l-1.013-1.435c-0.042-0.059-0.133-0.109-0.205-0.109h-1.029C493.06,187.227,492.539,187.747,492.539,188.387"/>
		<path fill="#3F5F67" d="M581.793,98.729c0-1.12-0.907-2.028-2.029-2.028c-1.12,0-2.029,0.908-2.029,2.028
			c0,1.121,0.909,2.029,2.029,2.029C580.886,100.758,581.793,99.85,581.793,98.729 M578.243,98.774c0,0-0.059-0.577,0.357-1.016
			c0.29,0.293,1.163,1.016,2.684,1.016c0,0.838-0.681,1.521-1.521,1.521C578.926,100.294,578.243,99.612,578.243,98.774"/>
		<path fill="#3F5F67" d="M576.283,102.317v0.898v1.161c0,0.32,0.259,0.58,0.58,0.58h5.801c0.324,0,0.582-0.259,0.582-0.58v-1.161
			v-0.898c0-0.64-0.521-1.159-1.161-1.159h-1.027c-0.073,0-0.166,0.048-0.205,0.108l-1.016,1.434c-0.039,0.061-0.104,0.061-0.146,0
			l-1.014-1.434c-0.042-0.06-0.133-0.109-0.205-0.109h-1.029C576.802,101.158,576.283,101.677,576.283,102.317"/>
		<path fill="#3F5F67" d="M559.306,25.839c0-1.12-0.906-2.028-2.028-2.028c-1.12,0-2.029,0.908-2.029,2.028
			c0,1.121,0.909,2.029,2.029,2.029C558.399,27.869,559.306,26.96,559.306,25.839 M555.757,25.884c0,0-0.06-0.576,0.356-1.015
			c0.292,0.292,1.164,1.015,2.686,1.015c0,0.838-0.682,1.521-1.521,1.521C556.439,27.405,555.757,26.723,555.757,25.884"/>
		<path fill="#3F5F67" d="M553.795,29.428v0.897v1.16c0,0.321,0.26,0.58,0.581,0.58h5.804c0.321,0,0.58-0.259,0.58-0.58v-1.16
			v-0.897c0-0.641-0.52-1.16-1.162-1.16h-1.029c-0.072,0-0.163,0.048-0.203,0.109l-1.016,1.434c-0.039,0.061-0.104,0.061-0.146,0
			l-1.014-1.434c-0.041-0.061-0.132-0.11-0.205-0.11h-1.029C554.317,28.268,553.795,28.788,553.795,29.428"/>
		<path fill="#3F5F67" d="M455.401-107.531c0-1.12-0.906-2.028-2.028-2.028c-1.12,0-2.029,0.908-2.029,2.028
			c0,1.121,0.909,2.029,2.029,2.029C454.495-105.502,455.401-106.41,455.401-107.531 M451.853-107.486c0,0-0.06-0.576,0.354-1.016
			c0.292,0.293,1.166,1.016,2.688,1.016c0,0.838-0.682,1.521-1.521,1.521S451.853-106.647,451.853-107.486"/>
		<path fill="#3F5F67" d="M449.891-103.942v0.898v1.16c0,0.32,0.26,0.58,0.581,0.58h5.802c0.321,0,0.582-0.26,0.582-0.58v-1.16
			v-0.898c0-0.64-0.521-1.159-1.162-1.159h-1.027c-0.074,0-0.165,0.048-0.207,0.109l-1.014,1.434c-0.041,0.061-0.106,0.061-0.146,0
			l-1.014-1.434c-0.041-0.061-0.132-0.109-0.207-0.109h-1.027C450.411-105.102,449.891-104.582,449.891-103.942"/>
		<path fill="#3F5F67" d="M563.142,142.477c0-2.153-1.743-3.899-3.898-3.899c-2.153,0-3.896,1.746-3.896,3.899
			c0,2.152,1.743,3.897,3.896,3.897C561.398,146.374,563.142,144.629,563.142,142.477 M556.32,142.562c0,0-0.112-1.106,0.685-1.95
			c0.56,0.564,2.238,1.95,5.162,1.95c0,1.612-1.31,2.924-2.924,2.924C557.63,145.486,556.32,144.174,556.32,142.562"/>
		<path fill="#3F5F67" d="M552.553,149.375v1.723v2.23c0,0.617,0.499,1.116,1.114,1.116h11.152c0.615,0,1.116-0.499,1.116-1.116
			v-2.23v-1.723c0-1.232-0.998-2.23-2.232-2.23h-1.976c-0.142,0-0.315,0.094-0.395,0.209l-1.948,2.757
			c-0.079,0.115-0.205,0.115-0.28,0l-1.95-2.757c-0.078-0.115-0.254-0.21-0.394-0.21h-1.977
			C553.554,147.143,552.553,148.142,552.553,149.375"/>
		<path fill="#3F5F67" d="M386.228-154.12c0-4.671-3.782-8.458-8.459-8.458c-4.67,0-8.457,3.787-8.457,8.458
			c0,4.671,3.787,8.458,8.457,8.458C382.445-145.663,386.228-149.449,386.228-154.12 M371.429-153.934c0,0-0.246-2.4,1.483-4.232
			c1.216,1.222,4.856,4.232,11.201,4.232c0,3.496-2.843,6.342-6.345,6.342C374.271-147.592,371.429-150.438,371.429-153.934"/>
		<path fill="#3F5F67" d="M363.252-139.154v3.739v4.84c0,1.338,1.084,2.421,2.419,2.421h24.196c1.337,0,2.42-1.083,2.42-2.421v-4.84
			v-3.739c0-2.673-2.165-4.837-4.841-4.837h-4.289c-0.304,0-0.684,0.203-0.854,0.452l-4.229,5.982c-0.168,0.25-0.442,0.25-0.607,0
			l-4.229-5.982c-0.172-0.25-0.553-0.455-0.856-0.455h-4.288C365.423-143.994,363.252-141.827,363.252-139.154"/>
		<path fill="#3F5F67" d="M570.55-116.772c0-2.08-1.687-3.766-3.769-3.766c-2.078,0-3.767,1.686-3.767,3.766
			c0,2.081,1.688,3.767,3.767,3.767C568.863-113.006,570.55-114.692,570.55-116.772 M563.958-116.689c0,0-0.11-1.068,0.66-1.884
			c0.54,0.543,2.163,1.884,4.986,1.884c0,1.557-1.264,2.824-2.823,2.824C565.224-113.865,563.958-115.132,563.958-116.689"/>
		<path fill="#3F5F67" d="M560.317-110.108v1.665v2.155c0,0.596,0.481,1.079,1.077,1.079h10.773c0.596,0,1.077-0.483,1.077-1.079
			v-2.155v-1.665c0-1.191-0.962-2.154-2.155-2.154h-1.909c-0.136,0-0.304,0.09-0.382,0.201l-1.882,2.665
			c-0.074,0.111-0.197,0.111-0.27,0l-1.884-2.665c-0.076-0.111-0.246-0.202-0.382-0.202h-1.909
			C561.284-112.263,560.317-111.299,560.317-110.108"/>
		<path fill="#3F5F67" d="M542.435-43.42c0-2.081-1.686-3.767-3.768-3.767c-2.081,0-3.767,1.686-3.767,3.767
			c0,2.08,1.686,3.766,3.767,3.766C540.749-39.654,542.435-41.34,542.435-43.42 M535.843-43.337c0,0-0.11-1.068,0.661-1.884
			c0.54,0.543,2.163,1.884,4.988,1.884c0,1.557-1.266,2.825-2.825,2.825C537.109-40.513,535.843-41.781,535.843-43.337"/>
		<path fill="#3F5F67" d="M532.203-36.755v1.665v2.155c0,0.596,0.481,1.079,1.076,1.079h10.774c0.596,0,1.077-0.483,1.077-1.079
			v-2.155v-1.665c0-1.191-0.963-2.155-2.155-2.155h-1.909c-0.136,0-0.304,0.09-0.383,0.201l-1.881,2.665
			c-0.075,0.111-0.197,0.111-0.271,0l-1.883-2.665c-0.077-0.111-0.246-0.201-0.383-0.201h-1.91
			C533.169-38.91,532.203-37.946,532.203-36.755"/>
		<path fill="#3F5F67" d="M230.517-185.75c0-1.111-0.9-2.013-2.014-2.013c-1.111,0-2.013,0.901-2.013,2.013
			c0,1.111,0.901,2.013,2.013,2.013C229.617-183.737,230.517-184.64,230.517-185.75 M226.995-185.706c0,0-0.06-0.571,0.353-1.006
			c0.29,0.291,1.156,1.006,2.666,1.006c0,0.832-0.676,1.509-1.51,1.509C227.671-184.197,226.995-184.875,226.995-185.706"/>
		<path fill="#3F5F67" d="M225.049-182.188v0.889v1.152c0,0.318,0.257,0.576,0.576,0.576h5.757c0.319,0,0.576-0.257,0.576-0.576
			v-1.152v-0.889c0-0.637-0.515-1.151-1.152-1.151h-1.021c-0.072,0-0.163,0.048-0.204,0.108l-1.006,1.423
			c-0.039,0.059-0.105,0.059-0.145,0l-1.007-1.423c-0.041-0.06-0.131-0.109-0.204-0.109H226.2
			C225.566-183.34,225.049-182.825,225.049-182.188"/>
		<path fill="#3F5F67" d="M81.638-224.602c0-1.111-0.9-2.013-2.014-2.013c-1.111,0-2.013,0.902-2.013,2.013s0.902,2.013,2.013,2.013
			C80.738-222.589,81.638-223.491,81.638-224.602 M78.116-224.558c0,0-0.059-0.57,0.354-1.006c0.29,0.291,1.155,1.006,2.665,1.006
			c0,0.833-0.676,1.51-1.51,1.51C78.793-223.048,78.116-223.726,78.116-224.558"/>
		<path fill="#3F5F67" d="M76.17-221.04v0.889v1.152c0,0.319,0.258,0.576,0.577,0.576h5.757c0.319,0,0.576-0.257,0.576-0.576v-1.152
			v-0.889c0-0.637-0.515-1.151-1.153-1.151h-1.02c-0.072,0-0.164,0.048-0.204,0.108l-1.006,1.423c-0.04,0.059-0.105,0.059-0.145,0
			l-1.006-1.423c-0.04-0.06-0.131-0.109-0.204-0.109h-1.021C76.687-222.192,76.17-221.676,76.17-221.04"/>
		<path fill="#3F5F67" d="M176.238-232.356c0-1.112-0.9-2.013-2.013-2.013c-1.111,0-2.013,0.901-2.013,2.013
			c0,1.111,0.902,2.013,2.013,2.013C175.338-230.343,176.238-231.245,176.238-232.356 M172.716-232.312c0,0-0.06-0.571,0.354-1.007
			c0.29,0.291,1.156,1.007,2.665,1.007c0,0.832-0.676,1.51-1.509,1.51C173.393-230.802,172.716-231.479,172.716-232.312"/>
		<path fill="#3F5F67" d="M170.771-228.794v0.889v1.152c0,0.319,0.257,0.576,0.576,0.576h5.757c0.319,0,0.576-0.257,0.576-0.576
			v-1.152v-0.889c0-0.636-0.515-1.151-1.153-1.151h-1.02c-0.072,0-0.163,0.048-0.204,0.107l-1.006,1.423
			c-0.04,0.059-0.105,0.059-0.146,0l-1.006-1.423c-0.041-0.06-0.131-0.108-0.204-0.108h-1.021
			C171.287-229.946,170.771-229.43,170.771-228.794"/>
		<path fill="#3F5F67" d="M533.668-225.708c0-1.092-0.883-1.979-1.979-1.979c-1.093,0-1.979,0.887-1.979,1.979
			c0,1.094,0.887,1.982,1.979,1.982C532.785-223.726,533.668-224.613,533.668-225.708 M530.203-225.663c0,0-0.057-0.562,0.35-0.991
			c0.284,0.286,1.136,0.991,2.622,0.991c0,0.819-0.666,1.484-1.486,1.484C530.87-224.179,530.203-224.844,530.203-225.663"/>
		<path fill="#3F5F67" d="M528.291-222.204v0.875v1.133c0,0.314,0.252,0.567,0.565,0.567h5.665c0.312,0,0.566-0.253,0.566-0.567
			v-1.133v-0.875c0-0.625-0.507-1.132-1.134-1.132h-1.004c-0.073,0-0.161,0.047-0.199,0.106l-0.989,1.4
			c-0.042,0.059-0.104,0.059-0.145,0l-0.989-1.4c-0.04-0.059-0.129-0.106-0.201-0.106h-1.004
			C528.798-223.336,528.291-222.829,528.291-222.204"/>
		<path fill="#3F5F67" d="M245.217-59.475c0-1.093-0.886-1.98-1.981-1.98c-1.093,0-1.979,0.887-1.979,1.98
			c0,1.094,0.886,1.98,1.979,1.98C244.332-57.494,245.217-58.381,245.217-59.475 M241.751-59.43c0,0-0.057-0.562,0.348-0.992
			c0.285,0.286,1.137,0.992,2.622,0.992c0,0.818-0.665,1.483-1.485,1.483C242.417-57.947,241.751-58.612,241.751-59.43"/>
		<path fill="#3F5F67" d="M239.838-55.971v0.875v1.133c0,0.313,0.254,0.567,0.566,0.567h5.666c0.312,0,0.566-0.253,0.566-0.567
			v-1.133v-0.875c0-0.626-0.507-1.132-1.134-1.132h-1.004c-0.072,0-0.16,0.047-0.2,0.106l-0.989,1.399
			c-0.04,0.059-0.103,0.059-0.143,0l-0.99-1.399c-0.04-0.06-0.129-0.107-0.2-0.107h-1.004
			C240.346-57.104,239.838-56.597,239.838-55.971"/>
		<path fill="#3F5F67" d="M54.326,106.338c0-2.121-1.718-3.84-3.841-3.84c-2.121,0-3.84,1.72-3.84,3.84
			c0,2.122,1.719,3.839,3.84,3.839C52.608,110.177,54.326,108.459,54.326,106.338 M47.604,106.421c0,0-0.111-1.089,0.674-1.921
			c0.553,0.553,2.207,1.921,5.088,1.921c0,1.589-1.292,2.88-2.881,2.88S47.604,108.008,47.604,106.421"/>
		<path fill="#3F5F67" d="M43.893,113.133v1.697v2.199c0,0.607,0.493,1.098,1.099,1.098h10.986c0.607,0,1.099-0.491,1.099-1.098
			v-2.199v-1.697c0-1.213-0.983-2.198-2.198-2.198h-1.948c-0.137,0-0.311,0.093-0.388,0.207l-1.919,2.714
			c-0.076,0.115-0.201,0.115-0.277,0l-1.92-2.714c-0.076-0.114-0.251-0.207-0.387-0.207h-1.949
			C44.878,110.935,43.893,111.919,43.893,113.133"/>
		<path fill="#3F5F67" d="M120.467,43.533c0-1.097-0.889-1.986-1.985-1.986c-1.097,0-1.987,0.889-1.987,1.986
			c0,1.096,0.89,1.985,1.987,1.985C119.578,45.519,120.467,44.629,120.467,43.533 M116.992,43.576c0,0-0.058-0.563,0.348-0.993
			c0.285,0.286,1.142,0.993,2.63,0.993c0,0.821-0.668,1.488-1.489,1.488C117.659,45.064,116.992,44.397,116.992,43.576"/>
		<path fill="#3F5F67" d="M115.073,47.046v0.878v1.137c0,0.313,0.254,0.567,0.568,0.567h5.68c0.313,0,0.568-0.253,0.568-0.567
			v-1.137v-0.878c0-0.627-0.509-1.135-1.136-1.135h-1.008c-0.071,0-0.161,0.048-0.2,0.106l-0.993,1.404
			c-0.04,0.059-0.104,0.059-0.144,0l-0.993-1.404c-0.039-0.059-0.129-0.106-0.2-0.106h-1.008
			C115.582,45.911,115.073,46.418,115.073,47.046"/>
		<path fill="#3F5F67" d="M19.578-55.534c0-1.096-0.889-1.985-1.985-1.985c-1.098,0-1.987,0.889-1.987,1.985
			c0,1.097,0.89,1.985,1.987,1.985C18.689-53.549,19.578-54.437,19.578-55.534 M16.103-55.491c0,0-0.058-0.563,0.349-0.993
			c0.285,0.285,1.141,0.993,2.63,0.993c0,0.822-0.668,1.488-1.489,1.488C16.771-54.002,16.103-54.67,16.103-55.491"/>
		<path fill="#3F5F67" d="M14.184-52.021v0.878v1.137c0,0.313,0.254,0.567,0.567,0.567h5.681c0.313,0,0.568-0.254,0.568-0.567
			v-1.137v-0.878c0-0.628-0.509-1.136-1.136-1.136h-1.008c-0.071,0-0.161,0.048-0.2,0.107l-0.993,1.403
			c-0.04,0.059-0.104,0.059-0.143,0l-0.993-1.403c-0.04-0.06-0.129-0.107-0.2-0.107H15.32
			C14.693-53.157,14.184-52.649,14.184-52.021"/>
		<path fill="#3F5F67" d="M82.69,268.993c0-2.121-1.718-3.84-3.84-3.84c-2.122,0-3.84,1.72-3.84,3.84c0,2.122,1.719,3.84,3.84,3.84
			C80.972,272.833,82.69,271.115,82.69,268.993 M75.969,269.076c0,0-0.111-1.089,0.674-1.92c0.552,0.553,2.207,1.92,5.087,1.92
			c0,1.589-1.292,2.881-2.881,2.881C77.261,271.957,75.969,270.664,75.969,269.076"/>
		<path fill="#3F5F67" d="M72.258,275.788v1.698v2.198c0,0.606,0.492,1.099,1.098,1.099h10.986c0.607,0,1.1-0.493,1.1-1.099v-2.198
			v-1.698c0-1.214-0.983-2.196-2.199-2.196h-1.948c-0.137,0-0.311,0.091-0.388,0.207l-1.919,2.714c-0.076,0.114-0.202,0.114-0.277,0
			l-1.919-2.714c-0.077-0.116-0.251-0.207-0.388-0.207h-1.949C73.243,273.592,72.258,274.574,72.258,275.788"/>
		<path fill="#3F5F67" d="M147.456,318.259c-12.315,0-22.333-10.021-22.333-22.335c0-12.313,10.019-22.332,22.333-22.332
			c12.314,0,22.332,10.019,22.332,22.332C169.788,308.238,159.77,318.259,147.456,318.259 M147.456,276.219
			c-10.866,0-19.706,8.84-19.706,19.705c0,10.866,8.84,19.705,19.706,19.705s19.705-8.839,19.705-19.705
			C167.161,285.059,158.321,276.219,147.456,276.219"/>
		<path fill="#3F5F67" d="M153.397,289.775c0-3.281-2.658-5.942-5.941-5.942c-3.281,0-5.942,2.661-5.942,5.942
			s2.662,5.941,5.942,5.941C150.739,295.717,153.397,293.057,153.397,289.775 M142.999,289.902c0,0-0.172-1.684,1.043-2.97
			c0.854,0.855,3.414,2.97,7.87,2.97c0,2.46-1.999,4.457-4.457,4.457S142.999,292.359,142.999,289.902"/>
		<path fill="#3F5F67" d="M137.256,300.287v2.627v3.4c0,0.939,0.763,1.699,1.7,1.699h16.998c0.939,0,1.7-0.759,1.7-1.699v-3.4
			v-2.627c0-1.878-1.521-3.399-3.4-3.399h-3.014c-0.212,0-0.48,0.144-0.6,0.319l-2.97,4.2c-0.119,0.179-0.311,0.179-0.429,0
			l-2.971-4.2c-0.119-0.175-0.387-0.319-0.599-0.319h-3.015C138.781,296.888,137.256,298.409,137.256,300.287"/>
		<path fill="#3F5F67" d="M219.875,11.881c-6.301,0-11.409,5.108-11.409,11.409v3.659c-0.083,1.179-0.475,3.921-2.306,3.732
			c-2.322-0.241,0.618,3.982,5.127,4.015c0.01,0,0.021,0.003,0.031,0.003h17.112c4.539,0,7.512-4.259,5.183-4.018
			c-2.331,0.241-2.331-4.259-2.331-4.259V23.29C231.283,16.989,226.175,11.881,219.875,11.881 M219.875,14.432
			c3.957,0,7.647,2.746,7.647,6.133c0,0.158-0.007,0.314-0.021,0.47c-0.022,0.259-0.114,0.145-0.245-0.233
			c-0.903-2.593-4.086-4.497-7.381-4.497c-3.296,0-6.684,1.905-7.618,4.499c-0.136,0.376-0.227,0.49-0.25,0.231
			c-0.014-0.155-0.021-0.312-0.021-0.47C211.987,17.178,215.917,14.432,219.875,14.432 M219.875,31.845
			c-4.724,0-8.556-3.59-8.556-8.315c0,0,3.808-3.335,8.637-3.335c4.9,0,8.476,3.335,8.476,3.335
			C228.432,28.255,224.599,31.845,219.875,31.845"/>
		<path fill="#3F5F67" d="M202.763,43.253v11.409c0,1.576,1.276,2.852,2.852,2.852h2.852h22.816h2.852
			c1.576,0,2.852-1.276,2.852-2.852V43.253c0-3.149-2.554-5.703-5.704-5.703h-2.608c-0.399,0-0.991,0.181-1.32,0.408l-2.914,1.989
			c-0.331,0.225-0.689,0.717-0.802,1.101l-3.399,11.515c-0.113,0.383-0.302,0.384-0.421,0.003l-3.572-11.319
			c-0.12-0.38-0.486-0.871-0.816-1.093l-3.271-2.199c-0.332-0.224-0.924-0.404-1.324-0.404h-2.369
			C205.317,37.55,202.763,40.104,202.763,43.253 M215.417,48.515c0.665,0,1.205,0.542,1.205,1.207c0,0.664-0.54,1.204-1.205,1.204
			s-1.206-0.54-1.206-1.204C214.211,49.057,214.752,48.515,215.417,48.515 M215.417,52.854c0.665,0,1.205,0.54,1.205,1.206
			c0,0.665-0.54,1.205-1.205,1.205s-1.206-0.54-1.206-1.205C214.211,53.393,214.752,52.854,215.417,52.854"/>
		<path fill="#3F5F67" d="M40.496-20.341c-2.207,0-3.996,1.789-3.996,3.996v1.282c-0.029,0.412-0.167,1.373-0.808,1.307
			c-0.813-0.084,0.217,1.395,1.797,1.406c0.003,0,0.006,0.001,0.01,0.001h5.993c1.589,0,2.63-1.492,1.815-1.408
			c-0.817,0.084-0.817-1.491-0.817-1.491v-1.097C44.49-18.552,42.702-20.341,40.496-20.341 M40.496-19.448
			c1.386,0,2.678,0.962,2.678,2.148c0,0.056-0.003,0.11-0.008,0.165c-0.008,0.091-0.04,0.051-0.086-0.082
			c-0.315-0.908-1.431-1.575-2.584-1.575c-1.155,0-2.341,0.668-2.668,1.576c-0.047,0.132-0.079,0.172-0.087,0.081
			c-0.005-0.055-0.008-0.109-0.008-0.165C37.732-18.486,39.109-19.448,40.496-19.448 M40.496-13.349
			c-1.655,0-2.997-1.257-2.997-2.911c0,0,1.333-1.169,3.024-1.169c1.717,0,2.969,1.169,2.969,1.169
			C43.492-14.606,42.149-13.349,40.496-13.349"/>
		<path fill="#3F5F67" d="M34.502-9.353v3.996c0,0.55,0.446,0.998,0.999,0.998H36.5h7.992h0.998c0.553,0,1-0.448,1-0.998v-3.996
			c0-1.104-0.896-1.998-1.998-1.998h-0.915c-0.14,0-0.346,0.064-0.462,0.142l-1.021,0.698c-0.116,0.078-0.241,0.251-0.281,0.385
			l-1.19,4.033c-0.041,0.134-0.106,0.135-0.148,0.002l-1.251-3.965c-0.042-0.133-0.169-0.305-0.286-0.382l-1.146-0.771
			c-0.116-0.079-0.323-0.142-0.463-0.142H36.5C35.396-11.351,34.502-10.457,34.502-9.353 M38.934-7.51
			c0.233,0,0.422,0.189,0.422,0.422c0,0.233-0.188,0.422-0.422,0.422c-0.233,0-0.422-0.188-0.422-0.422
			C38.512-7.321,38.701-7.51,38.934-7.51 M38.934-5.991c0.233,0,0.422,0.189,0.422,0.422c0,0.233-0.188,0.422-0.422,0.422
			c-0.233,0-0.422-0.188-0.422-0.422C38.512-5.802,38.701-5.991,38.934-5.991"/>
		<path fill="#3F5F67" d="M443.681-46.769c-4.785,0-8.664,3.879-8.664,8.664v2.779c-0.062,0.896-0.36,2.978-1.751,2.833
			c-1.763-0.182,0.47,3.024,3.895,3.05c0.008,0,0.016,0.001,0.023,0.001h12.995c3.446,0,5.704-3.234,3.936-3.052
			c-1.771,0.185-1.771-3.233-1.771-3.233v-2.379C452.344-42.89,448.465-46.769,443.681-46.769 M443.681-44.832
			c3.006,0,5.808,2.085,5.808,4.658c0,0.119-0.006,0.24-0.016,0.356c-0.018,0.197-0.087,0.11-0.188-0.177
			c-0.685-1.968-3.102-3.415-5.604-3.415c-2.504,0-5.075,1.447-5.785,3.417c-0.103,0.286-0.173,0.373-0.189,0.175
			c-0.01-0.117-0.016-0.238-0.016-0.356C437.69-42.746,440.676-44.832,443.681-44.832 M443.681-31.607
			c-3.586,0-6.497-2.727-6.497-6.315c0,0,2.891-2.533,6.557-2.533c3.723,0,6.438,2.533,6.438,2.533
			C450.179-34.334,447.268-31.607,443.681-31.607"/>
		<path fill="#3F5F67" d="M430.685-22.943v8.664c0,1.196,0.971,2.165,2.167,2.165h2.165h17.327h2.165
			c1.196,0,2.167-0.969,2.167-2.165v-8.664c0-2.392-1.94-4.332-4.332-4.332h-1.982c-0.302,0-0.751,0.138-1.001,0.31l-2.213,1.51
			c-0.25,0.17-0.522,0.545-0.609,0.836l-2.581,8.744c-0.085,0.292-0.229,0.292-0.319,0.003l-2.713-8.596
			c-0.091-0.288-0.369-0.661-0.621-0.83l-2.483-1.671c-0.252-0.17-0.701-0.307-1.005-0.307h-1.799
			C432.625-27.275,430.685-25.335,430.685-22.943 M440.294-18.948c0.506,0,0.916,0.41,0.916,0.916c0,0.505-0.41,0.914-0.916,0.914
			c-0.505,0-0.915-0.409-0.915-0.914C439.379-18.538,439.789-18.948,440.294-18.948 M440.294-15.653
			c0.506,0,0.916,0.409,0.916,0.915c0,0.505-0.41,0.915-0.916,0.915c-0.505,0-0.915-0.409-0.915-0.915
			C439.379-15.244,439.789-15.653,440.294-15.653"/>
		<path fill="#3F5F67" d="M496.797-188.701c-3.725,0-6.742,3.019-6.742,6.741v2.163c-0.049,0.697-0.282,2.317-1.362,2.205
			c-1.372-0.141,0.364,2.354,3.028,2.373c0.008,0,0.013,0.002,0.019,0.002h10.111c2.682,0,4.44-2.516,3.062-2.375
			c-1.377,0.142-1.377-2.515-1.377-2.515v-1.853C503.536-185.682,500.518-188.701,496.797-188.701 M496.797-187.194
			c2.336,0,4.518,1.623,4.518,3.623c0,0.093-0.004,0.188-0.012,0.278c-0.015,0.153-0.067,0.085-0.146-0.138
			c-0.532-1.532-2.413-2.657-4.359-2.657c-1.948,0-3.952,1.126-4.504,2.658c-0.079,0.222-0.132,0.29-0.146,0.137
			c-0.011-0.09-0.015-0.185-0.015-0.278C492.133-185.571,494.458-187.194,496.797-187.194 M496.797-176.904
			c-2.792,0-5.058-2.121-5.058-4.913c0,0,2.251-1.971,5.103-1.971c2.896,0,5.009,1.971,5.009,1.971
			C501.851-179.025,499.587-176.904,496.797-176.904"/>
		<path fill="#3F5F67" d="M486.683-170.163v6.741c0,0.932,0.756,1.686,1.687,1.686h1.686h13.481h1.687
			c0.931,0,1.686-0.754,1.686-1.686v-6.741c0-1.861-1.509-3.371-3.372-3.371h-1.542c-0.234,0-0.583,0.107-0.778,0.241l-1.724,1.176
			c-0.193,0.131-0.404,0.423-0.474,0.649l-2.007,6.804c-0.067,0.227-0.18,0.227-0.251,0.002l-2.109-6.689
			c-0.071-0.224-0.288-0.514-0.483-0.646l-1.933-1.3c-0.196-0.133-0.546-0.239-0.782-0.239h-1.398
			C488.193-173.533,486.683-172.024,486.683-170.163 M494.16-167.053c0.395,0,0.712,0.319,0.712,0.711
			c0,0.394-0.317,0.712-0.712,0.712c-0.393,0-0.712-0.318-0.712-0.712C493.448-166.734,493.768-167.053,494.16-167.053
			 M494.16-164.49c0.395,0,0.712,0.319,0.712,0.712c0,0.394-0.317,0.712-0.712,0.712c-0.393,0-0.712-0.318-0.712-0.712
			C493.448-164.171,493.768-164.49,494.16-164.49"/>
		<path fill="#3F5F67" d="M432.229-221.657c-2.194,0-3.973,1.78-3.973,3.975v1.275c-0.03,0.411-0.168,1.366-0.803,1.3
			c-0.811-0.083,0.215,1.388,1.784,1.399c0.004,0,0.008,0.001,0.012,0.001h5.961c1.581,0,2.617-1.483,1.807-1.4
			c-0.812,0.084-0.812-1.483-0.812-1.483v-1.091C436.204-219.877,434.423-221.657,432.229-221.657 M432.229-220.768
			c1.379,0,2.664,0.957,2.664,2.137c0,0.054-0.002,0.109-0.006,0.163c-0.01,0.09-0.041,0.051-0.087-0.081
			c-0.313-0.903-1.424-1.567-2.571-1.567s-2.328,0.664-2.654,1.567c-0.047,0.131-0.078,0.171-0.084,0.081
			c-0.007-0.054-0.009-0.109-0.009-0.163C429.481-219.811,430.851-220.768,432.229-220.768 M432.229-214.702
			c-1.645,0-2.979-1.25-2.979-2.896c0,0,1.327-1.162,3.007-1.162c1.708,0,2.954,1.162,2.954,1.162
			C435.21-215.952,433.875-214.702,432.229-214.702"/>
		<path fill="#3F5F67" d="M426.266-210.727v3.975c0,0.549,0.445,0.994,0.996,0.994h0.994h7.948h0.991
			c0.551,0,0.996-0.444,0.996-0.994v-3.975c0-1.098-0.892-1.987-1.987-1.987h-0.909c-0.14,0-0.345,0.063-0.46,0.142l-1.015,0.693
			c-0.115,0.077-0.241,0.25-0.28,0.382l-1.186,4.012c-0.037,0.134-0.104,0.134-0.146,0.001l-1.244-3.943
			c-0.042-0.133-0.17-0.303-0.284-0.382l-1.14-0.766c-0.116-0.077-0.321-0.14-0.461-0.14h-0.826
			C427.157-212.713,426.266-211.825,426.266-210.727 M430.675-208.894c0.232,0,0.42,0.188,0.42,0.419
			c0,0.232-0.188,0.419-0.42,0.419c-0.23,0-0.418-0.187-0.418-0.419C430.257-208.706,430.444-208.894,430.675-208.894
			 M430.675-207.382c0.232,0,0.42,0.188,0.42,0.419c0,0.232-0.188,0.42-0.42,0.42c-0.23,0-0.418-0.188-0.418-0.42
			C430.257-207.194,430.444-207.382,430.675-207.382"/>
		<path fill="#3F5F67" d="M168.797-181.193c-3.362,0-6.088,2.727-6.088,6.089v1.954c-0.044,0.629-0.254,2.093-1.23,1.993
			c-1.239-0.128,0.329,2.124,2.736,2.142c0.006,0,0.011,0.001,0.016,0.001h9.133c2.423,0,4.009-2.273,2.767-2.143
			c-1.245,0.128-1.245-2.274-1.245-2.274v-1.672C174.886-178.467,172.16-181.193,168.797-181.193 M168.797-179.831
			c2.112,0,4.082,1.465,4.082,3.272c0,0.084-0.004,0.17-0.012,0.251c-0.012,0.139-0.061,0.077-0.13-0.125
			c-0.483-1.383-2.181-2.399-3.94-2.399s-3.567,1.016-4.065,2.399c-0.073,0.201-0.121,0.263-0.133,0.125
			c-0.008-0.082-0.012-0.167-0.012-0.251C164.587-178.366,166.685-179.831,168.797-179.831 M168.797-170.537
			c-2.521,0-4.566-1.916-4.566-4.438c0,0,2.033-1.78,4.61-1.78c2.616,0,4.523,1.78,4.523,1.78
			C173.364-172.453,171.318-170.537,168.797-170.537"/>
		<path fill="#3F5F67" d="M159.664-164.449v6.089c0,0.841,0.682,1.522,1.523,1.522h1.522h12.176h1.522
			c0.843,0,1.523-0.681,1.523-1.522v-6.089c0-1.681-1.364-3.044-3.045-3.044h-1.392c-0.212,0-0.528,0.097-0.704,0.218l-1.556,1.062
			c-0.177,0.12-0.369,0.383-0.428,0.588l-1.815,6.145c-0.06,0.205-0.161,0.206-0.224,0.001l-1.906-6.041
			c-0.065-0.204-0.26-0.464-0.436-0.584l-1.747-1.173c-0.177-0.12-0.492-0.216-0.706-0.216h-1.264
			C161.028-167.493,159.664-166.13,159.664-164.449 M166.417-161.64c0.356,0,0.644,0.288,0.644,0.644
			c0,0.354-0.288,0.643-0.644,0.643c-0.354,0-0.642-0.289-0.642-0.643C165.775-161.352,166.062-161.64,166.417-161.64
			 M166.417-159.325c0.356,0,0.644,0.288,0.644,0.643c0,0.356-0.288,0.644-0.644,0.644c-0.354,0-0.642-0.288-0.642-0.644
			C165.775-159.037,166.062-159.325,166.417-159.325"/>
		<path fill="#3F5F67" d="M64.117-196.01c-2.28,0-4.127,1.848-4.127,4.127v1.324c-0.03,0.428-0.172,1.42-0.834,1.352
			c-0.84-0.087,0.224,1.439,1.856,1.452c0.003,0,0.007,0.002,0.01,0.002h6.192c1.642,0,2.718-1.541,1.876-1.454
			c-0.844,0.086-0.844-1.542-0.844-1.542v-1.134C68.245-194.162,66.396-196.01,64.117-196.01 M64.117-195.086
			c1.432,0,2.767,0.994,2.767,2.219c0,0.057-0.002,0.114-0.007,0.17c-0.009,0.093-0.042,0.052-0.089-0.085
			c-0.327-0.938-1.478-1.626-2.671-1.626c-1.193,0-2.418,0.688-2.756,1.627c-0.049,0.136-0.083,0.177-0.09,0.084
			c-0.005-0.056-0.007-0.113-0.007-0.17C61.263-194.093,62.685-195.086,64.117-195.086 M64.117-188.786
			c-1.709,0-3.096-1.298-3.096-3.008c0,0,1.378-1.207,3.125-1.207c1.773,0,3.066,1.207,3.066,1.207
			C67.213-190.084,65.826-188.786,64.117-188.786"/>
		<path fill="#3F5F67" d="M57.925-184.658v4.126c0,0.571,0.461,1.032,1.032,1.032h1.032h8.253h1.033
			c0.572,0,1.033-0.461,1.033-1.032v-4.126c0-1.14-0.924-2.064-2.065-2.064h-0.942c-0.145,0-0.357,0.065-0.478,0.147l-1.055,0.72
			c-0.119,0.082-0.249,0.26-0.29,0.399l-1.229,4.166c-0.042,0.139-0.109,0.139-0.152,0.001l-1.293-4.095
			c-0.043-0.139-0.176-0.316-0.295-0.396l-1.184-0.796c-0.12-0.081-0.334-0.146-0.479-0.146h-0.856
			C58.85-186.722,57.925-185.798,57.925-184.658 M62.503-182.754c0.242,0,0.436,0.195,0.436,0.437c0,0.24-0.193,0.436-0.436,0.436
			c-0.24,0-0.436-0.195-0.436-0.436C62.067-182.559,62.263-182.754,62.503-182.754 M62.503-181.184c0.242,0,0.436,0.194,0.436,0.436
			s-0.193,0.437-0.436,0.437c-0.24,0-0.436-0.196-0.436-0.437S62.263-181.184,62.503-181.184"/>
		<path fill="#3F5F67" d="M324.868,205.32c-2.347,0-4.25,1.904-4.25,4.252v1.363c-0.031,0.44-0.179,1.461-0.861,1.391
			c-0.863-0.089,0.232,1.484,1.913,1.497c0.004,0,0.008,0,0.012,0h6.375c1.691,0,2.8-1.587,1.932-1.497
			c-0.869,0.089-0.869-1.588-0.869-1.588v-1.167C329.119,207.224,327.216,205.32,324.868,205.32 M324.868,206.272
			c1.475,0,2.851,1.023,2.851,2.284c0,0.059-0.004,0.118-0.008,0.177c-0.01,0.095-0.043,0.053-0.093-0.088
			c-0.335-0.966-1.521-1.675-2.75-1.675s-2.489,0.709-2.838,1.675c-0.051,0.141-0.085,0.183-0.093,0.088
			c-0.006-0.059-0.008-0.118-0.008-0.177C321.93,207.295,323.395,206.272,324.868,206.272 M324.868,212.761
			c-1.759,0-3.187-1.338-3.187-3.1c0,0,1.417-1.243,3.218-1.243c1.826,0,3.157,1.243,3.157,1.243
			C328.057,211.423,326.629,212.761,324.868,212.761"/>
		<path fill="#3F5F67" d="M318.491,217.013v4.251c0,0.588,0.475,1.063,1.064,1.063h1.062h8.501h1.062
			c0.588,0,1.063-0.475,1.063-1.063v-4.251c0-1.175-0.951-2.125-2.126-2.125h-0.973c-0.147,0-0.368,0.067-0.49,0.151l-1.087,0.742
			c-0.122,0.084-0.256,0.268-0.298,0.41l-1.268,4.291c-0.041,0.143-0.112,0.143-0.156,0.002l-1.331-4.218
			c-0.045-0.142-0.181-0.324-0.306-0.408l-1.218-0.82c-0.125-0.083-0.346-0.149-0.493-0.149h-0.884
			C319.443,214.888,318.491,215.837,318.491,217.013 M323.207,218.973c0.249,0,0.448,0.202,0.448,0.449
			c0,0.249-0.199,0.45-0.448,0.45c-0.248,0-0.449-0.201-0.449-0.45C322.758,219.175,322.959,218.973,323.207,218.973
			 M323.207,220.59c0.249,0,0.448,0.2,0.448,0.449c0,0.248-0.199,0.45-0.448,0.45c-0.248,0-0.449-0.202-0.449-0.45
			C322.758,220.791,322.959,220.59,323.207,220.59"/>
		<path fill="#3F5F67" d="M273.478,123.585c-1.12,0-2.028,0.908-2.028,2.027v0.65c-0.015,0.209-0.085,0.697-0.41,0.664
			c-0.413-0.041,0.11,0.709,0.913,0.713h0.005h3.041c0.806,0,1.335-0.755,0.921-0.713c-0.415,0.042-0.415-0.757-0.415-0.757v-0.557
			C275.504,124.494,274.597,123.585,273.478,123.585 M273.478,124.038c0.704,0,1.358,0.489,1.358,1.091c0,0.027,0,0.056-0.003,0.083
			c-0.005,0.046-0.021,0.025-0.043-0.041c-0.16-0.462-0.727-0.799-1.312-0.799c-0.586,0-1.188,0.337-1.355,0.799
			c-0.023,0.066-0.039,0.087-0.043,0.041c-0.003-0.027-0.004-0.056-0.004-0.083C272.075,124.527,272.773,124.038,273.478,124.038
			 M273.478,127.135c-0.84,0-1.521-0.639-1.521-1.479c0,0,0.677-0.593,1.534-0.593c0.872,0,1.507,0.593,1.507,0.593
			C274.998,126.496,274.317,127.135,273.478,127.135"/>
		<path fill="#3F5F67" d="M270.436,129.162v2.028c0,0.28,0.226,0.507,0.506,0.507h0.508h4.054h0.507c0.28,0,0.507-0.227,0.507-0.507
			v-2.028c0-0.561-0.454-1.014-1.014-1.014h-0.463c-0.072,0-0.176,0.032-0.235,0.072l-0.519,0.354
			c-0.058,0.04-0.121,0.128-0.142,0.195l-0.604,2.047c-0.02,0.068-0.053,0.068-0.075,0.001l-0.635-2.012
			c-0.021-0.067-0.086-0.155-0.145-0.194l-0.582-0.392c-0.06-0.039-0.164-0.071-0.234-0.071h-0.422
			C270.891,128.148,270.436,128.601,270.436,129.162 M272.685,130.097c0.118,0,0.214,0.097,0.214,0.215
			c0,0.117-0.096,0.214-0.214,0.214c-0.117,0-0.213-0.097-0.213-0.214C272.471,130.193,272.567,130.097,272.685,130.097
			 M272.685,130.868c0.118,0,0.214,0.096,0.214,0.215c0,0.118-0.096,0.215-0.214,0.215c-0.117,0-0.213-0.097-0.213-0.215
			C272.471,130.963,272.567,130.868,272.685,130.868"/>
		<path fill="#3F5F67" d="M575.887-60.637c-1.119,0-2.026,0.909-2.026,2.027v0.651c-0.016,0.208-0.085,0.696-0.41,0.663
			c-0.414-0.042,0.11,0.709,0.911,0.713h0.006h3.04c0.809,0,1.335-0.756,0.921-0.713c-0.414,0.042-0.414-0.757-0.414-0.757v-0.557
			C577.914-59.728,577.007-60.637,575.887-60.637 M575.887-60.184c0.702,0,1.359,0.488,1.359,1.09c0,0.029,0,0.057-0.004,0.084
			c-0.004,0.046-0.02,0.025-0.044-0.042c-0.159-0.461-0.726-0.799-1.312-0.799c-0.585,0-1.187,0.338-1.354,0.799
			c-0.023,0.067-0.039,0.088-0.043,0.042c-0.004-0.028-0.004-0.056-0.004-0.084C574.485-59.695,575.184-60.184,575.887-60.184
			 M575.887-57.088c-0.84,0-1.52-0.638-1.52-1.477c0,0,0.676-0.594,1.534-0.594c0.871,0,1.506,0.594,1.506,0.594
			C577.407-57.726,576.728-57.088,575.887-57.088"/>
		<path fill="#3F5F67" d="M572.845-55.061v2.028c0,0.28,0.227,0.507,0.507,0.507h0.509h4.054h0.507c0.28,0,0.509-0.228,0.509-0.507
			v-2.028c0-0.56-0.455-1.013-1.016-1.013h-0.463c-0.069,0-0.176,0.032-0.235,0.071l-0.519,0.354
			c-0.057,0.04-0.122,0.128-0.142,0.196l-0.604,2.047c-0.021,0.067-0.053,0.067-0.075,0l-0.637-2.012
			c-0.02-0.068-0.085-0.154-0.144-0.194l-0.582-0.392c-0.059-0.039-0.163-0.071-0.234-0.071h-0.42
			C573.3-56.073,572.845-55.62,572.845-55.061 M575.095-54.125c0.118,0,0.215,0.096,0.215,0.214s-0.097,0.214-0.215,0.214
			s-0.215-0.096-0.215-0.214S574.977-54.125,575.095-54.125 M575.095-53.354c0.118,0,0.215,0.095,0.215,0.215
			c0,0.119-0.097,0.214-0.215,0.214s-0.215-0.096-0.215-0.214C574.88-53.259,574.977-53.354,575.095-53.354"/>
		<path fill="#3F5F67" d="M301.393-51.242c-1.12,0-2.028,0.908-2.028,2.027v0.651c-0.015,0.208-0.085,0.696-0.41,0.663
			c-0.412-0.042,0.11,0.708,0.912,0.713h0.006h3.041c0.807,0,1.335-0.756,0.921-0.713c-0.414,0.043-0.414-0.757-0.414-0.757v-0.557
			C303.42-50.334,302.511-51.242,301.393-51.242 M301.393-50.789c0.702,0,1.359,0.489,1.359,1.091c0,0.027-0.002,0.056-0.004,0.083
			c-0.004,0.046-0.021,0.026-0.044-0.041c-0.161-0.461-0.728-0.799-1.312-0.799c-0.587,0-1.188,0.338-1.354,0.799
			c-0.023,0.067-0.041,0.087-0.044,0.041c-0.003-0.027-0.005-0.056-0.005-0.083C299.989-50.3,300.688-50.789,301.393-50.789
			 M301.393-47.692c-0.84,0-1.521-0.639-1.521-1.479c0,0,0.677-0.594,1.534-0.594c0.87,0,1.507,0.594,1.507,0.594
			C302.913-48.332,302.231-47.692,301.393-47.692"/>
		<path fill="#3F5F67" d="M298.351-45.666v2.028c0,0.279,0.226,0.507,0.506,0.507h0.507h4.056h0.507c0.28,0,0.507-0.228,0.507-0.507
			v-2.028c0-0.561-0.453-1.014-1.014-1.014h-0.463c-0.071,0-0.176,0.032-0.235,0.072l-0.519,0.354
			c-0.059,0.04-0.122,0.128-0.142,0.195l-0.604,2.047c-0.021,0.068-0.054,0.068-0.075,0.001l-0.634-2.012
			c-0.022-0.067-0.087-0.154-0.146-0.194l-0.581-0.391c-0.06-0.04-0.164-0.071-0.235-0.071h-0.421
			C298.805-46.679,298.351-46.227,298.351-45.666 M300.599-44.731c0.119,0,0.215,0.096,0.215,0.214c0,0.119-0.096,0.215-0.215,0.215
			c-0.117,0-0.214-0.096-0.214-0.215C300.385-44.635,300.481-44.731,300.599-44.731 M300.599-43.96c0.119,0,0.215,0.096,0.215,0.215
			c0,0.119-0.096,0.215-0.215,0.215c-0.117,0-0.214-0.096-0.214-0.215C300.385-43.865,300.481-43.96,300.599-43.96"/>
		<path fill="#3F5F67" d="M357.997-224.249c-1.118,0-2.027,0.909-2.027,2.028v0.651c-0.014,0.208-0.085,0.696-0.41,0.663
			c-0.412-0.042,0.11,0.708,0.911,0.713h0.008h3.04c0.807,0,1.335-0.756,0.921-0.713s-0.414-0.757-0.414-0.757v-0.557
			C360.025-223.34,359.117-224.249,357.997-224.249 M357.997-223.795c0.703,0,1.36,0.489,1.36,1.09c0,0.028-0.002,0.057-0.004,0.084
			c-0.004,0.046-0.02,0.026-0.044-0.042c-0.161-0.461-0.728-0.799-1.312-0.799c-0.586,0-1.188,0.337-1.354,0.799
			c-0.023,0.067-0.041,0.088-0.043,0.042c-0.004-0.027-0.006-0.056-0.006-0.084C356.595-223.307,357.295-223.795,357.997-223.795
			 M357.997-220.699c-0.839,0-1.519-0.638-1.519-1.477c0,0,0.676-0.594,1.534-0.594c0.871,0,1.506,0.594,1.506,0.594
			C359.519-221.337,358.837-220.699,357.997-220.699"/>
		<path fill="#3F5F67" d="M354.956-218.672v2.028c0,0.28,0.227,0.507,0.507,0.507h0.507h4.056h0.507c0.28,0,0.507-0.227,0.507-0.507
			v-2.028c0-0.56-0.453-1.013-1.014-1.013h-0.463c-0.071,0-0.176,0.032-0.234,0.072l-0.52,0.353
			c-0.059,0.041-0.122,0.128-0.142,0.196l-0.605,2.047c-0.02,0.067-0.053,0.067-0.075,0l-0.635-2.013
			c-0.02-0.067-0.084-0.154-0.144-0.194l-0.582-0.391c-0.059-0.04-0.163-0.071-0.234-0.071h-0.422
			C355.409-219.685,354.956-219.232,354.956-218.672 M357.204-217.736c0.12,0,0.215,0.096,0.215,0.214
			c0,0.119-0.095,0.215-0.215,0.215c-0.116,0-0.213-0.096-0.213-0.215C356.991-217.641,357.088-217.736,357.204-217.736
			 M357.204-216.966c0.12,0,0.215,0.096,0.215,0.215s-0.095,0.214-0.215,0.214c-0.116,0-0.213-0.095-0.213-0.214
			S357.088-216.966,357.204-216.966"/>
		<path fill="#3F5F67" d="M41.63,225.49c-1.12,0-2.027,0.907-2.027,2.027v0.65c-0.015,0.209-0.086,0.697-0.411,0.664
			c-0.412-0.042,0.11,0.709,0.912,0.714h0.006h3.041c0.806,0,1.335-0.757,0.921-0.714c-0.415,0.042-0.415-0.757-0.415-0.757v-0.557
			C43.657,226.397,42.75,225.49,41.63,225.49 M41.63,225.942c0.704,0,1.358,0.489,1.358,1.091c0,0.028,0,0.056-0.003,0.084
			c-0.004,0.046-0.02,0.025-0.043-0.042c-0.161-0.46-0.727-0.798-1.312-0.798c-0.586,0-1.188,0.338-1.354,0.798
			c-0.023,0.067-0.04,0.088-0.044,0.042c-0.003-0.028-0.004-0.056-0.004-0.084C40.228,226.431,40.926,225.942,41.63,225.942
			 M41.63,229.039c-0.84,0-1.521-0.638-1.521-1.478c0,0,0.677-0.594,1.534-0.594c0.872,0,1.507,0.594,1.507,0.594
			C43.151,228.401,42.47,229.039,41.63,229.039"/>
		<path fill="#3F5F67" d="M38.589,231.066v2.028c0,0.28,0.226,0.508,0.506,0.508h0.508h4.055h0.507c0.28,0,0.507-0.228,0.507-0.508
			v-2.028c0-0.56-0.454-1.013-1.014-1.013h-0.463c-0.072,0-0.176,0.032-0.235,0.071l-0.519,0.354
			c-0.058,0.041-0.121,0.128-0.142,0.196l-0.604,2.047c-0.02,0.067-0.053,0.067-0.075,0l-0.635-2.011
			c-0.021-0.068-0.086-0.155-0.145-0.194l-0.582-0.392c-0.059-0.039-0.164-0.071-0.234-0.071h-0.421
			C39.043,230.053,38.589,230.506,38.589,231.066 M40.837,232.001c0.119,0,0.214,0.097,0.214,0.214c0,0.118-0.095,0.215-0.214,0.215
			c-0.118,0-0.214-0.097-0.214-0.215C40.624,232.098,40.719,232.001,40.837,232.001 M40.837,232.772
			c0.119,0,0.214,0.096,0.214,0.215c0,0.117-0.095,0.214-0.214,0.214c-0.118,0-0.214-0.097-0.214-0.214
			C40.624,232.868,40.719,232.772,40.837,232.772"/>
		<path fill="#3F5F67" d="M237.809,277.972c-1.12,0-2.028,0.908-2.028,2.027v0.652c-0.014,0.209-0.084,0.696-0.41,0.664
			c-0.413-0.042,0.111,0.708,0.912,0.712h0.005h3.041c0.807,0,1.335-0.756,0.921-0.712c-0.415,0.042-0.415-0.758-0.415-0.758v-0.557
			C239.835,278.88,238.929,277.972,237.809,277.972 M237.809,278.425c0.703,0,1.358,0.488,1.358,1.091
			c0,0.027-0.001,0.056-0.003,0.083c-0.005,0.046-0.02,0.025-0.044-0.041c-0.16-0.462-0.727-0.8-1.312-0.8
			c-0.586,0-1.188,0.338-1.355,0.8c-0.023,0.066-0.039,0.087-0.043,0.041c-0.003-0.027-0.005-0.056-0.005-0.083
			C236.406,278.914,237.105,278.425,237.809,278.425 M237.809,281.521c-0.84,0-1.521-0.638-1.521-1.478c0,0,0.677-0.593,1.535-0.593
			c0.872,0,1.506,0.593,1.506,0.593C239.329,280.883,238.648,281.521,237.809,281.521"/>
		<path fill="#3F5F67" d="M234.768,283.549v2.027c0,0.28,0.227,0.507,0.506,0.507h0.507h4.055h0.507c0.28,0,0.507-0.227,0.507-0.507
			v-2.027c0-0.561-0.454-1.014-1.014-1.014h-0.463c-0.072,0-0.176,0.032-0.235,0.071l-0.519,0.354
			c-0.059,0.04-0.122,0.128-0.143,0.195l-0.604,2.047c-0.02,0.067-0.053,0.067-0.075,0.002l-0.636-2.013
			c-0.021-0.067-0.085-0.155-0.145-0.193l-0.581-0.392c-0.06-0.039-0.164-0.07-0.235-0.07h-0.421
			C235.222,282.536,234.768,282.988,234.768,283.549 M237.016,284.484c0.119,0,0.214,0.096,0.214,0.214
			c0,0.119-0.096,0.214-0.214,0.214c-0.118,0-0.214-0.096-0.214-0.214C236.802,284.58,236.898,284.484,237.016,284.484
			 M237.016,285.255c0.119,0,0.214,0.095,0.214,0.215c0,0.119-0.096,0.214-0.214,0.214c-0.118,0-0.214-0.095-0.214-0.214
			C236.802,285.35,236.898,285.255,237.016,285.255"/>
		<path fill="#3F5F67" d="M25.347,150.275c-1.12,0-2.028,0.908-2.028,2.027v0.65c-0.014,0.209-0.085,0.697-0.41,0.664
			c-0.413-0.042,0.11,0.709,0.912,0.713h0.005h3.041c0.807,0,1.335-0.756,0.921-0.713c-0.415,0.042-0.415-0.757-0.415-0.757v-0.557
			C27.373,151.184,26.466,150.275,25.347,150.275 M25.347,150.728c0.703,0,1.358,0.488,1.358,1.09c0,0.028-0.001,0.057-0.003,0.084
			c-0.004,0.046-0.02,0.024-0.043-0.042c-0.161-0.461-0.727-0.8-1.312-0.8c-0.587,0-1.189,0.338-1.355,0.8
			c-0.023,0.066-0.039,0.088-0.043,0.042c-0.003-0.027-0.004-0.056-0.004-0.084C23.943,151.216,24.643,150.728,25.347,150.728
			 M25.347,153.825c-0.84,0-1.521-0.639-1.521-1.479c0,0,0.677-0.592,1.535-0.592c0.872,0,1.506,0.592,1.506,0.592
			C26.867,153.186,26.186,153.825,25.347,153.825"/>
		<path fill="#3F5F67" d="M22.305,155.851v2.029c0,0.28,0.227,0.507,0.506,0.507h0.508h4.055h0.507c0.279,0,0.507-0.227,0.507-0.507
			v-2.029c0-0.56-0.455-1.013-1.014-1.013h-0.462c-0.072,0-0.176,0.032-0.236,0.072l-0.519,0.354
			c-0.058,0.04-0.122,0.128-0.142,0.194l-0.604,2.048c-0.021,0.067-0.053,0.067-0.076,0.001l-0.635-2.012
			c-0.021-0.068-0.086-0.155-0.145-0.194l-0.582-0.392c-0.059-0.039-0.164-0.071-0.235-0.071h-0.421
			C22.759,154.838,22.305,155.291,22.305,155.851 M24.553,156.787c0.119,0,0.214,0.097,0.214,0.215c0,0.117-0.095,0.214-0.214,0.214
			c-0.118,0-0.214-0.097-0.214-0.214C24.339,156.883,24.436,156.787,24.553,156.787 M24.553,157.558
			c0.119,0,0.214,0.095,0.214,0.215c0,0.118-0.095,0.215-0.214,0.215c-0.118,0-0.214-0.097-0.214-0.215
			C24.339,157.652,24.436,157.558,24.553,157.558"/>
		<path fill="#3F5F67" d="M31.549-128.097c-1.12,0-2.028,0.908-2.028,2.026v0.651c-0.015,0.209-0.085,0.696-0.41,0.664
			c-0.412-0.042,0.11,0.708,0.912,0.712h0.005h3.042c0.806,0,1.335-0.756,0.921-0.712c-0.415,0.042-0.415-0.757-0.415-0.757v-0.558
			C33.577-127.189,32.669-128.097,31.549-128.097 M31.549-127.645c0.704,0,1.359,0.49,1.359,1.091c0,0.028-0.001,0.056-0.003,0.083
			c-0.004,0.046-0.02,0.025-0.043-0.042c-0.16-0.46-0.726-0.799-1.312-0.799s-1.188,0.339-1.354,0.799
			c-0.023,0.067-0.04,0.088-0.043,0.042c-0.003-0.027-0.004-0.056-0.004-0.083C30.147-127.155,30.846-127.645,31.549-127.645
			 M31.549-124.548c-0.839,0-1.521-0.639-1.521-1.478c0,0,0.677-0.593,1.535-0.593c0.872,0,1.507,0.593,1.507,0.593
			C33.07-125.187,32.389-124.548,31.549-124.548"/>
		<path fill="#3F5F67" d="M28.508-122.521v2.027c0,0.28,0.227,0.507,0.506,0.507h0.508h4.054h0.507c0.28,0,0.507-0.227,0.507-0.507
			v-2.027c0-0.561-0.454-1.013-1.014-1.013h-0.462c-0.072,0-0.176,0.032-0.235,0.072l-0.519,0.354
			c-0.058,0.04-0.122,0.127-0.143,0.195l-0.604,2.047c-0.02,0.068-0.054,0.068-0.075,0l-0.635-2.012
			c-0.021-0.067-0.085-0.154-0.145-0.194l-0.582-0.391c-0.059-0.04-0.164-0.072-0.234-0.072h-0.421
			C28.962-123.534,28.508-123.082,28.508-122.521 M30.757-121.586c0.118,0,0.214,0.096,0.214,0.214c0,0.12-0.096,0.215-0.214,0.215
			s-0.214-0.096-0.214-0.215C30.543-121.49,30.639-121.586,30.757-121.586 M30.757-120.815c0.118,0,0.214,0.095,0.214,0.215
			c0,0.119-0.096,0.214-0.214,0.214s-0.214-0.095-0.214-0.214C30.543-120.72,30.639-120.815,30.757-120.815"/>
		<path fill="#3F5F67" d="M128.53,148.247c-3.566,0-6.457,2.892-6.457,6.456v2.074c-0.048,0.666-0.271,2.219-1.308,2.113
			c-1.314-0.135,0.352,2.254,2.904,2.271h0.017h9.686c2.57,0,4.251-2.41,2.933-2.271c-1.32,0.135-1.32-2.412-1.32-2.412v-1.775
			C134.986,151.138,132.096,148.247,128.53,148.247 M128.53,149.689c2.24,0,4.328,1.555,4.328,3.472c0,0.09-0.003,0.181-0.011,0.265
			c-0.015,0.149-0.064,0.083-0.138-0.13c-0.511-1.469-2.314-2.545-4.179-2.545c-1.866,0-3.782,1.076-4.312,2.545
			c-0.077,0.213-0.128,0.279-0.141,0.13c-0.007-0.084-0.013-0.175-0.013-0.265C124.064,151.244,126.29,149.689,128.53,149.689
			 M128.53,159.549c-2.674,0-4.843-2.033-4.843-4.707c0,0,2.156-1.889,4.888-1.889c2.774,0,4.798,1.889,4.798,1.889
			C133.373,157.516,131.205,159.549,128.53,159.549"/>
		<path fill="#3F5F67" d="M118.843,166.005v6.458c0,0.892,0.723,1.616,1.615,1.616h1.616h12.912h1.616
			c0.892,0,1.615-0.724,1.615-1.616v-6.458c0-1.785-1.446-3.227-3.23-3.227h-1.474c-0.226,0-0.561,0.101-0.747,0.229l-1.652,1.127
			c-0.186,0.127-0.39,0.406-0.452,0.622l-1.925,6.518c-0.064,0.217-0.169,0.217-0.238,0.002l-2.022-6.406
			c-0.067-0.215-0.275-0.492-0.46-0.617l-1.853-1.247c-0.188-0.126-0.524-0.227-0.75-0.227h-1.341
			C120.29,162.778,118.843,164.22,118.843,166.005 M126.006,168.982c0.376,0,0.682,0.307,0.682,0.682
			c0,0.376-0.306,0.684-0.682,0.684s-0.682-0.308-0.682-0.684C125.324,169.289,125.629,168.982,126.006,168.982 M126.006,171.438
			c0.376,0,0.682,0.302,0.682,0.685c0,0.375-0.306,0.682-0.682,0.682s-0.682-0.308-0.682-0.682
			C125.324,171.741,125.629,171.438,126.006,171.438"/>
		<path fill="#3F5F67" d="M437.089,263.093c-3.348,0-6.06,2.714-6.06,6.061v1.944c-0.045,0.627-0.254,2.083-1.226,1.982
			c-1.232-0.126,0.329,2.118,2.725,2.133c0.006,0,0.01,0.002,0.016,0.002h9.091c2.411,0,3.99-2.264,2.754-2.135
			c-1.24,0.129-1.24-2.262-1.24-2.262v-1.665C443.148,265.808,440.436,263.093,437.089,263.093 M437.089,264.448
			c2.103,0,4.064,1.46,4.064,3.257c0,0.085-0.004,0.169-0.012,0.25c-0.014,0.137-0.06,0.077-0.13-0.124
			c-0.481-1.376-2.172-2.388-3.923-2.388s-3.549,1.012-4.046,2.388c-0.073,0.201-0.122,0.261-0.134,0.124
			c-0.006-0.081-0.01-0.166-0.01-0.25C432.899,265.908,434.987,264.448,437.089,264.448 M437.089,273.701
			c-2.51,0-4.545-1.909-4.545-4.418c0,0,2.023-1.773,4.589-1.773c2.603,0,4.502,1.773,4.502,1.773
			C441.635,271.792,439.6,273.701,437.089,273.701"/>
		<path fill="#3F5F67" d="M427.999,279.76v6.061c0,0.838,0.677,1.517,1.515,1.517h1.516h12.119h1.517
			c0.838,0,1.515-0.678,1.515-1.517v-6.061c0-1.674-1.356-3.03-3.031-3.03h-1.384c-0.211,0-0.526,0.096-0.7,0.215l-1.55,1.059
			c-0.176,0.119-0.367,0.381-0.426,0.585l-1.807,6.117c-0.059,0.203-0.159,0.204-0.223,0.002l-1.896-6.014
			c-0.065-0.201-0.259-0.461-0.435-0.581l-1.738-1.168c-0.178-0.119-0.491-0.214-0.704-0.214h-1.257
			C429.355,276.73,427.999,278.086,427.999,279.76 M434.721,282.556c0.354,0,0.64,0.287,0.64,0.64c0,0.355-0.286,0.642-0.64,0.642
			c-0.353,0-0.639-0.287-0.639-0.642C434.082,282.842,434.368,282.556,434.721,282.556 M434.721,284.859
			c0.354,0,0.64,0.287,0.64,0.641s-0.286,0.641-0.64,0.641c-0.353,0-0.639-0.287-0.639-0.641S434.368,284.859,434.721,284.859"/>
		<path fill="#3F5F67" d="M504.313,313.855c-2.356,0-4.266,1.911-4.266,4.266v1.37c-0.031,0.439-0.179,1.465-0.861,1.396
			c-0.87-0.09,0.23,1.49,1.917,1.5c0.004,0,0.008,0.001,0.012,0.001h6.398c1.697,0,2.808-1.592,1.938-1.501
			c-0.874,0.088-0.874-1.594-0.874-1.594v-1.171C508.578,315.766,506.67,313.855,504.313,313.855 M504.313,314.809
			c1.48,0,2.859,1.028,2.859,2.293c0,0.06-0.002,0.12-0.006,0.177c-0.011,0.098-0.044,0.054-0.093-0.087
			c-0.338-0.97-1.528-1.682-2.761-1.682s-2.499,0.712-2.848,1.682c-0.051,0.141-0.085,0.185-0.095,0.087
			c-0.004-0.057-0.008-0.117-0.008-0.177C501.363,315.837,502.834,314.809,504.313,314.809 M504.313,321.323
			c-1.765,0-3.198-1.345-3.198-3.111c0,0,1.424-1.245,3.229-1.245c1.832,0,3.169,1.245,3.169,1.245
			C507.514,319.978,506.08,321.323,504.313,321.323"/>
		<path fill="#3F5F67" d="M497.915,325.589v4.265c0,0.59,0.477,1.067,1.066,1.067h1.066h8.53h1.069c0.587,0,1.066-0.477,1.066-1.067
			v-4.265c0-1.18-0.956-2.134-2.136-2.134h-0.974c-0.148,0-0.369,0.069-0.493,0.153l-1.091,0.743
			c-0.122,0.086-0.256,0.271-0.3,0.412l-1.27,4.306c-0.043,0.142-0.114,0.145-0.157,0.002l-1.335-4.233
			c-0.046-0.141-0.184-0.325-0.306-0.408l-1.225-0.823c-0.124-0.083-0.348-0.151-0.497-0.151h-0.884
			C498.871,323.455,497.915,324.409,497.915,325.589 M502.646,327.555c0.25,0,0.451,0.202,0.451,0.451
			c0,0.25-0.201,0.453-0.451,0.453c-0.247,0-0.448-0.202-0.448-0.453C502.197,327.757,502.398,327.555,502.646,327.555
			 M502.646,329.177c0.25,0,0.451,0.201,0.451,0.453c0,0.249-0.201,0.451-0.451,0.451c-0.247,0-0.448-0.202-0.448-0.451
			C502.197,329.378,502.398,329.177,502.646,329.177"/>
		<path fill="#3F5F67" d="M486.727,104.781c-2.273,0-4.115,1.842-4.115,4.114v1.32c-0.029,0.426-0.172,1.414-0.832,1.346
			c-0.836-0.086,0.225,1.437,1.85,1.447c0.004,0,0.008,0.002,0.012,0.002h6.17c1.639,0,2.711-1.537,1.871-1.449
			c-0.842,0.086-0.842-1.536-0.842-1.536v-1.13C490.84,106.623,488.998,104.781,486.727,104.781 M486.727,105.7
			c1.428,0,2.759,0.992,2.759,2.212c0,0.057-0.004,0.115-0.008,0.169c-0.011,0.094-0.042,0.053-0.089-0.085
			c-0.325-0.934-1.476-1.621-2.662-1.621c-1.189,0-2.412,0.687-2.747,1.621c-0.051,0.138-0.083,0.179-0.091,0.085
			c-0.004-0.054-0.008-0.112-0.008-0.169C483.881,106.692,485.299,105.7,486.727,105.7 M486.727,111.981
			c-1.704,0-3.086-1.295-3.086-2.999c0,0,1.372-1.203,3.113-1.203c1.769,0,3.057,1.203,3.057,1.203
			C489.811,110.686,488.43,111.981,486.727,111.981"/>
		<path fill="#3F5F67" d="M480.555,116.096v4.115c0,0.568,0.459,1.029,1.027,1.029h1.029h8.229h1.029
			c0.567,0,1.027-0.461,1.027-1.029v-4.115c0-1.136-0.921-2.057-2.057-2.057h-0.94c-0.145,0-0.357,0.066-0.476,0.146l-1.051,0.719
			c-0.118,0.082-0.249,0.259-0.29,0.396l-1.225,4.153c-0.041,0.138-0.108,0.139-0.151,0.002l-1.29-4.083
			c-0.041-0.137-0.176-0.313-0.294-0.394l-1.181-0.793c-0.12-0.08-0.333-0.146-0.478-0.146h-0.854
			C481.476,114.039,480.555,114.96,480.555,116.096 M485.117,117.994c0.241,0,0.436,0.195,0.436,0.435s-0.194,0.436-0.436,0.436
			c-0.238,0-0.434-0.196-0.434-0.436S484.879,117.994,485.117,117.994 M485.117,119.557c0.241,0,0.436,0.195,0.436,0.437
			c0,0.238-0.194,0.434-0.436,0.434c-0.238,0-0.434-0.195-0.434-0.434C484.684,119.752,484.879,119.557,485.117,119.557"/>
		<path fill="#3F5F67" d="M284.333-123.742c-2.272,0-4.115,1.843-4.115,4.115v1.32c-0.03,0.426-0.17,1.415-0.831,1.346
			c-0.837-0.086,0.223,1.437,1.85,1.447c0.004,0,0.008,0.002,0.011,0.002h6.171c1.638,0,2.71-1.536,1.871-1.449
			c-0.842,0.086-0.842-1.536-0.842-1.536v-1.13C288.447-121.898,286.606-123.742,284.333-123.742 M284.333-122.822
			c1.428,0,2.759,0.992,2.759,2.212c0,0.058-0.002,0.115-0.008,0.171c-0.009,0.093-0.041,0.052-0.088-0.086
			c-0.325-0.935-1.475-1.622-2.663-1.622s-2.41,0.687-2.746,1.622c-0.05,0.138-0.083,0.179-0.091,0.086
			c-0.004-0.056-0.006-0.114-0.006-0.171C281.489-121.831,282.906-122.822,284.333-122.822 M284.333-116.541
			c-1.703,0-3.085-1.295-3.085-2.999c0,0,1.374-1.203,3.115-1.203c1.766,0,3.056,1.203,3.056,1.203
			C287.418-117.836,286.038-116.541,284.333-116.541"/>
		<path fill="#3F5F67" d="M278.162-112.426v4.114c0,0.568,0.459,1.029,1.028,1.029h1.03h8.228h1.028
			c0.569,0,1.029-0.461,1.029-1.029v-4.114c0-1.137-0.92-2.058-2.057-2.058h-0.94c-0.144,0-0.356,0.065-0.475,0.146l-1.052,0.719
			c-0.119,0.081-0.249,0.259-0.289,0.396l-1.227,4.153c-0.042,0.137-0.108,0.139-0.151,0.001l-1.288-4.083
			c-0.043-0.137-0.176-0.314-0.295-0.394l-1.18-0.794c-0.12-0.08-0.332-0.146-0.477-0.146h-0.854
			C279.083-114.483,278.162-113.563,278.162-112.426 M282.726-110.529c0.241,0,0.434,0.195,0.434,0.435
			c0,0.24-0.193,0.435-0.434,0.435c-0.24,0-0.436-0.195-0.436-0.435C282.29-110.334,282.485-110.529,282.726-110.529
			 M282.726-108.964c0.241,0,0.434,0.194,0.434,0.436c0,0.24-0.193,0.434-0.434,0.434c-0.24,0-0.436-0.194-0.436-0.434
			C282.29-108.771,282.485-108.964,282.726-108.964"/>
	</g>
</g>
<g>
</g>
<g>
</g>
<g>
</g>
<g>
</g>
<g>
</g>
<g>
</g>
</svg>
