<?xml version="1.0" encoding="utf-8"?>
<!-- Generator: Adobe Illustrator 15.1.0, SVG Export Plug-In . SVG Version: 6.00 Build 0)  -->
<!DOCTYPE svg PUBLIC "-//W3C//DTD SVG 1.1//EN" "http://www.w3.org/Graphics/SVG/1.1/DTD/svg11.dtd">
<svg version="1.1" id="Layer_1" xmlns="http://www.w3.org/2000/svg" xmlns:xlink="http://www.w3.org/1999/xlink" x="0px" y="0px"
	 width="1200px" height="800px" viewBox="0 0 1200 800" enable-background="new 0 0 1200 800" xml:space="preserve">
<g opacity="0.1">
	<defs>
		<rect id="SVGID_1_" opacity="0.1" width="1200" height="800"/>
	</defs>
	<clipPath id="SVGID_2_">
		<use xlink:href="#SVGID_1_"  overflow="visible"/>
	</clipPath>
	<g clip-path="url(#SVGID_2_)">
		<defs>
			<polygon id="SVGID_3_" points="0,0 0,800 606.363,800 1200,800 1200,0 			"/>
		</defs>
		<clipPath id="SVGID_4_">
			<use xlink:href="#SVGID_3_"  overflow="visible"/>
		</clipPath>
		<g clip-path="url(#SVGID_4_)">
			<g>
				<defs>
					<rect id="SVGID_5_" width="1200" height="800"/>
				</defs>
				<clipPath id="SVGID_6_">
					<use xlink:href="#SVGID_5_"  overflow="visible"/>
				</clipPath>
				<g clip-path="url(#SVGID_6_)">
					<image overflow="visible" width="2500" height="1667" xlink:href="7DC0298.jpg"  transform="matrix(0.48 0 0 0.48 0 0)">
					</image>
				</g>
			</g>
		</g>
	</g>
	<g clip-path="url(#SVGID_2_)">
		<defs>
			<rect id="SVGID_7_" width="1200" height="800"/>
		</defs>
		<clipPath id="SVGID_8_">
			<use xlink:href="#SVGID_7_"  overflow="visible"/>
		</clipPath>
		<g opacity="0.2" clip-path="url(#SVGID_8_)">
			<g>
				<defs>
					<rect id="SVGID_9_" x="537.552" y="-78.73" width="291.336" height="333.765"/>
				</defs>
				<clipPath id="SVGID_10_">
					<use xlink:href="#SVGID_9_"  overflow="visible"/>
				</clipPath>
				<polygon clip-path="url(#SVGID_10_)" fill="#C0C0C0" points="828.888,169.613 685.506,255.034 539.838,173.572 537.552,6.69 
					680.935,-78.729 826.603,2.731 				"/>
			</g>
		</g>
		<g opacity="0.3" clip-path="url(#SVGID_8_)">
			<g>
				<defs>
					<rect id="SVGID_11_" x="557.27" y="88.152" width="291.336" height="333.765"/>
				</defs>
				<clipPath id="SVGID_12_">
					<use xlink:href="#SVGID_11_"  overflow="visible"/>
				</clipPath>
				<polygon clip-path="url(#SVGID_12_)" fill="#FFFFFF" points="848.606,336.495 705.225,421.917 559.557,340.455 557.27,173.573 
					700.651,88.152 846.32,169.613 				"/>
			</g>
		</g>
		<g opacity="0.3" clip-path="url(#SVGID_8_)">
			<g>
				<defs>
					<rect id="SVGID_13_" x="992.133" y="102.649" width="291.337" height="333.765"/>
				</defs>
				<clipPath id="SVGID_14_">
					<use xlink:href="#SVGID_13_"  overflow="visible"/>
				</clipPath>
				<polygon clip-path="url(#SVGID_14_)" fill="#FFFFFF" points="1283.469,350.993 1140.087,436.414 994.419,354.952 
					992.133,188.071 1135.514,102.65 1281.183,184.111 				"/>
			</g>
		</g>
		<g opacity="0.7" clip-path="url(#SVGID_8_)">
			<g>
				<defs>
					<rect id="SVGID_15_" x="757.051" y="416.285" width="251.649" height="288.293"/>
				</defs>
				<clipPath id="SVGID_16_">
					<use xlink:href="#SVGID_15_"  overflow="visible"/>
				</clipPath>
				<g clip-path="url(#SVGID_16_)">
					<defs>
						<polygon id="SVGID_17_" points="1008.695,630.794 884.848,704.578 759.026,634.214 757.051,490.068 880.898,416.285 
							1006.721,486.648 						"/>
					</defs>
					<clipPath id="SVGID_18_">
						<use xlink:href="#SVGID_17_"  overflow="visible"/>
					</clipPath>
					<defs>
						
							<filter id="Adobe_OpacityMaskFilter" filterUnits="userSpaceOnUse" x="757.051" y="416.285" width="251.645" height="288.293">
							<feColorMatrix  type="matrix" values="1 0 0 0 0  0 1 0 0 0  0 0 1 0 0  0 0 0 1 0"/>
						</filter>
					</defs>
					<mask maskUnits="userSpaceOnUse" x="757.051" y="416.285" width="251.645" height="288.293" id="SVGID_19_">
						<g filter="url(#Adobe_OpacityMaskFilter)">
							
								<linearGradient id="SVGID_20_" gradientUnits="userSpaceOnUse" x1="0" y1="800" x2="1" y2="800" gradientTransform="matrix(251.6446 0 0 -251.6446 757 201876.1562)">
								<stop  offset="0" style="stop-color:#1A1A1A"/>
								<stop  offset="0.0044" style="stop-color:#1A1A1A"/>
								<stop  offset="0.1336" style="stop-color:#313131"/>
								<stop  offset="0.4052" style="stop-color:#6C6C6C"/>
								<stop  offset="0.7931" style="stop-color:#CACACA"/>
								<stop  offset="1" style="stop-color:#FFFFFF"/>
							</linearGradient>
							<rect x="757.051" y="416.285" clip-path="url(#SVGID_18_)" fill="url(#SVGID_20_)" width="251.645" height="288.293"/>
						</g>
					</mask>
					
						<linearGradient id="SVGID_21_" gradientUnits="userSpaceOnUse" x1="-4.882812e-04" y1="800" x2="0.9995" y2="800" gradientTransform="matrix(251.6445 0 0 -251.6445 757 201876.125)">
						<stop  offset="0" style="stop-color:#FFFFFF"/>
						<stop  offset="0.0044" style="stop-color:#FFFFFF"/>
						<stop  offset="1" style="stop-color:#FFFFFF"/>
					</linearGradient>
					
						<rect x="757.051" y="416.285" clip-path="url(#SVGID_18_)" mask="url(#SVGID_19_)" fill="url(#SVGID_21_)" width="251.645" height="288.293"/>
				</g>
			</g>
		</g>
		<g opacity="0.3" clip-path="url(#SVGID_8_)">
			<g>
				<defs>
					<rect id="SVGID_22_" x="748.275" y="344.389" width="291.335" height="333.765"/>
				</defs>
				<clipPath id="SVGID_23_">
					<use xlink:href="#SVGID_22_"  overflow="visible"/>
				</clipPath>
				<polygon clip-path="url(#SVGID_23_)" fill="#FFFFFF" points="1039.611,592.731 896.23,678.154 750.562,596.691 748.275,429.809 
					891.656,344.388 1037.326,425.85 				"/>
			</g>
		</g>
		<g opacity="0.3" clip-path="url(#SVGID_8_)">
			<g>
				<defs>
					<rect id="SVGID_24_" x="593.731" y="160.271" width="242.498" height="277.814"/>
				</defs>
				<clipPath id="SVGID_25_">
					<use xlink:href="#SVGID_24_"  overflow="visible"/>
				</clipPath>
				<polygon clip-path="url(#SVGID_25_)" fill="#FFFFFF" points="836.229,366.982 716.884,438.085 595.633,370.278 593.731,231.371 
					713.077,160.271 834.327,228.076 				"/>
			</g>
		</g>
		<g opacity="0.3" clip-path="url(#SVGID_8_)">
			<g>
				<defs>
					<rect id="SVGID_26_" x="946.568" y="86.675" width="242.502" height="277.814"/>
				</defs>
				<clipPath id="SVGID_27_">
					<use xlink:href="#SVGID_26_"  overflow="visible"/>
				</clipPath>
				<polygon clip-path="url(#SVGID_27_)" fill="#FFFFFF" points="1189.066,293.386 1069.721,364.489 948.471,296.681 
					946.568,157.775 1065.914,86.675 1187.164,154.48 				"/>
			</g>
		</g>
		<g opacity="0.3" clip-path="url(#SVGID_8_)">
			<g>
				<defs>
					<rect id="SVGID_28_" x="1055.28" y="309.48" width="242.5" height="277.816"/>
				</defs>
				<clipPath id="SVGID_29_">
					<use xlink:href="#SVGID_28_"  overflow="visible"/>
				</clipPath>
				<polygon clip-path="url(#SVGID_29_)" fill="#FFFFFF" points="1297.781,516.192 1178.436,587.297 1057.186,519.488 
					1055.283,380.582 1174.629,309.48 1295.879,377.286 				"/>
			</g>
		</g>
		<g opacity="0.3" clip-path="url(#SVGID_8_)">
			<g>
				<defs>
					<rect id="SVGID_30_" x="848.783" y="26.09" width="168.467" height="193.002"/>
				</defs>
				<clipPath id="SVGID_31_">
					<use xlink:href="#SVGID_30_"  overflow="visible"/>
				</clipPath>
				<polygon clip-path="url(#SVGID_31_)" fill="#FFFFFF" points="1017.25,169.697 934.339,219.093 850.105,171.987 848.783,75.486 
					931.694,26.091 1015.929,73.196 				"/>
			</g>
		</g>
		<g opacity="0.2" clip-path="url(#SVGID_8_)">
			<g>
				<defs>
					<rect id="SVGID_32_" x="963.783" y="302.905" width="291.337" height="333.765"/>
				</defs>
				<clipPath id="SVGID_33_">
					<use xlink:href="#SVGID_32_"  overflow="visible"/>
				</clipPath>
				<polygon clip-path="url(#SVGID_33_)" fill="#C0C0C0" points="1255.12,551.249 1111.738,636.67 966.07,555.208 963.783,388.326 
					1107.166,302.905 1252.836,384.367 				"/>
			</g>
		</g>
		<g opacity="0.8" clip-path="url(#SVGID_8_)">
			<g>
				<defs>
					<rect id="SVGID_34_" x="764.15" y="252.126" width="169.268" height="196.558"/>
				</defs>
				<clipPath id="SVGID_35_">
					<use xlink:href="#SVGID_34_"  overflow="visible"/>
				</clipPath>
				<polygon clip-path="url(#SVGID_35_)" fill="none" stroke="#FFFFFF" stroke-width="5" stroke-miterlimit="10" points="
					930.861,399.12 852.548,445.775 770.47,397.06 766.707,301.69 845.02,255.035 927.098,303.749 				"/>
			</g>
		</g>
	</g>
	<polygon clip-path="url(#SVGID_2_)" fill="none" stroke="#FFFFFF" stroke-width="2" stroke-miterlimit="10" points="
		718.945,432.559 654.464,470.974 586.883,430.863 583.784,352.336 648.266,313.92 715.848,354.032 	"/>
	<g clip-path="url(#SVGID_2_)">
		<defs>
			<rect id="SVGID_36_" width="1200" height="800"/>
		</defs>
		<clipPath id="SVGID_37_">
			<use xlink:href="#SVGID_36_"  overflow="visible"/>
		</clipPath>
		<polygon clip-path="url(#SVGID_37_)" fill="none" stroke="#FFFFFF" stroke-width="2" stroke-miterlimit="10" points="
			1145.412,74.49 1080.931,112.906 1013.35,72.795 1010.251,-5.731 1074.732,-44.147 1142.315,-4.036 		"/>
		<g clip-path="url(#SVGID_37_)">
			<g>
				<defs>
					<rect id="SVGID_38_" x="852.227" y="284.246" width="192.243" height="216.394"/>
				</defs>
				<clipPath id="SVGID_39_">
					<use xlink:href="#SVGID_38_"  overflow="visible"/>
				</clipPath>
				<polygon clip-path="url(#SVGID_39_)" fill="none" stroke="#9D9D9C" stroke-miterlimit="10" points="1043.953,451.521 
					948.815,500.078 852.727,451.343 852.861,337.526 948.754,284.816 1043.973,337.73 				"/>
			</g>
		</g>
		<g opacity="0.5" clip-path="url(#SVGID_37_)">
			<g>
				<defs>
					<rect id="SVGID_40_" x="985.771" y="-136.997" width="192.248" height="216.393"/>
				</defs>
				<clipPath id="SVGID_41_">
					<use xlink:href="#SVGID_40_"  overflow="visible"/>
				</clipPath>
				<polygon clip-path="url(#SVGID_41_)" fill="none" stroke="#9D9D9C" stroke-miterlimit="10" points="1177.498,30.279 
					1082.36,78.835 986.271,30.101 986.406,-83.716 1082.299,-136.426 1177.518,-83.512 				"/>
			</g>
		</g>
		<g opacity="0.2" clip-path="url(#SVGID_37_)">
			<g>
				<defs>
					<rect id="SVGID_42_" x="733.82" y="67.254" width="207.814" height="238.08"/>
				</defs>
				<clipPath id="SVGID_43_">
					<use xlink:href="#SVGID_42_"  overflow="visible"/>
				</clipPath>
				<polygon clip-path="url(#SVGID_43_)" fill="#C0C0C0" points="941.635,244.402 839.358,305.334 735.451,247.227 733.82,128.186 
					836.097,67.254 940.006,125.361 				"/>
			</g>
		</g>
		<g opacity="0.5" clip-path="url(#SVGID_37_)">
			<g>
				<defs>
					<rect id="SVGID_44_" x="873.418" y="430.152" width="69.193" height="79.27"/>
				</defs>
				<clipPath id="SVGID_45_">
					<use xlink:href="#SVGID_44_"  overflow="visible"/>
				</clipPath>
				<polygon clip-path="url(#SVGID_45_)" fill="#C0C0C0" points="942.611,489.134 908.558,509.422 873.961,490.074 873.418,450.439 
					907.472,430.152 942.068,449.498 				"/>
			</g>
		</g>
		<g opacity="0.2" clip-path="url(#SVGID_37_)">
			<g>
				<defs>
					<rect id="SVGID_46_" x="769.429" y="334.313" width="146.466" height="167.796"/>
				</defs>
				<clipPath id="SVGID_47_">
					<use xlink:href="#SVGID_46_"  overflow="visible"/>
				</clipPath>
				<polygon clip-path="url(#SVGID_47_)" fill="#C0C0C0" points="915.895,459.166 843.811,502.109 770.577,461.155 769.429,377.257 
					841.512,334.313 914.746,375.267 				"/>
			</g>
		</g>
	</g>
	<polygon clip-path="url(#SVGID_2_)" fill="none" stroke="#FFFFFF" stroke-width="6" stroke-miterlimit="10" points="
		748.252,251.706 631.071,311.514 512.719,251.487 512.885,111.299 630.996,46.374 748.275,111.55 	"/>
	<g clip-path="url(#SVGID_2_)">
		<defs>
			<rect id="SVGID_48_" width="1200" height="800"/>
		</defs>
		<clipPath id="SVGID_49_">
			<use xlink:href="#SVGID_48_"  overflow="visible"/>
		</clipPath>
		<polygon clip-path="url(#SVGID_49_)" fill="none" stroke="#FFFFFF" stroke-width="6" stroke-miterlimit="10" points="
			832.736,157.665 715.554,217.473 597.202,157.446 597.369,17.258 715.479,-47.667 832.758,17.51 		"/>
	</g>
	<polygon clip-path="url(#SVGID_2_)" fill="none" stroke="#FFFFFF" stroke-width="4" stroke-miterlimit="10" points="
		1163.363,284.883 1089.665,322.497 1015.231,284.745 1015.336,196.578 1089.618,155.746 1163.378,196.736 	"/>
	<g clip-path="url(#SVGID_2_)">
		<defs>
			<rect id="SVGID_50_" width="1200" height="800"/>
		</defs>
		<clipPath id="SVGID_51_">
			<use xlink:href="#SVGID_50_"  overflow="visible"/>
		</clipPath>
		<g opacity="0.4" clip-path="url(#SVGID_51_)">
			<g>
				<defs>
					<rect id="SVGID_52_" x="859.784" y="141.684" width="146.466" height="167.796"/>
				</defs>
				<clipPath id="SVGID_53_">
					<use xlink:href="#SVGID_52_"  overflow="visible"/>
				</clipPath>
				<polygon clip-path="url(#SVGID_53_)" fill="#C0C0C0" points="1006.249,266.536 934.166,309.48 860.933,268.526 859.784,184.627 
					931.867,141.683 1005.102,182.637 				"/>
			</g>
		</g>
		<g opacity="0.3" clip-path="url(#SVGID_51_)">
			<g>
				<defs>
					<rect id="SVGID_54_" x="476.64" y="63.447" width="174.726" height="200.173"/>
				</defs>
				<clipPath id="SVGID_55_">
					<use xlink:href="#SVGID_54_"  overflow="visible"/>
				</clipPath>
				<polygon clip-path="url(#SVGID_55_)" fill="#C0C0C0" points="651.366,212.39 565.374,263.62 478.01,214.763 476.639,114.677 
					562.632,63.447 649.996,112.303 				"/>
			</g>
		</g>
		<g opacity="0.2" clip-path="url(#SVGID_51_)">
			<g>
				<defs>
					<rect id="SVGID_56_" x="576.317" y="34.38" width="125.496" height="143.772"/>
				</defs>
				<clipPath id="SVGID_57_">
					<use xlink:href="#SVGID_56_"  overflow="visible"/>
				</clipPath>
				<g clip-path="url(#SVGID_57_)">
					<defs>
						<polygon id="SVGID_58_" points="701.812,141.356 640.049,178.152 577.302,143.062 576.317,71.175 638.08,34.38 700.829,69.47 
													"/>
					</defs>
					<clipPath id="SVGID_59_">
						<use xlink:href="#SVGID_58_"  overflow="visible"/>
					</clipPath>
					<defs>
						
							<filter id="Adobe_OpacityMaskFilter_1_" filterUnits="userSpaceOnUse" x="576.317" y="34.38" width="125.496" height="143.772">
							<feColorMatrix  type="matrix" values="1 0 0 0 0  0 1 0 0 0  0 0 1 0 0  0 0 0 1 0"/>
						</filter>
					</defs>
					<mask maskUnits="userSpaceOnUse" x="576.317" y="34.38" width="125.496" height="143.772" id="SVGID_60_">
						<g filter="url(#Adobe_OpacityMaskFilter_1_)">
							
								<linearGradient id="SVGID_61_" gradientUnits="userSpaceOnUse" x1="0" y1="800" x2="1" y2="800" gradientTransform="matrix(125.4951 0 0 -125.4951 576.3125 100502.3359)">
								<stop  offset="0" style="stop-color:#1A1A1A"/>
								<stop  offset="0.0044" style="stop-color:#1A1A1A"/>
								<stop  offset="0.1336" style="stop-color:#313131"/>
								<stop  offset="0.4052" style="stop-color:#6C6C6C"/>
								<stop  offset="0.7931" style="stop-color:#CACACA"/>
								<stop  offset="1" style="stop-color:#FFFFFF"/>
							</linearGradient>
							<rect x="576.317" y="34.38" clip-path="url(#SVGID_59_)" fill="url(#SVGID_61_)" width="125.495" height="143.772"/>
						</g>
					</mask>
					
						<linearGradient id="SVGID_62_" gradientUnits="userSpaceOnUse" x1="4.882812e-04" y1="800" x2="1.0005" y2="800" gradientTransform="matrix(125.4951 0 0 -125.4951 576.3125 100502.3438)">
						<stop  offset="0" style="stop-color:#FFFFFF"/>
						<stop  offset="0.0044" style="stop-color:#FFFFFF"/>
						<stop  offset="0.1351" style="stop-color:#E8E8E8"/>
						<stop  offset="0.4103" style="stop-color:#ADADAC"/>
						<stop  offset="0.8037" style="stop-color:#4E4E4D"/>
						<stop  offset="1" style="stop-color:#1D1D1B"/>
					</linearGradient>
					
						<rect x="576.317" y="34.38" clip-path="url(#SVGID_59_)" mask="url(#SVGID_60_)" fill="url(#SVGID_62_)" width="125.496" height="143.772"/>
				</g>
			</g>
		</g>
		<g opacity="0.2" clip-path="url(#SVGID_51_)">
			<g>
				<defs>
					<rect id="SVGID_63_" x="653.073" y="197.865" width="125.495" height="143.773"/>
				</defs>
				<clipPath id="SVGID_64_">
					<use xlink:href="#SVGID_63_"  overflow="visible"/>
				</clipPath>
				<g clip-path="url(#SVGID_64_)">
					<defs>
						<polygon id="SVGID_65_" points="778.568,304.842 716.806,341.638 654.058,306.547 653.073,234.661 714.837,197.865 
							777.586,232.956 						"/>
					</defs>
					<clipPath id="SVGID_66_">
						<use xlink:href="#SVGID_65_"  overflow="visible"/>
					</clipPath>
					<defs>
						
							<filter id="Adobe_OpacityMaskFilter_2_" filterUnits="userSpaceOnUse" x="653.073" y="197.865" width="125.495" height="143.773">
							<feColorMatrix  type="matrix" values="1 0 0 0 0  0 1 0 0 0  0 0 1 0 0  0 0 0 1 0"/>
						</filter>
					</defs>
					<mask maskUnits="userSpaceOnUse" x="653.073" y="197.865" width="125.495" height="143.773" id="SVGID_67_">
						<g filter="url(#Adobe_OpacityMaskFilter_2_)">
							
								<linearGradient id="SVGID_68_" gradientUnits="userSpaceOnUse" x1="0" y1="800" x2="1" y2="800" gradientTransform="matrix(125.4951 0 0 -125.4951 653.0625 100665.8359)">
								<stop  offset="0" style="stop-color:#1A1A1A"/>
								<stop  offset="0.0044" style="stop-color:#1A1A1A"/>
								<stop  offset="0.1336" style="stop-color:#313131"/>
								<stop  offset="0.4052" style="stop-color:#6C6C6C"/>
								<stop  offset="0.7931" style="stop-color:#CACACA"/>
								<stop  offset="1" style="stop-color:#FFFFFF"/>
							</linearGradient>
							<rect x="653.073" y="197.865" clip-path="url(#SVGID_66_)" fill="url(#SVGID_68_)" width="125.495" height="143.773"/>
						</g>
					</mask>
					
						<linearGradient id="SVGID_69_" gradientUnits="userSpaceOnUse" x1="4.882812e-04" y1="800" x2="1.0005" y2="800" gradientTransform="matrix(125.4951 0 0 -125.4951 653.0625 100665.8438)">
						<stop  offset="0" style="stop-color:#FFFFFF"/>
						<stop  offset="0.0044" style="stop-color:#FFFFFF"/>
						<stop  offset="0.1351" style="stop-color:#E8E8E8"/>
						<stop  offset="0.4103" style="stop-color:#ADADAC"/>
						<stop  offset="0.8037" style="stop-color:#4E4E4D"/>
						<stop  offset="1" style="stop-color:#1D1D1B"/>
					</linearGradient>
					
						<rect x="653.073" y="197.865" clip-path="url(#SVGID_66_)" mask="url(#SVGID_67_)" fill="url(#SVGID_69_)" width="125.495" height="143.773"/>
				</g>
			</g>
		</g>
		<g opacity="0.2" clip-path="url(#SVGID_51_)">
			<g>
				<defs>
					<rect id="SVGID_70_" x="747.323" y="371.292" width="76.44" height="87.574"/>
				</defs>
				<clipPath id="SVGID_71_">
					<use xlink:href="#SVGID_70_"  overflow="visible"/>
				</clipPath>
				<g clip-path="url(#SVGID_71_)">
					<defs>
						<polygon id="SVGID_72_" points="823.764,436.453 786.144,458.866 747.922,437.492 747.323,393.705 784.944,371.292 
							823.165,392.666 						"/>
					</defs>
					<clipPath id="SVGID_73_">
						<use xlink:href="#SVGID_72_"  overflow="visible"/>
					</clipPath>
					<defs>
						
							<filter id="Adobe_OpacityMaskFilter_3_" filterUnits="userSpaceOnUse" x="747.323" y="371.292" width="76.44" height="87.574">
							<feColorMatrix  type="matrix" values="1 0 0 0 0  0 1 0 0 0  0 0 1 0 0  0 0 0 1 0"/>
						</filter>
					</defs>
					<mask maskUnits="userSpaceOnUse" x="747.323" y="371.292" width="76.44" height="87.574" id="SVGID_74_">
						<g filter="url(#Adobe_OpacityMaskFilter_3_)">
							
								<linearGradient id="SVGID_75_" gradientUnits="userSpaceOnUse" x1="0" y1="800" x2="1" y2="800" gradientTransform="matrix(76.4404 0 0 -76.4404 747.3125 61567.4062)">
								<stop  offset="0" style="stop-color:#1A1A1A"/>
								<stop  offset="0.0044" style="stop-color:#1A1A1A"/>
								<stop  offset="0.1336" style="stop-color:#313131"/>
								<stop  offset="0.4052" style="stop-color:#6C6C6C"/>
								<stop  offset="0.7931" style="stop-color:#CACACA"/>
								<stop  offset="1" style="stop-color:#FFFFFF"/>
							</linearGradient>
							<rect x="747.323" y="371.292" clip-path="url(#SVGID_73_)" fill="url(#SVGID_75_)" width="76.44" height="87.574"/>
						</g>
					</mask>
					
						<linearGradient id="SVGID_76_" gradientUnits="userSpaceOnUse" x1="0" y1="800" x2="1" y2="800" gradientTransform="matrix(76.4404 0 0 -76.4404 747.3125 61567.4062)">
						<stop  offset="0" style="stop-color:#FFFFFF"/>
						<stop  offset="0.0044" style="stop-color:#FFFFFF"/>
						<stop  offset="0.1351" style="stop-color:#E8E8E8"/>
						<stop  offset="0.4103" style="stop-color:#ADADAC"/>
						<stop  offset="0.8037" style="stop-color:#4E4E4D"/>
						<stop  offset="1" style="stop-color:#1D1D1B"/>
					</linearGradient>
					
						<rect x="747.323" y="371.292" clip-path="url(#SVGID_73_)" mask="url(#SVGID_74_)" fill="url(#SVGID_76_)" width="76.44" height="87.574"/>
				</g>
			</g>
		</g>
		<g opacity="0.2" clip-path="url(#SVGID_51_)">
			<g>
				<defs>
					<rect id="SVGID_77_" x="1001.39" y="283.717" width="76.44" height="87.575"/>
				</defs>
				<clipPath id="SVGID_78_">
					<use xlink:href="#SVGID_77_"  overflow="visible"/>
				</clipPath>
				<polygon clip-path="url(#SVGID_78_)" fill="#C0C0C0" points="1077.832,348.878 1040.211,371.292 1001.99,349.917 
					1001.391,306.129 1039.012,283.716 1077.232,305.09 				"/>
			</g>
		</g>
	</g>
	<polygon clip-path="url(#SVGID_2_)" fill="#C0C0C0" points="847.625,291.313 809.676,313.92 771.121,292.36 770.517,248.19 
		808.466,225.583 847.021,247.143 	"/>
	<polygon clip-path="url(#SVGID_2_)" fill="none" stroke="#FFFFFF" stroke-width="5" stroke-miterlimit="10" points="
		1130.042,583.099 982.48,656.419 835.068,579.651 837.164,404.085 985.957,324.368 1131.957,407.572 	"/>
	<g clip-path="url(#SVGID_2_)">
		<defs>
			<rect id="SVGID_79_" width="1200" height="800"/>
		</defs>
		<clipPath id="SVGID_80_">
			<use xlink:href="#SVGID_79_"  overflow="visible"/>
		</clipPath>
		<g opacity="0.2" clip-path="url(#SVGID_80_)">
			<g>
				<defs>
					<rect id="SVGID_81_" x="983.539" y="518.985" width="77.111" height="88.34"/>
				</defs>
				<clipPath id="SVGID_82_">
					<use xlink:href="#SVGID_81_"  overflow="visible"/>
				</clipPath>
				<polygon clip-path="url(#SVGID_82_)" fill="#C0C0C0" points="1060.647,584.717 1022.698,607.325 984.143,585.764 
					983.539,541.595 1021.488,518.985 1060.043,540.547 				"/>
			</g>
		</g>
		<g opacity="0.2" clip-path="url(#SVGID_80_)">
			<g>
				<defs>
					<rect id="SVGID_83_" x="623.027" y="290.144" width="77.108" height="88.338"/>
				</defs>
				<clipPath id="SVGID_84_">
					<use xlink:href="#SVGID_83_"  overflow="visible"/>
				</clipPath>
				<polygon clip-path="url(#SVGID_84_)" fill="#C0C0C0" points="700.136,355.875 662.187,378.482 623.631,356.922 623.027,312.752 
					660.977,290.144 699.531,311.704 				"/>
			</g>
		</g>
		<g opacity="0.2" clip-path="url(#SVGID_80_)">
			<g>
				<defs>
					<rect id="SVGID_85_" x="908.016" y="-39.477" width="77.108" height="88.34"/>
				</defs>
				<clipPath id="SVGID_86_">
					<use xlink:href="#SVGID_85_"  overflow="visible"/>
				</clipPath>
				<polygon clip-path="url(#SVGID_86_)" fill="#C0C0C0" points="985.124,26.255 947.174,48.863 908.619,27.302 908.016,-16.868 
					945.964,-39.476 984.518,-17.915 				"/>
			</g>
		</g>
	</g>
	<polygon clip-path="url(#SVGID_2_)" fill="#C0C0C0" points="1168.559,140.921 1096.475,183.865 1023.242,142.911 1022.094,59.012 
		1094.177,16.068 1167.41,57.022 	"/>
	<g clip-path="url(#SVGID_2_)">
		<defs>
			<rect id="SVGID_87_" width="1200" height="800"/>
		</defs>
		<clipPath id="SVGID_88_">
			<use xlink:href="#SVGID_87_"  overflow="visible"/>
		</clipPath>
		<g opacity="0.5" clip-path="url(#SVGID_88_)">
			<g>
				<defs>
					<rect id="SVGID_89_" x="762.394" y="104.686" width="154.124" height="173.484"/>
				</defs>
				<clipPath id="SVGID_90_">
					<use xlink:href="#SVGID_89_"  overflow="visible"/>
				</clipPath>
				<polygon clip-path="url(#SVGID_90_)" fill="none" stroke="#9D9D9C" stroke-miterlimit="10" points="916.003,238.731 
					839.829,277.608 762.894,238.588 763.002,147.46 839.779,105.256 916.018,147.624 				"/>
			</g>
		</g>
		<g opacity="0.5" clip-path="url(#SVGID_88_)">
			<g>
				<defs>
					<rect id="SVGID_91_" x="392.403" y="84.332" width="144.079" height="162.177"/>
				</defs>
				<clipPath id="SVGID_92_">
					<use xlink:href="#SVGID_91_"  overflow="visible"/>
				</clipPath>
				<polygon clip-path="url(#SVGID_92_)" fill="none" stroke="#9D9D9C" stroke-miterlimit="10" points="535.967,209.621 
					464.791,245.948 392.904,209.487 393.004,124.337 464.744,84.903 535.983,124.49 				"/>
			</g>
		</g>
		<g opacity="0.5" clip-path="url(#SVGID_88_)">
			<g>
				<defs>
					<rect id="SVGID_93_" x="321.686" y="-98.169" width="144.078" height="162.177"/>
				</defs>
				<clipPath id="SVGID_94_">
					<use xlink:href="#SVGID_93_"  overflow="visible"/>
				</clipPath>
				<polygon clip-path="url(#SVGID_94_)" fill="none" stroke="#9D9D9C" stroke-miterlimit="10" points="465.249,27.12 
					394.073,63.447 322.186,26.987 322.286,-58.164 394.026,-97.598 465.264,-58.011 				"/>
			</g>
		</g>
		<g opacity="0.5" clip-path="url(#SVGID_88_)">
			<g>
				<defs>
					<rect id="SVGID_95_" x="1073.37" y="158.027" width="144.08" height="162.178"/>
				</defs>
				<clipPath id="SVGID_96_">
					<use xlink:href="#SVGID_95_"  overflow="visible"/>
				</clipPath>
				<polygon clip-path="url(#SVGID_96_)" fill="none" stroke="#9D9D9C" stroke-miterlimit="10" points="1216.937,283.317 
					1145.761,319.644 1073.872,283.184 1073.975,198.033 1145.716,158.599 1216.951,198.186 				"/>
			</g>
		</g>
		<g opacity="0.5" clip-path="url(#SVGID_88_)">
			<g>
				<defs>
					<rect id="SVGID_97_" x="970.717" y="517.837" width="216.923" height="244.169"/>
				</defs>
				<clipPath id="SVGID_98_">
					<use xlink:href="#SVGID_97_"  overflow="visible"/>
				</clipPath>
				<polygon clip-path="url(#SVGID_98_)" fill="none" stroke="#9D9D9C" stroke-miterlimit="10" points="1187.119,706.623 
					1079.706,761.444 971.217,706.422 971.371,577.919 1079.636,518.408 1187.141,578.15 				"/>
			</g>
		</g>
		<g opacity="0.5" clip-path="url(#SVGID_88_)">
			<g>
				<defs>
					<rect id="SVGID_99_" x="660.967" y="-174.457" width="216.924" height="244.169"/>
				</defs>
				<clipPath id="SVGID_100_">
					<use xlink:href="#SVGID_99_"  overflow="visible"/>
				</clipPath>
				<polygon clip-path="url(#SVGID_100_)" fill="none" stroke="#9D9D9C" stroke-miterlimit="10" points="877.368,14.329 
					769.955,69.151 661.467,14.128 661.62,-114.375 769.885,-173.886 877.391,-114.144 				"/>
			</g>
		</g>
	</g>
	<polygon clip-path="url(#SVGID_2_)" fill="none" stroke="#FFFFFF" stroke-width="2" stroke-miterlimit="10" points="
		1137.787,512.533 1072.918,545.642 1007.399,512.411 1007.492,434.806 1072.877,398.865 1137.801,434.945 	"/>
	<polygon clip-path="url(#SVGID_2_)" fill="none" stroke="#FFFFFF" stroke-width="2" stroke-miterlimit="10" points="
		1073.883,718.435 1009.013,751.543 943.494,718.313 943.587,640.707 1008.971,604.767 1073.896,640.847 	"/>
	<polygon clip-path="url(#SVGID_2_)" fill="#FFFFFF" points="824.372,578.474 774.104,604.129 723.335,578.38 723.406,518.242 
		774.072,490.393 824.382,518.351 	"/>
	<g clip-path="url(#SVGID_2_)">
		<defs>
			<rect id="SVGID_101_" width="1200" height="800"/>
		</defs>
		<clipPath id="SVGID_102_">
			<use xlink:href="#SVGID_101_"  overflow="visible"/>
		</clipPath>
		<g opacity="0.2" clip-path="url(#SVGID_102_)">
			<g>
				<defs>
					<rect id="SVGID_103_" x="19.436" y="708.628" width="173.458" height="195.24"/>
				</defs>
				<clipPath id="SVGID_104_">
					<use xlink:href="#SVGID_103_"  overflow="visible"/>
				</clipPath>
				<polygon clip-path="url(#SVGID_104_)" fill="#FFFFFF" points="192.877,859.829 106.588,903.868 19.436,859.667 19.559,756.436 
					106.532,708.628 192.894,756.622 				"/>
			</g>
		</g>
		<g opacity="0.2" clip-path="url(#SVGID_102_)">
			<g>
				<defs>
					<rect id="SVGID_105_" x="4.848" y="321.612" width="197.396" height="220.806"/>
				</defs>
				<clipPath id="SVGID_106_">
					<use xlink:href="#SVGID_105_"  overflow="visible"/>
				</clipPath>
				<polygon clip-path="url(#SVGID_106_)" fill="none" stroke="#FFFFFF" stroke-width="5" stroke-miterlimit="10" points="
					198.486,492.106 102.879,539.612 7.366,489.873 8.723,376.12 105.131,324.467 199.728,378.377 				"/>
			</g>
		</g>
	</g>
	<polygon clip-path="url(#SVGID_2_)" fill="none" stroke="#FFFFFF" stroke-width="2" stroke-miterlimit="10" points="
		1025.37,351.418 960.5,384.526 894.982,351.296 895.074,273.69 960.459,237.75 1025.383,273.83 	"/>
	<polygon clip-path="url(#SVGID_2_)" fill="none" stroke="#FFFFFF" stroke-width="2" stroke-miterlimit="10" points="
		549.844,153.186 484.974,186.294 419.456,153.065 419.548,75.459 484.933,39.518 549.856,75.598 	"/>
	<polygon clip-path="url(#SVGID_2_)" fill="none" stroke="#FFFFFF" stroke-width="4" stroke-miterlimit="10" points="
		1004.92,173.151 931.221,210.765 856.787,173.014 856.892,84.847 931.174,44.014 1004.934,85.004 	"/>
	<g clip-path="url(#SVGID_2_)">
		<g opacity="0.2">
			<g>
				<defs>
					<rect id="SVGID_107_" x="-3.801" y="-1.333" width="1204.801" height="802.666"/>
				</defs>
				<clipPath id="SVGID_108_">
					<use xlink:href="#SVGID_107_"  overflow="visible"/>
				</clipPath>
				<g clip-path="url(#SVGID_108_)">
					<defs>
						<rect id="SVGID_109_" x="-3.801" y="-1.333" width="1204.801" height="802.666"/>
					</defs>
					<clipPath id="SVGID_110_">
						<use xlink:href="#SVGID_109_"  overflow="visible"/>
					</clipPath>
					<defs>
						
							<filter id="Adobe_OpacityMaskFilter_4_" filterUnits="userSpaceOnUse" x="-351.366" y="-523.027" width="1899.93" height="1846.054">
							<feColorMatrix  type="matrix" values="1 0 0 0 0  0 1 0 0 0  0 0 1 0 0  0 0 0 1 0"/>
						</filter>
					</defs>
					<mask maskUnits="userSpaceOnUse" x="-351.366" y="-523.027" width="1899.93" height="1846.054" id="SVGID_111_">
						<g filter="url(#Adobe_OpacityMaskFilter_4_)">
							
								<linearGradient id="SVGID_112_" gradientUnits="userSpaceOnUse" x1="0" y1="800" x2="1" y2="800" gradientTransform="matrix(648.7648 -1123.6937 -1123.6937 -648.7648 899229 519973.8125)">
								<stop  offset="0" style="stop-color:#000000"/>
								<stop  offset="0.0023" style="stop-color:#000000"/>
								<stop  offset="0.0901" style="stop-color:#101010"/>
								<stop  offset="0.2625" style="stop-color:#3B3B3B"/>
								<stop  offset="0.5028" style="stop-color:#808080"/>
								<stop  offset="0.7989" style="stop-color:#DDDDDD"/>
								<stop  offset="0.9002" style="stop-color:#FFFFFF"/>
								<stop  offset="1" style="stop-color:#FFFFFF"/>
							</linearGradient>
							<polygon clip-path="url(#SVGID_110_)" fill="url(#SVGID_112_)" points="-351.366,600.667 297.399,-523.027 1548.564,199.333 
								899.8,1323.027 							"/>
						</g>
					</mask>
					
						<linearGradient id="SVGID_113_" gradientUnits="userSpaceOnUse" x1="9.765625e-04" y1="800" x2="1.001" y2="800" gradientTransform="matrix(648.7648 -1123.6938 -1123.6938 -648.7648 899229.0625 519973.875)">
						<stop  offset="0" style="stop-color:#FFFFFF"/>
						<stop  offset="0.0023" style="stop-color:#FFFFFF"/>
						<stop  offset="0.0898" style="stop-color:#EFEFEF"/>
						<stop  offset="0.2614" style="stop-color:#C4C4C4"/>
						<stop  offset="0.5003" style="stop-color:#808080"/>
						<stop  offset="0.7946" style="stop-color:#232323"/>
						<stop  offset="0.9002" style="stop-color:#000000"/>
						<stop  offset="1" style="stop-color:#000000"/>
					</linearGradient>
					<polygon clip-path="url(#SVGID_110_)" mask="url(#SVGID_111_)" fill="url(#SVGID_113_)" points="-351.366,600.667 
						297.399,-523.027 1548.564,199.333 899.8,1323.027 					"/>
				</g>
			</g>
		</g>
	</g>
	<g clip-path="url(#SVGID_2_)">
		<path fill="#9D9D9C" d="M377.907,644.6h3.384v0.744h-3.384V644.6z"/>
	</g>
</g>
</svg>
