<?xml version="1.0" encoding="utf-8"?>
<!-- Generator: Adobe Illustrator 15.1.0, SVG Export Plug-In . SVG Version: 6.00 Build 0)  -->
<!DOCTYPE svg PUBLIC "-//W3C//DTD SVG 1.1//EN" "http://www.w3.org/Graphics/SVG/1.1/DTD/svg11.dtd">
<svg version="1.1" id="Layer_1" xmlns="http://www.w3.org/2000/svg" xmlns:xlink="http://www.w3.org/1999/xlink" x="0px" y="0px"
	 width="115.304px" height="25.94px" viewBox="0 0 115.304 25.94" enable-background="new 0 0 115.304 25.94" xml:space="preserve">
<g>
	<g opacity="0.7">
		<path fill="#FFFFFF" d="M33.232,24.443c0-0.047,0.023-0.141,0.069-0.279l7.126-23.148C40.631,0.339,41.224,0,42.202,0
			c0.979,0,1.571,0.342,1.775,1.023l7.151,23.232c0,0.044,0.005,0.088,0.018,0.131c0.011,0.043,0.017,0.076,0.017,0.098
			c0,0.306-0.191,0.578-0.573,0.818c-0.384,0.239-0.797,0.359-1.237,0.359c-0.558,0-0.904-0.22-1.044-0.658l-1.533-5.157h-9.212
			l-1.527,5.138c-0.137,0.451-0.49,0.678-1.06,0.678c-0.411,0-0.804-0.117-1.181-0.35C33.419,25.082,33.232,24.791,33.232,24.443z
			 M38.288,17.409h7.769L42.184,4.293L38.288,17.409z"/>
		<path fill="#FFFFFF" d="M48.607,1.498c0-0.34,0.092-0.639,0.278-0.899c0.186-0.26,0.44-0.39,0.767-0.39h14.171
			c0.325,0,0.579,0.13,0.766,0.39c0.186,0.261,0.278,0.56,0.278,0.899c0,0.362-0.093,0.679-0.278,0.95
			c-0.187,0.271-0.44,0.407-0.766,0.407h-5.606v21.758c0,0.326-0.145,0.583-0.436,0.77c-0.29,0.186-0.633,0.279-1.027,0.279
			s-0.736-0.094-1.026-0.279c-0.29-0.187-0.435-0.443-0.435-0.77V2.855h-5.641c-0.326,0-0.581-0.131-0.767-0.391
			C48.699,2.205,48.607,1.883,48.607,1.498z"/>
		<path fill="#FFFFFF" d="M67.002,24.617V1.219c0-0.324,0.145-0.574,0.435-0.749s0.632-0.261,1.026-0.261S69.2,0.295,69.491,0.47
			c0.289,0.175,0.435,0.425,0.435,0.749v21.797h9.505c0.301,0,0.535,0.133,0.697,0.4s0.242,0.574,0.242,0.923
			c0,0.348-0.08,0.655-0.242,0.923c-0.162,0.267-0.396,0.4-0.697,0.4H68.324c-0.348,0-0.656-0.093-0.922-0.279
			C67.135,25.197,67.002,24.943,67.002,24.617z"/>
		<path fill="#FFFFFF" d="M81.416,24.443c0-0.047,0.023-0.141,0.07-0.279l7.125-23.148C88.816,0.339,89.408,0,90.386,0
			s1.57,0.342,1.775,1.023l7.15,23.232c0,0.044,0.006,0.088,0.018,0.131s0.018,0.076,0.018,0.098c0,0.306-0.191,0.578-0.574,0.818
			c-0.383,0.239-0.795,0.359-1.236,0.359c-0.557,0-0.906-0.22-1.045-0.658l-1.531-5.157h-9.213l-1.527,5.138
			c-0.137,0.451-0.49,0.678-1.061,0.678c-0.41,0-0.805-0.117-1.18-0.35C81.603,25.082,81.416,24.791,81.416,24.443z M86.472,17.409
			h7.768L90.367,4.293L86.472,17.409z"/>
		<path fill="#FFFFFF" d="M100.296,22.075c0-0.371,0.133-0.731,0.4-1.079c0.268-0.35,0.562-0.523,0.889-0.523
			c0.209,0,0.475,0.146,0.801,0.436c0.324,0.291,0.662,0.616,1.01,0.976c0.348,0.36,0.893,0.685,1.637,0.975
			c0.742,0.29,1.578,0.436,2.506,0.436c1.51,0,2.693-0.366,3.553-1.097c0.857-0.732,1.287-1.805,1.287-3.221
			c0-1.277-0.395-2.316-1.184-3.117s-1.74-1.41-2.855-1.827c-1.113-0.418-2.232-0.864-3.359-1.341
			c-1.125-0.476-2.084-1.207-2.873-2.193s-1.184-2.258-1.184-3.812c0-1.221,0.232-2.282,0.697-3.186
			c0.463-0.902,1.084-1.584,1.861-2.041c0.779-0.457,1.586-0.792,2.42-1.003c0.836-0.212,1.73-0.316,2.682-0.316
			c1.439,0,2.814,0.208,4.127,0.625c1.311,0.417,1.967,0.996,1.967,1.735c0,0.326-0.117,0.676-0.348,1.049
			c-0.232,0.373-0.535,0.56-0.906,0.56c-0.092,0-0.627-0.221-1.602-0.661c-0.975-0.441-2.055-0.662-3.238-0.662
			c-1.416,0-2.559,0.291-3.43,0.871s-1.305,1.497-1.305,2.75c0,1.068,0.395,1.934,1.184,2.595c0.787,0.661,1.746,1.189,2.873,1.584
			c1.125,0.396,2.244,0.848,3.359,1.357c1.113,0.512,2.066,1.329,2.855,2.455s1.184,2.56,1.184,4.3c0,2.393-0.697,4.197-2.09,5.416
			c-1.393,1.218-3.238,1.826-5.535,1.826c-2.066,0-3.812-0.433-5.24-1.299C101.011,23.773,100.296,22.918,100.296,22.075z"/>
	</g>
	<path opacity="0.7" fill="#FFFFFF" d="M6.263,8.561c0.279,0,0.552,0.041,0.807,0.12c0.965-1.082,2.036-2.067,3.195-2.94
		c-0.049-0.203-0.076-0.418-0.076-0.637c0-0.304,0.05-0.596,0.143-0.869c-1.3-0.93-2.712-1.712-4.215-2.314
		C4.71,2.789,3.482,3.923,2.502,5.252c0.727,1.289,1.59,2.488,2.573,3.58C5.434,8.658,5.836,8.561,6.263,8.561L6.263,8.561z"/>
	<path opacity="0.7" fill="#FFFFFF" d="M3.521,11.3c0-0.385,0.082-0.751,0.223-1.082C2.866,9.25,2.069,8.207,1.372,7.098
		C0.497,8.836,0,10.801,0,12.881c0,2.406,0.664,4.658,1.812,6.586c0.412-2.314,1.191-4.506,2.268-6.512
		C3.73,12.496,3.521,11.92,3.521,11.3L3.521,11.3z"/>
	<path opacity="0.7" fill="#FFFFFF" d="M12.929,2.365c0.724,0,1.378,0.28,1.871,0.74c1.429-0.615,2.934-1.088,4.5-1.389
		C17.409,0.625,15.216,0,12.879,0c-1.594,0-3.121,0.293-4.53,0.823c1.118,0.554,2.185,1.196,3.187,1.925
		C11.945,2.504,12.419,2.365,12.929,2.365z"/>
	<path opacity="0.7" fill="#FFFFFF" d="M17.025,15.27c0.171-0.355,0.413-0.67,0.713-0.918c-0.81-2.487-2.091-4.765-3.741-6.723
		c-0.328,0.139-0.689,0.215-1.07,0.215c-0.595,0-1.142-0.191-1.591-0.512c-0.994,0.755-1.914,1.601-2.75,2.524
		C8.85,10.275,9.003,10.77,9.003,11.3c0,0.284-0.044,0.56-0.126,0.821C11.28,13.725,14.048,14.828,17.025,15.27z"/>
	<path opacity="0.7" fill="#FFFFFF" d="M20.58,18.971c0.037,0.519,0.058,1.041,0.058,1.568c0,0.93-0.059,1.846-0.171,2.746
		c2.184-1.596,3.847-3.861,4.685-6.494c-0.994,0.24-2.013,0.412-3.053,0.51C21.856,18.053,21.298,18.658,20.58,18.971L20.58,18.971z
		"/>
	<path opacity="0.7" fill="#FFFFFF" d="M16.384,17.112c-3.181-0.528-6.126-1.741-8.693-3.478c-0.417,0.255-0.905,0.404-1.429,0.404
		c-0.194,0-0.381-0.02-0.562-0.057c-1.229,2.326-2.014,4.923-2.239,7.678c1.226,1.314,2.721,2.375,4.403,3.086
		C9.952,21.536,12.869,18.881,16.384,17.112L16.384,17.112z"/>
	<path opacity="0.7" fill="#FFFFFF" d="M21.524,3.333c-2.064,0.2-4.036,0.72-5.869,1.495c0.008,0.093,0.013,0.184,0.013,0.275
		c0,0.434-0.104,0.84-0.281,1.203c1.835,2.154,3.258,4.662,4.156,7.406c1.116,0.023,2.068,0.703,2.478,1.674
		c1.241-0.127,2.447-0.365,3.609-0.705c0.084-0.589,0.129-1.19,0.129-1.803C25.757,9.094,24.125,5.689,21.524,3.333L21.524,3.333z"
		/>
	<path opacity="0.7" fill="#FFFFFF" d="M17.763,18.575c-3.281,1.537-6.025,3.904-8.012,6.798c1.001,0.25,2.048,0.385,3.127,0.385
		c1.941,0,3.783-0.432,5.435-1.202c0.266-1.3,0.405-2.642,0.405-4.017c0-0.497-0.022-0.989-0.06-1.477
		C18.329,18.956,18.025,18.793,17.763,18.575L17.763,18.575z"/>
</g>
</svg>
