<?xml version="1.0" encoding="utf-8"?>
<!-- Generator: Adobe Illustrator 15.1.0, SVG Export Plug-In . SVG Version: 6.00 Build 0)  -->
<!DOCTYPE svg PUBLIC "-//W3C//DTD SVG 1.1//EN" "http://www.w3.org/Graphics/SVG/1.1/DTD/svg11.dtd">
<svg version="1.1" id="Layer_1" xmlns="http://www.w3.org/2000/svg" xmlns:xlink="http://www.w3.org/1999/xlink" x="0px" y="0px"
	 width="155.684px" height="25px" viewBox="0 0 155.684 25" enable-background="new 0 0 155.684 25" xml:space="preserve">
<g>
	<g>
		<path fill="#FFFFFF" d="M49.764,5.927l0.381-5.837h20.168l-0.031,5.758l-1.836,0.206l-1.046-3.322l-4.854-0.38v19.914l3.812,0.587
			v1.804H54.289v-1.804l3.764-0.571V2.352l-4.951,0.38L52.01,5.832L49.764,5.927z"/>
		<path fill="#FFFFFF" d="M72.084,24.656v-1.804l2.926-0.587V2.559L72.1,2.226V0.09h10.266v2.136l-2.8,0.348V22.25l2.958,0.603
			v1.804H72.084z"/>
		<path fill="#FFFFFF" d="M84.343,5.927l0.38-5.837h20.168l-0.031,5.758l-1.836,0.206l-1.045-3.322l-4.854-0.38v19.914l3.812,0.587
			v1.804H88.867v-1.804l3.765-0.571V2.352l-4.951,0.38L86.59,5.832L84.343,5.927z"/>
		<path fill="#FFFFFF" d="M105.523,24.656v-1.82l2.168-0.57l7.987-22.176h4.145l7.704,22.176l2.451,0.587v1.804h-9.744v-1.804
			l2.326-0.619l-1.092-3.573h-9.017l-1.123,3.541l2.483,0.635v1.82H105.523z M113.243,16.193h7.45l-2.31-7.451l-1.313-4.523
			L113.243,16.193z"/>
		<path fill="#FFFFFF" d="M131.45,24.656v-1.804l2.578-0.619V2.765l-2.468-0.317V0.09h6.992l9.98,16.914l1.771,4.133V2.797
			l-2.752-0.382V0.09h8.131v2.325l-2.373,0.333v21.908h-4.919l-9.412-15.374l-1.897-4.39v17.309l3.146,0.651v1.804H131.45z"/>
	</g>
	<g>
		<rect x="23" fill="#8BA6CA" width="23" height="25"/>
		<rect x="16" y="21" fill="#CD2026" width="30" height="4"/>
		<rect x="17" fill="#CD2026" width="29" height="4"/>
		<rect x="10" fill="#CD2026" width="5" height="4"/>
		<rect x="4" fill="#CD2026" width="4" height="4"/>
		<rect fill="#CD2026" width="2" height="4"/>
		<rect x="14" y="7" fill="#CD2026" width="32" height="4"/>
		<rect x="9" y="7" fill="#CD2026" width="2" height="4"/>
		<rect x="17" y="14" fill="#CD2026" width="29" height="4"/>
		<rect x="11" y="14" fill="#CD2026" width="4" height="4"/>
		<rect x="7" y="14" fill="#CD2026" width="2" height="4"/>
		<polygon fill="#FFFFFF" points="35.014,5.244 37.406,10.091 42.752,10.867 38.884,14.639 39.797,19.963 35.014,17.449 
			30.232,19.963 31.146,14.639 27.277,10.867 32.623,10.091 		"/>
	</g>
</g>
</svg>
