<?xml version="1.0" encoding="utf-8"?>
<!-- Generator: Adobe Illustrator 15.1.0, SVG Export Plug-In . SVG Version: 6.00 Build 0)  -->
<!DOCTYPE svg PUBLIC "-//W3C//DTD SVG 1.1//EN" "http://www.w3.org/Graphics/SVG/1.1/DTD/svg11.dtd">
<svg version="1.1" id="Layer_1" xmlns="http://www.w3.org/2000/svg" xmlns:xlink="http://www.w3.org/1999/xlink" x="0px" y="0px"
	 width="1579px" height="238.634px" viewBox="0 0 1579 238.634" enable-background="new 0 0 1579 238.634" xml:space="preserve">
<g>
	<g>
		<path fill="#8BA6CA" d="M0.448,59.956l0.721-0.962c0.334,0.344,0.732,0.647,1.195,0.909s1.031,0.394,1.705,0.394
			c0.346,0,0.672-0.062,0.98-0.188s0.576-0.302,0.804-0.529c0.229-0.228,0.409-0.501,0.541-0.822
			c0.132-0.32,0.198-0.679,0.198-1.075c0-0.787-0.223-1.401-0.667-1.841s-1.04-0.66-1.783-0.66c-0.398,0-0.738,0.06-1.019,0.179
			c-0.281,0.12-0.594,0.29-0.939,0.512l-0.791-0.497l0.374-5.502h5.739v1.257H3.047l-0.308,3.4c0.276-0.146,0.553-0.26,0.832-0.342
			c0.279-0.082,0.592-0.123,0.938-0.123c0.493,0,0.955,0.072,1.387,0.215s0.811,0.36,1.136,0.652
			c0.326,0.292,0.583,0.663,0.771,1.112c0.188,0.449,0.282,0.984,0.282,1.603c0,0.623-0.108,1.177-0.325,1.662
			s-0.505,0.892-0.866,1.221s-0.772,0.582-1.235,0.758s-0.946,0.265-1.45,0.265c-0.457,0-0.875-0.046-1.252-0.138
			s-0.719-0.211-1.024-0.357c-0.305-0.146-0.58-0.314-0.826-0.505C0.861,60.364,0.642,60.164,0.448,59.956z"/>
		<path fill="#8BA6CA" d="M0.299,101.37v-0.983l4.913-7.34h1.652v7.119h1.582v1.204H6.864v3.164H5.476v-3.164H0.299z M1.872,100.166
			h3.604v-3.318c0-0.31,0.009-0.679,0.026-1.106c0.017-0.427,0.038-0.796,0.061-1.106h-0.07c-0.146,0.275-0.297,0.544-0.453,0.808
			c-0.155,0.264-0.318,0.533-0.488,0.808L1.872,100.166z"/>
		<path fill="#8BA6CA" d="M0.466,146.304l0.756-0.961c0.346,0.354,0.75,0.67,1.213,0.943c0.463,0.274,1.037,0.411,1.723,0.411
			c0.697,0,1.267-0.188,1.709-0.564c0.442-0.375,0.664-0.883,0.664-1.523c0-0.332-0.063-0.64-0.189-0.922
			c-0.126-0.283-0.333-0.525-0.62-0.73c-0.287-0.203-0.665-0.357-1.134-0.463c-0.469-0.104-1.043-0.156-1.723-0.156v-1.117
			c0.613,0,1.126-0.054,1.542-0.162c0.415-0.109,0.752-0.262,1.012-0.455c0.259-0.194,0.443-0.424,0.552-0.689
			c0.109-0.264,0.164-0.547,0.164-0.847c0-0.565-0.177-1.011-0.532-1.337c-0.354-0.327-0.836-0.49-1.446-0.49
			c-0.48,0-0.921,0.108-1.323,0.326s-0.775,0.5-1.121,0.848l-0.8-0.936c0.445-0.422,0.935-0.769,1.468-1.038
			c0.533-0.271,1.143-0.405,1.828-0.405c0.504,0,0.966,0.066,1.388,0.199c0.421,0.132,0.783,0.321,1.084,0.568
			c0.301,0.246,0.534,0.551,0.699,0.912s0.248,0.776,0.248,1.246c0,0.698-0.192,1.269-0.576,1.711
			c-0.384,0.443-0.886,0.785-1.507,1.025v0.068c0.346,0.082,0.669,0.204,0.971,0.367c0.302,0.162,0.565,0.365,0.791,0.61
			c0.226,0.244,0.401,0.526,0.527,0.846s0.189,0.677,0.189,1.072c0,0.507-0.098,0.964-0.294,1.372
			c-0.196,0.41-0.466,0.756-0.809,1.037c-0.343,0.283-0.743,0.501-1.2,0.654c-0.457,0.152-0.949,0.229-1.477,0.229
			c-0.457,0-0.875-0.045-1.252-0.138s-0.722-0.214-1.033-0.366c-0.311-0.15-0.589-0.325-0.835-0.521
			C0.879,146.732,0.659,146.523,0.466,146.304z"/>
		<path fill="#8BA6CA" d="M0.65,180.977c0.48-0.527,0.99-0.949,1.529-1.266s1.187-0.475,1.942-0.475
			c1.066,0,1.903,0.309,2.509,0.928s0.91,1.439,0.91,2.459c0,0.541-0.117,1.084-0.352,1.629c-0.234,0.547-0.558,1.111-0.971,1.695
			s-0.905,1.191-1.477,1.822s-1.197,1.302-1.876,2.012c0.311-0.023,0.634-0.047,0.971-0.069s0.655-0.034,0.954-0.034h3.331v1.256
			H0.703v-0.866c0.864-0.862,1.634-1.643,2.31-2.341c0.676-0.697,1.242-1.344,1.698-1.939s0.804-1.143,1.044-1.641
			c0.241-0.499,0.362-0.982,0.362-1.452c0-0.663-0.18-1.205-0.541-1.624c-0.36-0.42-0.904-0.631-1.63-0.631
			c-0.48,0-0.926,0.136-1.336,0.406c-0.41,0.27-0.782,0.598-1.116,0.985L0.65,180.977z"/>
		<path fill="#8BA6CA" d="M1.441,234.134v-1.204h2.61v-8.481H1.978v-0.967c0.524-0.092,0.98-0.206,1.368-0.345
			c0.388-0.137,0.739-0.301,1.053-0.49h1.147v10.283h2.355v1.204H1.441z"/>
	</g>
	<g>
		
			<polyline fill="none" stroke="#FDB81E" stroke-width="2" stroke-linecap="round" stroke-linejoin="round" stroke-miterlimit="10" points="
			47.5,237.334 136,192.334 232,102.318 341.334,147.326 542,127.334 675,157.334 819,82.326 990,122.334 1072,88.334 
			1226.523,159.83 1389,113.334 1462,159.83 1578,207.334 		"/>
		
			<circle fill="#323A45" stroke="#FDB81E" stroke-width="2" stroke-linecap="round" stroke-linejoin="round" stroke-miterlimit="10" cx="135.334" cy="191.667" r="6.667"/>
		
			<circle fill="#323A45" stroke="#FDB81E" stroke-width="2" stroke-linecap="round" stroke-linejoin="round" stroke-miterlimit="10" cx="232.334" cy="102.667" r="6.667"/>
		
			<circle fill="#323A45" stroke="#FDB81E" stroke-width="2" stroke-linecap="round" stroke-linejoin="round" stroke-miterlimit="10" cx="341.334" cy="147.667" r="6.667"/>
		
			<circle fill="#323A45" stroke="#FDB81E" stroke-width="2" stroke-linecap="round" stroke-linejoin="round" stroke-miterlimit="10" cx="541.334" cy="126.667" r="6.667"/>
		
			<circle fill="#323A45" stroke="#FDB81E" stroke-width="2" stroke-linecap="round" stroke-linejoin="round" stroke-miterlimit="10" cx="675.334" cy="156.667" r="6.667"/>
		
			<circle fill="#323A45" stroke="#FDB81E" stroke-width="2" stroke-linecap="round" stroke-linejoin="round" stroke-miterlimit="10" cx="819.334" cy="82.667" r="6.667"/>
		
			<circle fill="#323A45" stroke="#FDB81E" stroke-width="2" stroke-linecap="round" stroke-linejoin="round" stroke-miterlimit="10" cx="989.334" cy="121.667" r="6.667"/>
		
			<circle fill="#323A45" stroke="#FDB81E" stroke-width="2" stroke-linecap="round" stroke-linejoin="round" stroke-miterlimit="10" cx="1072.334" cy="88.667" r="6.667"/>
		
			<circle fill="#323A45" stroke="#FDB81E" stroke-width="2" stroke-linecap="round" stroke-linejoin="round" stroke-miterlimit="10" cx="1226.334" cy="159.667" r="6.667"/>
		
			<circle fill="#323A45" stroke="#FDB81E" stroke-width="2" stroke-linecap="round" stroke-linejoin="round" stroke-miterlimit="10" cx="1389.334" cy="113.667" r="6.667"/>
		
			<circle fill="#323A45" stroke="#FDB81E" stroke-width="2" stroke-linecap="round" stroke-linejoin="round" stroke-miterlimit="10" cx="1462.334" cy="159.667" r="6.667"/>
	</g>
	<g>
		
			<polyline fill="none" stroke="#94BFA2" stroke-width="2" stroke-linecap="round" stroke-linejoin="round" stroke-miterlimit="10" points="
			47.5,197.334 135.334,66.084 232.334,185 341.334,210.334 541.334,52.834 675.334,133.334 819.334,136.584 989.334,217.154 
			1072.334,7.584 1226.334,85.334 1389,73.334 1462.334,133.334 1578,118.668 		"/>
		
			<circle fill="#323A45" stroke="#94BFA2" stroke-width="2" stroke-linecap="round" stroke-linejoin="round" stroke-miterlimit="10" cx="135.334" cy="65.667" r="6.667"/>
		
			<circle fill="#323A45" stroke="#94BFA2" stroke-width="2" stroke-linecap="round" stroke-linejoin="round" stroke-miterlimit="10" cx="232.334" cy="184.667" r="6.667"/>
		
			<circle fill="#323A45" stroke="#94BFA2" stroke-width="2" stroke-linecap="round" stroke-linejoin="round" stroke-miterlimit="10" cx="341.334" cy="210.667" r="6.667"/>
		
			<circle fill="#323A45" stroke="#94BFA2" stroke-width="2" stroke-linecap="round" stroke-linejoin="round" stroke-miterlimit="10" cx="541.334" cy="52.667" r="6.667"/>
		
			<circle fill="#323A45" stroke="#94BFA2" stroke-width="2" stroke-linecap="round" stroke-linejoin="round" stroke-miterlimit="10" cx="675.334" cy="133.667" r="6.667"/>
		
			<circle fill="#323A45" stroke="#94BFA2" stroke-width="2" stroke-linecap="round" stroke-linejoin="round" stroke-miterlimit="10" cx="819.334" cy="135.667" r="6.667"/>
		
			<circle fill="#323A45" stroke="#94BFA2" stroke-width="2" stroke-linecap="round" stroke-linejoin="round" stroke-miterlimit="10" cx="989.334" cy="216.667" r="6.667"/>
		
			<circle fill="#323A45" stroke="#94BFA2" stroke-width="2" stroke-linecap="round" stroke-linejoin="round" stroke-miterlimit="10" cx="1072.334" cy="7.667" r="6.667"/>
		
			<circle fill="#323A45" stroke="#94BFA2" stroke-width="2" stroke-linecap="round" stroke-linejoin="round" stroke-miterlimit="10" cx="1226.334" cy="84.667" r="6.667"/>
		
			<circle fill="#323A45" stroke="#94BFA2" stroke-width="2" stroke-linecap="round" stroke-linejoin="round" stroke-miterlimit="10" cx="1389.334" cy="73.667" r="6.667"/>
		
			<circle fill="#323A45" stroke="#94BFA2" stroke-width="2" stroke-linecap="round" stroke-linejoin="round" stroke-miterlimit="10" cx="1462.334" cy="133.667" r="6.667"/>
	</g>
	<g>
		<g>
			<g>
				
					<line fill="none" stroke="#205493" stroke-width="2" stroke-linecap="round" stroke-linejoin="round" x1="47.5" y1="95.334" x2="49.708" y2="98.669"/>
				
					<line fill="none" stroke="#205493" stroke-width="2" stroke-linecap="round" stroke-linejoin="round" stroke-dasharray="7.953,7.953" x1="54.099" y1="105.301" x2="130.931" y2="221.349"/>
				<polyline fill="none" stroke="#205493" stroke-width="2" stroke-linecap="round" stroke-linejoin="round" points="
					133.126,224.665 135.334,228 138.351,225.374 				"/>
				
					<line fill="none" stroke="#205493" stroke-width="2" stroke-linecap="round" stroke-linejoin="round" stroke-dasharray="8.034,8.034" x1="144.411" y1="220.099" x2="335.287" y2="53.932"/>
				<polyline fill="none" stroke="#205493" stroke-width="2" stroke-linecap="round" stroke-linejoin="round" points="
					338.317,51.294 341.334,48.668 344.804,50.658 				"/>
				
					<line fill="none" stroke="#205493" stroke-width="2" stroke-linecap="round" stroke-linejoin="round" stroke-dasharray="8.2422,8.2422" x1="351.955" y1="54.757" x2="534.289" y2="159.295"/>
				<polyline fill="none" stroke="#205493" stroke-width="2" stroke-linecap="round" stroke-linejoin="round" points="
					537.864,161.345 541.334,163.334 544.908,161.538 				"/>
				
					<line fill="none" stroke="#205493" stroke-width="2" stroke-linecap="round" stroke-linejoin="round" stroke-dasharray="8.351,8.351" x1="552.37" y1="157.788" x2="668.029" y2="99.671"/>
				<polyline fill="none" stroke="#205493" stroke-width="2" stroke-linecap="round" stroke-linejoin="round" points="
					671.76,97.796 675.334,96 678.47,98.483 				"/>
				
					<line fill="none" stroke="#205493" stroke-width="2" stroke-linecap="round" stroke-linejoin="round" stroke-dasharray="8.3649,8.3649" x1="685.029" y1="103.675" x2="812.919" y2="204.921"/>
				<polyline fill="none" stroke="#205493" stroke-width="2" stroke-linecap="round" stroke-linejoin="round" points="
					816.198,207.518 819.334,210 822.129,207.139 				"/>
				
					<line fill="none" stroke="#205493" stroke-width="2" stroke-linecap="round" stroke-linejoin="round" stroke-dasharray="8.1125,8.1125" x1="827.799" y1="201.336" x2="983.704" y2="41.763"/>
				<polyline fill="none" stroke="#205493" stroke-width="2" stroke-linecap="round" stroke-linejoin="round" points="
					986.539,38.861 989.334,36 993.104,37.336 				"/>
				
					<polyline fill="none" stroke="#205493" stroke-width="2" stroke-linecap="round" stroke-linejoin="round" stroke-dasharray="8.0903,8.0903" points="
					1000.729,40.039 1226.334,120 1454.741,200.008 				"/>
				<polyline fill="none" stroke="#205493" stroke-width="2" stroke-linecap="round" stroke-linejoin="round" points="
					1458.559,201.345 1462.334,202.667 1464.896,199.596 				"/>
				
					<line fill="none" stroke="#205493" stroke-width="2" stroke-linecap="round" stroke-linejoin="round" stroke-dasharray="8.2178,8.2178" x1="1470.16" y1="193.285" x2="1572.806" y2="70.227"/>
				
					<line fill="none" stroke="#205493" stroke-width="2" stroke-linecap="round" stroke-linejoin="round" x1="1575.438" y1="67.072" x2="1578" y2="64"/>
			</g>
		</g>
	</g>
</g>
</svg>
