<?xml version="1.0" encoding="utf-8"?>
<!-- Generator: Adobe Illustrator 15.1.0, SVG Export Plug-In . SVG Version: 6.00 Build 0)  -->
<!DOCTYPE svg PUBLIC "-//W3C//DTD SVG 1.1//EN" "http://www.w3.org/Graphics/SVG/1.1/DTD/svg11.dtd">
<svg version="1.1" id="Capa_1" xmlns="http://www.w3.org/2000/svg" xmlns:xlink="http://www.w3.org/1999/xlink" x="0px" y="0px"
	 width="500px" height="500px" viewBox="0 0 500 500" enable-background="new 0 0 500 500" xml:space="preserve">
<g>
	<path fill="#FFFFFF" d="M278.889,395.684l208.971-209.195c8.094-7.756,12.141-17.311,12.141-28.889
		c0-11.579-4.047-21.133-12.141-28.89l-24.056-24.393c-7.868-7.869-17.536-11.915-28.89-11.915
		c-11.128,0-20.908,3.934-29.227,11.915L250,260.229L94.087,104.316c-7.869-7.869-17.536-11.915-28.89-11.915
		c-11.128,0-20.908,3.934-29.227,11.915l-24.056,24.393C4.047,136.578,0,146.246,0,157.599c0,11.353,3.935,21.021,11.916,28.889
		l208.858,209.195c8.318,7.869,18.098,11.916,29.227,11.916C261.354,407.6,271.021,403.664,278.889,395.684z"/>
</g>
</svg>
