<?xml version="1.0" encoding="utf-8"?>
<!-- Generator: Adobe Illustrator 15.1.0, SVG Export Plug-In . SVG Version: 6.00 Build 0)  -->
<!DOCTYPE svg PUBLIC "-//W3C//DTD SVG 1.1//EN" "http://www.w3.org/Graphics/SVG/1.1/DTD/svg11.dtd">
<svg version="1.1" id="Capa_1" xmlns="http://www.w3.org/2000/svg" xmlns:xlink="http://www.w3.org/1999/xlink" x="0px" y="0px"
	 width="500px" height="500px" viewBox="0 0 500 500" enable-background="new 0 0 500 500" xml:space="preserve">
<g>
	<path fill="#FFFFFF" d="M250,92.401c-11.128,0-20.908,4.047-29.227,11.916L11.916,313.513C3.935,321.381,0,331.049,0,342.402
		s4.047,21.021,11.916,28.889l24.056,24.394c8.318,7.981,18.098,11.915,29.227,11.915c11.354,0,21.021-4.047,28.89-11.915
		L250,239.771l155.688,155.913c8.318,7.981,18.099,11.915,29.227,11.915c11.354,0,21.021-4.047,28.89-11.915l24.056-24.394
		C495.953,363.535,500,353.98,500,342.402s-4.047-21.133-12.141-28.89L278.889,104.317C271.021,96.337,261.354,92.401,250,92.401z"
		/>
</g>
</svg>
