<?xml version="1.0" encoding="utf-8"?>
<!-- Generator: Adobe Illustrator 15.1.0, SVG Export Plug-In . SVG Version: 6.00 Build 0)  -->
<!DOCTYPE svg PUBLIC "-//W3C//DTD SVG 1.1//EN" "http://www.w3.org/Graphics/SVG/1.1/DTD/svg11.dtd">
<svg version="1.1" id="Capa_1" xmlns="http://www.w3.org/2000/svg" xmlns:xlink="http://www.w3.org/1999/xlink" x="0px" y="0px"
	 width="444.82px" height="444.82px" viewBox="0 0 444.82 444.82" enable-background="new 0 0 444.82 444.82" xml:space="preserve">
<g>
	<g>
		<path d="M242.802,196.712L96.662,10.848C89.807,3.615,81.247,0,70.965,0C60.683,0,52.123,3.619,45.268,10.848L23.57,32.264
			c-7.044,7.043-10.566,15.604-10.566,25.692c0,9.897,3.521,18.56,10.566,25.981l98.752,138.473L23.564,361.167
			C16.522,368.21,13,376.772,13,386.861c0,9.896,3.521,18.562,10.564,25.98l21.7,21.412c7.043,7.043,15.612,10.564,25.697,10.564
			c10.089,0,18.656-3.521,25.697-10.564L242.802,248.39c7.047-7.424,10.57-16.084,10.57-25.981
			C253.375,212.321,249.849,203.755,242.802,196.712z"/>
	</g>
	<g>
		<path d="M421.25,196.712L275.109,10.848C268.253,3.615,259.693,0,249.412,0s-18.842,3.619-25.697,10.848l-21.697,21.416
			c-7.045,7.043-10.566,15.604-10.566,25.692c0,9.897,3.521,18.56,10.566,25.981l98.751,138.473l-98.757,138.757
			c-7.043,7.043-10.564,15.604-10.564,25.693c0,9.896,3.521,18.562,10.564,25.98l21.699,21.412
			c7.043,7.043,15.613,10.564,25.697,10.564c10.09,0,18.656-3.521,25.697-10.564L421.25,248.39
			c7.047-7.424,10.57-16.084,10.57-25.981C431.822,212.321,428.296,203.755,421.25,196.712z"/>
	</g>
</g>
</svg>
