<?xml version="1.0" encoding="utf-8"?>
<!-- Generator: Adobe Illustrator 15.1.0, SVG Export Plug-In . SVG Version: 6.00 Build 0)  -->
<!DOCTYPE svg PUBLIC "-//W3C//DTD SVG 1.1//EN" "http://www.w3.org/Graphics/SVG/1.1/DTD/svg11.dtd">
<svg version="1.1" id="Capa_1" xmlns="http://www.w3.org/2000/svg" xmlns:xlink="http://www.w3.org/1999/xlink" x="0px" y="0px"
	 width="85.074px" height="77.603px" viewBox="86.818 -2.519 85.074 77.603" enable-background="new 86.818 -2.519 85.074 77.603"
	 xml:space="preserve">
<g>
	<g>
		<path fill="#003D50" d="M97.264,42.615v16.027c0,8.911,7.877,16.441,17.199,16.441h6.414c2.445,0,4.428-1.982,4.428-4.428V42.615
			h10.363l0.214,28.075c0.02,2.432,1.995,4.394,4.428,4.394h5.321c9.137,0,16.569-7.376,16.569-16.441V42.615h5.265
			c1.79,0,3.406-1.078,4.089-2.733c0.687-1.654,0.308-3.558-0.959-4.824L135.618,0.073c-1.672-1.672-3.896-2.593-6.259-2.593
			c-2.367,0-4.59,0.923-6.263,2.595L109.03,14.142c-0.216-3.052-2.735-5.472-5.843-5.472h-0.037c-3.251,0-5.886,2.635-5.886,5.885
			v10.367c0,0.322,0.044,0.608,0.095,0.892l-9.243,9.243c-1.267,1.267-1.646,3.17-0.96,4.824c0.686,1.655,2.302,2.733,4.092,2.733
			H97.264z"/>
	</g>
</g>
</svg>
