<?xml version="1.0" encoding="utf-8"?>
<!-- Generator: Adobe Illustrator 15.1.0, SVG Export Plug-In . SVG Version: 6.00 Build 0)  -->
<!DOCTYPE svg PUBLIC "-//W3C//DTD SVG 1.1//EN" "http://www.w3.org/Graphics/SVG/1.1/DTD/svg11.dtd">
<svg version="1.1" id="Layer_3" xmlns="http://www.w3.org/2000/svg" xmlns:xlink="http://www.w3.org/1999/xlink" x="0px" y="0px"
	 width="600px" height="600px" viewBox="0 0 600 600" enable-background="new 0 0 600 600" xml:space="preserve">
<g>
	<path fill="#FFFFFF" d="M321.557,408.707l155.932-156.099c6.04-5.788,9.06-12.917,9.06-21.557s-3.02-15.77-9.06-21.557
		l-17.95-18.202c-5.871-5.871-13.085-8.891-21.557-8.891c-8.304,0-15.602,2.936-21.809,8.891L300,307.633L183.659,191.292
		c-5.872-5.871-13.085-8.891-21.557-8.891c-8.304,0-15.602,2.936-21.809,8.891l-17.95,18.202
		c-5.872,5.872-8.891,13.085-8.891,21.557s2.936,15.686,8.891,21.557l155.848,156.099c6.207,5.873,13.505,8.893,21.809,8.893
		C308.472,417.6,315.686,414.662,321.557,408.707z"/>
</g>
</svg>
