<?xml version="1.0" encoding="utf-8"?>
<!-- Generator: Adobe Illustrator 15.1.0, SVG Export Plug-In . SVG Version: 6.00 Build 0)  -->
<!DOCTYPE svg PUBLIC "-//W3C//DTD SVG 1.1//EN" "http://www.w3.org/Graphics/SVG/1.1/DTD/svg11.dtd">
<svg version="1.1" id="Layer_3" xmlns="http://www.w3.org/2000/svg" xmlns:xlink="http://www.w3.org/1999/xlink" x="0px" y="0px"
	 width="100px" height="100px" viewBox="0 0 100 100" enable-background="new 0 0 100 100" xml:space="preserve">
<g>
	<path fill="#FFFFFF" d="M30.958,53.776l27.344,27.312c1.013,1.06,2.263,1.588,3.775,1.588c1.514,0,2.763-0.528,3.776-1.588
		l3.188-3.144c1.028-1.027,1.558-2.292,1.558-3.776c0-1.454-0.515-2.732-1.558-3.82L48.663,50l20.379-20.379
		c1.028-1.028,1.558-2.292,1.558-3.776c0-1.455-0.515-2.733-1.558-3.82l-3.188-3.145c-1.029-1.029-2.291-1.558-3.776-1.558
		c-1.482,0-2.747,0.514-3.775,1.558L30.958,46.18C29.93,47.267,29.4,48.545,29.4,50C29.4,51.483,29.915,52.747,30.958,53.776z"/>
</g>
</svg>
