<?xml version="1.0" encoding="utf-8"?>
<!-- Generator: Adobe Illustrator 15.1.0, SVG Export Plug-In . SVG Version: 6.00 Build 0)  -->
<!DOCTYPE svg PUBLIC "-//W3C//DTD SVG 1.1//EN" "http://www.w3.org/Graphics/SVG/1.1/DTD/svg11.dtd">
<svg version="1.1" id="Layer_3" xmlns="http://www.w3.org/2000/svg" xmlns:xlink="http://www.w3.org/1999/xlink" x="0px" y="0px"
	 width="100px" height="100px" viewBox="0 0 100 100" enable-background="new 0 0 100 100" xml:space="preserve">
<g>
	<path fill="#FFFFFF" d="M68.793,46.273L41.807,19.317c-1-1.044-2.233-1.566-3.727-1.566s-2.726,0.522-3.727,1.566l-3.146,3.103
		c-1.016,1.015-1.537,2.262-1.537,3.727c0,1.435,0.507,2.697,1.537,3.77L51.319,50L31.207,70.113
		c-1.016,1.014-1.537,2.262-1.537,3.727c0,1.436,0.507,2.697,1.537,3.77l3.146,3.104c1.016,1.014,2.262,1.537,3.727,1.537
		s2.712-0.508,3.727-1.537l26.986-26.941c1.015-1.074,1.537-2.336,1.537-3.771C70.33,48.536,69.822,47.289,68.793,46.273z"/>
</g>
</svg>
