<?xml version="1.0" encoding="utf-8"?>
<!-- Generator: Adobe Illustrator 15.1.0, SVG Export Plug-In . SVG Version: 6.00 Build 0)  -->
<!DOCTYPE svg PUBLIC "-//W3C//DTD SVG 1.1//EN" "http://www.w3.org/Graphics/SVG/1.1/DTD/svg11.dtd">
<svg version="1.1" id="Layer_3" xmlns="http://www.w3.org/2000/svg" xmlns:xlink="http://www.w3.org/1999/xlink" x="0px" y="0px"
	 width="600px" height="600px" viewBox="0 0 600 600" enable-background="new 0 0 600 600" xml:space="preserve">
<g>
	<g>
		<path fill="#FFFFFF" d="M315.324,473.278l110.85-110.968c4.293-4.114,6.439-9.184,6.439-15.324c0-6.143-2.146-11.211-6.439-15.325
			l-12.76-12.939c-4.174-4.174-9.303-6.32-15.325-6.32c-5.903,0-11.091,2.087-15.503,6.32L300,401.427l-82.704-82.705
			c-4.175-4.174-9.302-6.32-15.325-6.32c-5.902,0-11.09,2.087-15.503,6.32l-12.761,12.939c-4.174,4.174-6.32,9.302-6.32,15.325
			c0,6.021,2.087,11.149,6.32,15.324l110.79,110.968c4.413,4.175,9.601,6.321,15.503,6.321
			C306.023,479.6,311.15,477.512,315.324,473.278z"/>
	</g>
	<g>
		<path fill="#FFFFFF" d="M300,120.4c-5.902,0-11.09,2.146-15.503,6.321l-110.79,110.968c-4.233,4.175-6.32,9.303-6.32,15.324
			c0,6.023,2.146,11.151,6.32,15.325l12.761,12.939c4.413,4.233,9.601,6.32,15.503,6.32c6.023,0,11.15-2.146,15.325-6.32
			L300,198.573l82.586,82.705c4.412,4.233,9.6,6.32,15.503,6.32c6.022,0,11.151-2.146,15.325-6.32l12.76-12.939
			c4.293-4.114,6.439-9.183,6.439-15.325c0-6.141-2.146-11.21-6.439-15.324l-110.85-110.968C311.15,122.488,306.023,120.4,300,120.4
			z"/>
	</g>
</g>
</svg>
